<svg xmlns="http://www.w3.org/2000/svg" xmlns:xlink="http://www.w3.org/1999/xlink" viewBox="0 0 2240.78 1683.13"><defs><style>.cls-1,.cls-12,.cls-2,.cls-25{fill:none;}.cls-10,.cls-11,.cls-12,.cls-14,.cls-19,.cls-2,.cls-20,.cls-21,.cls-22,.cls-23,.cls-24,.cls-25,.cls-26,.cls-27,.cls-28,.cls-29,.cls-30,.cls-31,.cls-32,.cls-4,.cls-6,.cls-7,.cls-9{stroke:#000;}.cls-2,.cls-25{stroke-linecap:round;}.cls-12,.cls-14,.cls-19,.cls-2,.cls-20,.cls-21,.cls-23,.cls-24,.cls-26,.cls-27,.cls-30,.cls-4,.cls-7,.cls-9{stroke-miterlimit:10;}.cls-2{stroke-width:0.5px;}.cls-3{isolation:isolate;}.cls-4{fill:#debb97;}.cls-10,.cls-11,.cls-12,.cls-14,.cls-19,.cls-20,.cls-21,.cls-22,.cls-23,.cls-24,.cls-25,.cls-26,.cls-27,.cls-28,.cls-29,.cls-30,.cls-31,.cls-32,.cls-4,.cls-6,.cls-7,.cls-9{stroke-width:2px;}.cls-5{opacity:0.17;fill:url(#_10_dpi_20_2);}.cls-13,.cls-15,.cls-5{mix-blend-mode:multiply;}.cls-10,.cls-11,.cls-22,.cls-25,.cls-28,.cls-29,.cls-31,.cls-32,.cls-6{stroke-linejoin:round;}.cls-17,.cls-7{fill:#fff8e6;}.cls-8{opacity:0.21;fill:url(#_10_dpi_20_3);}.cls-18,.cls-9{fill:#fff;}.cls-10{fill:#6b6b6a;}.cls-11{fill:#e0d5e0;}.cls-13,.cls-16{fill:#e6e6e6;}.cls-14{fill:#ead1d3;}.cls-19{fill:#92b193;}.cls-20{fill:#c2ac8f;}.cls-21{fill:#c5d7ea;}.cls-22,.cls-23{fill:#9e7842;}.cls-24,.cls-28{fill:#ce9fb5;}.cls-26{fill:#bd2f56;}.cls-27{fill:#1d1d1b;}.cls-29{fill:#413253;}.cls-30{fill:#eab3d3;}.cls-31{fill:#d20a11;}.cls-32{fill:#729a77;}</style><pattern id="_10_dpi_20_2" data-name="10 dpi 20% 2" width="28.8" height="28.8" patternTransform="translate(255.03 3424.61) scale(4.43)" patternUnits="userSpaceOnUse" viewBox="0 0 28.8 28.8"><rect class="cls-1" width="28.8" height="28.8"/><path class="cls-2" d="M2.75,28.08c.37-.06.71.42,1,.62a3.32,3.32,0,0,1,1.61,2,3.61,3.61,0,0,0,.31,1.53,4.72,4.72,0,0,0,1.28.93c.65.45.51,1.81,1.16,2.26s1.23,1,1.9,1.37A34.67,34.67,0,0,0,14.4,39c1,.41,2.81-.26,3.69.3a10,10,0,0,1,1.71,1.07c.57.56.51,1.1.75,1.81s1.08.92,1.74,1.32a19.14,19.14,0,0,0,1.83,1c.56.27,1.25.4,1.77.7s.25.63,0,1-.48.53.1.83c.28.15.52.3.77.46"/><path class="cls-2" d="M20.75,29c.26.66,1.3.68,1.47,1.45.12.58-.58.82-.32,1.38s1.34.72,2,.84,2,.16,2.4.76c.3.42-.21.8.07,1.13s.87.23,1.14.52.11.39.25.53.55.17.75.47"/><path class="cls-2" d="M5.58,28c0,.8,1.64,1.38,2.07,2s0,1.37.51,2"/><path class="cls-2" d="M17.12,28.42c0,.07,0,.09,0,.14.29.56.94.8,1.14,1.47a1.57,1.57,0,0,1,0,.86c-.16,1,.58,1.15,1.3,1.62"/><path class="cls-2" d="M27.76,21.86c.59.76,1.82,1,2.63,1.49A3.68,3.68,0,0,1,32,25c.64,1,1.61,1.07,2.67,1.49A10,10,0,0,1,37,27.85c.53.4.91,1,1.47,1.34"/><path class="cls-2" d="M26.68,18.53c2.05.6,3.6,1.86,5.4,2.95A26.22,26.22,0,0,1,37,25.32a12.19,12.19,0,0,0,4,2.15c1.22.51,2.1,1.68,3.33,2.06"/><path class="cls-2" d="M26.76,13.78c1.33.5,2.43,1.57,3.81,2a11.41,11.41,0,0,1,4.59,2.72c1.06.93.49,1.1.25,2.11s2,1.35,2.78,1.93c1.36,1,3,1.26,4.45,2.1.81.48,1,1.22,1.68,1.69,1.07.71,2.43,1,3.49,1.75a4.81,4.81,0,0,0,1.95,1"/><path class="cls-2" d="M26.1,8.4c.06.46.39.65.79.95a47.71,47.71,0,0,0,6.26,3.47c2,1,2.34,2,4.24,3.22a14.8,14.8,0,0,1,3.24,2.17c1.32,1.42-.39.83-.72,1.76s3.3,1.71,3.73,1.92c1.23.58,2.85.9,3.94,1.71,1.3.95-.3.86,0,1.81.19.75,2.27,1.23,2.82,1.47A13.63,13.63,0,0,1,52.47,28,10.07,10.07,0,0,0,55,29.53"/><path class="cls-2" d="M28.16,7.22a17.72,17.72,0,0,1,2.21,1.69,28.8,28.8,0,0,0,6.93,3.57A24.26,24.26,0,0,1,42,15.14c1.07.68,2.26,1.07,3.37,1.66.68.36-.16,1.12.29,1.81s2.2.85,2.64,1.41c.85,1.1,3,1.39,3.34,2.82-.61.25-.52.61-.09,1,.85.74,2.42.53,3.44.91a13.38,13.38,0,0,1,2.34,1.55c1,.63,2,1.25,3.05,1.8"/><path class="cls-2" d="M26.05.61c.62-.11,1.61.86,2.11,1.17a26.84,26.84,0,0,0,2.89,1.56,3.54,3.54,0,0,1,1.84,1.25c.42.77-.18,1.82.37,2.4s1.51,2.44,2.37,2.73a38.07,38.07,0,0,1,6.45,3c.78.42,1.49-.78,1.88,0s.65.69,1.3.83a5.93,5.93,0,0,1,3.25,1.37,11.08,11.08,0,0,1,1.19,1.68c.36.61.43,1.34,1,1.78s1.92.29,2.24,1.2c.11.31,0,.31.23.55a6.63,6.63,0,0,0,1.17.65,11,11,0,0,0,1.19.59c.3.12.72.19.91.47"/><path class="cls-2" d="M27.84,16.16a11.69,11.69,0,0,0,1.36.72c.72.42,1.37.86,2.12,1.22s1.56,1.07,2.43,1.44"/><path class="cls-2" d="M24.88,22.58a5.7,5.7,0,0,0,1.53.74c.71.31,1.37.69,2.06,1,.31.15.65.14,1,.27s.72.64,1.17.83"/><path class="cls-2" d="M-1,21.86c.59.76,1.82,1,2.63,1.49A3.68,3.68,0,0,1,3.18,25c.64,1,1.61,1.07,2.67,1.49a10,10,0,0,1,2.31,1.33c.53.4.92,1,1.47,1.34"/><path class="cls-2" d="M-2.12,18.53c2.05.6,3.6,1.86,5.4,2.95a25.9,25.9,0,0,1,4.89,3.84,12.19,12.19,0,0,0,4,2.15c1.22.51,2.1,1.68,3.33,2.06"/><path class="cls-2" d="M-2,13.78c1.33.5,2.43,1.57,3.81,2a11.41,11.41,0,0,1,4.59,2.72c1.06.93.49,1.1.25,2.11s2,1.35,2.78,1.93c1.36,1,3,1.26,4.45,2.1.81.48,1,1.22,1.68,1.69,1.07.71,2.43,1,3.49,1.75a4.81,4.81,0,0,0,1.95,1"/><path class="cls-2" d="M-2.7,8.4c.06.46.39.65.79.95a47.71,47.71,0,0,0,6.26,3.47c2,1,2.34,2,4.24,3.22a14.8,14.8,0,0,1,3.24,2.17c1.32,1.42-.39.83-.72,1.76s3.3,1.71,3.73,1.92c1.23.58,2.85.9,3.94,1.71,1.3.95-.3.86-.05,1.81.19.75,2.27,1.23,2.82,1.47A13.63,13.63,0,0,1,23.67,28a10.07,10.07,0,0,0,2.56,1.57"/><path class="cls-2" d="M-.64,7.22A17.72,17.72,0,0,1,1.57,8.91,28.8,28.8,0,0,0,8.5,12.48a24.26,24.26,0,0,1,4.67,2.66c1.07.68,2.26,1.07,3.37,1.66.68.36-.16,1.12.29,1.81s2.2.85,2.64,1.41c.85,1.1,3,1.39,3.34,2.82-.61.25-.52.61-.09,1,.85.74,2.42.53,3.44.91a13.38,13.38,0,0,1,2.34,1.55c1,.63,2,1.25,3.05,1.8"/><path class="cls-2" d="M-2.75.61c.62-.11,1.61.86,2.12,1.17A25.78,25.78,0,0,0,2.25,3.34,3.54,3.54,0,0,1,4.09,4.59c.42.77-.18,1.82.37,2.4S6,9.43,6.83,9.72a38.07,38.07,0,0,1,6.45,3c.78.42,1.49-.78,1.88,0s.65.69,1.3.83a5.93,5.93,0,0,1,3.25,1.37,11.08,11.08,0,0,1,1.19,1.68c.36.61.43,1.34,1,1.78s1.92.29,2.24,1.2c.11.31,0,.31.23.55a6.63,6.63,0,0,0,1.17.65,12,12,0,0,0,1.19.59c.3.12.72.19.91.47"/><path class="cls-2" d="M2.75-.72c.37-.06.71.42,1,.62a3.32,3.32,0,0,1,1.61,2,3.64,3.64,0,0,0,.31,1.53,4.72,4.72,0,0,0,1.28.93c.65.45.51,1.8,1.16,2.26S9.3,7.61,10,8a34.67,34.67,0,0,0,4.43,2.13c1,.41,2.81-.26,3.69.3a10,10,0,0,1,1.71,1.07c.57.56.51,1.1.75,1.81s1.08.92,1.74,1.32,1.2.7,1.83,1,1.25.4,1.77.7.25.63,0,1-.48.53.1.83c.28.15.52.3.77.46"/><path class="cls-2" d="M9.5.32c.9.5,1.68,1.71,1,2.17s-.83.71,0,1.2c1.14.68.62,1.65,1.84,2.2.75.34,1.51.7,2.28,1a1.31,1.31,0,0,0,1.19,0,3.77,3.77,0,0,1,3.35.32A13.3,13.3,0,0,1,21,8.28a1.12,1.12,0,0,1,.62,1.07c-.08.64-.31,1,.18,1.49a4.54,4.54,0,0,0,1.37.79,1.71,1.71,0,0,1,.72.61c.11.23,0,.39.21.58s.79.21,1.07.35.63.39,1,.53a2,2,0,0,0,.59.12c.4.08.33.16.75.42"/><path class="cls-2" d="M15.21.61c1.06.65-.22,1-.9,2-.57.88-.49,1.09.53,1.37,1.41.38,4.56,1.41,5.93,1.94a6.16,6.16,0,0,1,1.76.92,2.72,2.72,0,0,0,2,.6,2.66,2.66,0,0,1,1.29.38c.33.31.14.82.47,1.21"/><path class="cls-2" d="M20.75.24c.26.66,1.3.68,1.47,1.45.12.58-.58.81-.32,1.38s1.34.72,2,.84,2,.16,2.4.76c.3.42-.21.8.07,1.13s.87.23,1.14.52c.14.14.11.39.25.53s.55.17.75.47"/><path class="cls-2" d="M-1,16.16a11.07,11.07,0,0,0,1.37.72c.71.42,1.36.86,2.11,1.22S4.08,19.17,5,19.54"/><path class="cls-2" d="M23.87,25.87c.3,0,.48.17.73.31.57.31,1.18.52,1.73.87s1.39.8,2.05,1.25a25.15,25.15,0,0,0,3.11,1.57"/><path class="cls-2" d="M5.58-.84c0,.8,1.64,1.38,2.07,2s0,1.37.51,2"/><path class="cls-2" d="M15,8.29a4.38,4.38,0,0,0,1.77.21,5.78,5.78,0,0,1,2.53.7"/><path class="cls-2" d="M17.12-.38c0,.07,0,.09,0,.14.29.56.94.8,1.14,1.47a1.57,1.57,0,0,1,0,.86c-.16,1,.58,1.15,1.3,1.61"/><path class="cls-2" d="M24.66,1.91c.57.43,1.13.87,1.72,1.28s1,.45,1.47.72c1,.49,2.78,1.18,3.19,2.25"/><path class="cls-2" d="M24.66,10.41c1.18,1,2.77,1.31,4,2.17a20.37,20.37,0,0,0,2.22,1.29"/><path class="cls-2" d="M14.33,18.41c.21.46.2,1,.56,1.43a5.09,5.09,0,0,0,1.55.81c.42.21.84.44,1.26.64"/><path class="cls-2" d="M8.41,18.12c0,.36.33.69.4,1.05.14.78,0,.89.6,1.49"/><path class="cls-2" d="M16,23.91a9.58,9.58,0,0,0,1.42,1"/><path class="cls-2" d="M17.45,15.45a3.56,3.56,0,0,1,1.26.91c.41.55.35,1.21,1,1.59"/><path class="cls-2" d="M-3.92,22.58a5.85,5.85,0,0,0,1.53.74c.71.31,1.37.69,2.06,1,.31.15.65.14,1,.27s.72.64,1.17.83"/><path class="cls-2" d="M9.41,24.25c.11.22.37.26.59.35a10.76,10.76,0,0,1,1.6.87,8.4,8.4,0,0,0,1.05.5c.3.14.53.42.84.53"/><path class="cls-2" d="M12.12,1.08c1.09.53.08,1.42.17,2.12"/><path class="cls-2" d="M-29.44,7.22a17.72,17.72,0,0,1,2.21,1.69,28.8,28.8,0,0,0,6.93,3.57,24.26,24.26,0,0,1,4.67,2.66c1.07.68,2.26,1.07,3.37,1.66.68.36-.16,1.12.29,1.81s2.2.85,2.64,1.41c.85,1.1,3,1.39,3.34,2.82-.61.25-.52.61-.09,1,.85.74,2.42.53,3.45.91A13.68,13.68,0,0,1-.3,26.29c1,.63,2,1.25,3.05,1.8"/><path class="cls-2" d="M-4.93,25.87c.3,0,.48.17.73.31.57.31,1.18.52,1.73.87s1.39.8,2.05,1.25a25.15,25.15,0,0,0,3.11,1.57"/><path class="cls-2" d="M-4.14,1.91c.57.43,1.13.87,1.72,1.28a15.56,15.56,0,0,0,1.48.72C0,4.4,1.83,5.09,2.24,6.16"/><path class="cls-2" d="M-4.14,10.41c1.18,1,2.77,1.31,4,2.17a20.37,20.37,0,0,0,2.22,1.29"/><path class="cls-2" d="M27.76-6.94c.59.76,1.82,1,2.63,1.49A3.68,3.68,0,0,1,32-3.77c.64,1,1.61,1.07,2.67,1.49A9.64,9.64,0,0,1,37-.95c.53.4.91,1,1.47,1.34"/><path class="cls-2" d="M26.68-10.27c2.05.6,3.6,1.86,5.4,2.95A26.22,26.22,0,0,1,37-3.48a12,12,0,0,0,4,2.14C42.15-.82,43,.35,44.26.73"/><path class="cls-2" d="M26.76-15c1.33.5,2.43,1.57,3.81,2a11.41,11.41,0,0,1,4.59,2.72c1.06.93.49,1.1.25,2.1s2,1.36,2.78,1.94c1.36,1,3,1.26,4.45,2.1.81.48,1,1.22,1.68,1.69,1.07.71,2.43,1,3.49,1.75a4.81,4.81,0,0,0,1.95,1"/><path class="cls-2" d="M26.1-20.4c.06.46.39.65.79.95A47.71,47.71,0,0,0,33.15-16c2,1.05,2.34,2.05,4.24,3.22a14.8,14.8,0,0,1,3.24,2.17c1.32,1.42-.39.83-.72,1.76s3.3,1.71,3.73,1.92c1.23.58,2.85.9,3.94,1.71,1.3,1-.3.86,0,1.81.19.75,2.27,1.23,2.82,1.47A13.63,13.63,0,0,1,52.47-.84,10.07,10.07,0,0,0,55,.73"/><path class="cls-2" d="M-1-6.94c.59.76,1.82,1,2.63,1.49A3.68,3.68,0,0,1,3.18-3.77c.64,1,1.61,1.07,2.67,1.49A9.64,9.64,0,0,1,8.16-.95c.53.4.92,1,1.47,1.34"/><path class="cls-2" d="M-2.12-10.27c2.05.6,3.6,1.86,5.4,2.95A25.9,25.9,0,0,1,8.17-3.48a12,12,0,0,0,4,2.14c1.22.52,2.1,1.69,3.33,2.07"/><path class="cls-2" d="M-2-15c1.33.5,2.43,1.57,3.81,2a11.41,11.41,0,0,1,4.59,2.72c1.06.93.49,1.1.25,2.1s2,1.36,2.78,1.94c1.36,1,3,1.26,4.45,2.1.81.48,1,1.22,1.68,1.69,1.07.71,2.43,1,3.49,1.75A4.81,4.81,0,0,0,21,.31"/><path class="cls-2" d="M-2.7-20.4c.06.46.39.65.79.95A47.71,47.71,0,0,0,4.35-16c2,1.05,2.34,2.05,4.24,3.22a14.8,14.8,0,0,1,3.24,2.17c1.32,1.42-.39.83-.72,1.76s3.3,1.71,3.73,1.92c1.23.58,2.85.9,3.94,1.71,1.3,1-.3.86-.05,1.81.19.75,2.27,1.23,2.82,1.47A13.63,13.63,0,0,1,23.67-.84,10.07,10.07,0,0,0,26.23.73"/><path class="cls-2" d="M23.87-2.93c.3,0,.48.17.73.31.57.31,1.18.52,1.73.87s1.39.8,2.05,1.25a25.15,25.15,0,0,0,3.11,1.57"/><path class="cls-2" d="M-4.93-2.93c.3,0,.48.17.73.31.57.31,1.18.52,1.73.87S-1.08-.95-.42-.5A25.15,25.15,0,0,0,2.69,1.07"/></pattern><pattern id="_10_dpi_20_3" data-name="10 dpi 20% 3" width="28.8" height="28.8" patternTransform="translate(-766.66 2402.89) scale(4.43)" patternUnits="userSpaceOnUse" viewBox="0 0 28.8 28.8"><rect class="cls-1" width="28.8" height="28.8"/><path class="cls-2" d="M23.92,27.57c-1.44,1.44-2.75,4.34-3.5,6.37"/><path class="cls-2" d="M11.17,28.07a4.73,4.73,0,0,0-1,2"/><path class="cls-2" d="M26.47,20.77c.74.14,1.48.45,2.25.62"/><path class="cls-2" d="M5.29,8.39a14.4,14.4,0,0,1,1.54,2.83,6,6,0,0,0,.39,1.07,10.64,10.64,0,0,0,1,1.22"/><path class="cls-2" d="M23.92-1.23c-1.44,1.44-2.75,4.34-3.5,6.37"/><path class="cls-2" d="M11.42,6.52A20.79,20.79,0,0,0,16.17,4"/><path class="cls-2" d="M15.18,14.41c1.55-1.4,4.19-1.09,6.05-1.81.68-.27,1.23-.85,1.94-.83"/><path class="cls-2" d="M5.29,19.64c-.14,1.85-1.73,3.57-2,5.38"/><path class="cls-2" d="M13.33,20.4c1.8.78,3.59,2.24,5.64,2.38"/><path class="cls-2" d="M26.56,7a16.4,16.4,0,0,1,3.21.87"/><path class="cls-2" d="M-2.33,20.77c.74.14,1.49.45,2.25.62"/><path class="cls-2" d="M11.17-.73a4.73,4.73,0,0,0-1,2"/><path class="cls-2" d="M-2.24,7A16.4,16.4,0,0,1,1,7.89"/></pattern></defs><title>Brand</title><g class="cls-3"><g id="Layer_1" data-name="Layer 1"><ellipse class="cls-4" cx="1120.39" cy="1304.28" rx="811.38" ry="174.97"/><ellipse class="cls-5" cx="1120.39" cy="1304.28" rx="811.38" ry="174.97"/><ellipse class="cls-6" cx="988.9" cy="1263.85" rx="92.02" ry="448.34" transform="translate(-364.88 2125.55) rotate(-84.44)"/><ellipse class="cls-6" cx="562.61" cy="1268.37" rx="49.98" ry="155.03" transform="translate(-754.34 1705.35) rotate(-84.44)"/><path class="cls-7" d="M1368.05,1297.23c-63.48-10.8-145.69-17.32-235.51-17.32s-172,6.52-235.5,17.32H768.54v16.15c0,40.28,163,72.93,364,72.93s364-32.65,364-72.93v-16.15Z"/><path class="cls-8" d="M1368.05,1297.23c-63.48-10.8-145.69-17.32-235.51-17.32s-172,6.52-235.5,17.32H768.54v16.15c0,40.28,163,72.93,364,72.93s364-32.65,364-72.93v-16.15Z"/><ellipse class="cls-9" cx="1132.54" cy="1297.23" rx="364" ry="72.93"/><path class="cls-6" d="M1716.28,1333.47c-14.4,25.67-80.23,25-227-5.8,5.55-8.73,10.89-33.87-.17-45.14-13.56,4-125.08,2.29-124.64-12.79.59-20.23,67.83-13.84,165,3.39C1605,1286.5,1688.38,1312.2,1716.28,1333.47Z"/><path class="cls-10" d="M1526.32,1249.15c-1.72,2.61-6.71,4-9.75,4.5-.17-2.81-.81-5.88-4.33-6.58-7.16-1.43-10.88,6.06-13.82,10.66a27.58,27.58,0,0,1-7.49,7.35c-3.7,2.61-8,4.16-12.34,5.71-4.71,1.69-10,2.94-15.42,2a32.53,32.53,0,0,1-14.47-5.87c-1.9-1.44-4.91-3.89-5.56-6.3a4.37,4.37,0,0,1,.42-2.77,7.77,7.77,0,0,0-2.76,1.37c-3.53,2.89,2.53,8.69,5.49,11.64,5.15,5.12,11.68,5.54,17.86,6.54,7.78,1.25,13.62,1.37,20.7-1.16,8.94-3.17,14.44-11.69,22.47-16.06,6.37-3.48,14.6-1.35,20.46-6.25,3.34-2.8,4.65-7.67,3.81-12.74,0-.24-.11-.47-.16-.7a13.93,13.93,0,0,1-4.34-2.28C1528.3,1242.15,1528.42,1245.93,1526.32,1249.15Z"/><path class="cls-11" d="M1520,1215.43l-35.39,10.62c-.33,3.1-3,5.75-4.55,8.12-2,3.11-4.06,6.23-6.17,9.25s-5,7.43-8.09,9.27c-4.34,2.62-11,2.9-16.08,4-1.87.4-4.15.6-6.14,1.2a4.37,4.37,0,0,0-.42,2.77c.65,2.41,3.66,4.86,5.56,6.3a32.53,32.53,0,0,0,14.47,5.87c5.38.91,10.71-.34,15.42-2,4.32-1.55,8.64-3.1,12.34-5.71a27.58,27.58,0,0,0,7.49-7.35c2.94-4.6,6.66-12.09,13.82-10.66,3.52.7,4.16,3.77,4.33,6.58,3-.45,8-1.89,9.75-4.5,2.1-3.22,2-7,.77-10.91a13.93,13.93,0,0,0,4.34,2.28,22,22,0,0,0-2.44-6.32C1525.4,1227.77,1522.27,1222.73,1520,1215.43Z"/><path class="cls-12" d="M1469.75,1249.66a14.66,14.66,0,0,1,4.68,1.34c3.31,1.64,5.32,4.47,8.32,6.42"/><path class="cls-12" d="M1475.59,1240.77c5.86.6,12.1,6.21,15.83,10.88"/><path class="cls-12" d="M1484.59,1234.05c4.61,1.31,10.75,7.15,13.33,11.65"/><path class="cls-7" d="M1348.12,1237.53c-58.11-9.89-133.36-15.86-215.58-15.86s-157.46,6-215.57,15.86H799.34v50.9c0,36.87,149.18,66.76,333.2,66.76s333.21-29.89,333.21-66.76v-50.9Z"/><path class="cls-8" d="M1348.12,1237.53c-58.11-9.89-133.36-15.86-215.58-15.86s-157.46,6-215.57,15.86H799.34v50.9c0,36.87,149.18,66.76,333.2,66.76s333.21-29.89,333.21-66.76v-50.9Z"/><path class="cls-9" d="M1284.78,1178.13c51.3,15.6,75.64,34.48,59.34,51.65-28.69,30.2-172.29,43.66-320.74,30-95.09-8.71-169.11-26.42-202.49-46-13.91,7.36-21.55,15.33-21.55,23.66,0,36.87,149.18,66.76,333.2,66.76s333.21-29.89,333.21-66.76C1465.75,1211.65,1392.24,1189.21,1284.78,1178.13Z"/><path class="cls-6" d="M1344.12,1229.78c16.3-17.17-8-36-59.34-51.65a1501.6,1501.6,0,0,0-152.24-7.36c-142.44,0-264,17.91-311.65,43.1,33.38,19.54,107.4,37.25,202.49,46C1171.83,1273.44,1315.43,1260,1344.12,1229.78Z"/><path class="cls-7" d="M866.62,1061.41c-.36,24.82,10.53,66,13,90.67,1.64,16,2.52,32.5,4.55,48.31,1.24,9.63,6.25,15.66,14.17,20,59.87,32.47,129.7,42.63,197.12,45.43,11.59.48,22.56,2.36,34,3.8,19.44,2.43,38.6-4.15,57.72-6.36,38.42-4.42,77.78-7.65,115.08-18.1,15.92-4.46,41.66-9.32,53.53-21,5.06-5,7.13-19.52,8.54-26.61,2.73-13.68,3.58-28.12,6.95-41.73,7.06-28.6,16.92-55.76,21.37-85.22,1-6.71,1.22-13.39,2.49-20,.81-4.2,2.7-8,3-12.15,1.19-17.84-24.86-37.44-34.62-48.07Z"/><path class="cls-8" d="M866.62,1061.41c-.36,24.82,10.53,66,13,90.67,1.64,16,2.52,32.5,4.55,48.31,1.24,9.63,6.25,15.66,14.17,20,59.87,32.47,129.7,42.63,197.12,45.43,11.59.48,22.56,2.36,34,3.8,19.44,2.43,38.6-4.15,57.72-6.36,38.42-4.42,77.78-7.65,115.08-18.1,15.92-4.46,41.66-9.32,53.53-21,5.06-5,7.13-19.52,8.54-26.61,2.73-13.68,3.58-28.12,6.95-41.73,7.06-28.6,16.92-55.76,21.37-85.22,1-6.71,1.22-13.39,2.49-20,.81-4.2,2.7-8,3-12.15,1.19-17.84-24.86-37.44-34.62-48.07Z"/><path class="cls-13" d="M1021.5,1237.75c5.61.28,17,1.89,14.75-6.61-1.6-6.18-13.41-7.32-10.65-15.39,5.16-15.13,45.11,9.61,54.72-9.16a10.6,10.6,0,0,1-7-1.62c3.89-3.68,12.94-8,12.7-14.41s-11.08-15.19-15.49-18.88c-11.2-9.37-24.94-18.1-38.69-23-11.63-4.14-22.44-8.47-33.73-13.5-5.32-2.37-15.9-4.19-19.54-9.35-5.55-7.86,3.07-10.08,7.7-14.25,17.89-16.11-12.58-32.15-21.79-41.82-7.79-8.19-6.9-15.35-2.46-22l-95.35,13.64c-.36,24.82,10.53,66,13,90.67,1.64,16,2.52,32.5,4.55,48.31,1.24,9.63,6.25,15.66,14.17,20,32.75,17.76,68.49,28.84,105.18,35.69.36-2.16.59-4.38,1-6.9C1006.17,1238.49,1011.45,1237.25,1021.5,1237.75Z"/><path class="cls-14" d="M885.42,853.33c-5.25,7.23-9.68,13.92-9,23.36,1,14,10.05,27,20.66,35.61,12.66,10.26,43.32,38.65,22.21,54.32C907.85,975.1,899.09,980.07,895,995c-3.72,13.45.06,31.15,10.38,41,20.87,19.89,61.79,9.09,75.44-14.56,5.66-9.8,7.53-20.58,10.76-31.18,1.18-3.9,2.87-5.22,4.53-8.75,3.23-6.86,1.36-17.84.55-24.94-3-26.29-11.62-50.66-20.36-75.48-5.83-16.58-11.15-32.29-26.31-41.77-9.39-5.86-20.53-8.29-30.24-13.77"/><path class="cls-13" d="M885.42,853.33c-5.25,7.23-9.68,13.92-9,23.36,1,14,10.05,27,20.66,35.61,12.66,10.26,43.32,38.65,22.21,54.32C907.85,975.1,899.09,980.07,895,995c-3.72,13.45.06,31.15,10.38,41,20.87,19.89,61.79,9.09,75.44-14.56,5.66-9.8,7.53-20.58,10.76-31.18,1.18-3.9,2.87-5.22,4.53-8.75,3.23-6.86,1.36-17.84.55-24.94-3-26.29-11.62-50.66-20.36-75.48-5.83-16.58-11.15-32.29-26.31-41.77-9.39-5.86-20.53-8.29-30.24-13.77"/><path class="cls-9" d="M1277.77,828.15c-.56,8.35,2.34,20,3.15,29.73a524.06,524.06,0,0,1,1.58,56.22c-.31,13.4,4.69,12.67,15,18.5,12.45,7.07,23.51,17.1,36.2,23.77,18.49,9.71,35.94,20.75,54.85,30,9.83,4.8,8.69,10.38,10.62,20.6,4.87,25.71-4,45.88-13.53,69.72-2.94,7.38-5,14.71-9.09,21.48s-8.91,12.12-12.46,19.21c-5.73,11.42-11.79,17.73-22.52,24.81-6.35,4.19-13.06,7.78-19,12.51s-11,12.19-18,15.23c-7.88,3.41-15.06-4.38-21.21-1.41-4.5,2.17-3.77,8.23-3.93,12.18-.32,8.14.82,9.89-6.44,14.19-23.43,13.88-54.67,14.33-80.23,22.46-6.34,2-8.66,4.24-13.32-1-2.84-3.22-1.31-9.38-6.95-9.45.51,7,3.77,10.51-2.5,14.87-6.1,4.23-20.54,3.63-27.72,4.45-11.28,1.29-15.06,2.61-20.09-5.41-3.53-5.65-5.31-9.84-13.11-11-14.81-2.26-31.93,5.48-47,5.12-20.76-.5-30.83-13.83-48-22.31-12.61-6.24-27.16-2.82-40.2-8.6-7.85-3.48-15.29-8.76-21.93-14.17-6.87-5.59-10.52-9.44-19.64-10.09-3.93-.27-8.78.68-12.44-.94-3.44-1.52-6.95-5.09-10-7.15-3.42-2.33-8.95-4-11.67-7.2-4.08-4.79-1.58-9.8-3-15.26-2.17-8.1-6.78-7.35-12.42-11.82-6.28-5-6.95-12.75-9.15-20-3.2-10.57-3.51-20.9-5.78-31.63-1.25-5.94-4.21-11.81-4-17.94,4.58-.4,8.22-3.84,12.36-6.1,9.79-5.32,19-10.15,28.61-16,8.18-5,16.44-9.09,23.7-15.45,6.68-5.86,19.43-14,21.12-23.1,2.63-14.15-2.2-30.54-3.47-44.77-1.34-15-3.13-29.73-3.81-44.77-.77-17.23-1.69-34.2-3.76-51.13-3.75-30.57-3.48-61.88-7.85-92.31Z"/><g class="cls-15"><path class="cls-16" d="M923.41,1034c5.91,4.46-2,12.8,1.25,17.36,3.54,4.9,14.06,2.91,19.35,8s7.18,13.62,11.46,19.51c6.3,8.69,16.44,15.81,25.1,22,13.12,9.41,28.33,14.43,43.82,16.86,2.2-8.91-5-13.58-10.62-19.15A112.86,112.86,0,0,1,992,1068.81c-5.84-11.66-2-19.32-3.45-31.06-1.18-9.83-19.5-27.62-14-37.56,7.65-13.87,27.52,10.16,36.83,4.68,9.15-5.4-14.7-22.27-15.8-30.08-2.26-16,20.64-17.36,32.46-19.28,5.41-.88,17.36,1.28,19.6-4.86,1.92-5.27-5.55-11.49-7-15.79,11.52-1.27,19.54,6.93,30.09,9.24,15.41,3.37,35,1.2,50.62,0,39-3,83.58-19.59,115.68-42.21,17.66-12.44,24.92-21.91,33.72-39.91,3.08-3.18,6.33-6.42,9.55-9.76-1.13-8.32-3-17.29-2.5-24.06l-347.11-74c4.37,30.43,4.1,61.74,7.85,92.31,2.07,16.93,3,33.9,3.76,51.13.68,15,2.47,29.79,3.81,44.77,1.27,14.23,6.1,30.62,3.47,44.77-1.69,9.11-14.44,17.24-21.12,23.1-7.26,6.36-15.52,10.5-23.7,15.45-7.48,4.52-14.71,8.44-22.16,12.47C900.42,1034.7,918.91,1030.55,923.41,1034Z"/></g><path class="cls-7" d="M930.66,743.14c-7,1.11-17.13-5.63-23.17-8.63C895.25,728.44,886.1,721.2,878.3,710c-10.11-14.54-19.39-15.59-35.62-20.4-8.95-2.65-17-5.8-23-13.4-5.41-6.88-6.45-17.22-12.22-23.17-5.09-5.24-11.59-6.4-16.32-13-6.49-9-5.9-18.78-9.2-28.51-2.85-8.4-11.21-12-14.55-20.17-5.52-13.45-1.39-30.45,1.75-43.89,3.6-15.44-1.06-30.09.3-45.49,1.25-14.17,6.86-24.84,12-37.45,5.42-13.3,4.9-28.92,9.23-42.64,4.75-15.06,15.15-34,28.48-43.32,4.59-3.2,11.33-4.77,16.7-6.16,2.87-.75,9.78-.55,11.81-2.33,3.76-3.29,3.66-14,4.69-18.65,1.84-8.21,4.24-16.47,6.54-24.58,2.23-7.84,4.93-17,8.75-24.28,10.83-20.5,28.68-29.19,46.52-42.72s35.54-25.56,55.63-35.55c25.78-12.83,64.31-22.33,92.92-20.12,18.14,1.4,51,17.89,51,17.89s15.6-3.47,23.58-5.45c13.67-3.4,27.61-4,41.69-4,32.51.05,73,7.83,100.74,25.18,18.26,11.42,43.08,25.22,54.64,44.08,9.33,15.21,16.09,31.61,23,48.05,2.33,5.54,5.73,11.61,6.88,17.51.41,2.08-.5,4.75.15,6.69.7,2.1,2.37,2.37,3.12,4.14,8.63,20.55,7.67,45.47,18.71,65.16,5,8.86,11,16.82,15.75,25.93,5.06,9.79,5.14,16.71,5.84,27.6,16.16,2.76,19.81,29.11,20.41,42.43.74,16.79-3.57,42-23.57,46-.59,9.44,6.21,19,3.14,29.2-2.13,7.08-11.49,24.61-18.2,27.34-7.48,19.53-10.5,40.62-27.55,55.15-7.24,6.18-14.82,8.77-19,16.8-9.43,18.32-17.74,31.83-36.77,41.41-5.85,2.94-22.26,7.2-24.56,9.43Z"/><g class="cls-15"><path class="cls-16" d="M1313.18,720.47c2.14-12.7,5.15-30.84,14-40.33,5.29-5.65,10.7-8.85,17.24-12.67,8.35-4.87,23.57-11,22-22.36-3.94,2.25-13.67,4.54-14.62-1-.7-4,3.54-6.85,6.34-8.73,4.64-3.11,8.17-5,12.47-8.92,6.4-5.85,8.1-6.9,7.78-16-11.1-.8-17.86,18.89-29.83,16.54,1.88-7.34,5-12.56,11.87-15.28,4.64-1.84,14.61-1.45,9.22-10.26-2.79-4.57-10.38-1.91-11.31-8.91-1.92-14.46,15.09-4.64,20.11-8.24,3.17-2.28,2.59-8.11,1.12-11.44-3.18-7.16-10.94-3.62-14.38-8.52-6.65-9.49,10.21-9.62,15.34-9.43,13.51.51,12.55-9.23,6-19.21a38.13,38.13,0,0,0-11.23-11.22c-4.42-2.71-9.07-2.63-12.31-7.08-2.56-3.53-3.38-6.07-1.71-10.24,5.72,1.27,12.64,9.62,19.18,7.28,7.17-2.56,3.38-11.54-1.47-15.28-4.42-3.41-9.92-1.87-12.84-7.45-3.65-7,3.73-13.26,3-20.69s-2.9-6-8.3-8.66c-6.45-3.12-6.35-5-6.38-11.93,0-10.54-.36-21.69-7.8-30-4.6-5.15-8-5-14.31-4.83-7.92.16-10.77-.77-16.52-6.56-4-4-8-11.92-14.11-12.67-5.53-.68-7.31,2-5.72,7.31,5.32,17.82,31.13,18.49,37.58,33.87,5.87,14-5.24,22.37-18.44,20.78-14.75-1.79-24.44-15.33-38-18.59-7.53,3.17-10.64,30.21-12.11,37.63-7.48,37.94-7.22,75.3-7.22,113.82,0,23.3-.52,46.56,1.27,69.81,1.31,17,4.8,33.33,7,50.19,1.5,11.26,2.79,22.37,4.35,33.42l11.18.05c2.3-2.23,18.71-6.49,24.55-9.43a71.09,71.09,0,0,0,6.32-3.57A51.79,51.79,0,0,1,1313.18,720.47Z"/></g><path class="cls-13" d="M804.25,591.8c17.63-2.32,23.8-16.15,31-30.87,5.21-10.65,10.62-27.57,20.86-34.53,11.78-8,28.35,1.28,40.89,2.1,14.75,1,32.54,1.52,44.08-9.39a91.09,91.09,0,0,0,18.83-26.52,45.84,45.84,0,0,0,4-20.79c-.41-12-3.73-27.6,7.84-35.88,10-7.15,28.12,6.33,36.14-4.05,2.14-2.77,1.46-6.95,3.34-10.05,2.73-4.5,7.43-5.95,12-7.5,7.62-2.57,15.73-3.13,20.61-10.4,3.55-5.29,4.08-10.57,9.66-14.93,20.16-15.79,50.31-13.53,73.14-23.95,4.81-2.2,22.17-11.59,22.07-17.61-.13-8.31-12.55-4.68-17-3.05-11.09,4.09-23.92,9.08-33.93,14.89-11,6.41-21.14,10.91-33.89,12.7-10.92,1.52-21.64,2.36-32,6.54-14.78,6-24.54,21.42-40,25.91-8.47,2.47-23.11,3.38-19.44-9.27,3.72-12.83,14.72-12.78,25-17,9.93-4.07,15.78-11.79,24.29-17.55,7.66-5.2,15.19-4.8,24.09-4.81,15.88,0,29.9.55,44.68-6.09,9.12-4.1,18-9,26.76-13.76,2.67-1.43,15.59-6.8,13.19-10.67-2.86-4.62-19.3,1.46-22.46,2.49-12.92,4.22-25.75,12.57-38.92,15.44-12.37,2.7-23-1.67-34.92-3.3-9.33-1.29-15.09.42-22.78,5-7.34,4.34-12.07,4.53-20,4.82-.37-4.79,7.21-9.48,10-12.61-6.46-2.06-15.2,1.4-21.53,3.71-9.07,3.32-18.46,5.18-27.4,8.94-3,1.25-32.51,16-30.64,3.5-6.93-.59-17.59,3.25-23.86,6.24-3.52,1.68-5.93,3.67-10,2.87,2.47-3.64,2.58-8.82,6.61-12.24,3.07-2.6,7.58-3.05,10-6.64,1.77-2.64.93-5.82,2.35-8.31,6.29-11.09,26.34-10.23,36-16.69,9-6,11.42-19.41,24.24-22.05,11.74-2.42,21.84-7,33.4-10.8,10.6-3.45,21.44-5.61,32-9,9.92-3.18,17-11.18.85-9.39s-27.13,12.85-44.21,11.23C973.8,277,962.53,283.75,949,290.42c-15.36,7.54-28.38,26.73-47.13,25.44-20.55-1.42,3-22.47,10.92-26.25,10.06-4.8,19.71-4.14,29.83-6.93,10.88-3,16.39-16,27.13-20.07,9.91-3.73,20.56,1.32,30.65-2.08,9-3,13.92-10.74,22.85-13.54,4.2-1.32,15.16-2.18,15.34-7.58.36-10.54-27,1.1-30.68,2.81-16.51,7.75-34.39-.35-51.63,7.89-8.18,3.91-14.66,11.13-23.41,13.78-8.94,2.72-18.29.46-27.35,2.25-14.8,10.38-28.79,19.26-37.87,36.44-3.82,7.24-6.52,16.44-8.75,24.29-2.3,8.1-4.7,16.36-6.54,24.57-1,4.64-.93,15.36-4.69,18.65-2,1.78-8.94,1.58-11.81,2.33-5.37,1.39-12.11,3-16.7,6.16-13.33,9.34-23.73,28.26-28.48,43.32-4.33,13.72-3.82,29.34-9.23,42.64-5.12,12.61-10.73,23.28-12,37.45-1.36,15.4,3.3,30-.3,45.49-3.14,13.44-7.27,30.44-1.75,43.89,3.18,7.77,10.94,11.44,14.12,19.06,1.93-4.81,3.66-9.67,6-12.65C792.62,591.41,796.8,592.78,804.25,591.8Z"/><path class="cls-13" d="M836.88,625.1c11.43-4.81,23.66-5.9,32.54-15.54,11.6-12.61,2.85-29.31,20.91-39,12.13-6.52,37.55-7.65,45.2-20.45,2.57-4.29,2.27-11-3.17-11.35-3.14-.19-11.07,6.52-13.8,7.73A63,63,0,0,1,901,551.21c-12.5,1.65-25.32.25-37.2,5-12.13,4.89-12,15.87-18.2,26.25-9.36,15.77-24.56,25.5-40.7,33.17-8.82,4.19-9.16,9.94-14.38,17.29a21,21,0,0,1-2.08,2.47,30.12,30.12,0,0,0,2.71,4.61c4.73,6.56,11.23,7.72,16.32,13a20.15,20.15,0,0,1,2.78,3.72c2.25-7.41,4.53-15.11,9.12-20.92S830.4,627.83,836.88,625.1Z"/><path class="cls-13" d="M856.26,656.45c9,.83,16,5.24,25.49,3.4,14.47-2.8,20.33-15.6,21.43-29.29,1.4-17.27,2-28.58,16.68-39.73,4.76-3.63,15.19-10,14.19-17.12-.91-6.4-2.69-4.38-6.3-2-2.77,1.83-4.88,6-7.48,8.35-5.17,4.61-10.91,7-16.68,10.55-9.55,5.9-12.5,15.43-17.07,25.28-4.68,10.09-9.43,21.45-20.59,25.88-10.24,4.06-21.67-.07-31.4,6.26-10.38,6.76-12.69,16.85-15.74,26.92.28.42.57.83.88,1.22,4.13,5.25,9.27,8.37,15,10.68,1.16-6.16,2-12.39,4-18.28C842.2,658.65,846,655.5,856.26,656.45Z"/><path class="cls-9" d="M1347.13,486.7c-2.19-8.09-3.92-16.35-5.59-24.61A61.57,61.57,0,0,0,1337,456c-11.42-3.86-22.33-9.81-32.21-16.08-8.89-5.63-19.47-14.56-26.12-24.93l-.07-.05c-.17-.16-.36-.31-.53-.46-13.37-1.48-26.2-5.44-37.66-12.75a155.29,155.29,0,0,1-20.55-15.4,43.23,43.23,0,0,1-7.25-8.31c-3.18-3.17-6.14-6.58-9.58-9.61a82.54,82.54,0,0,1-14.1,12.26,90.68,90.68,0,0,1-12.59,10.78c-9,6.35-19.43,10.73-29.79,14.19a73.16,73.16,0,0,1-20,4l-3.11,1.21a121.38,121.38,0,0,1-12.11,8.64c-13,8.11-28.8,13.17-43.46,10.74l-1.52.5a353,353,0,0,1-72,44.85c-1.34,1.49-2.64,3-3.9,4.61A181.14,181.14,0,0,1,969.06,540a158.51,158.51,0,0,1-10.82,16.32c-3.92,5.22-8,11.15-12.89,15.55-2.48,2.22-5.12,4.25-7.73,6.32a208.66,208.66,0,0,1-5.51,40.16c-2.43,10-6,20.48-12,28.89a61.43,61.43,0,0,1-8.53,9.67c-.93,14.54-.12,29.64.74,43.94,1.57,25.91,9.13,48.83,17.53,73.16,6.32,18.29,12.87,37.71,23.58,53.89,11.43,17.26,18.15,36.21,32.14,52,14.35,16.18,30.2,27.79,50.1,36.19,39.44,16.64,94.89,24.7,135.67,7.34,59.14-25.19,107.12-84.69,128.45-143.47,28.51-78.59,52-159.76,55.9-243.75a230.71,230.71,0,0,0-.07-24.51A217.11,217.11,0,0,1,1347.13,486.7Z"/><path class="cls-13" d="M942.64,587.66c-6.32,94.47-36.71,22.77-19.93,140,4.13,28.84,17.81,50.45,27.86,77.13,8.79,23.33,22,51.38,38.94,69.5,8.62,9.22,20.18,20.2,31.12,26.55a204.07,204.07,0,0,0,37.95,16.65c24.39,7.69,117.48,23.15,145-26.35,17.77-31.94-24.86,19.55-110.52-11.5-49.58-18-121.5-87.61-123.69-142-.53-13.26,0-43.16,11.13-50.95,14.92-10.45,19-42.13,16.93-57.58-4.45-34,69.94,0,120-18.84,14.48-5.45,26.8-12.84,33-25.11,7.67-15,22.17-19.77,8.67-34.52-16.11-17.63-48.18-15.67-70.74-15-29.32.88-52.33,14.9-78.31,25.76-9.27,3.86-45.74,24.36-32.6-2.71,3.94-8.12,13.15-15.48,18.51-22.54A181.57,181.57,0,0,0,1015.38,504c3.3-6.93,21.14-36.34,10.13-40.47-37.53,20.86-25.3,26.6-45.63,67.13-9.67,19.27-18.67,30-32.5,46-3.21,3.71-4.51,6-4.74,10.95"/><path class="cls-12" d="M1091.23,774.23c2.53-.12,5.15,5.15,7.39,6.06,4.34,1.75,10.3,2.18,14.92,2.24,7.21.11,14.3-1.09,21.36-2.38s14.4-2,21.4-.83c6.08,1,11.59,3.43,17.85,3.94,12.15,1,23.65-5.32,35.9-4.11,4.26.42,8.38,1.7,12.55,2.65,6.3,1.43,16.29.31,22.9.3-6,0-8.84-.44-13.81-3.73-4.55-3-6.31-7.25-10.1-10.86-5.71-5.44-15.16-8.72-22.89-7.56-5.78.87-11.07,4.06-17,4.47a36.53,36.53,0,0,1-14.16-2.2c-11.56-4.15-21.68-1.41-32.94,3C1120.72,770.68,1106.44,781,1091.23,774.23Z"/><path class="cls-13" d="M1091.23,774.23c2.53-.12,5.15,5.15,7.39,6.06,4.34,1.75,10.3,2.18,14.92,2.24,7.21.11,14.3-1.09,21.36-2.38s14.4-2,21.4-.83c6.08,1,11.59,3.43,17.85,3.94,12.15,1,23.65-5.32,35.9-4.11,4.26.42,8.38,1.7,12.55,2.65,6.3,1.43,16.29.31,22.9.3-6,0-8.84-.44-13.81-3.73-4.55-3-6.31-7.25-10.1-10.86-5.71-5.44-15.16-8.72-22.89-7.56-5.78.87-11.07,4.06-17,4.47a36.53,36.53,0,0,1-14.16-2.2c-11.56-4.15-21.68-1.41-32.94,3C1120.72,770.68,1106.44,781,1091.23,774.23Z"/><path class="cls-12" d="M1103,786.83c4.71,0,9.49,7.95,12.18,11,4.5,5.11,8.29,9.93,14.22,13.46,13.09,7.78,27.21,10.62,42.28,10.55,20.1-.1,45.81-10.89,58-27.16"/><path class="cls-12" d="M978.67,567.23c10.32-7,46.84-24.68,88.21-32.38,24.37-4.53,49.35-6.05,73.55-1.14,9.39,1.9,19.29,5.09,24.5,13.62a18.48,18.48,0,0,1,3,10.32,21.24,21.24,0,0,1-.8,6.73c-3.57,10.66-9.25,21.29-13.76,31.57"/><path class="cls-12" d="M1140.42,718.74c-2.8-.56-6.75-.91-7.13-4.35-.68-6.12,11.18-6.14,15.18-6.19,13.06-.17,23.14,6.38,35.14,10.14,11,3.44,40.67,10.26,44.67-7.26,1.67-7.32-1.67-15.56-2.55-22.78-2.44-20-2.17-41-1.52-61.12.59-18.24,1.45-37.93,5.55-55.77,2.69-11.72,11-28,23.82-31.29,8.22-2.13,41.86-3,50.22-2.6,12,.57,32.18,3.27,40.09,14.44"/><path class="cls-12" d="M1025.51,586.12c6.66.22,12.55,7.37,17.48,11.16,4.27,3.27,8.73,6.74,13.92,8.44,12.48,4.11,25.76,1.66,37.77-2.63,9.27-3.31,17.71-9,26.47-13.33,5.47-2.7,7.57-9.11-.76-12.19"/><path class="cls-12" d="M1022,583c13.87-4.17,25.7-13.36,39.46-17.84,12.56-4.09,23.7-4.43,36.25-.07,8.38,2.91,16.26,6.69,22.72,12.51"/><path class="cls-12" d="M1036.92,585.33c4.47,1.22,8.38,6.49,12.15,9.2a26.35,26.35,0,0,0,11.85,5c35.54,6,47.38-10.58,59.47-13"/><path class="cls-12" d="M1232.32,589.36c7.92-.61,16.86,5.74,23.25,9.69a49.65,49.65,0,0,0,26.85,8c11.64.06,20.76-3.56,28.14-12.49,3.42-4.14,4.69-9.24,7.35-13.78"/><path class="cls-12" d="M1232.91,583.16c6.84-1.49,12-8.4,18-11.65,7.35-4,15.8-7.82,24.12-8.73s17.41-1.13,25.35,2.08c4.22,1.71,16.61,9.63,19.9,12.71"/><path class="cls-12" d="M1251.78,590c18.38,12.33,43.34,15.24,58.92-2.2"/><path class="cls-12" d="M846.83,661.68c16.64-.39,24.48,9.82,37.24,17.59,7.39,4.49,15.56,4.85,24.16,4.84"/><path class="cls-12" d="M896.42,698.87c-4.61-5-11.2-11.23-18.24-11.75-.49,8.28,15.25,19.34,21.78,22.37"/><path class="cls-12" d="M1136.88,684.11c-17.85,5.18-27.15,26.59-13.38,39.36"/><path class="cls-12" d="M1225,682.54c1,6.87,9.45,13.15,12,20.2,4.13,11.37,2.17,16.67-6.51,24.66"/><path class="cls-12" d="M1142.39,834.45c15.62-4.07,41-12.2,55.1-3.15"/><path class="cls-12" d="M1080.6,1047.75c1.54-2.91.29-.07,2.13,3.82,9.3,19.66,14.66,41,25,60.29,6.6,12.36,17.49,32,32,36,23.64,6.41,36.37-27.81,40.12-44.58"/><path class="cls-12" d="M1073.52,986.36c45,7.63,84.55-1.35,126.33-21.25"/><path class="cls-12" d="M950.63,977.08c-1.26,25.34,9,47.23,17.54,70.69,6.49,17.74,13.53,35.19,27.43,48.39"/><path class="cls-12" d="M1282.5,919.06c-.1,61.19-12.28,115.19-31.88,173.56"/><path class="cls-17" d="M880.54,484.47c7.28-.62,12.67,1.84,20.23,1.14,9.53-.88,18-4.82,24-12.28,6.76-8.41,11.14-18.5,18.37-26.53,4.44-4.92,11.35-12,.1-10.69-7.76.92-14,8.55-19.07,13.71-7.89,8-13.27,14.66-24.4,18.27-8.52,2.77-17.42,4.27-25.81,7.44-8.73,3.3-15.34,6.78-20.13,15-1.39,2.36-6.86,10.31-4.62,12.55,5,5,15.3-10.4,18.31-12.53,3.86-2.72,8.65-3.73,13-6"/><path class="cls-17" d="M835.88,379.8c23.18-12.43,49.63,7.05,71.17,8.69,9.63.73,18.71-.61,28-2.52,4.14-.85,13.28-4.66,17.22-1.11,13.33,12-33.67,18.16-38.92,18.14-11.78,0-23.48-3.49-35.39-3.86-13-.41-18.74,3.42-26.72,13.31-11.62,14.4-21.33,38.23-41.94,40.62-.52-7.31,13.06-17.65,16.63-24,4.05-7.14,3.94-13.69,4-21.57C829.9,400,826.59,384.79,835.88,379.8Z"/><path class="cls-17" d="M897.21,419.8c-20.93-1.09-31.51,4.68-42.36,19.12-9.74,13-18.59,17.79-33.33,23.23-18.81,6.94-38.39,24.25-35.54,46.9,6,.41,20.65-24.3,26.66-28.76,8.78-6.52,18.76-8,29.18-11.11,12.13-3.64,19.07-7.9,26.62-18.27,6-8.29,11.42-14.13,20.9-18.6,5.15-2.42,22-4.34,22.43-11.07A145.62,145.62,0,0,0,897.21,419.8Z"/><path class="cls-13" d="M1201.54,356.8c16-8.07,31.51.1,45,7.83,4.66,2.67,32.48,12.51,27.08-2.87-1.87-5.3-31.7-13.85-38.3-16.71-5.44-2.35-14.65-1.7-18.55-5.25-10-9.14,4-10.66,11.2-10,4.81.42,25.72,9.26,22.87.76-2.28-6.79-19.82-8.4-25.52-8.72-3.37-.19-22.61,1.69-17.12-7.3,3.92-6.43,19.23,4.28,18.2-6.56-4.33-1.76-43.69-1.53-29-12.89-8.17-3-7.21-7-10.09-13.28-3.23-7-7.8-7.31-.22-12.07,11-6.93,26.85-.18,38.26,1.37,5.24.7,27.29,3.8,28.17-3.25,1.08-8.64-42.74-8.18-51.21-9.83-5.24-1-26.61,1.11-26.75-4.37-.38-15.22,34.3-6.33,41.17-4.83,10,2.19,22.19-.23,31.26,4.54,8.45,4.45,17.64,25.88,28.42,23.33,1.91-14.51-14.7-31.55-28.08-35.86-10.75-3.47-22.15-1.76-32.83-6-11.3-4.49-17.94-8.54-31-8-8.5.35-29.39,7.93-35.1,0,5.07-7.61,18.57-4.54,22-10.85-9.79-.59-23-.16-31.38,5.35-14.36,9.42,1,16,8.73,24.47,9,9.86,5.09,21.11,10.78,33,2.87,6,7,9.84,11.49,14.46,2.4,2.47,6.86,5.42,8.44,8.49,2.52,4.9-.67,9.42,1,13.54,2.19,5.47,9.48,6.4,12.93,11.27,3,4.25,1.76,7.35,3.25,11.84,2.09,6.28,7.45,11,5.85,17.93q2.76,1.65,5.07-1.53"/><path class="cls-13" d="M1099.54,1058.8c-.25,14.26,27.63,111.88,61,77.08,12.1-12.64,23-40.27,16.5-57.58-5.67-15.06-24.89-19.58-38.61-21.44-13.47-1.84-25.85-3.68-37.8,3.19,1.12,1.11,2.17.65,4,.75"/><path class="cls-13" d="M1116,703.37c-9.15,3.57-19.27,23.54-10.12,32.13,8.93,8.38,18.39-.27,28.11-1.14,12.08-1.08,18.67,1.45,24.38,11.12,2.22,3.76,4.68,8.82,10.12,6.76,7-2.67,9.35-13.06,16.76-16.38,7.21-3.23,14.39-3,21.75-4.49,3.93-.78,10-3.55,9.93-8.42-6.15-.59-12.16-1-18.43-1.58s-11.58-2.9-17.61-4.39c-12.31-3-22.89-7.76-35.89-7.61-3.16,0-7.28-.24-9.51,2.38-3.08,3.62-.7,6,3.45,6.21-1.57,5.74-11.78-.5-14.14-2.88-2.89-2.91-4-9.7-7.77-10.7q1.5-.2,3-.51"/><path class="cls-12" d="M1075.1,554.36a48.84,48.84,0,0,1,28.51,3.5,63.29,63.29,0,0,1,11.69,6.43c2.78,2,5.15,4.65,8,6.57"/><path class="cls-12" d="M1239,571.05c4.69-5.11,11.34-8.58,17.25-12"/><path class="cls-12" d="M1305.79,560.8c8.35,3.34,14.2,10.13,21.75,14.75"/><path class="cls-13" d="M1181.88,567.8c-.73,22.74-.36,44.93-3,67.67-1.58,14-1.29,29-4.39,42.74-2.64,11.7-13.59,17.25-21.34,4.93-4.22-6.72-.62-13.75,1.73-20.73,4-11.95,6.18-24.37,10.28-36.31a346.79,346.79,0,0,0,10-37C1176.61,583,1177.2,573,1181.88,567.8Z"/><path class="cls-18" d="M1089.44,570.83c-11.9-1.53-27.67,5.46-21,14.21,5,6.56,12.14,11.37,20.78,10.27,3.31-.42,7-2,10.07-3.31s8.11-3.22,10.56-5.7c6.81-6.93-5.79-11.57-10.66-13-3.11-.92-6.83-1.22-9.77-2.47"/><path class="cls-13" d="M1239.54,550.47c-9.13,12.4-11.77,29.68-13.62,44.53-1.32,10.58-3,23.19-1.66,33.78,5.58,1.47,8.44-24.67,14.29-27.24,5-2.22,13.16,3.71,17.74,5.2,3,1,10.62,2.9,13.34.5,3.66-3.24-.41-9-2.76-11.57-4.81-5.28-10.52-9.93-4.67-17.12,3.19-3.92,20-12.92,7.35-15.91-3.67-.87-8.23-1.32-6-6.42s53.92-8.78,56.76-13.42c4.55-7.42-49.39-4.63-54.24-4.33-9.64.6-22,3.78-26.45,13.35"/><path class="cls-11" d="M1636.92,1342.09c3,3.29,8.26,4.58,12.46,5.58,7.53,1.81,15.81,1.2,23.39-.05,8-1.32,14.85-4.59,22.1-7.76a111.24,111.24,0,0,1,14.9-5.45c4.81-1.3,12.89-4,17.82-2,6.7,2.69-3.71,4-5.82,4.33-3.19.47-11.83,4.51-4,5.15,9,.74,16.16-3.64,21-11a13.28,13.28,0,0,0,2-6.69,32.45,32.45,0,0,0-1.85-4.32c-.73-1.38-1.85-2.44-2.62-3.81a33.81,33.81,0,0,1-2.91-8.19,117.36,117.36,0,0,0-7.38-21.36l-40,7.82c-.33,3.86,1.32,10-.67,13.39-2.5,4.2-10.94,14.17-14.79,16.12-7.5,3.8-15.64,6.5-23.47,9.28-2.8,1-8.27,2.36-10.83,5.15A4.73,4.73,0,0,0,1636.92,1342.09Z"/><path class="cls-10" d="M1740.7,1324.18a13.28,13.28,0,0,1-2,6.69c-4.79,7.36-11.92,11.74-21,11-7.85-.64.79-4.68,4-5.15,2.11-.31,12.52-1.64,5.82-4.33-4.93-2-13,.72-17.82,2a111.24,111.24,0,0,0-14.9,5.45c-7.25,3.17-14.07,6.44-22.1,7.76-7.58,1.25-15.86,1.86-23.39.05-4.2-1-9.42-2.29-12.46-5.58a4.73,4.73,0,0,1-.77-3.83c-1.7,1.84-2.12,4.31.34,7.71,3.58,5,11.9,6.26,17.08,7.41a61.81,61.81,0,0,0,28.21-.65c6.14-1.54,12.14-4.17,18.38-5.42,8.22-1.64,15.89,1,24-1.85,6.45-2.26,17.47-7.57,17.38-17.16A14.53,14.53,0,0,0,1740.7,1324.18Z"/><path class="cls-19" d="M1667.15,948.88c9.29,62.61,26.75,126.33,36.73,188.92,5.94,37.28,15.34,74.75,22.83,111.54,3.37,16.57,5.73,45.5,10.9,58.46-7,13.26-48.22,14-56.94,5.87-7.23-6.72-10.83-30.06-13.13-39.86-5.14-21.87-8.72-46.11-14.26-68.18-13.8-54.88-23.13-91.29-35.55-149-10.91-50.75-15.73-54.59-38.19-40.37-7.06,4.47-64.42,53-66.69,77.45-3.22,34.64,16.08,96.94,18.58,130.84-7.28,5.76-46.11,16.49-53.66,11.29-8-5.54-27-136.18-23.61-157.8,4.73-29.75,88.8-139.47,102.17-141.2"/><path class="cls-12" d="M1588.54,991.47c-3.47,2.35-6.42,6.12-9.42,9.13a148.29,148.29,0,0,1-15.66,13c-8.12,6.15-17.13,11.26-24.62,18.2-8,7.45-13.45,16.51-21,24.37-6,6.2-12.64,13.49-15.94,21.53-4.39,10.69-5.24,21.24-4.38,32.59.88,11.56,1.06,23,3,34.49,2,12.09,3.39,24.26,5.1,36.42,1.11,7.88,1.43,15.9,2.63,23.74.82,5.38,2.54,10.59,3.26,16a85.69,85.69,0,0,1,1.09,11.52"/><path class="cls-20" d="M1434.56,741.44a14.86,14.86,0,0,0-1.51-2.82,21.82,21.82,0,0,1-3.82-5.67,11.66,11.66,0,0,1-.46-6.28c.42-3.31-.08-4.78-1.84-7.56-2.78-4.39.3-8.87-.09-13.5-.27-3.24-2.73-6.85-2.26-10a7.6,7.6,0,0,1,2.87-5.16c1.54-1.24,2.64-1.69,3.06-3.76a5.83,5.83,0,0,0-.33-3.91c-2.49-5.18-4.59-10.87-7.64-15.72-1.83-2.92-3.18-5.37-3.28-8.93-.07-2.27.34-7.84,4-7.42.94.11,1.66,1.14,2.19,1.86,2.07,2.8,4.08,5.68,6,8.62,2.89,4.53,5.42,8.74,8.38,13.23,2.42,3.68,3.42,7.5,5.84,12.39,1.57,3.16,2.29,6.38,4.1,9.38,2.09,3.46,3.17,7.84,4,11.82.86,4.31,1.17,8.73,1.87,13.06.79,4.83,0,10.42-.51,14.86"/><path class="cls-9" d="M935.21,377.14S1050.71,299,1192,308.3s187.46,98.47,187.46,98.47l-7.65-35s-28-90-186.64-99.33C1001.92,261.69,881,367.93,881,367.93"/><path class="cls-21" d="M1598.7,803.7c-6.16-1.58-30.08-8.53-56.91,2.52-10.91,4.49-54.09,15.59-65.54,18.43-7.18-4.1-12.22-43.72-13.35-51.6-1.2-8.36-.57-29-5.76-35.69-4.77-2-26.21,1.35-27,10.13-.92,10,1.34,31.51,1.76,41.48.91,21.41,7.42,54.27,24.7,69.28,16.32,14.18,86.05-20.84,115.45-9.76"/><path class="cls-21" d="M1571.84,826.2c4.08-9.43,6.84-16.9,10.19-23.5-18.94,6.16-21.85,28.41-24,34.27a131.41,131.41,0,0,0-5.11,18.19C1563.82,851.88,1568,835.11,1571.84,826.2Z"/><path class="cls-21" d="M1584.77,815.46c3.08,3.83,12,5.21,16.71,6.38a156.91,156.91,0,0,0,19.53,3c5.25.6,7.56,1.86,10.22-2.31,2.86-4.48,4.37-9.26,7.37-13.54a157.31,157.31,0,0,0-24.81-6.36c-5.69-1-13-1.24-18.72-1.52a40.45,40.45,0,0,0-4.27,0c-.41.62-.81,1.25-1.19,1.91A55.06,55.06,0,0,0,1584.77,815.46Z"/><path class="cls-21" d="M1647.87,812.7a39.33,39.33,0,0,0-4.1,4.38c-4.91,6.2-7,14.7-9.15,22.21-2.37,8.34-4.53,21.8-.45,30.08,2.41,4.89,9.21,7,14.29,7.49a43.69,43.69,0,0,0,10.73-.68,72.17,72.17,0,0,0,11.82-2.67c.59-6.5,1.13-13,1.48-19.54C1673.45,836.28,1668.06,821.74,1647.87,812.7Z"/><path class="cls-19" d="M1648.46,876.86c-5.08-.54-11.88-2.6-14.29-7.49-4.08-8.28-1.92-21.74.45-30.08,2.14-7.51,4.24-16,9.15-22.21a39.33,39.33,0,0,1,4.1-4.38c-.41-.19-.82-.38-1.25-.56q-4-1.68-8-3.1c-3,4.28-4.51,9.06-7.37,13.54-2.66,4.17-5,2.91-10.22,2.31a156.91,156.91,0,0,1-19.53-3c-4.71-1.17-13.63-2.55-16.71-6.38a55.06,55.06,0,0,1,4.84-12.38c.38-.66.78-1.29,1.19-1.91a33.06,33.06,0,0,0-8.77,1.53c-3.35,6.6-6.11,14.07-10.19,23.5-3.86,8.91-9.54,21.28-18.91,29-3.4,16.26-4.24,33.07-5.07,49.34-.37,7.33-.73,13.36-1.12,20.69-.2,3.73-1.72,11.13-.09,14.77a53.61,53.61,0,0,0,8.22,4.77c21.6,9.87,47.16,12.16,71.52,12,8.42,0,17.44.2,25.71-.86,2.78-.36,10.53-.82,12.58-2.13,3.86-2.46,2.53-11.33,2.89-15.1.76-8.13-.4-16.31,0-24.5.7-13.62,2.19-27.13,3.42-40.68a72.17,72.17,0,0,1-11.82,2.67A43.69,43.69,0,0,1,1648.46,876.86Z"/><path class="cls-20" d="M1443.28,719c.25-4,.46-7.43,2.29-11.07.64-1.28,1.71-2.7,1.86-4.13.17-1.6-.67-2-1.62-3.25-2.41-3.24-4-8.73-.91-12.08,1.54-1.64,3.8-2.9,5.87-1,1.6,1.47,2.66,4.12,3.64,6a66.48,66.48,0,0,1,3.66,8.38c1.11,3.13.91,5.09.5,8.55l-1.1,9.21c-.32,2.7-.18,6.83-1.91,9"/><path class="cls-10" d="M1361.55,586.36c-.61-7.77-1.17-15.15-.61-23.05.46-6.36,1.17-12.82,2.26-19.11.43-2.47,1.46-5,1.66-7.5.64,2.88,1.13,5.82,2,8.68.86-8.24,3.59-15.42,6-23.3.43,3.46-.41,7.12.08,10.69.62-3.08.71-6.21,1.72-9.24a88.64,88.64,0,0,1,5.34-11.9,57.19,57.19,0,0,0-.26,13.27c.88-4.07,1.14-8.18,2.36-12.24,1.38-4.57,3.88-13.67,7.87-16.37-.31,4-2,8.24-1.61,12.34a74.61,74.61,0,0,1,3.82-10.71c2.25-4.66,4.76-11.05,8.3-14.77-.28,2.9-1,6.23-1.37,8.8,2.1-6.7,6.84-11.89,10.63-17.61-1.6,3.87-2,7.8-2.59,11.92,2.91-7.32,11-10,17.68-12.52-2.44,2.06-3.47,5.59-4.56,8.48,6-6.16,15.72-6.44,21.49-12.64-.15,3.55-2,7.11-4,10,4.25-4.1,10.73-6.59,16.31-8.19-2.89,1.78-4.67,5.88-6.11,8.85a26.19,26.19,0,0,1,9.76-5c2.2-.52,4.59-.61,6.67-1.51-7.76,9.6-10,21-9.45,33.06A28,28,0,0,0,1455,502"/><polygon class="cls-22" points="1361.24 593.63 1407.87 514.57 1456.91 512.1 1410.28 591.16 1361.24 593.63"/><path class="cls-20" d="M1475,907.06c2.52-2.95,7.55-4,11.25-4.68,2.1-.41,1.67-.8,1.78-3,2.13-.23,4-1.37,6.24-1.36a20,20,0,0,1,7.14,1.25c8.95,3.68,1.85,11-2.57,15.75"/><path class="cls-23" d="M1485.36,544.75h0a4.5,4.5,0,0,1,4.5,4.5v702.4a0,0,0,0,1,0,0h-9a0,0,0,0,1,0,0V549.25A4.5,4.5,0,0,1,1485.36,544.75Z" transform="translate(-161.92 350.91) rotate(-12.78)"/><path class="cls-20" d="M1420.46,681.59c-3.76,4,6,10.54,8.41,12.2,2.85,1.92,7.52,5.4,10.17,1.15s-2.87-10.55-6.33-12.69c-2.24-1.39-6.4-3.56-9.16-2.94C1422.33,679.59,1420.91,680,1420.46,681.59Z"/><path class="cls-20" d="M1422.14,697.07c-2.69,1.36-3.72,5.53-1.88,7.8,2.07,2.56,6,5,9,6.28,1.92.82,4.85,1.69,6.42-.34,1.33-1.73.83-4.45-.2-6.2s-3.44-3.3-5.15-4.62a49.3,49.3,0,0,0-4.52-3.09A2.84,2.84,0,0,0,1422.14,697.07Z"/><path class="cls-20" d="M1423,720.51a18,18,0,0,0,9.9,4.5c2.52.42,5.59.34,5.72-3,.17-4.36-6.52-6.91-9.93-7.73-2.17-.52-4.69-1.61-6,1S1422.09,718.49,1423,720.51Z"/><path class="cls-20" d="M1511.67,903.16c-4.6-6.74-14.6,2.38-19.79,3.19a63.77,63.77,0,0,1-9.61.69c-1.89,0-5.39-1.31-6.77-.49-2,1.21-2,5.34-1.73,7.39.37,3.19,3,4.7,3.57,7.62.26,1.22-.33,2.7,0,3.88.52,1.67,2.28,2.34,3.25,3.52,2,2.51,1.86,5.45,4.83,7.34,4,2.57,7,.14,10.86-1.35,3.29-1.29,5.85,1,8.82-.74"/><path class="cls-20" d="M1593.54,769.14c4,9.68,3.67,19.81-1,39.38-1,4.08,5.9,7.42,10.83,7.92,7.6.76,15.17,1.32,22.14-2,2.8-1.36,5.71-2.87,5.52-6.24-.23-4.25-1.18-13.24-1.91-18.68a99.39,99.39,0,0,1-.64-12.92,14.85,14.85,0,0,1,1.68-6.43c3.3-6.6,5.46-8.54,9.1-15"/><path class="cls-20" d="M1577.8,690.1a49.45,49.45,0,0,1,5.71-10.9s8.7,9.42,11.43,18c0,0,7.17-1.51,18.31.37,15.76,2.66,21.4,7.83,21.4,7.83,6.83-3.76,13.53-9.64,21.58-9.93,1,18.92-7.2,39.25-13.71,56.72-5.68,15.25-15.64,26.64-32.3,29.08-13.78,2-30.65-2.23-36.39-15.73-3.31-7.8-4.24-15.57-4.24-24C1569.59,718.7,1572.1,704.69,1577.8,690.1Z"/><path class="cls-21" d="M1665.16,825.55c36.38,42.92-31.11,137.25-47,146.87-18.23,11-29.47-2.71-45.22-6.88-17-4.49-29.79-14.14-46.09-20-11.52-4.13-17.08-4.89-24.56-10.69,0-12.07,3.35-18.09,9.42-31.71,19.78,5.49,35.33,14.12,54.3,20.76,6.54,2.29,23.59,4.55,38.07,10.49,17.75-24.47,37.38-61.92,32.84-72.94"/><path class="cls-24" d="M1592.53,736.56c.58,2.23.85,5.37,2.53,7.09,2.88-1.48,5.09-2.51,7.27-4.91a7.83,7.83,0,0,0-5.73-3.08C1595.65,735.59,1592,735.86,1592.53,736.56Z"/><polygon class="cls-22" points="1456.91 512.1 1407.87 514.57 1406.6 507.83 1455.64 505.37 1456.91 512.1"/><polygon class="cls-22" points="1361.24 593.63 1407.87 514.57 1406.6 507.83 1359.97 586.89 1361.24 593.63"/><path class="cls-12" d="M1576.55,741.66c.49,3.46,4.34,7.27,8.61,7.64s7.68-1.7,9.76-5.38c-1.4,1.81-.15,4,1,5.68,2.52,3.59,7,5.37,11.12,6.37,5.92,1.43,11.67,0,17.08-2.58"/><path class="cls-25" d="M1613.48,720c-1.58.83-2.31,3.54-2.11,5.14,2.18,1,3.29-4,2.28-5.3-1.9.86-2.41,4.13-2.18,6,2.44,1.56,3.41-4.63,3-6-1.4.17-1.73,2.35-2.09,3.47"/><path class="cls-25" d="M1590.52,715c-1.59.83-2.32,3.55-2.12,5.14,2.18,1,3.3-4,2.28-5.3-1.9.86-2.4,4.13-2.17,6,2.44,1.56,3.41-4.63,3-6-1.4.18-1.73,2.35-2.09,3.48"/><path class="cls-12" d="M1669.91,1323.64c-.28,4.88-1.6,9.9.17,14.77"/><path class="cls-12" d="M1679.43,1315.53a8.58,8.58,0,0,1-.35,2.5,46.77,46.77,0,0,0-.1,14.56"/><path class="cls-12" d="M1660.41,1328a15.22,15.22,0,0,0-.11,10.27"/><path class="cls-12" d="M1591.54,934.8c4.34-.41,8.27,3.17,10.58,6.49,1.51,2.17,4.41,11,8.42,10.11,5.85-1.36-6.73-14.74,0-18.35"/><path class="cls-12" d="M1523,911.8c-3.31,7.46-3,19.85,2.1,26.53,1,1.37,4.27,5.51,6.35,3.7,1.45-1.25-.13-10.34,2.81-9.78,1.25.23,2.83,8.19,3.24,9.3,2.2,6,10,8.2,15.25,10.75"/><path class="cls-12" d="M1482.79,836.8c2.62,5.59,12.35,2.07,16,0"/><path class="cls-12" d="M1623.29,859.3a61.26,61.26,0,0,1-16.42-1c-7.85-1.38-15.94-3.16-23.67-5.14-5.22-1.33-9.3-4.08-14.16-6.12a3.51,3.51,0,0,0-.49,1.46c-.36,2.52-.53,5.08-.74,7.62-.55,6.55-1.6,13.19-1.76,19.76-.17,6.8-1.67,14.21-.43,21,1,5.5,4.06,11,9,13.85,4.44,2.58,9.89,3.45,15,3.49a27.34,27.34,0,0,0,10.73-2.18c5.35-2.21,8.48-5.79,11-10.87s3.68-10.57,5.16-15.93c1.23-4.46,2-9.1,3.5-13.47C1621.36,867.72,1623.22,863.5,1623.29,859.3Z"/><path class="cls-12" d="M1671.54,977.55a14.66,14.66,0,0,1-6.5,3.53,111.14,111.14,0,0,1-15.47,4c-5.63.86-11.16,0-16.78.23,3,12.15,5.28,24.17,9,36.14,2.72,8.73,4.36,17.28,12.75,22.42,7.25,4.45,14.08,6.25,22.45,6.71,3.17.17,7,.81,10,.48"/><path class="cls-19" d="M1587.54,971.8c0,9.05-.08,18.86,3.08,27.48,1.05,2.85,2.08,8.09,4.59,9.76"/><path class="cls-12" d="M1589,992.3c8.83,2.78,16,19.72,18.77,27.75"/><path class="cls-12" d="M1565.45,725.4c3.34-.14,7.33,1.23,10.5,2.21a55.2,55.2,0,0,1,8.66,3.36"/><path class="cls-12" d="M1566.67,733.14c2.08-.79,5.26,0,7.4.29s4.76.36,6.6,1.21"/><path class="cls-12" d="M1613.55,736c4.07-.11,8.15-.28,12.25-.28s7.92.81,11.93,1"/><path class="cls-12" d="M1612.87,742c.81-.46,2.59,0,3.59.06,2.77.26,5.59,1.33,8.36,1.3"/><path class="cls-22" d="M694.54,1096.18c41,9.62,60.5,8.62,62.87,56.84a258,258,0,0,1-3.17,49.87c43.23-9.24,74-.59,77.85,6.1,12.45,21.81-44.29,17.53-57.55,19.73-15.77,2.62-60.49,13.51-42.7-14.25,12.46-19.44,11.34-48.73,7.86-71-3-19.11-9.28-22.63-69.65-37.63,0,0,4-10.45,11.86-11.42S694.54,1096.18,694.54,1096.18Z"/><path class="cls-26" d="M629.29,899l-2.08-13-47.8,7.63,2.24,14c2.47,15.5-1.85,31.84-7.27,46.66-20.74,56.71-41.12,113.14-35.51,148.29,8.49,53.2,56.79,89.71,111.33,81s88.84-59.84,80.35-113c-5.55-34.82-42.5-81-79.58-128C641.19,930.11,631.76,914.51,629.29,899Z"/><g class="cls-15"><path class="cls-16" d="M685.44,1169.31c-2.22-.48-3.88-2.68-6.07-3.42-7.59-2.58-8,4.12-13.93,6.53-5,2-8.62-.3-12.43-3.5s-5.11-6.22-10.27-4.82c-4.33,1.17-6.91,4.48-11.58,5.14-15.51,2.19-9.76-12.54-17.37-19.64-3.36-3.13-8.24-2.85-10.73-7.25-2.34-4.16-2.37-10.25-4.18-14.78-2.89-7.28-4.71-7-11.77-6.79-5.08.12-11.61-.38-13.51-6.06-2.2-6.55,4.49-11.91,5.67-17.88,1.11-5.59-1.13-8.13-4.95-11.77-10-9.48-9.57-16.74-2-28.2,3.69-5.6,7.57-11.57,6.71-18.68-.7-5.87-5.26-8-7.39-13-4.67-10.87,8-22,12-30.91a23.64,23.64,0,0,0,1.5-17c-1.21-4.09-2.86-6.27-1.63-10.88,2-7.47,9.93-12.19,11.54-19.63,1.23-5.71-3.64-10.48-2.45-15.77,1.33-5.93,5.31-7,3.55-14.21-1-3.89-5.41-6.65-5.08-10.77.35-4.47,4.48-5.5,8.26-6.6,8.45-2.46,16.06-4.86,19-12l-38.88,6.21,2.24,14c2.47,15.5-1.85,31.84-7.27,46.66-20.74,56.7-41.12,113.14-35.51,148.29,8.49,53.2,56.79,89.71,111.33,81a96.37,96.37,0,0,0,37.26-14.18A6.76,6.76,0,0,1,685.44,1169.31Z"/></g><path class="cls-27" d="M580.26,889.3l6.63-1.06L583,863.89,575.84,865c-7.9,1.27-16.23-.93-23.79-3.68-28.9-10.54-57.67-20.9-75.58-18-27.1,4.35-45.69,29-41.23,56.77s30.53,45.24,57.64,40.89c17.74-2.84,41.27-21.69,65.21-40.61C564.41,895.38,572.35,890.57,580.26,889.3Z"/><path class="cls-28" d="M613.29,847.68c-4.79.36-10.4,1-16.39,2s-11.52,2.08-16.18,3.23l-14.49,2.31,7.12,44.61c.37,2.28,14.44,1.93,31.43-.78s30.48-6.76,30.11-9l-7.12-44.61Z"/><ellipse class="cls-28" cx="596.95" cy="849.96" rx="31.16" ry="4.18" transform="translate(-126.49 104.7) rotate(-9.07)"/><path class="cls-28" d="M599.08,815.34c-2.19.17-4.77.47-7.51.91s-5.28,1-7.41,1.47l-6.63,1.06,5,31.54c.17,1,6.61.89,14.39-.36s14-3.09,13.8-4.13l-5-31.55Z"/><ellipse class="cls-28" cx="591.6" cy="816.39" rx="14.27" ry="1.91" transform="translate(-121.27 103.43) rotate(-9.07)"/><path class="cls-22" d="M597.53,1142.89c15.17,35.78,10.56,73.79,6.27,94.2-2.08,9.87-9.52,30.15-18.09,46.58,44,4.24,73.49,21.7,72.37,29.33-2.71,18.5-37.57,17.76-50.87,15.86-15.83-2.27-82.11-22.07-48.43-42.65,19.71-12,27.61-41.29,31-63.62,2.93-19.11,5-47.59-16.23-85.23,0,0,4.68-1.44,12.45,0S597.53,1142.89,597.53,1142.89Z"/><ellipse class="cls-29" cx="605.08" cy="830.1" rx="3.11" ry="7" transform="translate(-123.26 105.73) rotate(-9.07)"/><polyline class="cls-14" points="610.75 825.64 845.96 761.22 856.3 820.31 612.45 832.22"/><path class="cls-14" d="M772.2,798.42c24.53-5.65,62.39-4.86,69.62-35-11.05,7.63-26.55-3-30.89-13.18-5.95-14-2.21-18.36-19.64-22.7-16.82-4.2-29.44-13.78-27.17-32.68,3.52-29.25,35.4-33,58.92-33.36,2.43-18.08,7.09-37,23.06-48.28,12.3-8.66,35.75-13.6,50.51-7.35,21.11,8.93,32.63,28.22,35.1,50.72,3.79,34.63-1.39,67.11,6.51,101.92,4.95,21.8,8,48,28,61.88,11.75,8.15,29.59,11.41,40.71,0,7.71-7.9,9-20.23,5.47-29.93-2.06-5.69-8.45-7-3.64-13.87,10.41-14.81,30.44,6,35.2,15,11.46,21.69-2.12,44.29-19.7,58.24-14.6,11.59-31.56,13.86-49.63,12.48-16.2-1.23-25.66-13-40.31-16.57-13.36-3.23-27.91,6.47-21.23,19.75,3.22,6.41,9.78,9,13.75,14.08,5.26,6.72,5.23,15.07,5.34,23.12.35,25.19-20.35,48.36-47.49,43.34-29.12-5.39-33.3-40.55-29.58-65.38C843,884.3,836,886.78,825,877.09s-17.72-26.7-12.8-41.63c4.13-12.51,18.23-15.67,15.87-30.75a24.25,24.25,0,0,0-17.82-1.17"/><path class="cls-14" d="M996.1,809.5c-2.15,3.16-9.14-.09-13.44-1.85-11.29-4.61-19.23-18-23.56-28.83-7-17.52-5.93-47,13.93-56.9,22.86-11.44,53.55,12.6,36.84,36.18-7.62,10.76-19.3,15.39-19.64,29.85C990.05,795.87,1000.2,803.51,996.1,809.5Z"/><line class="cls-30" x1="678.46" y1="815.31" x2="753.52" y2="799.7"/><line class="cls-30" x1="813.96" y1="812.85" x2="685.96" y2="822.5"/><path class="cls-31" d="M596.89,1281.65c-9.06,1.32-16.85,7.72-16.59,17.19.08,2.71,1.69,6.57,4.86,6.56s4.7-4.6,5.62-7c1.45-3.78,3.19-6.38,6.72-8.58,2.62-1.64,5.3-1.94,8.35-1.93,2.18,0,7.32.47,7.32.47a5.47,5.47,0,0,0-1.62-3.6C608.12,1281.15,602,1280.9,596.89,1281.65Z"/><path class="cls-31" d="M613.34,1286.46c-8.53,1.25-15.87,7.27-15.62,16.19.07,2.55,1.59,6.19,4.57,6.18s4.43-4.34,5.29-6.58c1.37-3.56,3-6,6.33-8.08a13.87,13.87,0,0,1,7.87-1.82c2.05,0,6.89.44,6.89.44a5.09,5.09,0,0,0-1.53-3.39C623.91,1286,618.17,1285.75,613.34,1286.46Z"/><path class="cls-31" d="M627.91,1292.79c-7.64,1.11-14.2,6.51-14,14.49.06,2.28,1.42,5.53,4.09,5.52s4-3.88,4.74-5.89a13.23,13.23,0,0,1,5.66-7.23,12.46,12.46,0,0,1,7-1.63c1.84,0,6.17.4,6.17.4a4.6,4.6,0,0,0-1.37-3C637.37,1292.37,632.23,1292.15,627.91,1292.79Z"/><path class="cls-31" d="M763.27,1201.14c-1.32,3-1.39,7.8-1.39,11.09a12.46,12.46,0,0,0,1.07,5.41c1.58,3.62,6.47,3.62,7.6-.32,1.18-4.12.7-9.25.45-13.48-.13-2-.28-4.47-3.08-5A3.85,3.85,0,0,0,763.27,1201.14Z"/><path class="cls-31" d="M779.55,1200.29c-1,3.11-.46,7.87-.09,11.15a13,13,0,0,0,1.7,5.3c2,3.47,6.86,3.06,7.52-1,.7-4.2-.37-9.27-1.12-13.45-.36-2-.79-4.43-3.64-4.77A3.75,3.75,0,0,0,779.55,1200.29Z"/><path class="cls-31" d="M794.38,1200.41c-.61,2.93.27,7.28.92,10.27a12,12,0,0,0,2,4.78c2.14,3.07,6.59,2.39,6.84-1.35.26-3.91-1.17-8.51-2.24-12.32-.51-1.85-1.13-4-3.78-4.16A3.34,3.34,0,0,0,794.38,1200.41Z"/><path d="M541.1,904.71c-3.32.42-2.68-2.22-4.75-2.87-3.71-1.18-10.54,5.79-12.76,7.89a83.68,83.68,0,0,1-10.1,8.72c-1.4,1-5.17,4.31-7,4.08-4.15-.54.64-5.46-1.59-7.6-1.55-1.49-8.79,2.27-10.25,2.91-3.59,1.59-10.45,8.08-14.42,6.69-3.47-1.22-2.87-4.95-2.41-7.82.33-2,3-7.82.74-9.49-3.13-2.31-7.41,4.27-9.57,5.2-9.51,4.13-6.64-14.47-6.8-18.77-.46-12.07-9.31,1.79-12.29-5.11-3.1-7.18,8.21-16.32,3.94-22.43-4.68.12-9,7.11-8-2.61a15.73,15.73,0,0,1,1-4.17,49,49,0,0,0-11.68,40.76c4.46,27.78,30.53,45.24,57.64,40.89,16.26-2.6,37.37-18.65,59.21-35.87-.7-1-.17-2.62-1.3-4.65C547.81,901.46,544,904.34,541.1,904.71Z"/><path class="cls-14" d="M963.21,900.47c-1.65,12.39-18.8,27.48-7.36,37.86,10.27,9.33,21.07-3.14,22.66-13.51,1.16-7.56.31-19-5.63-24.65C969.6,897.05,963.89,895.41,963.21,900.47Z"/><path class="cls-13" d="M887.92,767.93q-.43-3.69-.79-7.4c-.76-2.79-1.44-5.6-2-8.46-.25-1.31-.46-2.63-.67-4,0-.13,0-.24,0-.34a24.07,24.07,0,0,0-.64-4.4c-2.11-10.53-4.19-22.06-2.19-33,2.24-12.29,7.11-23.48,11.87-34.8.25-.6-.29-1.38-.89-1-10.34,7.1-17.66,18.4-23,30.23-1.52,3.34-3,6.67-4.34,10-1.23-3.08-2.25-5.69-3.31-8.63A112.61,112.61,0,0,1,857.5,689c-.3-1.53-.52-3.08-.79-4.62l0-.13c0-.13,0-.3,0-.53-.24-2.9-.4-5.78-.42-8.69,0-2.61-.05-5.23,0-7.84.05-1.45.21-2.88.29-4.33,0-.09,0-.16,0-.24.06-.26.12-.57.2-1,1-5.06,2.52-9.92,3.73-14.91.24-1.48.41-3,.54-4.45.07-.18.25-1.37.11-1.26,0,0,0-.08,0-.1.82-2.05,1.78-2.76,3.14-4.93,1.8-2.86,3.7-7,6.46-9.35,3.28-2.76,7.27-3.42,9.62-7.48a3.45,3.45,0,0,0-.45-3.82c-3.41-4.35-9.23-3.54-13.83-2.66-5.53,1.06-10.38,1.57-15.51,4.34a35.76,35.76,0,0,0-7.47,5.81c-.86.81-1.71,1.71-2.6,2.51,0-.05-1.68,1.23-1.91,1.42-6.63,5.46-6.33,13.28-8.6,22a82.61,82.61,0,0,0-2.58,17.36c-2-.32-8.23-.51-10.22-.56-5.32-.14-12.4.64-17.1,3.64l-.32.22c-12.23-2.25-27.29,7.51-30.06,20.62-3,14.35,2.86,25.48,15,31.09,4.93,2.28,14.59,5.77,19.75,4.91l.05.1a64.41,64.41,0,0,1,4,8.44,60.27,60.27,0,0,0,3.29,7.38c3.58,6.34,8.08,9.42,14.39,11.41,7.85,2.47,15.78,2,21.92-3.75a8.92,8.92,0,0,1,3,.21,2.83,2.83,0,0,1,1.06.52c.39.69.92,1.92.95,2,.45,1.26.41,3.6.51,5.8a29.87,29.87,0,0,0,.08,3.09,22.86,22.86,0,0,0-.7,2.58c-5,11.2-15.08,17.57-17.86,30.41a29.65,29.65,0,0,0-.18,12c.56,2.75,3,6.09,3.19,8.61-.16-1.21-1.35,2-1.73,2.45a10.84,10.84,0,0,1-4.41,3.6c-15.36,6.1-23.74,29.78-11.75,42.56a23.29,23.29,0,0,0,21.47,11.45,44.1,44.1,0,0,0,11.76-2.61c1.82-.63,3.73-1,5.52-1.71a13.55,13.55,0,0,0,3.55-2.33c3.08,2.32,2.57,10.11,2,13.4-1.47,9.24-5.21,17.72-5.29,27.26-.07,8.52,2.72,16.7,9,22a21.68,21.68,0,0,0,3.06,2.18c-.2-.91-.39-1.83-.54-2.76a74.4,74.4,0,0,1,5.22-42.53,53.87,53.87,0,0,1,3.74-7,38.85,38.85,0,0,0,0-11.09,30.64,30.64,0,0,0-1.31-5.3c-12.16-2.31-25.25-6.35-31.54-19-4.45-8.93-4.42-19.14-1.59-28.65,1.53-5.15,3.74-10,4.84-15.32,4.2-20,32-24.14,40.72-5.81a51.9,51.9,0,0,1,2.12,5.17C890.92,790,889.23,779,887.92,767.93Z"/><path class="cls-14" d="M938.71,639.89c-4.42-13.6-9.86-27.55-22.59-35.38-10.85-6.67-24-14.59-26.67-28.47-5.21-27.69,30.3-31.77,45-15.8,13.31,14.47,13.23,25.54,14.45,44.24C949.71,617.16,944.18,633,938.71,639.89Z"/><path class="cls-12" d="M1111.54,221.3c3-.92,18.11,14.07,21,17.34,4.85,5.54,8.62,12.39,13.43,18.17a113.45,113.45,0,0,1,10.1,14"/><path class="cls-12" d="M1178,307.3c1.74,9.51,10.56,18.85,14,28.32,2.31,6.26,4.84,12.38,6.84,18.71,1.06,3.32,2.8,12.94,4.11,14"/><path class="cls-32" d="M581.88,818c-4.4-2-7.5-11.42-9.77-15.45a172.36,172.36,0,0,0-19-27.7c-10.19-11.93-23.82-18.75-38.82-22.75-16.79-4.48-35.47-7.92-50.94-16.26-16.51-8.9-34.49-23.94-44.94-39.65-8.49-12.76-14.65-26.85-20.78-40.83-1.64-3.75-4.73-8.08-4.72-12.23,4.37,2,7.74,5.49,12.5,7.24,7.86,2.89,16.17,4.6,24.1,7.44,6.45,2.31,12.89,5.1,19.59,6.58,18.66,4.1,36.25,12.6,51.82,23.69,17.84,12.71,30.14,31.48,41.2,49.85,3.79,6.3,8.51,12.09,12,18.53,3,5.55,5.32,11.49,7.87,17.26,3.94,8.92,8.7,17.35,13.13,26,2.7,5.27,5.62,12.81,10.82,17"/><path class="cls-32" d="M600,814.8c-1.88-3.85.18-10.74,1.35-15C606,783.1,617.79,765.6,627,751.09a294.76,294.76,0,0,0,38.25-90.51c5.4-22.9,8.89-46.57,16.49-68.88,3.23-9.48,9.73-19.15,11.71-28.78-5,6.39-13.56,10.42-19.13,16.61-5.75,6.38-9.56,14.14-14.73,20.92a195.86,195.86,0,0,0-18,28.65c-17.56,33.54-24.62,70.2-31,107.08-3.61,20.72-7.36,40.86-12.13,61.13-1.45,6.17-1.64,12.33-3,18.34"/><path class="cls-32" d="M590,814.9c.11-13.08-.23-23.33.65-36.52a114.12,114.12,0,0,0-3.64-37.24,633.27,633.27,0,0,1-12.24-62.55c-6-41.8-7.6-86.07,9.63-125.43,9.85-22.48,24.44-40.7,38.65-60.21,0,7.68-3.87,16.32-4.55,24.38-1.43,17-.49,34.37-.5,51.45a771.24,771.24,0,0,1-6.53,100.9c-5,38-14.8,74.8-16.94,113.16-.56,10.14-1,22.35-1,31.46"/><path class="cls-32" d="M589.54,815.8c0-13.18-3.3-25.11-5.63-38-2.36-13.11-3.07-25.88-6.13-38.87-2.75-11.65-4.23-23.48-6.74-35.18-6.47-30.07-25.24-63.59-49.81-82.47-15.46-11.89-31-24.18-48.21-33.27a70.18,70.18,0,0,1-17.3-12.13c6.74,9.51,7.83,25,11,36.2,3.07,10.93,9.64,21.84,14.85,31.91,4.89,9.42,12.2,18.16,18,27.12s13.78,16.95,21.55,24.49c25.76,25,53,57.41,59.32,94.12,1.49,8.61,4.62,19.55,9.13,27.1"/><path class="cls-32" d="M590.63,816.74c-3.71-4-8.28-14.68-10.69-17.52-4.41-5.21-9.58-7.48-16.37-7.91-11-.7-22-1.44-33-2.62C505.81,786,481.64,777.23,458.26,769c-13.28-4.68-25.39-11.14-39.67-11.2-8.69,0-18.47-1.5-26-1.5,19.27-.69,36.06-6.13,54.26-11.5a143,143,0,0,1,54.32-5.39,111.52,111.52,0,0,1,58.6,23.7c11.68,9.26,20.6,21.91,28.58,34.44A128.52,128.52,0,0,1,596.65,815"/><path class="cls-32" d="M590.06,816.12c3-21.59,7.05-58.77,4.22-80.24-2.11-16-2-32-4.73-47.86-3.77-22.15-10.81-42.81-19.63-63.31-7.48-17.38-10.21-37.28-18.88-53.91-1.54,14-2.41,28.56-1.39,42.61,2,27.35,6.18,54.68,14.39,80.78,7.89,25,14.81,49.77,18.89,75.69,1.83,11.61,2.55,35.86,3.11,47.5"/><path class="cls-32" d="M600,814.8c3.43-11.2,11.78-22.09,19.66-30.6,15.31-16.53,32-28.76,51.57-39.83,14.41-8.18,28.17-20.63,43.63-26.59-13.54-.55-28.92,5.92-41.92,9.44-17,4.6-34.23,10.94-46.41,24.51-10,11.16-18.24,27.55-23.5,41.45-2,5.22-4.73,16.71-7,21.62"/></g></g></svg>