<svg id="Layer_1" data-name="Layer 1" xmlns="http://www.w3.org/2000/svg" xmlns:xlink="http://www.w3.org/1999/xlink" viewBox="0 0 2240.78 1683.13"><defs><style>.cls-1,.cls-11,.cls-15,.cls-2,.cls-21,.cls-22{fill:none;}.cls-11,.cls-12,.cls-13,.cls-14,.cls-15,.cls-16,.cls-17,.cls-18,.cls-19,.cls-2,.cls-20,.cls-21,.cls-23,.cls-3,.cls-4,.cls-6,.cls-7,.cls-8,.cls-9{stroke:#000;}.cls-15,.cls-2,.cls-21,.cls-22{stroke-linecap:round;}.cls-11,.cls-12,.cls-13,.cls-15,.cls-16,.cls-17,.cls-18,.cls-19,.cls-2,.cls-20,.cls-22,.cls-23,.cls-3,.cls-4,.cls-6{stroke-miterlimit:10;}.cls-2{stroke-width:0.5px;}.cls-3{fill:#debb97;}.cls-11,.cls-12,.cls-13,.cls-14,.cls-15,.cls-16,.cls-17,.cls-18,.cls-19,.cls-20,.cls-21,.cls-23,.cls-3,.cls-4,.cls-6,.cls-7,.cls-8,.cls-9{stroke-width:2px;}.cls-4,.cls-9{fill:#f4eed8;}.cls-5{opacity:0.26;fill:url(#_10_dpi_20_2);}.cls-6{fill:#131324;}.cls-7{fill:#b8c9a9;}.cls-14,.cls-21,.cls-7,.cls-8,.cls-9{stroke-linejoin:round;}.cls-8{fill:#d4e5c7;}.cls-10,.cls-16{fill:#fff;}.cls-12{fill:#9e7842;}.cls-13{fill:#1d1d1b;}.cls-14{fill:#3b7d51;}.cls-17{fill:#c5d7ea;}.cls-19{fill:#ffdf8c;}.cls-20{fill:#7c5b27;}.cls-22{stroke:#fff;stroke-width:12px;}.cls-23{fill:#bd2f56;}</style><pattern id="_10_dpi_20_2" data-name="10 dpi 20% 2" width="28.8" height="28.8" patternTransform="translate(255.03 614.88) scale(4.43)" patternUnits="userSpaceOnUse" viewBox="0 0 28.8 28.8"><rect class="cls-1" width="28.8" height="28.8"/><path class="cls-2" d="M2.75,28.08c.37-.06.71.42,1,.62a3.32,3.32,0,0,1,1.61,2,3.61,3.61,0,0,0,.31,1.53,4.72,4.72,0,0,0,1.28.93c.65.45.51,1.81,1.16,2.26s1.23,1,1.9,1.37A34.67,34.67,0,0,0,14.4,39c1,.41,2.81-.26,3.69.3a10,10,0,0,1,1.71,1.07c.57.56.51,1.1.75,1.81s1.08.92,1.74,1.32a19.14,19.14,0,0,0,1.83,1c.56.27,1.25.4,1.77.7s.25.63,0,1-.48.53.1.83c.28.15.52.3.77.46"/><path class="cls-2" d="M20.75,29c.26.66,1.3.68,1.47,1.45.12.58-.58.82-.32,1.38s1.34.72,2,.84,2,.16,2.4.76c.3.42-.21.8.07,1.13s.87.23,1.14.52.11.39.25.53.55.17.75.47"/><path class="cls-2" d="M5.58,28c0,.8,1.64,1.38,2.07,2s0,1.37.51,2"/><path class="cls-2" d="M17.12,28.42c0,.07,0,.09,0,.14.29.56.94.8,1.14,1.47a1.57,1.57,0,0,1,0,.86c-.16,1,.58,1.15,1.3,1.62"/><path class="cls-2" d="M27.76,21.86c.59.76,1.82,1,2.63,1.49A3.68,3.68,0,0,1,32,25c.64,1,1.61,1.07,2.67,1.49A10,10,0,0,1,37,27.85c.53.4.91,1,1.47,1.34"/><path class="cls-2" d="M26.68,18.53c2.05.6,3.6,1.86,5.4,2.95A26.22,26.22,0,0,1,37,25.32a12.19,12.19,0,0,0,4,2.15c1.22.51,2.1,1.68,3.33,2.06"/><path class="cls-2" d="M26.76,13.78c1.33.5,2.43,1.57,3.81,2a11.41,11.41,0,0,1,4.59,2.72c1.06.93.49,1.1.25,2.11s2,1.35,2.78,1.93c1.36,1,3,1.26,4.45,2.1.81.48,1,1.22,1.68,1.69,1.07.71,2.43,1,3.49,1.75a4.81,4.81,0,0,0,1.95,1"/><path class="cls-2" d="M26.1,8.4c.06.46.39.65.79.95a47.71,47.71,0,0,0,6.26,3.47c2,1,2.34,2,4.24,3.22a14.8,14.8,0,0,1,3.24,2.17c1.32,1.42-.39.83-.72,1.76s3.3,1.71,3.73,1.92c1.23.58,2.85.9,3.94,1.71,1.3.95-.3.86,0,1.81.19.75,2.27,1.23,2.82,1.47A13.63,13.63,0,0,1,52.47,28,10.07,10.07,0,0,0,55,29.53"/><path class="cls-2" d="M28.16,7.22a17.72,17.72,0,0,1,2.21,1.69,28.8,28.8,0,0,0,6.93,3.57A24.26,24.26,0,0,1,42,15.14c1.07.68,2.26,1.07,3.37,1.66.68.36-.16,1.12.29,1.81s2.2.85,2.64,1.41c.85,1.1,3,1.39,3.34,2.82-.61.25-.52.61-.09,1,.85.74,2.42.53,3.44.91a13.38,13.38,0,0,1,2.34,1.55c1,.63,2,1.25,3.05,1.8"/><path class="cls-2" d="M26.05.61c.62-.11,1.61.86,2.11,1.17a26.84,26.84,0,0,0,2.89,1.56,3.54,3.54,0,0,1,1.84,1.25c.42.77-.18,1.82.37,2.4s1.51,2.44,2.37,2.73a38.07,38.07,0,0,1,6.45,3c.78.42,1.49-.78,1.88,0s.65.69,1.3.83a5.93,5.93,0,0,1,3.25,1.37,11.08,11.08,0,0,1,1.19,1.68c.36.61.43,1.34,1,1.78s1.92.29,2.24,1.2c.11.31,0,.31.23.55a6.63,6.63,0,0,0,1.17.65,11,11,0,0,0,1.19.59c.3.12.72.19.91.47"/><path class="cls-2" d="M27.84,16.16a11.69,11.69,0,0,0,1.36.72c.72.42,1.37.86,2.12,1.22s1.56,1.07,2.43,1.44"/><path class="cls-2" d="M24.88,22.58a5.7,5.7,0,0,0,1.53.74c.71.31,1.37.69,2.06,1,.31.15.65.14,1,.27s.72.64,1.17.83"/><path class="cls-2" d="M-1,21.86c.59.76,1.82,1,2.63,1.49A3.68,3.68,0,0,1,3.18,25c.64,1,1.61,1.07,2.67,1.49a10,10,0,0,1,2.31,1.33c.53.4.92,1,1.47,1.34"/><path class="cls-2" d="M-2.12,18.53c2.05.6,3.6,1.86,5.4,2.95a25.9,25.9,0,0,1,4.89,3.84,12.19,12.19,0,0,0,4,2.15c1.22.51,2.1,1.68,3.33,2.06"/><path class="cls-2" d="M-2,13.78c1.33.5,2.43,1.57,3.81,2a11.41,11.41,0,0,1,4.59,2.72c1.06.93.49,1.1.25,2.11s2,1.35,2.78,1.93c1.36,1,3,1.26,4.45,2.1.81.48,1,1.22,1.68,1.69,1.07.71,2.43,1,3.49,1.75a4.81,4.81,0,0,0,1.95,1"/><path class="cls-2" d="M-2.7,8.4c.06.46.39.65.79.95a47.71,47.71,0,0,0,6.26,3.47c2,1,2.34,2,4.24,3.22a14.8,14.8,0,0,1,3.24,2.17c1.32,1.42-.39.83-.72,1.76s3.3,1.71,3.73,1.92c1.23.58,2.85.9,3.94,1.71,1.3.95-.3.86-.05,1.81.19.75,2.27,1.23,2.82,1.47A13.63,13.63,0,0,1,23.67,28a10.07,10.07,0,0,0,2.56,1.57"/><path class="cls-2" d="M-.64,7.22A17.72,17.72,0,0,1,1.57,8.91,28.8,28.8,0,0,0,8.5,12.48a24.26,24.26,0,0,1,4.67,2.66c1.07.68,2.26,1.07,3.37,1.66.68.36-.16,1.12.29,1.81s2.2.85,2.64,1.41c.85,1.1,3,1.39,3.34,2.82-.61.25-.52.61-.09,1,.85.74,2.42.53,3.44.91a13.38,13.38,0,0,1,2.34,1.55c1,.63,2,1.25,3.05,1.8"/><path class="cls-2" d="M-2.75.61c.62-.11,1.61.86,2.12,1.17A25.78,25.78,0,0,0,2.25,3.34,3.54,3.54,0,0,1,4.09,4.59c.42.77-.18,1.82.37,2.4S6,9.43,6.83,9.72a38.07,38.07,0,0,1,6.45,3c.78.42,1.49-.78,1.88,0s.65.69,1.3.83a5.93,5.93,0,0,1,3.25,1.37,11.08,11.08,0,0,1,1.19,1.68c.36.61.43,1.34,1,1.78s1.92.29,2.24,1.2c.11.31,0,.31.23.55a6.63,6.63,0,0,0,1.17.65,12,12,0,0,0,1.19.59c.3.12.72.19.91.47"/><path class="cls-2" d="M2.75-.72c.37-.06.71.42,1,.62a3.32,3.32,0,0,1,1.61,2,3.64,3.64,0,0,0,.31,1.53,4.72,4.72,0,0,0,1.28.93c.65.45.51,1.8,1.16,2.26S9.3,7.61,10,8a34.67,34.67,0,0,0,4.43,2.13c1,.41,2.81-.26,3.69.3a10,10,0,0,1,1.71,1.07c.57.56.51,1.1.75,1.81s1.08.92,1.74,1.32,1.2.7,1.83,1,1.25.4,1.77.7.25.63,0,1-.48.53.1.83c.28.15.52.3.77.46"/><path class="cls-2" d="M9.5.32c.9.5,1.68,1.71,1,2.17s-.83.71,0,1.2c1.14.68.62,1.65,1.84,2.2.75.34,1.51.7,2.28,1a1.31,1.31,0,0,0,1.19,0,3.77,3.77,0,0,1,3.35.32A13.3,13.3,0,0,1,21,8.28a1.12,1.12,0,0,1,.62,1.07c-.08.64-.31,1,.18,1.49a4.54,4.54,0,0,0,1.37.79,1.71,1.71,0,0,1,.72.61c.11.23,0,.39.21.58s.79.21,1.07.35.63.39,1,.53a2,2,0,0,0,.59.12c.4.08.33.16.75.42"/><path class="cls-2" d="M15.21.61c1.06.65-.22,1-.9,2-.57.88-.49,1.09.53,1.37,1.41.38,4.56,1.41,5.93,1.94a6.16,6.16,0,0,1,1.76.92,2.72,2.72,0,0,0,2,.6,2.66,2.66,0,0,1,1.29.38c.33.31.14.82.47,1.21"/><path class="cls-2" d="M20.75.24c.26.66,1.3.68,1.47,1.45.12.58-.58.81-.32,1.38s1.34.72,2,.84,2,.16,2.4.76c.3.42-.21.8.07,1.13s.87.23,1.14.52c.14.14.11.39.25.53s.55.17.75.47"/><path class="cls-2" d="M-1,16.16a11.07,11.07,0,0,0,1.37.72c.71.42,1.36.86,2.11,1.22S4.08,19.17,5,19.54"/><path class="cls-2" d="M23.87,25.87c.3,0,.48.17.73.31.57.31,1.18.52,1.73.87s1.39.8,2.05,1.25a25.15,25.15,0,0,0,3.11,1.57"/><path class="cls-2" d="M5.58-.84c0,.8,1.64,1.38,2.07,2s0,1.37.51,2"/><path class="cls-2" d="M15,8.29a4.38,4.38,0,0,0,1.77.21,5.78,5.78,0,0,1,2.53.7"/><path class="cls-2" d="M17.12-.38c0,.07,0,.09,0,.14.29.56.94.8,1.14,1.47a1.57,1.57,0,0,1,0,.86c-.16,1,.58,1.15,1.3,1.61"/><path class="cls-2" d="M24.66,1.91c.57.43,1.13.87,1.72,1.28s1,.45,1.47.72c1,.49,2.78,1.18,3.19,2.25"/><path class="cls-2" d="M24.66,10.41c1.18,1,2.77,1.31,4,2.17a20.37,20.37,0,0,0,2.22,1.29"/><path class="cls-2" d="M14.33,18.41c.21.46.2,1,.56,1.43a5.09,5.09,0,0,0,1.55.81c.42.21.84.44,1.26.64"/><path class="cls-2" d="M8.41,18.12c0,.36.33.69.4,1.05.14.78,0,.89.6,1.49"/><path class="cls-2" d="M16,23.91a9.58,9.58,0,0,0,1.42,1"/><path class="cls-2" d="M17.45,15.45a3.56,3.56,0,0,1,1.26.91c.41.55.35,1.21,1,1.59"/><path class="cls-2" d="M-3.92,22.58a5.85,5.85,0,0,0,1.53.74c.71.31,1.37.69,2.06,1,.31.15.65.14,1,.27s.72.64,1.17.83"/><path class="cls-2" d="M9.41,24.25c.11.22.37.26.59.35a10.76,10.76,0,0,1,1.6.87,8.4,8.4,0,0,0,1.05.5c.3.14.53.42.84.53"/><path class="cls-2" d="M12.12,1.08c1.09.53.08,1.42.17,2.12"/><path class="cls-2" d="M-29.44,7.22a17.72,17.72,0,0,1,2.21,1.69,28.8,28.8,0,0,0,6.93,3.57,24.26,24.26,0,0,1,4.67,2.66c1.07.68,2.26,1.07,3.37,1.66.68.36-.16,1.12.29,1.81s2.2.85,2.64,1.41c.85,1.1,3,1.39,3.34,2.82-.61.25-.52.61-.09,1,.85.74,2.42.53,3.45.91A13.68,13.68,0,0,1-.3,26.29c1,.63,2,1.25,3.05,1.8"/><path class="cls-2" d="M-4.93,25.87c.3,0,.48.17.73.31.57.31,1.18.52,1.73.87s1.39.8,2.05,1.25a25.15,25.15,0,0,0,3.11,1.57"/><path class="cls-2" d="M-4.14,1.91c.57.43,1.13.87,1.72,1.28a15.56,15.56,0,0,0,1.48.72C0,4.4,1.83,5.09,2.24,6.16"/><path class="cls-2" d="M-4.14,10.41c1.18,1,2.77,1.31,4,2.17a20.37,20.37,0,0,0,2.22,1.29"/><path class="cls-2" d="M27.76-6.94c.59.76,1.82,1,2.63,1.49A3.68,3.68,0,0,1,32-3.77c.64,1,1.61,1.07,2.67,1.49A9.64,9.64,0,0,1,37-.95c.53.4.91,1,1.47,1.34"/><path class="cls-2" d="M26.68-10.27c2.05.6,3.6,1.86,5.4,2.95A26.22,26.22,0,0,1,37-3.48a12,12,0,0,0,4,2.14C42.15-.82,43,.35,44.26.73"/><path class="cls-2" d="M26.76-15c1.33.5,2.43,1.57,3.81,2a11.41,11.41,0,0,1,4.59,2.72c1.06.93.49,1.1.25,2.1s2,1.36,2.78,1.94c1.36,1,3,1.26,4.45,2.1.81.48,1,1.22,1.68,1.69,1.07.71,2.43,1,3.49,1.75a4.81,4.81,0,0,0,1.95,1"/><path class="cls-2" d="M26.1-20.4c.06.46.39.65.79.95A47.71,47.71,0,0,0,33.15-16c2,1.05,2.34,2.05,4.24,3.22a14.8,14.8,0,0,1,3.24,2.17c1.32,1.42-.39.83-.72,1.76s3.3,1.71,3.73,1.92c1.23.58,2.85.9,3.94,1.71,1.3,1-.3.86,0,1.81.19.75,2.27,1.23,2.82,1.47A13.63,13.63,0,0,1,52.47-.84,10.07,10.07,0,0,0,55,.73"/><path class="cls-2" d="M-1-6.94c.59.76,1.82,1,2.63,1.49A3.68,3.68,0,0,1,3.18-3.77c.64,1,1.61,1.07,2.67,1.49A9.64,9.64,0,0,1,8.16-.95c.53.4.92,1,1.47,1.34"/><path class="cls-2" d="M-2.12-10.27c2.05.6,3.6,1.86,5.4,2.95A25.9,25.9,0,0,1,8.17-3.48a12,12,0,0,0,4,2.14c1.22.52,2.1,1.69,3.33,2.07"/><path class="cls-2" d="M-2-15c1.33.5,2.43,1.57,3.81,2a11.41,11.41,0,0,1,4.59,2.72c1.06.93.49,1.1.25,2.1s2,1.36,2.78,1.94c1.36,1,3,1.26,4.45,2.1.81.48,1,1.22,1.68,1.69,1.07.71,2.43,1,3.49,1.75A4.81,4.81,0,0,0,21,.31"/><path class="cls-2" d="M-2.7-20.4c.06.46.39.65.79.95A47.71,47.71,0,0,0,4.35-16c2,1.05,2.34,2.05,4.24,3.22a14.8,14.8,0,0,1,3.24,2.17c1.32,1.42-.39.83-.72,1.76s3.3,1.71,3.73,1.92c1.23.58,2.85.9,3.94,1.71,1.3,1-.3.86-.05,1.81.19.75,2.27,1.23,2.82,1.47A13.63,13.63,0,0,1,23.67-.84,10.07,10.07,0,0,0,26.23.73"/><path class="cls-2" d="M23.87-2.93c.3,0,.48.17.73.31.57.31,1.18.52,1.73.87s1.39.8,2.05,1.25a25.15,25.15,0,0,0,3.11,1.57"/><path class="cls-2" d="M-4.93-2.93c.3,0,.48.17.73.31.57.31,1.18.52,1.73.87S-1.08-.95-.42-.5A25.15,25.15,0,0,0,2.69,1.07"/></pattern></defs><title>Browse</title><polygon class="cls-3" points="1717.11 1318.98 426.86 1318.98 548.64 1494.13 1909.08 1494.13 1717.11 1318.98"/><path class="cls-4" d="M1615.19,1446.87H1039c-50.46,0-105.62-20.09-123.2-44.88h0c-17.57-24.78,9.08-44.88,59.54-44.88h576.21c50.47,0,105.62,20.1,123.2,44.88h0C1692.31,1426.78,1665.65,1446.87,1615.19,1446.87Z"/><path class="cls-5" d="M1615.19,1446.87H1039c-50.46,0-105.62-20.09-123.2-44.88h0c-17.57-24.78,9.08-44.88,59.54-44.88h576.21c50.47,0,105.62,20.1,123.2,44.88h0C1692.31,1426.78,1665.65,1446.87,1615.19,1446.87Z"/><rect class="cls-6" x="459.32" y="203.69" width="895.18" height="908.33"/><polygon class="cls-7" points="1354.5 1112.37 1354.5 243.24 1371.89 243.24 1371.89 1132.36 1354.5 1112.37"/><polygon class="cls-8" points="459.32 1112.37 1354.5 1112.37 1371.03 1132.36 459.32 1132.36 459.32 1112.37"/><rect class="cls-9" x="459.75" y="189" width="911.71" height="55.74"/><rect class="cls-10" x="818.63" y="276.65" width="5.38" height="5.38" transform="translate(1599.59 -103.9) rotate(135)"/><rect class="cls-10" x="662.11" y="306.97" width="5.38" height="5.38" transform="translate(1353.84 58.53) rotate(135)"/><rect class="cls-10" x="1173.47" y="289.92" width="5.38" height="5.38" transform="translate(2214.74 -332.15) rotate(135)"/><rect class="cls-10" x="966.67" y="523.04" width="5.38" height="5.38" transform="translate(2026.56 212.04) rotate(135)"/><rect class="cls-10" x="1166.83" y="459.68" width="5.38" height="5.38" transform="translate(2323.43 -37.66) rotate(135)"/><rect class="cls-10" x="906.86" y="383.58" width="5.38" height="5.38" transform="translate(1825.83 16.26) rotate(135)"/><rect class="cls-10" x="493.09" y="298.37" width="5.38" height="5.38" transform="translate(1059.23 163.36) rotate(135)"/><rect class="cls-10" x="530.23" y="574.6" width="5.38" height="5.38" transform="translate(1317.95 608.67) rotate(135)"/><rect class="cls-10" x="685.11" y="558.21" width="5.38" height="5.38" transform="translate(1570.77 471.17) rotate(135)"/><rect class="cls-10" x="678.44" y="612" width="5.38" height="5.38" transform="translate(1597.41 567.71) rotate(135)"/><rect class="cls-10" x="593.92" y="447.39" width="5.38" height="5.38" transform="translate(1336.73 346.47) rotate(135)"/><rect class="cls-10" x="788.45" y="395.29" width="5.38" height="5.38" transform="translate(1631.97 119.97) rotate(135)"/><rect class="cls-10" x="945.39" y="289.92" width="5.38" height="5.38" transform="translate(1825.37 -170.87) rotate(135)"/><rect class="cls-10" x="889.43" y="588.23" width="5.38" height="5.38" transform="translate(1940.79 377.94) rotate(135)"/><rect class="cls-10" x="1303.14" y="900.56" width="5.38" height="5.38" transform="translate(2867.88 618.59) rotate(135)"/><rect class="cls-10" x="513.74" y="776.7" width="5.38" height="5.38" transform="translate(1432.71 965.33) rotate(135)"/><rect class="cls-10" x="1117.32" y="550.91" width="5.38" height="5.38" transform="translate(2303.43 153.09) rotate(135)"/><rect class="cls-10" x="1271.84" y="766.99" width="5.38" height="5.38" transform="translate(2720.01 412.7) rotate(135)"/><rect class="cls-10" x="1055.66" y="653.08" width="5.38" height="5.38" transform="translate(2270.41 371.11) rotate(135)"/><rect class="cls-10" x="1097.2" y="846.67" width="5.38" height="5.38" transform="translate(2478.22 672.2) rotate(135)"/><rect class="cls-10" x="1206.79" y="597.18" width="5.38" height="5.38" transform="translate(2488.88 168.82) rotate(135)"/><rect class="cls-10" x="1046.92" y="448.9" width="9.46" height="9.46" transform="translate(2116.05 30.76) rotate(135)"/><rect class="cls-10" x="658.88" y="349.33" width="9.46" height="9.46" transform="translate(1383.2 135.18) rotate(135)"/><rect class="cls-10" x="1173.47" y="746.96" width="5.38" height="5.38" transform="translate(2537.92 448.06) rotate(135)"/><rect class="cls-10" x="801.84" y="646.13" width="5.38" height="5.38" transform="translate(1832.2 538.71) rotate(135)"/><rect class="cls-10" x="523.89" y="918.14" width="5.38" height="5.38" transform="translate(1550.06 1199.61) rotate(135)"/><path class="cls-11" d="M929.59,244.73s5.66,30.68,4.37,63.57c-1.25,31.88-8.89,74.67-4.79,104.87"/><path d="M926.21,413.42a3,3,0,1,0,2.58-3.39A3,3,0,0,0,926.21,413.42Z"/><ellipse cx="700.63" cy="1381.06" rx="151.53" ry="26.26"/><rect class="cls-12" x="701.7" y="1168.35" width="11.28" height="220.45" transform="translate(471.83 -163.51) rotate(19.68)"/><rect class="cls-12" x="704.16" y="1168.35" width="11.28" height="220.45" transform="translate(-635.37 704.92) rotate(-37.87)"/><rect class="cls-12" x="704.16" y="1168.35" width="11.28" height="220.45" transform="translate(1066.99 -139.52) rotate(43.17)"/><path class="cls-12" d="M785.14,1173.21c-21.85-1.84-47.67-2.9-75.34-2.9s-53.49,1.06-75.34,2.9h-67v16.2c0,10.54,63.73,19.09,142.34,19.09s142.33-8.55,142.33-19.09v-16.2Z"/><ellipse class="cls-3" cx="709.8" cy="1173.21" rx="142.34" ry="19.09"/><ellipse cx="707.09" cy="1176.38" rx="91.41" ry="13.03"/><path class="cls-9" d="M621.11,1069.93l14,98.5c0,5.53,33.42,10,74.64,10s74.64-4.49,74.64-10l14-98.5Z"/><ellipse class="cls-4" cx="709.8" cy="1069.93" rx="88.69" ry="9.55"/><ellipse class="cls-13" cx="709.8" cy="1069.93" rx="72.41" ry="4.89"/><path class="cls-14" d="M666.72,958.79c-11.33-7.59-26.66-14.9-40.27-15.94a6.7,6.7,0,0,0-4,.55,11.89,11.89,0,0,0-2.35,2.4c-1.81,2-4.8,3.68-4.31,6.29.37,1.94,2.56,2.93,4.51,3.2s4.06.21,5.7,1.3a2.21,2.21,0,0,1,.88,1,2,2,0,0,1-1.31,2.33,5.35,5.35,0,0,1-2.94,0c-5.49-1.16-10.89-3.37-16.49-3.08s-11.66,4.25-11.63,9.86a31.33,31.33,0,0,0,11.84,3.08c.45,2.1-1.84,3.89-4,4s-4.21-.73-6.35-1c-6.95-.87-13.24,4.94-15.78,11.47a4.77,4.77,0,0,0-.43,2.69c.45,2,2.91,2.69,4.93,2.66s4.27-.36,5.9.85a1.73,1.73,0,0,1,.53.58c.4.8-.33,1.78-1.18,2.06a8.58,8.58,0,0,1-2.68.08,7.3,7.3,0,0,0-6.18,3.33,14.4,14.4,0,0,0-1.5,3.83l-2.46,8.63c-.45,1.57-.83,3.46.27,4.66s2.64,1,4,.67a12.91,12.91,0,0,1,4.16-.85c1.42.12,2.89,1.4,2.51,2.78a4,4,0,0,1-1.48,1.79,16.55,16.55,0,0,0-5,10.35,49,49,0,0,0,.32,11.72c8.61-1.56,18-3.59,23.37-10.51,1.45-1.87,3.57-4.34,5.62-3.16l-1.79,7c4,1.53,8.64-.71,11.22-4.12s3.58-7.73,4.51-11.9l2.49-11.25a6.88,6.88,0,0,1,2.52,5.15c0,2.29-1.09,4.46-1.31,6.74s1.09,5.12,3.39,5.06a4.63,4.63,0,0,0,2-.65c4.55-2.45,7.63-7.05,9.31-11.93s2.12-10.08,2.54-15.22a13.68,13.68,0,0,1,3,11.73c6.14-.45,10.18-6.91,11.06-13s-.32-12.34.53-18.44a14.46,14.46,0,0,1,3.17,7.51c.23,2,.68,4.75,2.7,4.77,1.65,0,2.46-2,2.82-3.59,1.28-5.81,2.52-12.13,0-17.5-1.23-2.6-3.35-5.3-2.41-8"/><path class="cls-14" d="M693.87,960.3c-12.39-6.18-27.57-4.94-40.12.89a72.85,72.85,0,0,0-17.86,12,1.05,1.05,0,0,0,1.31,1.64,107,107,0,0,1,9.52-5.87c6.84-3.75,17.08-7.83,26.14-8.31,10.51-.55,20.61,3.68,30.28,7.82"/><path class="cls-14" d="M736.52,1019.42c-.14-10.45,1.5-23.4,6.35-32.7a5.34,5.34,0,0,1,2-2.38,8.77,8.77,0,0,1,2.44-.57c1.94-.4,4.22-1.67,5.65-.3,1.05,1,.78,2.84.17,4.22s-1.51,2.74-1.49,4.25a1.64,1.64,0,0,0,.26,1,1.42,1.42,0,0,0,2,.07,4.2,4.2,0,0,0,1.17-1.93c1.5-4,2.3-8.46,4.74-12s7.35-5.92,10.83-3.65a25.15,25.15,0,0,1-2.87,9c1.13,1.13,3.17.35,4.13-1s1.25-3,1.94-4.55c2.27-4.89,8.42-6.68,13.5-5.73a3.41,3.41,0,0,1,1.85.8c1,1.08.49,3-.34,4.29s-1.95,2.64-1.85,4.19a1.27,1.27,0,0,0,.14.58c.34.58,1.24.5,1.76,0a6.49,6.49,0,0,0,1.13-1.72,5.56,5.56,0,0,1,4.57-2.7,9.93,9.93,0,0,1,3,.55l6.36,1.84c1.15.34,2.48.85,2.78,2a3.24,3.24,0,0,1-1.2,2.89,9.77,9.77,0,0,0-2.21,2.38c-.5,1-.3,2.45.71,2.75a2.94,2.94,0,0,0,1.71-.25,11.78,11.78,0,0,1,8.46.87,34.3,34.3,0,0,1,7.16,4.9c-4.44,5-9.5,10.34-16,11.06-1.75.2-4.14.6-4.23,2.42l5.08,1.63c-.65,3.23-3.93,5.37-7.09,5.69s-6.25-.75-9.22-1.82l-8-2.87a5.11,5.11,0,0,0,2.19,3.7c1.41,1,3.21,1.08,4.72,1.85s2.74,2.76,1.77,4.24a3.48,3.48,0,0,1-1.21,1,15.24,15.24,0,0,1-11.16,1.31,44.19,44.19,0,0,1-10.5-4.43,10,10,0,0,0,6.07,6.67c-2.76,3.84-8.4,3.89-12.55,2s-7.54-5.15-11.67-7a10.74,10.74,0,0,0,3.39,5.08c1.15.95,2.67,2.34,1.87,3.67-.66,1.09-2.22.81-3.37.4-4.13-1.48-8.56-3.2-10.87-7-1.13-1.85-1.95-4.31-4-4.78"/><path class="cls-14" d="M714.66,1049.1c1.57-14.32,10.93-27.1,22.71-35.06,7.56-5.1,16-7.82,24.77-9.56a1,1,0,0,1,.54,1.87,102.37,102.37,0,0,0-14.88,7.21c-6.89,4-15.94,10.88-21.3,18.65-6.22,9-8.18,20.25-10,31.07"/><path class="cls-14" d="M750.53,873.23a108.92,108.92,0,0,1-12.83-35.94c-.39-2.35-.7-4.82.08-7.07s3-4.2,5.33-3.91a21.47,21.47,0,0,0,4.55,15.89l-1.75-24.72c-.24-3.27-.44-6.71.89-9.7s4.77-5.34,7.89-4.31a27.41,27.41,0,0,0,2.82,13c3.44-2.53,2.48-7.74,2.34-12a23.39,23.39,0,0,1,11.59-20.69c1.2-.68,2.93-1.16,3.79-.08a3,3,0,0,1,.48,1.7,35.64,35.64,0,0,1-.73,9.93c2.13,1,3.58-2.2,4.19-4.48,2.38-8.79,11.56-13.63,19.84-17.45,1.85-.85,4.82-1.21,5.23.79a3.49,3.49,0,0,1-.44,2l-4.64,10.42c2.36-.38,3.88-2.6,5.4-4.45a25.85,25.85,0,0,1,23.66-8.84c1.61.27,3.48,1,3.79,2.58.65,3.39-6.27,5.56-4.43,8.48a23.56,23.56,0,0,1,11.4-5.07c4-.61,8.09-.17,12.11.29,4.63.52,10.46,2.22,10.85,6.86a9.14,9.14,0,0,1-1.75,5.34,38.3,38.3,0,0,1-18,15.23c1.66,1.44,4.25,1,6.17-.08s3.5-2.69,5.51-3.58a2.76,2.76,0,0,1,2-.25c1.22.44,1.44,2.06,1.28,3.35-1.16,9.39-10.83,15.22-19.91,17.9-1.9.56-3.9,1.09-5.37,2.43s-2.13,3.79-.86,5.32l19.12-3.67c-.25,7.42-6.25,13.6-13,16.6s-14.37,3.52-21.72,4.52c-1.55.21-3.55,1.85-2.32,2.8l15.88-.5a2.87,2.87,0,0,1,1.59.26,2.57,2.57,0,0,1,.84,2.39c-.32,5.35-4.71,9.76-9.68,11.77s-10.47,2.1-15.82,2.23-10.88.36-15.75,2.59c2.41,1.32,5.29,1.33,8,1.33s5.63,0,8,1.4,4,4.52,2.7,6.94c-1,1.86-3.2,2.64-5.25,3.12-15.81,3.69-32.24-1.17-47.65-6.27-.69-.22-1.48-.55-1.67-1.25s.9-1.44,1.24-.8"/><path class="cls-14" d="M640.73,920.31A78.27,78.27,0,0,1,605,914c-3.88-1.69-8-4.13-9.12-8.21-.54-2,.24-4.65,2.25-4.78a4.46,4.46,0,0,1,2,.5l4.76,2c1.12.48,2.58.89,3.4,0s.14-2.52-1-3.13a12.78,12.78,0,0,0-3.66-.85,16.35,16.35,0,0,1-4.63-2c-3.33-1.89-6.76-3.88-9-7-1.84-2.56-2.7-5.68-3.53-8.73-.41-1.5-.78-3.26.16-4.49,1.11-1.45,3.37-1.3,5-.51s3,2.08,4.77,2.59a1.93,1.93,0,0,0,1.55-.08,1.72,1.72,0,0,0,.63-1.54c-.16-3.4-4.6-4.46-7.17-6.7-2.92-2.55-3.39-6.83-3.66-10.7-.4-5.74-.68-12,2.62-16.72.49-.71,1.37-1.43,2.12-1a2,2,0,0,1,.73,1.12,24.71,24.71,0,0,0,5.57,8.76,2.37,2.37,0,0,0,1.47-2.69,11.32,11.32,0,0,0-1.27-3.11c-1.64-3.53-1.36-7.7-.09-11.38a45.44,45.44,0,0,1,5.6-10.19,30.29,30.29,0,0,1,5.57-6.81,10.22,10.22,0,0,1,8.16-2.53L617.68,827c-.07,1.34,0,2.91,1.06,3.71l2.08-8.11c.9-3.51,1.91-7.22,4.52-9.74s6.28-3.37,9.79-4.15c2.39-.53,5.33-.89,6.89,1,2.69,3.27-2.23,8.14-1,12.18,1.58.83,3.6,0,4.75-1.41a24.71,24.71,0,0,0,2.58-4.68c3.93-7.32,12.89-10.08,21-11.8a1.18,1.18,0,0,1,.85,0c.33.2.36.66.36,1,0,5.1-.07,10.23-1.14,15.22s-3.24,9.86-7,13.32c1.32,1,3.25.18,4.55-.86s2.67-2.34,4.34-2.22a3.74,3.74,0,0,1,2.49,1.43,6.9,6.9,0,0,1,.91,6.33,16.12,16.12,0,0,1-3.47,5.62,56,56,0,0,1-11.84,10.41l8.81-2.8a5.1,5.1,0,0,1,2-.36c2.08.16,3.17,2.67,3,4.75-.25,3.37-2.46,6.26-4.89,8.61a38.81,38.81,0,0,1-10.43,7.25c-3.35,1.6-7.37,3.17-8.41,6.74a7.37,7.37,0,0,0,7.11-.3c1.74-1.09,3.4-3,5.39-2.52a4,4,0,0,1,2.55,3.18c1.21,5.36-2.88,10.38-7,14.05-1.62,1.45-3.44,3.18-3.3,5.35A7.56,7.56,0,0,0,660.4,897c1-.72,1.94-1.73,3.11-1.51a2.87,2.87,0,0,1,1.62,1.19c3.37,4.44,1.61,11.2-2.37,15.11s-9.52,5.65-14.85,7.27l-5.94,1.8"/><path class="cls-14" d="M716.27,1004.6c.1-6.37.1-12.88-1.95-18.91-3.83-11.24-14-18.91-23.61-25.87-10.3-7.45-20.46-15.29-30.77-22.7a91.24,91.24,0,0,1-21-20.68c-10.19-14.2-14.81-28.54-12.63-43.3a1,1,0,0,1,2.06.13,49.19,49.19,0,0,0,2,14.65c9.12,29.31,28.5,41.85,48.06,55.16s39.46,24.2,45.82,48.79"/><path class="cls-14" d="M716.07,1069.85c6.95-33.95,6.63-68.65,11.85-102.91s14.74-67.32,31.91-97.43c11.77-20.63,26.12-39,44-53.65a1.76,1.76,0,0,0-2.13-2.8c-11.85,8.67-23.19,20.42-32,31.77a229.84,229.84,0,0,0-38.56,74.84c-14.72,49.13-12.65,100.73-26.1,150.21,3.63,1.59,9,.65,11,0Z"/><path class="cls-15" d="M636.9,1106.32c3.39,4.06,7.19,7.62,10.74,11.53,1.72,1.88,5,3.54,6.24,5.63,5.84-3.91,9.85-10.79,15.54-15"/><path class="cls-15" d="M675,1093.63c6,1.55,12.16,1,18.27,1.62,2.45.27,4.88,1.45,7.34,1.33a42,42,0,0,1-.62,8.59c-.4,2.64-.3,6.4-1.46,8.82"/><path class="cls-15" d="M683.7,1117.16a80.81,80.81,0,0,0,4.26,10.4c.81,1.84,2,3.47,2.85,5.3.28.63.55,2.62,1,3,1.42,1.38,2.54-.05,4.57-1,4.86-2.39,11.76-3.79,15.62-7.65"/><path class="cls-15" d="M659.11,1130.38c7.4.06,14.67,3.63,21.91,3.48.34,6-.22,12-.23,17.94"/><path class="cls-15" d="M667.84,1146.51c-6.18,3.55-10.86,9.32-16.8,13.24,4.71,3.67,9.9,7,14.68,10.56"/><path class="cls-15" d="M684.76,1172.42c3.32-8.26,6.58-16.62,10.63-24.57,4.69,1.79,8.61,5.67,12.59,8.62,1.88,1.38,5.42,4.56,8,4.32"/><path class="cls-15" d="M719.74,1126.07c2.61,7.83-3.66,16.16-.4,24.08,0,0,8.95,0,12.67.17s8.07-1.24,11.24-.76"/><path class="cls-15" d="M724.16,1170.87c1.2-3.06,3.73-10.26,6.91-11.13,1.23-.34,4.32,1.66,5.5,2.08,3.09,1.08,6.19,2.13,9.27,3.23"/><path class="cls-15" d="M711.34,1086.26c1.54,5.91,6.83,10.32,8.52,16.12a25,25,0,0,0,5.57-2.73c4.83-2.91,10.3-6.36,14.46-10.22"/><path class="cls-15" d="M715.48,1115.13c6.49,2.45,12.47,7.2,19.22,8.93,3.54-7,8-13.94,11.45-21.09"/><path class="cls-15" d="M769.11,1102.35c-3.78,1.14-7.42,2.53-11.17,3.71-2.16.69-4.57.72-6.52,1.92,5.05,7,8.57,15.15,13.72,22.14"/><path class="cls-15" d="M752.19,1131.7c4.47,3.87,7.29,13.07,9.84,18.45,5.38-4.86,15.05-5.21,19.77-10.78"/><path class="cls-15" d="M760.12,1169a80.75,80.75,0,0,0,10.45-8.2c2.24-2,4-5,6.47-6.61"/><path class="cls-15" d="M631.61,1092.57c.88.69,6.14,0,7.53.06,4.26.33,8.66,1.11,12.9,1.69-.35-3.19,1.57-8.6,1.52-10.74"/><path class="cls-15" d="M636.37,1123.51c6.23,2.33,9.71,10.13,15.61,13-3.69,3.71-10.55,10.62-10.32,16"/><path class="cls-15" d="M750.6,1089.4a56.63,56.63,0,0,0,23-3.94c1,5,4.54,11,7.18,15.31"/><path class="cls-15" d="M767.79,1115.57c4.86.32,9.41,5.5,14.27,6.88"/><path class="cls-15" d="M791.05,1081.2a46.08,46.08,0,0,0-7.21,8.74"/><path class="cls-15" d="M742.21,1132.1a45.83,45.83,0,0,0-7.21,8.75"/><path class="cls-15" d="M626.85,1080.93c2.23-1.26,10,3.36,13,4"/><path class="cls-15" d="M638,1160.52c.86,1.34,1.12,3.53,2.11,4.76"/><path class="cls-15" d="M666,1084.9c0,4-1.75,7.75-2.38,11.64"/><path class="cls-15" d="M699.3,1162.64a24.46,24.46,0,0,1,4.94,10.22"/><path d="M1824.88,1417.31c-42.77,2.5-93.24,3.94-147.3,3.94-154.42,0-279.6-11.76-279.6-26.26s125.18-26.26,279.6-26.26c33.87,0,66.33.57,96.37,1.6"/><path class="cls-16" d="M1442.43,1357.94,1392,1373.86c-2.21.7-4.53,1.47-6.07,3.31-3.12,3.72-1.33,10.12,2.41,13.08s8.65,3.4,13.28,3.63c37.34,1.85,74.67-3,111.79-7.76,6.75-.87,14.39-2.31,18.1-8.48"/><path class="cls-17" d="M1298,646.27c10.94,6.38,21,59.17,21.49,67.23s1.09,13.06,1.09,13.06l-39-.69s2.67-11.27-1.2-19.8-10.57-26.46-10.57-26.46l-7.36-19.3,6.49-13Z"/><path class="cls-16" d="M1487,1367.89a70.89,70.89,0,0,1-36.53,25.38c-3.58,1-7.32,1.78-10.49,3.86s-5.7,5.93-5.13,9.89c.85,6,7.55,8.38,13.09,9.32a200.37,200.37,0,0,0,70.36.12c5.36-.89,10.77-2,15.64-4.6,4.4-15.28,8.49-27.47,18-8.64,6.19-3.14,21.16-10.89,24.52-17.32a20,20,0,0,0,1.82-8.76,56.16,56.16,0,0,0-12.62-37.15"/><path class="cls-18" d="M1566.73,1346.37c4.58,2.09,9.73,8.94,9.11,15.09-9.18-1.15-18.66.1-28.09,1s-18.73,3.06-28.07,5c-7.61,1.59-15.37,4.21-23.07,4.83-3.66.29-8.64.5-12.21-.76-2.33.58-4.59,2.83-6.35,4.66-1.42,1.48-1.25,2.19-3,1.28-5.32-2.75-10.24-6.49-15.62-9.17-5.07-2.53-9.63-6.07-14.48-9"/><path class="cls-12" d="M1411.2,846.58c3.12,198.33,17.91,313.44,31.78,511.61,14.71,7.23,46.51,8.75,62.34,7L1507,861"/><path class="cls-12" d="M1475.68,874.19c-11.94,32.52-18.88,66.87-25.51,101.1-9,46.53-11.31,46.77-11.93,94.3-.4,30.94,2.59,61.8,5.57,92.57,8.18,84.47,14.88,127,37.09,208.49,24.45,2.15,84.94-15.21,89.68-18.68-7.77-59.89-25-123-35.8-182.34s-17.73-65.37-9.51-125.2c3.28-23.84,2.64-19,8.27-42.27q5.26-21.85,10.54-43.69c4.16-17.25,9.05-33.12,11.17-50.8s1.36-36.07-4.76-52.63"/><path class="cls-19" d="M1480.05,679.85c-37.07-2.44-62.71,8-75.78,30.58-15.71,27.08-24.71,73.77-47.82,94.9-9.11,8.34-35.85-62.63-34.19-83.86-15.75,2.74-23.19,1.64-44-3.22,13.26,92.17,61.78,157.52,85.84,142.66s55.4-67.64,70.14-91.77"/><rect class="cls-12" x="1296.88" y="547.05" width="13.26" height="119.26" transform="translate(78.78 -146.47) rotate(6.63)"/><rect class="cls-12" x="1284.3" y="625.13" width="20.29" height="119.26" rx="8.69" ry="8.69" transform="translate(87.73 -144.9) rotate(6.63)"/><path class="cls-19" d="M1420.86,712.56c-7,14.45-8.2,31.21-8.87,47.47-2.94,71.68-1.67,106.53-.2,107.33,41.26,22.47,139.57,8.53,143,4.59s5.14-103.69,5-121.35c-.08-13.23.28-27.11-5.4-38.85a57.88,57.88,0,0,0-11.05-15c-9.68-10-21.67-18.31-35-19.39"/><path class="cls-17" d="M1506.83,924.18,1492.76,921c-5.22-1.19-11.08-2.27-15.59.6-3.33,2.11-5.13,5.95-6.29,9.72a43.61,43.61,0,0,0-13.47,6.71c-2.32,1.81-4.61,4.18-4.7,7.12-.09,3.12,2.49,5.82,5.43,6.91s6.16.89,9.29.7c-.71,2.67.61,5.57,2.68,7.41a18.41,18.41,0,0,0,7.42,3.56,7.22,7.22,0,0,0,8.12,8.42c-.45,2.54,2.24,4.49,4.69,5.31,7.4,2.47,13.87.37,20.4-3.14s12.25-7.46,16.22-14.09"/><path class="cls-19" d="M1514.51,677.41c23.66,1.92,52.56,11.72,72.29,24.92s86.51,114.12,83.68,152.71c-2.24,30.64-119.65,108-158.14,118,8.91-10.44,3-43.05-7.8-51.57.86-1.2,2.43-1.61,3.87-1.93,28.78-6.54,111-65.76,112.09-75.45,2.52-22.85-57.8-97.6-80.77-98.46"/><path class="cls-17" d="M1265,657c-1.26-2.83-2.31-6-1.3-9a10.71,10.71,0,0,1,4.19-5,11.92,11.92,0,0,1,5.66-2.33,15.66,15.66,0,0,1,4.09.36l6,1c4.94.87,10,1.76,14.37,4.15"/><path class="cls-17" d="M1320.4,719.63c-4.25-17,7.64-35.27,2.35-52-2.81-8.88-10.32-15.81-19-19.28s-18.32-3.74-27.52-2.27a6.66,6.66,0,0,0-3.62,1.37c-2.34,2.14-.81,6.12,1.44,8.36,6.25,6.24,16,7.19,24.79,7.18-.3,4.86-.58,9.82.59,14.55s4.06,9.29,8.51,11.27"/><path class="cls-17" d="M1283.67,702.49a19.32,19.32,0,0,0,5.73.07,7.37,7.37,0,0,0,4.81-2.87,5.75,5.75,0,0,0-1.11-7.41,10.19,10.19,0,0,0-4.31-1.73,53.39,53.39,0,0,0-15.75-1,5.68,5.68,0,0,0-3.73,1.31c-1,1.08-1.11,2.71-1.11,4.2a5.45,5.45,0,0,0,.45,2.63C1270.81,701.61,1279.52,702,1283.67,702.49Z"/><path class="cls-17" d="M1268.78,673.66a6.93,6.93,0,0,0-7.32,10.44c2.28,3.67,7.23,4.38,11.54,4.72l18.06,1.42c2.67.22,5.87.19,7.37-2,1.32-2,.51-4.76-1.19-6.39s-4-2.37-6.31-3a200.89,200.89,0,0,0-22.15-5.16"/><path class="cls-17" d="M1264.4,655.59a8.78,8.78,0,0,0-6.93,7.87,9.12,9.12,0,0,0,5.77,8.84,18.38,18.38,0,0,0,4,.85l7.45,1c4.46.58,8.93,1.17,13.4,1.74,2.83.35,6.22.48,7.94-1.79s.42-6-2-7.71-5.49-2.1-8.41-2.6c-7.35-1.27-18.31-2.58-21.27-8.18"/><path class="cls-12" d="M1343.61,378l.41-3.47-15.33-2.2a55.65,55.65,0,0,0-5.49-.93c-.89-.1-1.78-.17-2.67-.23h0c-41.7-2.77-80.65,43-87.74,104-6.86,59,18.63,111.08,57.7,120.54h0a52.15,52.15,0,0,0,6.51,1.17c.85.1,1.69.17,2.54.23l18.09,2.8.55-4.72c34.18-9.4,63.22-50.25,69.24-102S1374.61,395.07,1343.61,378Z"/><ellipse class="cls-20" cx="1328.78" cy="486.96" rx="113.49" ry="77.83" transform="translate(691.64 1750.62) rotate(-83.37)"/><ellipse class="cls-17" cx="1330.39" cy="487.2" rx="103.85" ry="68.03" transform="translate(692.81 1752.43) rotate(-83.37)"/><path class="cls-17" d="M1445.17,567.92c-.09-7.64-.13-16.31-.22-23.95a71.92,71.92,0,0,1,.72-13.69c.62-3.43,1.82-6.89,4.28-9.35a4.18,4.18,0,0,1,2.45-1.37c1.88-.17,3.26,1.67,4.12,3.33,4.69,9,6.13,19.31,7.51,29.38"/><path class="cls-17" d="M1513,623c1.55-25.67,4.2-51.84,2.56-71.46-.54-6.39-1.35-14.37-2.55-20.68-2-10.18-12.22-11.44-15.43,1.42a198,198,0,0,0-5.41,28.67l-.68,8.75c.16-3.07.39-5.95.68-8.75l.72-9.13c-17.28-7-38.54,1.77-48.4,17.61-4.9,7.88-7.46,17.22-13.5,24.26-9.18,10.71-24.17,13.82-37.92,17-5.82,1.33-11.72,2.82-16.87,5.86s-9.54,7.86-10.7,13.73,3,16.07,16.29,15.89c11.33-.15,22.65-.8,34-1.2,8.71-.3,18.21-.37,25.12,4.94,5.08,3.9,7.88,10.19,8.86,16.51s.36,12.77-.27,19.14c3.35,18.56,25.79,20.12,45.35,12.69a61.45,61.45,0,0,0,20.59-12.61C1511.08,668.47,1511.57,645.91,1513,623Z"/><path class="cls-17" d="M1492.12,560.9c-.29,2.8-.52,5.68-.68,8.75Z"/><path class="cls-18" d="M1362.65,614.36a7.39,7.39,0,0,0-.52,7.13,6.57,6.57,0,0,0,6,3.77c7.32-.11,8.1-5.74,6.63-10.14a6.55,6.55,0,0,0-5.9-4.14A7.33,7.33,0,0,0,1362.65,614.36Z"/><path class="cls-18" d="M1465.46,580.24a4.75,4.75,0,0,0-1.07,2,1.59,1.59,0,0,0,1,1.82,1.57,1.57,0,0,0,1.54-.74,4.88,4.88,0,0,0,.58-1.71,5.37,5.37,0,0,0,0-1.5c-.08-.85-1.42-.87-2.14.1"/><path class="cls-18" d="M1448.79,578.39a3.28,3.28,0,0,0-.55,3.13,1.14,1.14,0,0,0,.34.54c.63.48,1.44-.34,1.72-1.08a8.69,8.69,0,0,0,.51-2.47,1.37,1.37,0,0,0-.26-1,1,1,0,0,0-1.4.26,2.87,2.87,0,0,0-.38,1.54"/><path class="cls-11" d="M1624.76,845.24c8.08,1.17,16,2.16,24,4.12"/><path class="cls-11" d="M1621.21,850.48c5.94.16,10.58,2,15.91,4.87"/><path class="cls-11" d="M1437.36,711c5.37,12,10.83,25.41,27,22.46"/><path class="cls-11" d="M1472.18,732.35c6.46-3.63,12.28-7.46,17.41-12.92"/><path class="cls-11" d="M1349.75,804.24c4.41,6.19,11.52,10.3,18,14"/><path class="cls-11" d="M1361.54,809.29a51.76,51.76,0,0,0,15.17,3.37"/><path class="cls-11" d="M1462.26,879.87c.14,10.09-3,19.78-3.71,29.8-.23,3.31-.53,10.62,2.21,12.89"/><path class="cls-11" d="M1560.12,696.4c-16.41,5.11-22.79,22.47-22.84,38.2"/><path class="cls-11" d="M1507,730.48c-3.6,4.79-5,9.72-7.33,15.2-4.08,9.85-7.61,19.84-11.31,29.83-8.55,23.08-18.09,49.29-40.52,62"/><path class="cls-11" d="M1522.59,1058.47c-8.2,0-15.48-1.17-22.46-6.18"/><path class="cls-11" d="M1515.29,1065.21c-5.23-.5-9.72,2.33-15.16,2.25"/><path class="cls-21" d="M1476.92,1380.26A51.09,51.09,0,0,1,1497,1391c.7-5.61-7.83-15.6-12.34-16.9,7.9-.15,15.73,3,22.6,7.07-2.13-4.32-5.38-8-8.28-11.33"/><path class="cls-21" d="M1424.48,1363.63c5.12-2.09,14.69,9.67,18,14,.48-5.74-1.2-12.33-3.51-17.34a73.64,73.64,0,0,1,18.82,14.06"/><path class="cls-21" d="M1445.78,1395.4c-4.65,4.81-3.09,7.13,1.87,10.36,4.12,2.68,10,2.79,14.61,2.79,17,0,33-1.14,48.06-11.21,10.4-6.95,19.22-14.54,31.42-15.82,8.37-.87,17,3.19,25.31.15,3.43-1.24,11.13-5,11.12-10.09"/><path class="cls-21" d="M1385,1386c9.44,8.52,21.64,3.35,32.26,1.11,6.41-1.35,13.28-.79,19.8-.79,11.45,0,18.42-.65,29.88-.65"/><path class="cls-22" d="M1339.51,565.33c36.8-23.12,45.43-81.46,38.69-115.25"/><path class="cls-18" d="M1383.8,842.94s16.67-20.09,26.41-35.5c.82-20.61,1.41-37.88,1.41-37.88s-2.48,26.76-7.68,36.69S1393.71,828.56,1383.8,842.94Z"/><ellipse cx="915.18" cy="1353.1" rx="65.66" ry="15.28"/><circle class="cls-23" cx="912.1" cy="1278.57" r="68.48"/><circle class="cls-9" cx="495.78" cy="216.86" r="6.51"/><circle class="cls-9" cx="526.41" cy="216.86" r="6.51"/><circle class="cls-9" cx="557.04" cy="216.86" r="6.51"/></svg>