<svg xmlns="http://www.w3.org/2000/svg" xmlns:xlink="http://www.w3.org/1999/xlink" viewBox="0 0 2240.78 1683.13"><defs><style>.cls-1,.cls-2,.cls-26,.cls-27,.cls-3,.cls-33,.cls-36{fill:none;}.cls-11,.cls-12,.cls-13,.cls-14,.cls-15,.cls-16,.cls-17,.cls-18,.cls-19,.cls-2,.cls-20,.cls-21,.cls-23,.cls-26,.cls-27,.cls-28,.cls-29,.cls-3,.cls-30,.cls-31,.cls-33,.cls-34,.cls-35,.cls-36,.cls-37,.cls-38,.cls-5,.cls-7,.cls-8{stroke:#000;}.cls-2{stroke-linecap:round;stroke-width:0.5px;}.cls-19,.cls-2,.cls-21,.cls-3,.cls-36,.cls-38{stroke-miterlimit:10;}.cls-4{isolation:isolate;}.cls-5{fill:#b5c09b;}.cls-11,.cls-12,.cls-13,.cls-14,.cls-15,.cls-16,.cls-17,.cls-18,.cls-20,.cls-23,.cls-26,.cls-27,.cls-28,.cls-29,.cls-30,.cls-31,.cls-33,.cls-34,.cls-35,.cls-37,.cls-5,.cls-7,.cls-8{stroke-linejoin:round;}.cls-11,.cls-12,.cls-13,.cls-14,.cls-15,.cls-16,.cls-17,.cls-18,.cls-19,.cls-20,.cls-21,.cls-23,.cls-26,.cls-27,.cls-28,.cls-29,.cls-30,.cls-31,.cls-33,.cls-34,.cls-35,.cls-36,.cls-37,.cls-38,.cls-5,.cls-7,.cls-8{stroke-width:2px;}.cls-6{opacity:0.26;fill:url(#_10_dpi_20_4);}.cls-8{fill:#ffdf8c;}.cls-9{opacity:0.07;}.cls-10{fill:url(#_10_dpi_20_2);}.cls-11{fill:#bd2f56;}.cls-12{fill:#cf607e;}.cls-13{fill:#ce9fb5;}.cls-14{fill:#e1a9bd;}.cls-15{fill:#92b193;}.cls-16{fill:#cbae78;}.cls-17{fill:#dfc287;}.cls-18{fill:#94794f;}.cls-19{fill:#391d17;}.cls-20{fill:#ffd153;}.cls-21{fill:#131324;}.cls-22{fill:#fff;}.cls-23{fill:#af714f;}.cls-24,.cls-26,.cls-27{mix-blend-mode:multiply;}.cls-25{fill:#ccc;}.cls-26{opacity:0.14;}.cls-27{opacity:0.39;}.cls-28{fill:#c5d7ea;}.cls-29{fill:#5a8bba;}.cls-30{fill:#929292;}.cls-31{fill:#1d1d1b;}.cls-32{fill:url(#_10_dpi_50_);}.cls-34{fill:#e6ab55;}.cls-35{fill:#e30613;}.cls-37{fill:#9e7842;}.cls-38{fill:#d20a11;}</style><pattern id="_10_dpi_20_4" data-name="10 dpi 20% 4" width="28.8" height="28.8" patternTransform="translate(510.45 742.6) scale(4.43)" patternUnits="userSpaceOnUse" viewBox="0 0 28.8 28.8"><rect class="cls-1" width="28.8" height="28.8"/><path class="cls-2" d="M12.72,10.43c0,.15,0,.24.21.25,0-.15-.1-.15-.21-.21"/><path class="cls-2" d="M22,4.14c-.15.05-.21.13-.15.3.27.08.42-.13.35-.37a.27.27,0,0,0-.24.2"/><path class="cls-2" d="M23.05,17.27c-.18.74.75,0,.13-.17a.17.17,0,0,0-.13.17"/><path class="cls-2" d="M7.09,21.77c0,.12.06.2.21.19s0-.12,0-.19"/><path class="cls-2" d="M4.84,13.18a1.89,1.89,0,0,1-.09.21c.16,0,.11,0,.23,0s-.06-.1-.14-.08"/><path class="cls-2" d="M6.84,3.85c-.15.16-.06.4.21.37.23-.41-.39-.64-.42-.2,0,.59.93-.29.26-.34a.27.27,0,0,0,.08.4.26.26,0,0,0,0-.42.36.36,0,0,0,.08.4"/><path class="cls-2" d="M16.18,23.72c0-.06.06,0,0-.12s-.61.52-.45.71.66-.26.56-.53c-.53-.08-.34.65,0,.39s-.48-.7-.2-.07"/><path class="cls-2" d="M2.34,16.27c.07,0,.15.06.16-.17-.25,0-.25.26,0,.29"/><path class="cls-2" d="M27.22,8.06c.07,0,.13.07.16-.13a.52.52,0,0,0-.18.18.12.12,0,0,0,.14,0"/><path class="cls-2" d="M28.09,25.31s-.05,0,0,0a.75.75,0,0,1,0-.15c-.07,0,0,.06,0,.08"/><path class="cls-2" d="M1.34.64l0,.13"/><path class="cls-2" d="M16.05,5.89a.43.43,0,0,0-.21.17"/><path class="cls-2" d="M18.43,7a.24.24,0,0,1,.08.09"/><path class="cls-2" d="M2.59,25.22s0,0,0,0"/><path class="cls-2" d="M5.22,26.43c0,.12,0,.2.15.21a.27.27,0,0,0-.18-.38.39.39,0,0,0,0,.26"/><path class="cls-2" d="M4.09,6.27c-.09,0-.16,0-.18.11a.27.27,0,0,0,.44-.19A.32.32,0,0,0,4,6.45a.17.17,0,0,0,.22.07"/><path class="cls-2" d="M26.72,1a.62.62,0,0,0,0,.33"/><path class="cls-2" d="M16.18,14.72a.79.79,0,0,0-.38.21"/><path class="cls-2" d="M21.47,27.68c.06.09.06.17.2.16,0-.19-.13-.32-.32-.34-.1.23.14.64.39.38s0-.71-.31-.57a.4.4,0,0,0,.4.43.14.14,0,0,0,.05-.18"/><path class="cls-2" d="M24.3,22.27c0,.06,0,.09,0,.13s0-.11,0-.18"/><path class="cls-2" d="M12.05,29c.08,0,.11.09.21.08s-.09,0-.17-.08"/><path class="cls-2" d="M28.59,13.64c-.09,0-.1,0,0,0"/><path class="cls-2" d="M9.63,16.77s.07.06.09,0,0-.05,0-.09"/><path class="cls-2" d="M21.93,10.22v0"/><path class="cls-2" d="M-.21,13.64c-.09,0-.1,0,0,0"/><path class="cls-2" d="M12.05.17c.08,0,.11.09.21.08s-.09,0-.17-.08"/></pattern><pattern id="_10_dpi_20_2" data-name="10 dpi 20% 2" width="28.8" height="28.8" patternTransform="translate(255.03 3424.61) scale(4.43)" patternUnits="userSpaceOnUse" viewBox="0 0 28.8 28.8"><rect class="cls-1" width="28.8" height="28.8"/><path class="cls-2" d="M2.75,28.08c.37-.06.71.42,1,.62a3.32,3.32,0,0,1,1.61,2,3.61,3.61,0,0,0,.31,1.53,4.72,4.72,0,0,0,1.28.93c.65.45.51,1.81,1.16,2.26s1.23,1,1.9,1.37A34.67,34.67,0,0,0,14.4,39c1,.41,2.81-.26,3.69.3a10,10,0,0,1,1.71,1.07c.57.56.51,1.1.75,1.81s1.08.92,1.74,1.32a19.14,19.14,0,0,0,1.83,1c.56.27,1.25.4,1.77.7s.25.63,0,1-.48.53.1.83c.28.15.52.3.77.46"/><path class="cls-2" d="M20.75,29c.26.66,1.3.68,1.47,1.45.12.58-.58.82-.32,1.38s1.34.72,2,.84,2,.16,2.4.76c.3.42-.21.8.07,1.13s.87.23,1.14.52.11.39.25.53.55.17.75.47"/><path class="cls-2" d="M5.58,28c0,.8,1.64,1.38,2.07,2s0,1.37.51,2"/><path class="cls-2" d="M17.12,28.42c0,.07,0,.09,0,.14.29.56.94.8,1.14,1.47a1.57,1.57,0,0,1,0,.86c-.16,1,.58,1.15,1.3,1.62"/><path class="cls-2" d="M27.76,21.86c.59.76,1.82,1,2.63,1.49A3.68,3.68,0,0,1,32,25c.64,1,1.61,1.07,2.67,1.49A10,10,0,0,1,37,27.85c.53.4.91,1,1.47,1.34"/><path class="cls-2" d="M26.68,18.53c2.05.6,3.6,1.86,5.4,2.95A26.22,26.22,0,0,1,37,25.32a12.19,12.19,0,0,0,4,2.15c1.22.51,2.1,1.68,3.33,2.06"/><path class="cls-2" d="M26.76,13.78c1.33.5,2.43,1.57,3.81,2a11.41,11.41,0,0,1,4.59,2.72c1.06.93.49,1.1.25,2.11s2,1.35,2.78,1.93c1.36,1,3,1.26,4.45,2.1.81.48,1,1.22,1.68,1.69,1.07.71,2.43,1,3.49,1.75a4.81,4.81,0,0,0,1.95,1"/><path class="cls-2" d="M26.1,8.4c.06.46.39.65.79.95a47.71,47.71,0,0,0,6.26,3.47c2,1,2.34,2,4.24,3.22a14.8,14.8,0,0,1,3.24,2.17c1.32,1.42-.39.83-.72,1.76s3.3,1.71,3.73,1.92c1.23.58,2.85.9,3.94,1.71,1.3.95-.3.86,0,1.81.19.75,2.27,1.23,2.82,1.47A13.63,13.63,0,0,1,52.47,28,10.07,10.07,0,0,0,55,29.53"/><path class="cls-2" d="M28.16,7.22a17.72,17.72,0,0,1,2.21,1.69,28.8,28.8,0,0,0,6.93,3.57A24.26,24.26,0,0,1,42,15.14c1.07.68,2.26,1.07,3.37,1.66.68.36-.16,1.12.29,1.81s2.2.85,2.64,1.41c.85,1.1,3,1.39,3.34,2.82-.61.25-.52.61-.09,1,.85.74,2.42.53,3.44.91a13.38,13.38,0,0,1,2.34,1.55c1,.63,2,1.25,3.05,1.8"/><path class="cls-2" d="M26.05.61c.62-.11,1.61.86,2.11,1.17a26.84,26.84,0,0,0,2.89,1.56,3.54,3.54,0,0,1,1.84,1.25c.42.77-.18,1.82.37,2.4s1.51,2.44,2.37,2.73a38.07,38.07,0,0,1,6.45,3c.78.42,1.49-.78,1.88,0s.65.69,1.3.83a5.93,5.93,0,0,1,3.25,1.37,11.08,11.08,0,0,1,1.19,1.68c.36.61.43,1.34,1,1.78s1.92.29,2.24,1.2c.11.31,0,.31.23.55a6.63,6.63,0,0,0,1.17.65,11,11,0,0,0,1.19.59c.3.12.72.19.91.47"/><path class="cls-2" d="M27.84,16.16a11.69,11.69,0,0,0,1.36.72c.72.42,1.37.86,2.12,1.22s1.56,1.07,2.43,1.44"/><path class="cls-2" d="M24.88,22.58a5.7,5.7,0,0,0,1.53.74c.71.31,1.37.69,2.06,1,.31.15.65.14,1,.27s.72.64,1.17.83"/><path class="cls-2" d="M-1,21.86c.59.76,1.82,1,2.63,1.49A3.68,3.68,0,0,1,3.18,25c.64,1,1.61,1.07,2.67,1.49a10,10,0,0,1,2.31,1.33c.53.4.92,1,1.47,1.34"/><path class="cls-2" d="M-2.12,18.53c2.05.6,3.6,1.86,5.4,2.95a25.9,25.9,0,0,1,4.89,3.84,12.19,12.19,0,0,0,4,2.15c1.22.51,2.1,1.68,3.33,2.06"/><path class="cls-2" d="M-2,13.78c1.33.5,2.43,1.57,3.81,2a11.41,11.41,0,0,1,4.59,2.72c1.06.93.49,1.1.25,2.11s2,1.35,2.78,1.93c1.36,1,3,1.26,4.45,2.1.81.48,1,1.22,1.68,1.69,1.07.71,2.43,1,3.49,1.75a4.81,4.81,0,0,0,1.95,1"/><path class="cls-2" d="M-2.7,8.4c.06.46.39.65.79.95a47.71,47.71,0,0,0,6.26,3.47c2,1,2.34,2,4.24,3.22a14.8,14.8,0,0,1,3.24,2.17c1.32,1.42-.39.83-.72,1.76s3.3,1.71,3.73,1.92c1.23.58,2.85.9,3.94,1.71,1.3.95-.3.86-.05,1.81.19.75,2.27,1.23,2.82,1.47A13.63,13.63,0,0,1,23.67,28a10.07,10.07,0,0,0,2.56,1.57"/><path class="cls-2" d="M-.64,7.22A17.72,17.72,0,0,1,1.57,8.91,28.8,28.8,0,0,0,8.5,12.48a24.26,24.26,0,0,1,4.67,2.66c1.07.68,2.26,1.07,3.37,1.66.68.36-.16,1.12.29,1.81s2.2.85,2.64,1.41c.85,1.1,3,1.39,3.34,2.82-.61.25-.52.61-.09,1,.85.74,2.42.53,3.44.91a13.38,13.38,0,0,1,2.34,1.55c1,.63,2,1.25,3.05,1.8"/><path class="cls-2" d="M-2.75.61c.62-.11,1.61.86,2.12,1.17A25.78,25.78,0,0,0,2.25,3.34,3.54,3.54,0,0,1,4.09,4.59c.42.77-.18,1.82.37,2.4S6,9.43,6.83,9.72a38.07,38.07,0,0,1,6.45,3c.78.42,1.49-.78,1.88,0s.65.69,1.3.83a5.93,5.93,0,0,1,3.25,1.37,11.08,11.08,0,0,1,1.19,1.68c.36.61.43,1.34,1,1.78s1.92.29,2.24,1.2c.11.31,0,.31.23.55a6.63,6.63,0,0,0,1.17.65,12,12,0,0,0,1.19.59c.3.12.72.19.91.47"/><path class="cls-2" d="M2.75-.72c.37-.06.71.42,1,.62a3.32,3.32,0,0,1,1.61,2,3.64,3.64,0,0,0,.31,1.53,4.72,4.72,0,0,0,1.28.93c.65.45.51,1.8,1.16,2.26S9.3,7.61,10,8a34.67,34.67,0,0,0,4.43,2.13c1,.41,2.81-.26,3.69.3a10,10,0,0,1,1.71,1.07c.57.56.51,1.1.75,1.81s1.08.92,1.74,1.32,1.2.7,1.83,1,1.25.4,1.77.7.25.63,0,1-.48.53.1.83c.28.15.52.3.77.46"/><path class="cls-2" d="M9.5.32c.9.5,1.68,1.71,1,2.17s-.83.71,0,1.2c1.14.68.62,1.65,1.84,2.2.75.34,1.51.7,2.28,1a1.31,1.31,0,0,0,1.19,0,3.77,3.77,0,0,1,3.35.32A13.3,13.3,0,0,1,21,8.28a1.12,1.12,0,0,1,.62,1.07c-.08.64-.31,1,.18,1.49a4.54,4.54,0,0,0,1.37.79,1.71,1.71,0,0,1,.72.61c.11.23,0,.39.21.58s.79.21,1.07.35.63.39,1,.53a2,2,0,0,0,.59.12c.4.08.33.16.75.42"/><path class="cls-2" d="M15.21.61c1.06.65-.22,1-.9,2-.57.88-.49,1.09.53,1.37,1.41.38,4.56,1.41,5.93,1.94a6.16,6.16,0,0,1,1.76.92,2.72,2.72,0,0,0,2,.6,2.66,2.66,0,0,1,1.29.38c.33.31.14.82.47,1.21"/><path class="cls-2" d="M20.75.24c.26.66,1.3.68,1.47,1.45.12.58-.58.81-.32,1.38s1.34.72,2,.84,2,.16,2.4.76c.3.42-.21.8.07,1.13s.87.23,1.14.52c.14.14.11.39.25.53s.55.17.75.47"/><path class="cls-2" d="M-1,16.16a11.07,11.07,0,0,0,1.37.72c.71.42,1.36.86,2.11,1.22S4.08,19.17,5,19.54"/><path class="cls-2" d="M23.87,25.87c.3,0,.48.17.73.31.57.31,1.18.52,1.73.87s1.39.8,2.05,1.25a25.15,25.15,0,0,0,3.11,1.57"/><path class="cls-2" d="M5.58-.84c0,.8,1.64,1.38,2.07,2s0,1.37.51,2"/><path class="cls-2" d="M15,8.29a4.38,4.38,0,0,0,1.77.21,5.78,5.78,0,0,1,2.53.7"/><path class="cls-2" d="M17.12-.38c0,.07,0,.09,0,.14.29.56.94.8,1.14,1.47a1.57,1.57,0,0,1,0,.86c-.16,1,.58,1.15,1.3,1.61"/><path class="cls-2" d="M24.66,1.91c.57.43,1.13.87,1.72,1.28s1,.45,1.47.72c1,.49,2.78,1.18,3.19,2.25"/><path class="cls-2" d="M24.66,10.41c1.18,1,2.77,1.31,4,2.17a20.37,20.37,0,0,0,2.22,1.29"/><path class="cls-2" d="M14.33,18.41c.21.46.2,1,.56,1.43a5.09,5.09,0,0,0,1.55.81c.42.21.84.44,1.26.64"/><path class="cls-2" d="M8.41,18.12c0,.36.33.69.4,1.05.14.78,0,.89.6,1.49"/><path class="cls-2" d="M16,23.91a9.58,9.58,0,0,0,1.42,1"/><path class="cls-2" d="M17.45,15.45a3.56,3.56,0,0,1,1.26.91c.41.55.35,1.21,1,1.59"/><path class="cls-2" d="M-3.92,22.58a5.85,5.85,0,0,0,1.53.74c.71.31,1.37.69,2.06,1,.31.15.65.14,1,.27s.72.64,1.17.83"/><path class="cls-2" d="M9.41,24.25c.11.22.37.26.59.35a10.76,10.76,0,0,1,1.6.87,8.4,8.4,0,0,0,1.05.5c.3.14.53.42.84.53"/><path class="cls-2" d="M12.12,1.08c1.09.53.08,1.42.17,2.12"/><path class="cls-2" d="M-29.44,7.22a17.72,17.72,0,0,1,2.21,1.69,28.8,28.8,0,0,0,6.93,3.57,24.26,24.26,0,0,1,4.67,2.66c1.07.68,2.26,1.07,3.37,1.66.68.36-.16,1.12.29,1.81s2.2.85,2.64,1.41c.85,1.1,3,1.39,3.34,2.82-.61.25-.52.61-.09,1,.85.74,2.42.53,3.45.91A13.68,13.68,0,0,1-.3,26.29c1,.63,2,1.25,3.05,1.8"/><path class="cls-2" d="M-4.93,25.87c.3,0,.48.17.73.31.57.31,1.18.52,1.73.87s1.39.8,2.05,1.25a25.15,25.15,0,0,0,3.11,1.57"/><path class="cls-2" d="M-4.14,1.91c.57.43,1.13.87,1.72,1.28a15.56,15.56,0,0,0,1.48.72C0,4.4,1.83,5.09,2.24,6.16"/><path class="cls-2" d="M-4.14,10.41c1.18,1,2.77,1.31,4,2.17a20.37,20.37,0,0,0,2.22,1.29"/><path class="cls-2" d="M27.76-6.94c.59.76,1.82,1,2.63,1.49A3.68,3.68,0,0,1,32-3.77c.64,1,1.61,1.07,2.67,1.49A9.64,9.64,0,0,1,37-.95c.53.4.91,1,1.47,1.34"/><path class="cls-2" d="M26.68-10.27c2.05.6,3.6,1.86,5.4,2.95A26.22,26.22,0,0,1,37-3.48a12,12,0,0,0,4,2.14C42.15-.82,43,.35,44.26.73"/><path class="cls-2" d="M26.76-15c1.33.5,2.43,1.57,3.81,2a11.41,11.41,0,0,1,4.59,2.72c1.06.93.49,1.1.25,2.1s2,1.36,2.78,1.94c1.36,1,3,1.26,4.45,2.1.81.48,1,1.22,1.68,1.69,1.07.71,2.43,1,3.49,1.75a4.81,4.81,0,0,0,1.95,1"/><path class="cls-2" d="M26.1-20.4c.06.46.39.65.79.95A47.71,47.71,0,0,0,33.15-16c2,1.05,2.34,2.05,4.24,3.22a14.8,14.8,0,0,1,3.24,2.17c1.32,1.42-.39.83-.72,1.76s3.3,1.71,3.73,1.92c1.23.58,2.85.9,3.94,1.71,1.3,1-.3.86,0,1.81.19.75,2.27,1.23,2.82,1.47A13.63,13.63,0,0,1,52.47-.84,10.07,10.07,0,0,0,55,.73"/><path class="cls-2" d="M-1-6.94c.59.76,1.82,1,2.63,1.49A3.68,3.68,0,0,1,3.18-3.77c.64,1,1.61,1.07,2.67,1.49A9.64,9.64,0,0,1,8.16-.95c.53.4.92,1,1.47,1.34"/><path class="cls-2" d="M-2.12-10.27c2.05.6,3.6,1.86,5.4,2.95A25.9,25.9,0,0,1,8.17-3.48a12,12,0,0,0,4,2.14c1.22.52,2.1,1.69,3.33,2.07"/><path class="cls-2" d="M-2-15c1.33.5,2.43,1.57,3.81,2a11.41,11.41,0,0,1,4.59,2.72c1.06.93.49,1.1.25,2.1s2,1.36,2.78,1.94c1.36,1,3,1.26,4.45,2.1.81.48,1,1.22,1.68,1.69,1.07.71,2.43,1,3.49,1.75A4.81,4.81,0,0,0,21,.31"/><path class="cls-2" d="M-2.7-20.4c.06.46.39.65.79.95A47.71,47.71,0,0,0,4.35-16c2,1.05,2.34,2.05,4.24,3.22a14.8,14.8,0,0,1,3.24,2.17c1.32,1.42-.39.83-.72,1.76s3.3,1.71,3.73,1.92c1.23.58,2.85.9,3.94,1.71,1.3,1-.3.86-.05,1.81.19.75,2.27,1.23,2.82,1.47A13.63,13.63,0,0,1,23.67-.84,10.07,10.07,0,0,0,26.23.73"/><path class="cls-2" d="M23.87-2.93c.3,0,.48.17.73.31.57.31,1.18.52,1.73.87s1.39.8,2.05,1.25a25.15,25.15,0,0,0,3.11,1.57"/><path class="cls-2" d="M-4.93-2.93c.3,0,.48.17.73.31.57.31,1.18.52,1.73.87S-1.08-.95-.42-.5A25.15,25.15,0,0,0,2.69,1.07"/></pattern><pattern id="_10_dpi_50_" data-name="10 dpi 50%" width="28.8" height="28.8" patternTransform="translate(231.08 1682.94) scale(2)" patternUnits="userSpaceOnUse" viewBox="0 0 28.8 28.8"><rect class="cls-1" width="28.8" height="28.8"/><path class="cls-3" d="M10.79,24.79c3.92.24,2.84-5.63,4.28-7.72a6.65,6.65,0,0,1,5.42-2.89,13.77,13.77,0,0,1,2.38.49,2.55,2.55,0,0,0,2.8-1.21"/><path class="cls-3" d="M18.62,18.12A13.29,13.29,0,0,1,20.71,18a17,17,0,0,1,1.89,0,6.31,6.31,0,0,1,1.87.7,3.1,3.1,0,0,0,3.48-.3,9.1,9.1,0,0,0,2.47-4.86"/><path class="cls-3" d="M11.58,3.61C9.66,8.29,14,8.66,14.4,10.1c.55,1.82-.58,3.82-1.86,5.05"/><path class="cls-3" d="M10.67,20.79a3.36,3.36,0,0,1-2.26-1.4c-.94-1.47-.41-3,.38-4.38s1.85-2.88.8-4.32c-.93-1.27-2.94-1.36-4.3-1.82"/><path class="cls-3" d="M5.57,22.4c.65.71,1.4,1.29,2,2.05A4.34,4.34,0,0,1,8.43,26c.22.75.17,1.62.46,2.34a2.5,2.5,0,0,0,3.47,1.11,12.32,12.32,0,0,0,2.44-1.86,4.07,4.07,0,0,1,2.67-.9"/><path class="cls-3" d="M17.46,21.67a10.2,10.2,0,0,0,1.29.73A4.74,4.74,0,0,1,21,25a7.09,7.09,0,0,1,.09,3.24c-.08.53-.23.95.09,1.44a2.07,2.07,0,0,0,1.32.78"/><path class="cls-3" d="M14.77,3.71C16.88,3,18.64,5.76,20.6,6c1.34.14,2.72,2.51,3.62,1.31s1-5.07,1.23-6.54"/><path class="cls-3" d="M29.67,3.71a5.19,5.19,0,0,0-2.17,3c-.25,1.1.53,4.6.8,5.66"/><path class="cls-3" d="M16.33,8.5a4.53,4.53,0,0,0,2.39,1.39c.78.16,1.58,0,2.36.23a4.73,4.73,0,0,1,2.34,1.59"/><path class="cls-3" d="M29.38,29.28a10.07,10.07,0,0,1-2.56-3.12c-.38-1-.37-1.93-1.16-2.75A6.41,6.41,0,0,0,22,21.59"/><path class="cls-3" d="M4,17a8,8,0,0,1-1,1.6c-.43.53-1,.72-1.51,1.2a2.67,2.67,0,0,0-.71,2.52C1,23.45,2.12,24,2.79,24.8a5.58,5.58,0,0,1,.92,4.53"/><path class="cls-3" d="M5.47,13.41c0-2-2.61-2.28-3.3-3.87a2.85,2.85,0,0,1,.59-3,5.92,5.92,0,0,1,1.5-1.36A9.45,9.45,0,0,1,6.07,4.7c1-.3.09-2.32.84-3.11"/><path class="cls-3" d="M-10.18,18.12A13.29,13.29,0,0,1-8.09,18,17,17,0,0,1-6.2,18a6.31,6.31,0,0,1,1.87.7,3.11,3.11,0,0,0,3.49-.3,9.16,9.16,0,0,0,2.46-4.86"/><path class="cls-3" d="M.87,3.71a5.19,5.19,0,0,0-2.17,3c-.25,1.1.53,4.6.8,5.66"/><path class="cls-3" d="M.58,29.28A10.07,10.07,0,0,1-2,26.16c-.38-1-.37-1.93-1.16-2.75a6.41,6.41,0,0,0-3.71-1.82"/><path class="cls-3" d="M5.57-6.4c.65.71,1.4,1.29,2,2.05a4.34,4.34,0,0,1,.84,1.59c.22.75.17,1.63.46,2.34A2.5,2.5,0,0,0,12.36.69,12.32,12.32,0,0,0,14.8-1.17a4.07,4.07,0,0,1,2.67-.9"/><path class="cls-3" d="M17.46-7.13a10.2,10.2,0,0,0,1.29.73A4.74,4.74,0,0,1,21-3.84,7.09,7.09,0,0,1,21.05-.6c-.08.53-.23,1,.09,1.44a2.07,2.07,0,0,0,1.32.78"/><path class="cls-3" d="M29.38.48a10.07,10.07,0,0,1-2.56-3.12c-.38-1-.37-1.93-1.16-2.75A6.41,6.41,0,0,0,22-7.21"/><path class="cls-3" d="M4-11.8a8,8,0,0,1-1,1.6c-.43.53-1,.72-1.51,1.21A2.65,2.65,0,0,0,.73-6.48C1-5.35,2.12-4.81,2.79-4A5.58,5.58,0,0,1,3.71.53"/><path class="cls-3" d="M.58.48A10.07,10.07,0,0,1-2-2.64c-.38-1-.37-1.93-1.16-2.75A6.41,6.41,0,0,0-6.85-7.21"/></pattern></defs><title>Charts</title><g class="cls-4"><g id="Layer_1" data-name="Layer 1"><path class="cls-5" d="M394.34,453.5s103.3-184.74,655-215.4l5.85,3.72-5.85,548.3c-543.54,29.24-655,238.37-655,238.37Z"/><path class="cls-5" d="M400.19,457.23s103.29-184.74,655-215.41v552c-543.54,29.24-655,215.4-655,215.4Z"/><path class="cls-6" d="M400.19,457.23s103.29-184.74,655-215.41v552c-543.54,29.24-655,215.4-655,215.4Z"/><path class="cls-7" d="M1055.2,793.85V753.8s-33.46,8.3-42.22,46.71"/><path class="cls-8" d="M1166.06,791c-175.68,0-338,21.35-469.55,57.47,24.72,1.37,50.78,3.69,77.65,7,150.32,18.67,268.68,62,264.37,96.7s-129.67,47.76-280,29.1c-107-13.3-197.88-39.08-239.75-65.37C426.34,964.45,372,1023.85,372,1088c0,164,355.53,297,794.09,297s794.09-133,794.09-297S1604.63,791,1166.06,791Z"/><path class="cls-7" d="M1038.34,952.17c4.32-34.74-114-78-264.37-96.7-26.86-3.34-52.92-5.66-77.65-7C627.92,867.24,567.85,890,518.6,915.9c41.87,26.29,132.7,52.07,239.75,65.37C908.67,999.93,1034,986.91,1038.34,952.17Z"/><g class="cls-9"><path class="cls-10" d="M1166.06,791c-175.68,0-338,21.35-469.55,57.47,24.72,1.37,50.78,3.69,77.65,7,150.32,18.67,268.68,62,264.37,96.7s-129.67,47.76-280,29.1c-107-13.3-197.88-39.08-239.75-65.37C426.34,964.45,372,1023.85,372,1088c0,164,355.53,297,794.09,297s794.09-133,794.09-297S1604.63,791,1166.06,791Z"/><path class="cls-10" d="M1038.34,952.17c4.32-34.74-114-78-264.37-96.7-26.86-3.34-52.92-5.66-77.65-7C627.92,867.24,567.85,890,518.6,915.9c41.87,26.29,132.7,52.07,239.75,65.37C908.67,999.93,1034,986.91,1038.34,952.17Z"/></g><path class="cls-7" d="M518.6,915.9s19.16-254.21,88.16-276.74,89.56,209.28,89.56,209.28"/><path class="cls-7" d="M1205.93,890.09c114.75,14.25,211.34-2.92,215.74-38.35,2.11-16.94-17.25-35-50.56-50.77-65.41-6.52-134.14-10-205-10-54.55,0-107.81,2.06-159.27,6a21.37,21.37,0,0,0-.66,3.18C1001.73,835.56,1091.19,875.84,1205.93,890.09Z"/><path class="cls-10" d="M1205.93,890.09c114.75,14.25,211.34-2.92,215.74-38.35,2.11-16.94-17.25-35-50.56-50.77-65.41-6.52-134.14-10-205-10-54.55,0-107.81,2.06-159.27,6a21.37,21.37,0,0,0-.66,3.18C1001.73,835.56,1091.19,875.84,1205.93,890.09Z"/><ellipse class="cls-7" cx="599.31" cy="1042.1" rx="50.52" ry="135.06" transform="translate(-508.71 1508.41) rotate(-82.92)"/><ellipse class="cls-7" cx="686.29" cy="968.8" rx="56.92" ry="171.86" transform="translate(-359.71 1530.45) rotate(-82.92)"/><path class="cls-11" d="M990.6,459.42a254.69,254.69,0,0,0-107.72,0H835V953.08c0,21,45.55,38.06,101.75,38.06s101.75-17,101.75-38.06V459.42Z"/><ellipse class="cls-12" cx="936.74" cy="456.54" rx="101.75" ry="38.06"/><path class="cls-13" d="M810.49,816a254.74,254.74,0,0,0-107.73,0H654.87V994.47c0,21,45.56,38.06,101.76,38.06s101.75-17,101.75-38.06V816Z"/><ellipse class="cls-14" cx="756.63" cy="813.1" rx="101.75" ry="38.06"/><path class="cls-15" d="M688.77,963.86a254.31,254.31,0,0,0-107.73,0H533.15v93.78c0,21,45.56,38.06,101.76,38.06s101.75-17,101.75-38.06V963.86Z"/><ellipse class="cls-5" cx="634.91" cy="960.97" rx="101.75" ry="38.06"/><path class="cls-16" d="M1378,738.88c-23.54-5.28-51.79-8.35-82.26-8.35s-58.72,3.07-82.26,8.35h-73.14l18.8,118.33c3.61,22.7,64.69,40.24,136.6,40.24s133-17.54,136.6-40.24l18.8-118.33Z"/><path class="cls-17" d="M1451.77,734.72c-4.69,29.52-74.45,52.17-156.06,52.17s-151.37-22.65-156.06-52.17c-5-31.4,64.75-58.37,156.06-58.37S1456.76,703.32,1451.77,734.72Z"/><path class="cls-18" d="M1295.71,698.21c69.71,0,124.83,17.27,133.54,39a17.59,17.59,0,0,0,1-3.48c4.3-25.64-55.82-47.66-134.53-47.67s-138.83,22-134.53,47.67a16.94,16.94,0,0,0,1,3.48C1170.88,715.48,1226,698.21,1295.71,698.21Z"/><path class="cls-19" d="M1295.71,776.35c66.92,0,124.58-16.73,133.54-39.11-8.71-21.76-63.83-39-133.54-39s-124.83,17.27-133.54,39C1171.13,759.62,1228.79,776.35,1295.71,776.35Z"/><path class="cls-20" d="M1387.44,1027.32c228,0,418.91,59.3,468.57,138.92,8.22-13.19,12.58-26.93,12.58-41,0-99.4-215.42-180-481.15-180s-481.15,80.57-481.15,180c0,14.12,4.36,27.86,12.59,41C968.53,1086.62,1159.47,1027.32,1387.44,1027.32Z"/><ellipse class="cls-21" cx="1387.44" cy="1166.24" rx="468.56" ry="138.92"/><path class="cls-6" d="M1387.44,1027.32c228,0,418.91,59.3,468.57,138.92,8.22-13.19,12.58-26.93,12.58-41,0-99.4-215.42-180-481.15-180s-481.15,80.57-481.15,180c0,14.12,4.36,27.86,12.59,41C968.53,1086.62,1159.47,1027.32,1387.44,1027.32Z"/><rect class="cls-22" x="1471.05" y="1230.62" width="9.19" height="9.19" transform="translate(3392.52 1065.21) rotate(135)"/><rect class="cls-22" x="1368.95" y="1113.97" width="5.23" height="5.23" transform="translate(3130.94 936.28) rotate(135)"/><rect class="cls-22" x="1138.1" y="1195.23" width="5.23" height="5.23" transform="translate(2794.33 1238.24) rotate(135)"/><rect class="cls-22" x="1356.12" y="1224.34" width="5.23" height="5.23" transform="translate(-469.62 1320.14) rotate(-45)"/><rect class="cls-22" x="987.87" y="1139.04" width="5.23" height="5.23" transform="translate(-517.16 1034.76) rotate(-45)"/><rect class="cls-22" x="1661.36" y="1100.18" width="5.23" height="5.23" transform="translate(-292.42 1499.6) rotate(-45)"/><rect class="cls-22" x="1619.87" y="1189.35" width="5.23" height="5.23" transform="translate(-367.63 1496.39) rotate(-45)"/><rect class="cls-22" x="1767.28" y="1146.85" width="5.23" height="5.23" transform="translate(-294.4 1588.18) rotate(-45)"/><rect class="cls-22" x="1300.25" y="1064.41" width="5.23" height="5.23" transform="translate(-372.9 1233.79) rotate(-45)"/><rect class="cls-22" x="1138.1" y="1101.28" width="5.23" height="5.23" transform="translate(-446.46 1129.93) rotate(-45)"/><rect class="cls-22" x="1241.54" y="1150.55" width="5.23" height="5.23" transform="translate(-451 1217.5) rotate(-45)"/><rect class="cls-22" x="1103.98" y="1122.58" width="5.23" height="5.23" transform="translate(-471.52 1112.04) rotate(-45)"/><path class="cls-23" d="M1379.72,385.57c-5.79-2-11.56-6.4-17.36-9-7.43-3.34-13.75-6.33-20-11.85-8.46-7.46-14.82-17.52-16.8-28.36a7.65,7.65,0,0,1,3.3,0c0,8.72,12.54,20.82,19.6,25.22,6.38,4,13.53,6.79,20,9.86"/><path class="cls-23" d="M1551.59,455.39c13.66.77,23.85-16.05,24.93-27.95.47-5.17-2-10.82-2.46-16-.72-8.37.6-14,2.44-22,.72-3.16.4-10,4.81-10.07.49,5.77-2.34,12-2.48,18.09-.12,5.39-.43,12.14,1.56,17.24,2.13,5.47,6.84,11.42,5.78,17.7s-4.85,12.77-5.77,19.16"/><path class="cls-15" d="M1462.18,424.42c7.11,6.25,14.28,7.46,23.79,7.58,7.2.09,10.74,1.66,17.79,2.67,5.59.8,29.84-5.17,22.19-15.53,5.58-2.76,20.32-2,19.74-11.53,7.42-1.63,18.75,3.52,22.48-5.84,5.08,1.32,14.25,3.74,16.87-2.52,8.23,3,13.11.27,20.31-2.58,7.4-2.93,22.33-.36,28-5.14,9.59-8.09-7.94-12.54-14.35-13.56,1.54-10.22-24.27-18.46-31.77-20.46-9.22-2.45-22-5.94-31.85-1.93-6.61,2.71-10.82,11.61-18.14,14-6.58,2.18-14.06-4.9-21.58-8.47-9.32-4.44-17.27-4.9-27.53-2.62-7.79,1.74-13.56,3.66-16.58,13.76-1.8,6,.08,11.5-.35,17.51-7.35-1.37-14.09,4.68-19.52,8-6.9,4.19-12.3,8.41-19.93,10.61-3.66,1.06-29.92,6-23,12.86,5.35,5.36,29.45,1.71,37.47,1.33C1453.14,422.24,1456.57,419.92,1462.18,424.42Z"/><g class="cls-24"><path class="cls-25" d="M1591.94,397.49c-5.46-3.19-10.78-4.71-16.83-2.85-6.38,2-11.86,2.21-18.32,2-.86,0-3.29.53-3.79.56-.35,0-2.18-.86-3.75-.63-3.61.51-8.35,6.65-9.32-.3-5,.84-7.34-.25-10.74,2.94-2.51,2.36-4,6-6.74,8.47s-6,4.6-8.94,6.84c3.89-11.34-8.24-.19-13.12-2.62-5.76-2.86-3.32-11,.23-14.4,3.1-3,23.86-7.18,12.74-15.18-5.22-3.76-21,9.65-21.28.14-.21-6.28,13.6-3.28,8.38-9.6-2.11-2.57-7.87-.92-7.39-5.41.34-3.19,3.91-3,6.14-3.84,3.39-1.26,8.62-.67,11.46-2.06a4.94,4.94,0,0,0,1.81-1.78c-8-3.12-15.28-3.25-24.36-1.24-7.79,1.74-13.56,3.66-16.58,13.76-1.8,6,.08,11.5-.35,17.51-7.35-1.37-14.09,4.68-19.52,8-6.9,4.19-12.3,8.41-19.93,10.61-3.66,1.06-29.92,6-23,12.86,5.35,5.36,29.45,1.71,37.47,1.33,7-.33,10.41-2.65,16,1.85,7.11,6.25,14.28,7.46,23.79,7.58,7.2.09,10.74,1.66,17.79,2.67,5.59.8,29.84-5.17,22.19-15.53,5.58-2.76,20.32-2,19.74-11.53,7.42-1.63,18.75,3.52,22.48-5.84,5.08,1.32,14.25,3.74,16.87-2.52a18.3,18.3,0,0,0,10.38.93A15.11,15.11,0,0,0,1591.94,397.49Z"/></g><path class="cls-23" d="M1248.44,487.27c-.19-2.73.58-5.1,1-7.76,2-11.12,4.19-25.95,3.23-37.54-.59-7.16-3.36-14.74-5.51-21.31-2.38-7.29-6.58-16.13-7.3-23.64,4.84,0,6.94,10.27,8.82,14.46,2.28,5.06,4.75,9.81,7.13,14.8,1.86,3.91,5.34,9.14,5.85,13.62.47,4.09-.71,8.85-.79,13-.12,6.4-1.05,30.11-1.75,36.46"/><path class="cls-23" d="M1326.55,556c0-18-33.31-54.77-39.74-56.22a136.91,136.91,0,0,0-16.94-2.25c-7.86-.78-14.88,1.41-22.6,1.13-5.85-.22-12.21-1.93-18-3-12.06-2.16-24.32-2.58-36.16-5.28-7.67-1.74-15.27-2.47-20.14-9.25-7.86-10.95-4.07-25.61-10-37.39,6-4.7,9.14,18.82,10.18,22.34,3.27,11,7.85,14.87,19.52,15.92,15.07,1.35,29.88,5,45,5.68,10,.46,19.88-.4,29.58,0,8.89.36,35.82-3.91,71.34,47.8"/><path class="cls-23" d="M1339.19,535.47c-.16-.15-.06,1.28-.62.08,2.52-10.12,15.08-21.2,11.26-32.27-1.44-4.17-6.29-8.59-9.18-11.76-6.16-6.75-12.07-16.15-19.93-21-6.64-4.07-14.83-3.53-22.33-4.7-11.3-1.77-19.18-3.93-27.15-12.44-7.45-8-11.7-15.66-17.15-24.82-.95-1.6-3.85-4.09-3.29-6.17,1.76-6.48,6.51,2.33,8,4.27,7.14,9,18.09,23.81,29.11,26.25,4.56,1,9.43.4,13.94,1.47,4,.95,8.15,2.25,12.16,2.91,10.07,1.65,15.52,1.7,23.76,7.83,11.08,8.25,20.33,18.73,30.69,27.67,4.55,3.93,4.17,8.9,4.86,14.81"/><path class="cls-23" d="M1388,737.14c-7.62,2.8-5.85-4.65-8.77-9-1.91-2.87-3.58-3.25-6.84-3.89-6.93-1.35-13.85-3.51-20.94-3.78-2.06-7.07-3-13.36,1.77-19.85,2.51-3.44,5.29-4.63,8.33-7,6.34-5,3.66-19.47,6.67-27,6.5-16.22,5.51-29.76,4.74-46.4-.36-7.71-2.27-21.75,2.3-29,2.88-4.55,8-5.58,12.17-8.24,5.59-3.6,5-8.84,7.25-15a127.85,127.85,0,0,1,9.86-21.15c4.53-7.65,8.26-11.23,16.57-14a59.37,59.37,0,0,0,6.42-2.26c8.08-3.74,15-8.39,23.55-11.57,6.84-2.53,13.41-4.5,20-7.64,10-4.74,14.09-10.53,21.51-18.16,3.25-3.34,7.81-7.39,11.89-9.3,6.43-3,15.53-1.76,22.51-2.41,15.84-1.46,30-9,45.09-13.3,11.21-3.2,24.48-1.64,34.34-7.64,16.55-10.06,21.63-30.81,29.1-48,6.22-14.31,10.58-25.93,2.75-40.31-1.82-3.35-9.64-18.29-13.46-12.45,3.69,4.67,11.25,14.14,12.23,20.89,1.31,9.06-6.12,18.15-9.33,26-6.83,16.8-10.9,31.82-29.74,39.87-17.64,7.53-40.15,8-58.85,9.69-14.69,1.32-30.34-2.24-44.2,3.15-3.17-6.3-2-15.64-2.44-22.85-.31-5.33-2.16-7.93-4.89-12.43-7.7-12.66-19.17-17-32.75-22.56-19.83-8.12-40.51-12.83-60.41-20.39-10-3.8-18.51-11-20.72-21.95-2.78-13.73,6.5-22.85,13.07-33.41,2.74-4.41,7-9.72,7.07-15.09,0-2.73-2.29-11.35-5.86-7.57,2.33,5.32,0,10.68-4,15-11.48,12.42-21.59,22.59-19,41,4.46,31.17,33.85,35.72,58.76,45.46,13.51,5.29,27.74,13.94,34.77,27.26,3.69,7,5.12,13,3.91,20.78-.58,3.76.39,8.19-1.24,11.65-2.15,4.56-7.41,8.49-11.73,11-8.73,5.1-19.7,10.93-29.17,14.36-17.24,6.24-35.5,12.33-51.5,21.64-29.32,17.08-46,41.41-51.35,75.3-1.24,7.88.77,16-.92,23.89-1.79,8.3-5.27,16.69-8.26,24.62-4.26,11.29-6.86,22.23-14.11,32.18-7.75,10.65-22.27,16.33-27.45,28.57-3.4,8-3.31,16.42-9.82,23.07s-16.23,6-24.72,7.62c-5,1-17.19,7.32-16.58,12.66,8-2.39,18.43-5.28,27.34-5.49,4.8-.11,17.72-1.34,12.61,6.77-1.95,3.1-10.7,9.4-1.46,8.25,5.26-.66,9.45-4.09,14.18-6.21,7.19-3.22,15.92-4.42,23.59-6.18,3.74-.86,16.14-5,19.66-2.6,2.69,1.82,3.85,9.36,4.44,12.39,4.51.06,7.84,1.66,12,3.3,6.61,2.62,8.52,5,12.41,10.41,4.08,5.68,13.55,7.94,20.11,8.61-2.89-5.32-10.22-8.71-13.93-13.68-1.63-2.18-2.47-4.67-4.72-6.42-2.68-2.07-11.17-3.7-4.36-7.64,3.93-2.29,11.29-3.25,15.81-4.45a46.79,46.79,0,0,1,10.6-1.82c5.74-.1,8.28,3.14,12.89,4.72,2.48.85,11.09,1.36,11.57-1.79"/><path class="cls-15" d="M1264.3,302.35c10,.89,22.94-5.23,33.62-5.71-.44,1.72,1.17,4.93-.1,7.54,7.73,0,24.88-1.56,22.4,10.94,7.41.82,19.93-2.49,25.26,4.19,4.8,6-1.47,7.47,7.08,12.72,6.14,3.77,20.16,6.6,26.52,3.62,5-2.33,4.23-8.81,11.59-9.21,5.93-.32,9.27,5.57,13.92,7.43,8.66,3.48,14.2.54,22.88-1.92,5.45-1.55,22.2-3.77,15.28-12.76,7.53.36,14.69-3.16,22.08-2.61.47,8.45,15.39,15.28,22.19,16.51,9.82,1.78,28.9-3.18,31.16-14.77,2.12-.1,4.26-.4,6.41-.6,7.12-.64,4.52,2,9.7,3.27,11.24,2.81,17.28-1.83,26.79-6.51,3.73,7.39,20.51,4.21,25.24-1-2.86-3.15-16.86-4.48-22.13-5.55-7-1.42-13.81-.07-20.52-.48a38.38,38.38,0,0,1-17.85-5.35c-13.55-7.82,1.38-7.32-2-16.74-1.25-3.55-9.08-7.29-11.6-10.49-2.21-2.81-3.33-7.13-5.27-9.53-7.85-9.68-21.41-6.5-23.63-21.19-1.39-9.15,1.08-12.09-6.12-20.24a91.6,91.6,0,0,0-19.55-16.85c-18.17-11.47-41.52-9.81-46.93,13-8.76-1.18-18.69-14.24-28-18.55-11.29-5.26-24.17-9.1-36.65-5.85-15.2,4-23.82,14.77-23.15,29.66.5,11.06.92,23.9-13.31,26.88,0-1-.75-2.47-.65-3.83-15.46-6.48-35.69,12.19-24.76,27-6.21,6.37-12.17-2.49-18.6,1.33-7.79,4.62-2.81,11.55,1.68,15.34-4,3.36-11.79,5.32-16.93,5.69-.1,1.16,0,2.33,0,3.45C1256.3,302.06,1259.54,300.36,1264.3,302.35Z"/><g class="cls-24"><path class="cls-25" d="M1430,326.64c2.5-6.91,2.44-5.61-4.13-7.84-8.45-2.88-3.14-1.22-1.85-9.23,1.46-9-17.54-6.9-24.46-9.25-5.82-2-10-6.5-14.85-10-2.16-1.53-7.06-3-8.52-4.79-2.61-3.17-.92-.82-1.24-4.45-.7-7.76,2.89-21-10-20.76-7.61.12-12.31,7.57-21,5.21-6.45-1.74-7.79-5.3-4.75-11,1.61-3,7.79-6.34,6.93-10.71s-5.45-2.45-7.73-5.33c-2.74-3.45-1-11.05,2.3-13.86,4.27-3.69,10.63-1,15.39-3.37-11.38-12.41,4.18-18.49,15.38-18.06,7.29.27,12.06,5.86,18.86,7.66a17.12,17.12,0,0,0,6,.59c-4.54-3.81-9.12-7.87-13.55-9.93-11.29-5.26-24.17-9.1-36.65-5.85-15.2,4-23.82,14.77-23.15,29.66.5,11.06.92,23.9-13.31,26.88,0-1-.75-2.47-.65-3.83-15.46-6.48-35.69,12.19-24.76,27-6.21,6.37-12.17-2.48-18.6,1.33-7.79,4.62-2.81,11.55,1.68,15.34-4,3.36-11.79,5.32-16.93,5.69-.1,1.16,0,2.33,0,3.45,5.85.79,9.09-.91,13.85,1.08,10,.89,22.94-5.23,33.62-5.71-.44,1.72,1.17,4.93-.1,7.54,7.74,0,24.88-1.56,22.4,10.94,7.41.82,19.93-2.49,25.26,4.19,4.8,6-1.47,7.47,7.08,12.72,6.14,3.78,20.16,6.6,26.52,3.61,5-2.32,4.23-8.8,11.59-9.2,5.93-.32,9.27,5.57,13.92,7.43,8.66,3.48,14.2.54,22.88-1.92l.92-.25C1427.66,331,1428.73,330.25,1430,326.64Z"/></g><path class="cls-15" d="M1565.57,355.29c7,0,31.69-.39,23.25,12.45,5,.13,17.42-2.63,21,0,4.39,3.22.62,5.85,2.56,9.65,2,4,9.84,5,11.14,8.94,1.62,4.89-5.71,7,.36,12.23,4.07,3.49,14.13,2.68,18.55.69-.75,1.66-.6,5-1.18,6.63a27.23,27.23,0,0,0,13.89,3.06c-.88,7.22,5.68,9.21,11.53,11.44,9.51,3.62,10.14,1.48,9.46,10.39-1,13.3,3.95,13.56,16.1,18.27,15,5.83,24.88,4.15,40.28,3.59,12.82-.46,40.12.66,45.68-15.19,2.89-8.23-2.26-14-8.5-17.6,11.53-10.88,4.68-14.64,3.13-27.53-1.33-11-.37-17.46-12.78-22-11.59-4.26-20.74-3.56-31-11.3-7.49-5.67-32.52-8.47-20.61-20.42-10.75-12-24.28-12.35-39.5-12.63,6.53-14.31-.2-23.59-16-23.43s-18.2,14.67-29.48,18.74c-4.41,1.6-11.73-.64-16.79.89-4.77,1.45-6.29,3.13-10,6.47-1.76,1.6-1.74,2.74-3.56,4.1-4,3-9.66,2.6-12.12,7.6a9.27,9.27,0,0,1-.29-1.75c-10.37-1.48-21.41,7.26-31.35,7.65-8.7.34-14.73,2.07-20.58,8.34C1536.06,359.59,1556.72,357.19,1565.57,355.29Z"/><path class="cls-15" d="M1211.13,335c10.11,0,20,1.05,30.11,1.3,3.82.09,10.27-1.64,12.84,1.85s-2.14,5.17,2.94,8.18c7.11,4.21,21-2.5,28.23,2.34,2,1.36,1.14,4.23,3.54,5.37,2.73,1.29,7-1.1,9.35-2.21,1.67,7.57,14.66,4.91,20.29,4.94,14.43.07,24.88-6.64,37.9-12.22,10.38-4.45,21.51,1.26,32.65,0,3.78-.41,7.61-1.78,11.76-2.14,3-.27,7.43-.81,9.43-2.78,6.93-6.78-4.26-20.37-9.64-23.23-2.83-1.5-6.83-.84-9.22-3.23-2.62-2.6-1.39-4.57-2.64-7.51-2.82-6.59-9.89-9.27-15.42-14.72-12.46-12.27-27.79-12-40.67-.61-6.35-19-36.75-8.82-46.83,2.43-4.83,5.39-5.91,16.46-12,20.4-2.55,1.65-8.81.83-12.2,2.51-2.49,1.23-4.28,2.22-6.56,3.13-3.91,1.56-6.12,1.18-10.27,4-2.76,1.87-4.48,3.27-7.54,4.25-4.21,1.35-9.09,1.3-13.34,2.39s-10.84,1.28-13.32,5.54Z"/><path class="cls-15" d="M1162.89,434.05c5.15-2.54,11.14-10.52,15.65-14.12,5.52-4.39,17-7,20.56-13-4.39-1.28-9.8-2.67-9.38-7.71.4-4.82,7.67-6.92,8.67-11.56.46-2.09-1.78-4.55-1.05-7.11,1.38-4.8,9.6-7.61,11.65-12.43,1.09-2.55.19-5,1.82-7.46,3.35-5.14,14.71-8.65,20.16-10.5,5.86-2,9.62-3.92,13.28,1.26,3.78,5.36,3.22,15.91,1.37,21.81,1.93-3.92,7.62-7.84,12.31-6.55,5.18,1.42,5.58,7.7,9.17,9.89,8,4.87,18.33-5.4,15.36,9.54,12.36-7.82,24-6.71,22,9.23,3.83,1.3,7.36-2.44,11-1.83,5.52.91,2.81,1.64,4.56,5.56,1.43,3.18,2.75,4.31,2.84,8.31.16,6.73-1.69,10.23,5.76,13.6,4.39,2,6.65,0,8.61,5.17,1,2.71.19,6.73.39,9.57,4.59.37,7-.66,11.06-2.22,6.07-2.32,11.4-2.3,17.88-2.27,10.69.05,19.73,8,18.8,19.23,3.57,2.27,11.26-.12,15.24-.36,5.4-.34,9.06-.11,14,1.59,4.15,1.43,10.22.66,13.68,2.78-2.64,5.62-7.66,5.34-12.91,6.07-6.39.9-12.66,3.2-19.06,4.44-4.89.94-9.5.21-14.42.08-2.53-.06-5.94.67-8.39,0-2-.57-3.38-2.67-5.48-3.37-6.76-2.25-15.66-2-22.63-1.67-5.52.28-5.07,0-8.93-3.16-2-1.65-2.42-2.76-5.52-3.4-10.11-2.06-13.43,2-20.87,7-3.8-4-15.69.44-20.46,1.86-3.86,1.15-4,1.26-7.32.6-3.59-.7-6-3.78-10.49-1.46-3.5,1.82-4,5-6.47,8-3.63,4.19-6.94,4.5-12.13,5.05-6.23.66-13.23-.1-18.3-4.2a34.58,34.58,0,0,1,4.37.49c-5,0-10.2.35-15.21,0-2.79-.2-5.63-1.69-8.2-1.73-8.93-.12-9.19,5.38-17.58-1.65"/><g class="cls-24"><path class="cls-25" d="M1235,470.19c.24.2.51.35.77.54,1.21,0,2.41-.05,3.6-.05A34.58,34.58,0,0,0,1235,470.19Z"/><path class="cls-25" d="M1295.61,459.33c1.11-2.42,2.71-4.71,3.49-7.29-3.89,0-7.61-1.14-11.3-1.54-5.1-.55-13.24,3.58-17.51.42,1.51-4.13,3.78-11.77-3.08-13.65-.72,1-1.3,3.65-2.3,4.37-1.45,1.06-2.45-.05-3.43.5-3.89,2.16-5.35,5-8.35,8.33a46.1,46.1,0,0,1-4-3c-1.74,2.19-8.3,4.43-10.94,2.09-4.45-3.95,3.61-7.39,4.92-10.53,1.82-4.37-.59-8.4-5.15-7.93-5.1.52-7.43,5.5-11.92-.59-6.37-8.63,7.22-11,6.1-18.59-1.17-7.95-9.14-.5-13.57-1.15-6.77-1-6.45-7.65-2.53-11.53s5.27-2.17,1.26-7c-2.28-2.77-4-3.55-2.84-7.61.8-2.73,4.2-4.68,4-7.8-.19-3.44-3.81-5.11-4.94-8.28-1.07-3-.82-7,.38-11a12.1,12.1,0,0,0-3.18,3.11c-1.63,2.48-.73,4.92-1.82,7.46-2,4.82-10.27,7.63-11.65,12.43-.73,2.56,1.51,5,1.05,7.11-1,4.64-8.27,6.74-8.67,11.56-.42,5,5,6.43,9.38,7.71-3.51,6-15,8.63-20.56,13-4.51,3.6-10.5,11.58-15.65,14.12l35.5,33.25c8.39,7,8.65,1.53,17.58,1.65,2.57,0,5.41,1.53,8.2,1.73,3.82.27,7.74.13,11.61.05-.26-.19-.53-.34-.77-.54a34.58,34.58,0,0,1,4.37.49c-1.19,0-2.39,0-3.6.05,5,3.59,11.61,4.29,17.53,3.66,5.19-.55,8.5-.86,12.13-5.05,2.53-2.93,3-6.14,6.47-8,4.46-2.32,6.9.76,10.49,1.46,3.34.66,3.46.55,7.32-.6,2.88-.86,8.35-2.81,13.07-3.35C1300.9,458.38,1298.82,458.67,1295.61,459.33Z"/></g><path class="cls-15" d="M1242.29,465.77c-1.35,7.29-15,1.21-18.71.78-1.18,13.92-17.43,1.5-26,2.23,7.09,13.73,6.2,26.2-10.34,25.77.28,6.07,7.37,7.93,2.52,13.13-3.76,4-13.36,1.54-18,1.74-16.54.7-26.41-7.49-37.86-19-4.5-4.51-8.72-2.91-14.72-3.89-4.2-.69-7.86-2.53-12.07-3-4.83-.54-25.37,1.23-27.56-5.75,4.65-2.93,9.52-1.31,14.48-2.63s2.33-2.12,4.39-3.86c4.19-3.55,8.65-5.11,14-6.54-1.87-8.22-.22-13.91,6.6-19.39,2.75-2.2,6.81-1.59,9-3.22,3.25-2.43,1.53-5,3.51-9,7.78-15.7,32.79-12.39,43.16-3.6-.41-12,17.23,1.64,20.26,5.95,2.47,3.53,3.69,7.46,6.64,9.29,1.08.67,5.16,0,7.1,1,2.63,1.38,5.11,4.76,6.81,7.32,5.25-3.17,8.58,4.29,13,6.11,1.61.67,3.27,0,5,.35C1236,460.12,1242.43,465.4,1242.29,465.77Z"/><g class="cls-24"><path class="cls-25" d="M1730.89,441.24c-4.93-3.09-8.11,4.74-12.75,1.09-1.73-1.37-1.55-4.34-4.37-5.9-4.22-2.33-11.26,1.25-14.65-1.45,6.11-.17,2.61-8.24-.24-10.49-3.73-3-17.8-.88-14.24-7.66,2.64-5,11.22-5.79,6.22-13.88-3.53-5.7-15.51.76-18-5.18-1.78-4.17,7.15-7.52,8.28-11,1.75-5.47-2.09-15.95-8.81-9.2-1.33,1.34-.12,3.29-1,4.25-2.45,2.78-5.45.75-7.86,2.2-1.57.95-2,3.71-3.61,5-2.34,1.81-6.72,2.58-9.46,3.6a5,5,0,0,0-2.38-8.43c-4.54-1.31-11.38,2.28-11.83-5.75-.32-5.76,7.67-9,1-14s-11.24,1.78-17.55.68c-10.35-1.81.29-9.53,0-13.75-.58-7.57-12.38-.4-16.8-5s4.74-13.3,9.9-13.09c5.5.21,8.81,5.39,15.22,1.57-6.63-9.25,4.76-13.56,13.13-15,2.56-.45,4.47,1.18,7.16-.83,5.77-4.29.17-3.9-1.66-7.45-1.65-3.19-1.83.18-1.1-3.49.42-2.1,4.95-4.32,7.21-5.44-15.52.37-17.94,14.69-29.13,18.73-4.41,1.6-11.73-.64-16.79.89-4.77,1.45-6.29,3.13-10,6.47-1.76,1.6-1.74,2.74-3.56,4.1-4,3-9.66,2.6-12.12,7.6a9.27,9.27,0,0,1-.29-1.75c-10.37-1.48-21.41,7.26-31.35,7.65-8.7.34-14.73,2.07-20.58,8.34,7.24,5,27.9,2.65,36.75.75,7,0,31.69-.39,23.25,12.45,5,.13,17.42-2.63,21,0,4.39,3.22.62,5.84,2.56,9.65,2,4,9.84,5,11.14,8.94,1.62,4.89-5.71,7,.36,12.23,4.07,3.49,14.13,2.68,18.55.69-.75,1.66-.6,5-1.18,6.63a27.23,27.23,0,0,0,13.89,3.06c-.88,7.22,5.68,9.21,11.53,11.44,9.51,3.62,10.14,1.48,9.46,10.39-1,13.3,3.95,13.56,16.1,18.27,13.5,5.24,22.83,4.42,35.73,3.79C1731.54,449,1736.35,444.68,1730.89,441.24Z"/></g><g class="cls-24"><path class="cls-25" d="M1340.33,347c-1.72.23-5.51,1.22-7.36.48s-1.07-2.91-2.59-3.65c-4-1.93-8.8-.26-12.9-1.9,1.45-1.79,2.5-4.16,1.24-6.29-3.21.54-8,.44-11,1.81-6.67,3-11,13.11-19.76,7.57-15.51-9.87,11.8-14.65,12.82-20.51-6.48.26-11.66-1-9.37-8.78,1.6-5.44,9.31-6.86,9.88-12.46.74-7.23-10-7.52-6.13-16.71.16-.37.34-.75.54-1.12a36.72,36.72,0,0,0-9.91,7.38c-4.83,5.39-5.91,16.46-12,20.4-2.55,1.65-8.81.83-12.2,2.5-2.49,1.24-4.28,2.23-6.56,3.14-3.91,1.56-6.12,1.18-10.27,4-2.76,1.87-4.48,3.27-7.54,4.25-4.21,1.35-9.09,1.3-13.34,2.39s-10.84,1.28-13.32,5.54h.62c10.11,0,20,1.05,30.11,1.3,3.82.09,10.27-1.64,12.84,1.85s-2.14,5.17,2.94,8.18c7.11,4.21,21-2.5,28.23,2.34,2,1.36,1.14,4.23,3.54,5.37,2.73,1.29,7-1.1,9.35-2.21,1.67,7.57,14.66,4.91,20.29,4.94,7.77,0,14.38-1.89,20.86-4.55C1339.63,350.57,1340.7,348.88,1340.33,347Z"/></g><g class="cls-24"><path class="cls-25" d="M1166.36,501.77c1.91-3.1,2.91-5.26,0-7.81-3.63-3.21-3.94.11-8.26.9-1.18.22-6.92.17-7.83-.71-1.54-1.49,0-1.55-.56-3.09-2.07-5.38-1.21-4.24-7-5.91-1.72-.49-3.18-2-4.6-2.47-2.19-.65-3.54-.2-5.95-.38-4-.29-9.58-2.14-11.08-6.28-4.76-13.14,13.74-3.16,18.11-7-5.49-5.84-11.36-2.87-5.62-11.25,2.82-4.12,6.35-7.77,9-11.8,5.44-8.17-6-10.38-8.51-16.8a17.83,17.83,0,0,0-2.7,4c-2,4-.26,6.59-3.51,9-2.18,1.63-6.24,1-9,3.22-6.82,5.48-8.47,11.17-6.6,19.39-5.3,1.43-9.76,3-14,6.54-2.06,1.74.52,2.55-4.38,3.86s-9.84-.3-14.49,2.63c2.19,7,22.73,5.21,27.56,5.75,4.21.46,7.87,2.3,12.07,3,6,1,10.22-.62,14.72,3.89,11.45,11.49,21.32,19.68,37.86,19a37.92,37.92,0,0,1,4.36.22v-.1C1175.76,501.38,1171.59,505,1166.36,501.77Z"/></g><g class="cls-24"><path class="cls-25" d="M1309.48,712.53c-6.45,3.55-8.07,13.92-15.2,16.43-3.15-7,6.76-17.83,11.36-22.72,5.59-5.94,10.48-10.74,15-17.67a130,130,0,0,0,13.23-25.31c1.4-3.76,4.64-9.5,4.3-13.45-.13,0-1.18,0-1.3,0-1.86,6.21-7,11.77-10,17.5-2.83,5.36-6.65,9.47-10.61,14-1.86,2.12-7.65,10.87-11.57,9-5-2.33,4.52-11.33,6.33-13.6a87,87,0,0,0,16.61-36.78c1.72-9.35,3.16-18.18,5.76-27.32.95-3.35,2.53-19.4,6.6-20.71,5.72-1.85-3,39.54,1.26,42.88,8.82-4.42,4.88-23.59,5.22-31.84.44-10.39,2.8-18.1,7.07-27.79A66.85,66.85,0,0,1,1373,550c5.93-4.64,16.31-9.89,19.51-17-12.92-4.89-27.75,15.77-35.21,24-4,4.39-8.22,13.41-13.19,16.55-7.38,4.67-5.71-8.39-4.37-13,3.28-11.19,13.87-24.13,22.7-31.51,10.4-8.7,25.42-14.48,38.2-18.28-4.59,2.1-7.91,6.54-11.47,10,14.46,1.2,28.84-13.18,38.53-22.13,14.7-13.58,42.67-18.45,50.47-38.4,4.16-10.64-2.67-26.56-10-33.88-7.16-7.11-19.42-12.44-30.22-15,8.48,5.07,16.11,11.74,20.68,20.41,3.69,7,5.12,13,3.91,20.78-.58,3.76.39,8.19-1.24,11.65-2.15,4.56-7.41,8.49-11.73,11-8.73,5.1-19.7,10.93-29.17,14.36-17.24,6.24-35.5,12.33-51.5,21.64-29.32,17.08-46,41.41-51.35,75.3-1.24,7.88.77,16-.92,23.89-1.79,8.3-5.27,16.69-8.26,24.62-4.26,11.29-6.86,22.23-14.11,32.18-7.75,10.65-22.27,16.33-27.45,28.57-3.4,8-3.31,16.42-9.82,23.07s-16.23,6-24.72,7.62c-5,1-17.19,7.32-16.58,12.66,8-2.39,18.43-5.28,27.34-5.49,4.8-.11,17.72-1.34,12.61,6.77-1.95,3.1-10.7,9.4-1.46,8.25,5.26-.66,9.45-4.09,14.18-6.21,7.19-3.22,15.92-4.42,23.59-6.18,3.44-.79,14.16-4.33,18.62-3.05C1314.12,722.2,1317.62,708.06,1309.48,712.53Z"/></g><path class="cls-26" d="M1147.28,786.6c.79-7.08,5.38-19.12,14.84-13.93,6.3,3.46,6.25,12.89,5.91,19.05-.22,4-1.42,5.11,3.24,5.55,7.48.72,8.91-10.13,16.48-10.25,12-.19,1.83,15.14.87,20.77-2,11.94,21.83,2,28.39,8.62,7.41,7.46-.45,11.75-3,18.36-4.25,11,7,13.13,15.54,12.56,10-.66,13-4.54,13.23-13.88.19-7.13-6.82-18.32,3-20.52,8.43-1.9,16.4,4.9,19.88,11.94a66.4,66.4,0,0,1,6,21.1c.52,4.7-.9,11.76,2.18,15.78,5.63,7.33,14,1,19.33-2.34,7.43-4.68,13.12.59,14.87,8.75,2.76,12.83-12,17.06-12,28.22"/><path class="cls-26" d="M1284.93,787.06c3.87,2.24.66,11.34-.78,14.37-2,4.2-7.34,7.61-8.46,12.05-3.63,14.44,19.76-1.62,24.17,2.28,6.57,5.83-6.2,18-9.63,21.75-3,3.3-12.32,11-5,13.09,17.25,4.83,29.38-35.85,45.07-19.07a19.72,19.72,0,0,0,17,6.38c6.93-.66,18-9,12.93-16.83-3.29-5.08-10.61-6.12-16-6.22-3.58-.07-11.68,1.11-11.75-4.56-.12-8.84,13.76-5.83,18.62-7.4,4.34-1.42,6.76-5,7.46-9.18.65-3.93-.8-6.78-1.39-10.37"/><path class="cls-26" d="M1308.85,785.94c-1,3.69-19.09,10.89-12,15.85,3.47,2.44,9.81-4.46,12.44.21,1.51,2.67,1.21,6.21,1.1,9.91-.43,14.33,14.1.77,13.72-2.81-1.5-13.94,22.52-15,21-25.57"/><path class="cls-26" d="M1307.17,898.29a25.21,25.21,0,0,1,4.54-8.79c3.73-4.38,9.48-6.61,10.75-13,1.34-6.65-3.47-13.84-3.72-20.64-.24-6.5,6-16.68,11.55-7.71,4.33,7,2.3,20,2.37,28,0,2.43-.92,6,1,7.77,3.76,3.62,7.47-1.62,9.07-4.35,2.19-3.75,7.79-14.77,14.2-11,7.14,4.17-7.17,18.9-4.77,25.11"/><path class="cls-26" d="M1365.45,891.22c.64-.39,1.64-10.06,2.63-12.19,2.6-5.58,9.41-13.46,3-19.35-6-5.53-27.47,7.86-28.54-2.48-.53-5.17,4.52-8,8.38-9.22,4.62-1.53,8.68-4.1,13.13-5.77,14-5.21,3.17-26.5,5.91-32.8,1.25-2.87,3.64-4.92,6.69-3.52,3.78,1.74,4.39,7.79,5.14,11.28a49.17,49.17,0,0,1-.62,22.88c-1,3.63-4.5,8-1,11.36,3.72,3.53,9.7.09,14,3,3.58,2.42,6.9,7.2,2.61,10.55-3.43,2.68-8.14,1-11.73,3.2-4.38,2.74-5.71,8.6-4.74,13.46.37,1.88,2.69,5.42,2.53,5.82"/><path class="cls-26" d="M1149.6,801.54c3.21-1.26,3-14,8.09-8.67,3,3.17,1.53,10.9,1.64,14.86s1.61,7,6.27,5.67c3.09-.88,7-4.53,10.44-2.44,2.89,1.76,3.2,8,3.12,10.94-.16,5.12-2.8,6.57-7.67,5.35-4.27-1.07-20.58-9.23-22.94-2.42"/><path class="cls-26" d="M1149.6,836c.53-4.89,26.6,4.93,32.25,2.12,3.9-1.94,5.23-7.05,9-9.45,2.61-1.67,11.12-5.5,14.17-4.13,8.91,4-9.8,18.67-12,22.89-2.26,4.44-2,8.89,4.17,8.39,3.53-.28,6.48-2.78,10.17-2.86a12.72,12.72,0,0,1,9.79,4c12.24,13.74-13.11,13.21-20.55,12.13a30,30,0,0,1-11.63-3.83c-2.55-1.42-7.9-4.9-11-3.94-8,2.48,2.12,22-9.59,20.2-3.81-.57-6.23-5.25-7.32-8.5-2.54-7.57-.12-15.55,7.23-19.26,2.71-1.37,13.64-4.65,6.64-8.57-4.1-2.3-18.16-.95-20.28,3"/><path class="cls-26" d="M1193.39,884.27c3-10.69,20.23-4.73,28.53-5.2,13.91-.78,1-19.88,10.47-23.42,10.78-4,9.07,31.74.28,37.31"/><path class="cls-26" d="M1246.92,895.74c12.4-14.49,5.52-36,4.52-52.93-.19-3.34-2.37-12.57,3.27-13.12,5.83-.56,7.52,13.89,7.82,17.75.64,8.08.39,16.25.38,24.36,0,5.81.52,11.31,7.86,10.74,6.19-.48,9.69-5.74,14.5-8.84s7.51-.35,4.88,4.93c-3.93,7.91-18.48,7.71-17.85,17.81"/><path class="cls-26" d="M1143.8,759.25c2,.22,3.58.91,5.67.47s4-2,5.92-3"/><path class="cls-26" d="M1174.16,766.44c.14,3.83-1.5,13.7,3.11,15.75,3,1.31,5.92-2.07,8.69-2.69,2.46-.56,6.11-1,8.57-.32,4.34,1.26,9.17,8,14,5.77,2.9-1.33,3-4.2,3-6.93"/><path class="cls-26" d="M1366.5,781.27c1.2,3.9.24,13.72,4.72,15.78,3.88,1.78,7.27-1.86,10.62-3,3.82-1.31,9.8-2.09,12.17,2.09,2.62,4.63-1,12.38-2.12,17-.68,2.95-2.14,7.45-1.5,10.51,1,4.86,5.78,2.92,8.12.29,6.22-7,5.89-18.53,5.13-27.33-.25-3-1.76-6.54-.44-9.39s4.12-3.89,7.1-3.62c3.42.31,6.45,1.69,9.86.35,3.22-1.27,7.2-4,3.92-7.4-3.61-3.79-10.71-1.65-14.79,0-4.33,1.72-8.52,3.88-12.89,5.48-3.31,1.21-8.1,3.18-11.65,2.43-4.19-.88-2.77-3.64-3.89-6.16"/><path class="cls-26" d="M1392.45,883.92a15.79,15.79,0,0,1,.45-4.43c1.42-4.67,5.94-5.8,9.71-8,7.29-4.34,12.78-19,3.33-24.41-4.17-2.41-9.64.71-14.21-.93-4.78-1.72-4-6.76-.93-9.75,2.78-2.68,6-2.39,9.37-3.3a10.05,10.05,0,0,0,7.09-8.25c.55-4.32-.87-19.15,7.29-17.77,7.84,1.32,4.49,15.07,1.54,19.18s-8.22,20.26,1.14,16.9c10.79-3.88,10.21-21.51,21.1-25"/><path class="cls-26" d="M1406.82,880.22c3-2.87,5.76-5.31,7.68-9.13s2.36-7.33,3.26-11.28c.57-2.47,3.51-13.2,8.09-11.09,3.25,1.49-2,8.87.88,9.6,1.78.44,4.82-5.48,5.81-7.07"/><path class="cls-26" d="M1449,750.91c-2.07,2.83-3.21,5.76-6.25,7.9a64.83,64.83,0,0,0-7.43,5.39c-3.87,3.66-4.12,7.25-2.94,12.25s3.13,13.82-2.84,16.6c-4.87,2.28-10.42-.1-15.43-.2s-5.68,5-1.34,7.18,9.74-.25,14.31.46c4,.63,2.94,4.64,1.54,7.53s-2.13,11.42,3.25,6.8c1.94-1.66,3.05-4.78,4.5-6.92a22.75,22.75,0,0,1,4.75-5.54"/><path class="cls-27" d="M1446.91,765.05c-2.53,1-4.78,4.83-5.46,7.33-1.14,4.19,1.09,5.86,2,9.35"/><path class="cls-26" d="M1224.68,779.65c-.35,13.93-23.4,8.87-24.43,20.58-.72,8.22,13.25,2.41,17.09,2.36,7-.1,9.85,5.33,10.13,11.7.09,2.24-.85,6.18.33,8.13,2.38,3.94,4.91,0,5.84-3.1,2.08-6.91,1.49-17.08,10.92-18.49,7.21-1.07,12.79,4.75,19.86,3.45,2.68-.49,7.47-2.3,7.59-5.61.17-5-6.61-5.83-10-6.37a91.6,91.6,0,0,0-15.27-.84c-2.23,0-8,1.51-10,.38-3.77-2.17,1.69-6,3.5-8"/><path class="cls-28" d="M1471,882.69c-1.1-.09-2.22.72-3.17,1.11a27.65,27.65,0,0,1-8,1.73c-4.14.41-8.24,1.12-12.37,1.61a53.1,53.1,0,0,0-11.65,2.38c-.91.32-4.07,1.49-2,2.52,1.22.59,3.86-.35,5.19-.49s4-.09,4.83-.55c-2.83.74-5.73,1.78-8.54,2.65-1.32.4-6.09,1.83-6,3.67.1,2.95,7.49.1,8.86-.25,2.12-.53,4.16-.88,6.22-1.47-1.91,1.29-4.41,1.59-6.5,2.59-1.82.86-3.76,1.42-5.59,2.27-.86.4-5.2,1.81-3.61,3.16.91.77,3.61.59,4.65.4a61.4,61.4,0,0,0,6.5-1.68c2.31-.68,4.69-1.35,7-1.83a21.94,21.94,0,0,0-5.47,1.63c-2.52,1-5.25,1.35-7.79,2.31-1,.38-7.69,2.31-6.59,4.46,1,1.84,6.73.17,8-.14,3.66-.91,7.21-2.42,10.88-3.18,2.7-.55,5.41-1.1,8.09-1.59,1.72-.31,6.36-1.48,7.13.84.57,1.72-1.4,4.09-2.13,5.56-.85,1.74-2,3.28-2.89,5-.61,1.25-.6,1.67.92,1.75a6.73,6.73,0,0,0,4.65-1.67c4-3,5.93-7.8,8.76-11.79.78-1.09,1.6-2.11,2.3-3.25a17.52,17.52,0,0,1,4.27-4.51"/><path class="cls-29" d="M1560.93,1057.48a135.71,135.71,0,0,1-4.78,23c-1.35,4.34-4.05,8.07-5.84,12.25-2,4.67-6.73,13.47-5.07,18.63,2.92,9.09,18.88,2.87,23-.34,3.5-2.76,8.06-11.4,10.31-15.2,1.48-2.48,1.67-5.36,2.82-7.92,1.87-4.15,5.09-7.43,7.69-11.21,1.38-2,2.42-3.49,2.52-5.87a9.61,9.61,0,0,0-1.3-5c-2.56-5.08-5.89-9-8.16-14.54"/><path class="cls-29" d="M1512,1039.88c1,6.73,5.41,13.56,3.17,20.17a48.3,48.3,0,0,1-3.91,6.22c-.94,1-5.32-1.77-6.2-1-1.42,1.19-1.53,4.87-2,6.73a81,81,0,0,1-4,11.47c-1.92,4.36-5.26,7.69-8.9,10.68-17,14-26.84,3.58-20.53-9.48,1.76-3.64,3-7.78,5.13-11.21,2.61-4.24,3.28-7.26,4.27-12.27,1.17-5.89,3.18-11.59,4.48-17.42.57-2.55.82-5.15,1.43-7.68a12.81,12.81,0,0,1,1.11-3.35c1.3-1.83,2.5-1.46,4.5-3.79"/><path class="cls-30" d="M1601.78,917c-4.5-5.21-16.54-4.94-23.17-3.16a76.3,76.3,0,0,0-19.14,7.84c-13.81,8.26-37.87,26-39.91,29.19-3,4.7-4.5,10.84-5.36,21.35-1.18,14.49,0,28.66-.09,43.12,0,7.11.87,18.13-2.12,25.13-1.72,4-9.78,6.63-13.77,6.52-6.54-.17-15.83-3.44-17.91-10.51-1.57-5.36-.21-12.59.11-18.18.41-7,.18-14-.07-20.89-.62-17.06.27-46.5,7.58-61.53,2.28-4.67,23.14-24.4,38.73-33.23,8.12-4.59,11.61-8.65,16.87-15.85,3.81-5.22,7.53-11.6,11.31-16.44,1.13-1.43,5.08,1.17,6.06,1.65,10.57,5.21,21.07,11.05,32.11,15.16,7.82,2.91,12.12-1.15,20.21,1C1619.59,890,1611.8,928.63,1601.78,917Z"/><path class="cls-30" d="M1567.83,910.07c14,2.93,5.46,17.38-.6,27.5-4.33,7.22-4.31,6.42-7.39,14.22-3.45,8.78-3.94,17.42-4.84,26.83-2.07,21.49-1.68,43.61-.21,65.09.24,3.42-.4,7.63.34,11,.88,4,5.85,7.32,9.78,8.88,4.22,1.67,10.54,1.54,14.69.1a19.32,19.32,0,0,0,6-3.07c2.48-2.31,4.51-4.63,3.86-8s-.86-19.93-.69-23.93c.34-8,.79-16,1.07-23.93.4-11.18-.62-22.18,1.74-33.21,4.69-22,11.35-24.91,25.3-42.82,7.48-9.61,10.35-17.1,6.16-29"/><path class="cls-31" d="M1542.27,861.54c-10.45,15.11-47.5,37-67.27,40.54-2.07-6.51-4.26-13.74-6.8-20.08,3.36-.93,6.3-3.07,9.53-4.3,3.79-1.45,25.63-12,28.58-14.51,3.91-3.36,8-6.71,10.94-10.86a51.81,51.81,0,0,0,8.62-19.56c1.1-5,1.66-10.28,2.7-15.35,1.39-6.78,1-14,3.84-20.34,2.7-6,6-10.45,11.8-14.13a40.67,40.67,0,0,1,9.11-4.05c10.2-2.84,31.31-1.59,46.55-.73a124.77,124.77,0,0,1,15.34,1.88c12.51,2.32,20.09,6.25,27,21.5a104.83,104.83,0,0,1,6.64,19.39c3.21,14.23,2.24,26.64,2.84,44.39.4,11.77.87,15.85,7.28,27.09,10.63,18.62,18.8,21,17,31.12-.55-17.2-34.91-7.58-22.28,9.34a14,14,0,0,1-6.48-6.41c-26.72-49.75-14.54-48.56-25-105-1.84,17.07-4.89,33.57-1.69,55.29,1,6.53-.17,13.16,2.81,19.32,5.12,10.58,2.83,14.17,3.06,16.59-.95-.77-2-.61-3.1-.58-10.2.32-17.18-5.08-33-8.45-8.54-1.82-17.14-2.25-25.8-4.45-12.17-3.09-15.16-7.1-22.63-9.85-.27-1.45.19-2.57.3-3.94.37-4.92-.14-5.48-.07-10.45.18-13.18.51-26.35.74-39.52.3-16.86,2.38-33,10.42-47"/><path class="cls-32" d="M1542.27,861.54c-10.45,15.11-47.5,37-67.27,40.54-2.07-6.51-4.26-13.74-6.8-20.08,3.36-.93,6.3-3.07,9.53-4.3,3.79-1.45,25.63-12,28.58-14.51,3.91-3.36,8-6.71,10.94-10.86a51.81,51.81,0,0,0,8.62-19.56c1.1-5,1.66-10.28,2.7-15.35,1.39-6.78,1-14,3.84-20.34,2.7-6,6-10.45,11.8-14.13a40.67,40.67,0,0,1,9.11-4.05c10.2-2.84,31.31-1.59,46.55-.73a124.77,124.77,0,0,1,15.34,1.88c12.51,2.32,20.09,6.25,27,21.5a104.83,104.83,0,0,1,6.64,19.39c3.21,14.23,2.24,26.64,2.84,44.39.4,11.77.87,15.85,7.28,27.09,10.63,18.62,18.8,21,17,31.12-.55-17.2-34.91-7.58-22.28,9.34a14,14,0,0,1-6.48-6.41c-26.72-49.75-14.54-48.56-25-105-1.84,17.07-4.89,33.57-1.69,55.29,1,6.53-.17,13.16,2.81,19.32,5.12,10.58,2.83,14.17,3.06,16.59-.95-.77-2-.61-3.1-.58-10.2.32-17.18-5.08-33-8.45-8.54-1.82-17.14-2.25-25.8-4.45-12.17-3.09-15.16-7.1-22.63-9.85-.27-1.45.19-2.57.3-3.94.37-4.92-.14-5.48-.07-10.45.18-13.18.51-26.35.74-39.52.3-16.86,2.38-33,10.42-47"/><path class="cls-28" d="M1608.51,779.19c.1-.07-2.72,2.36-4.33,3.43a62.07,62.07,0,0,1-8.51,4.27,39.23,39.23,0,0,1-13.49,3.58,26.62,26.62,0,0,1-15.12-2.82,9.46,9.46,0,0,1-4.39-5c-.47-1.37-.93-4.14-.17-5.14,0,0,28.7-1.4,46.11,1.66"/><path class="cls-28" d="M1565.83,782c4.06-2.42,4.31-6.47,5-10.62a59.19,59.19,0,0,0,.59-17.23c-.13-.9-.91-3.15-.46-4,.83-1.57,5.6-2.56,7.2-3a34.23,34.23,0,0,1,12.17-1.4c1.39.13,4,0,5.21.93,1.68,1.4,1.18,6.36,1.37,8.26.45,4.67.54,9.4,1.2,14,.41,2.9,2.2,9.7,6.39,10.66"/><path class="cls-28" d="M1571.54,765.82c.14-4.17-3.09-6.69-4.78-8.25-6.63-6.11-12.2-13.08-15-21.63-.9-2.73.14-3.37,2.72-3.85,5.53-1,9.41-4.05,10.29-9.77a71.92,71.92,0,0,0,.27-11.92c0-1.28,0-7.28,1.53-8,2.11-1,5.07,8.37,6.18,9s3.11-1,12-.33c9.71.74,10.63,2.08,13.3,1.49s3.1-9.27,6.73-9c3.06.26.85,18.81-.6,26.22-1.79,9.15-7,21.86-6.77,31.06"/><ellipse class="cls-7" cx="1552.38" cy="733.2" rx="2.32" ry="2.33" transform="translate(581.07 2148.83) rotate(-80.83)"/><path class="cls-33" d="M1579.65,724.69c-.82-.06-1.09,1.53-.42,1.75a1.31,1.31,0,0,0,.49-1.86c-1-.39-.93,1.62-.62,2"/><path class="cls-33" d="M1571.05,724.62a.75.75,0,0,0-.39,1.39c1-.1.94-1.34.72-2-.68-.17-.6,1.31-.5,1.67"/><path class="cls-28" d="M1673.44,917.28c.61.72,3.65,5.48,4.63,6.32a48.79,48.79,0,0,1,3.93,3.55c2.19,2.37,3.4,5.63,4.49,8.79a37.11,37.11,0,0,1,1.56,4.86,24.06,24.06,0,0,0,2.09,5.81c.73,1.62,2.93,4.31,1.79,6.13-1.48,2.36-3.85,0-4.34-1.51-.65-2-4.2-13-4.62-12.63.27,2.4,1.48,4.73,2.1,7.14a23,23,0,0,0,1.41,4.42,27.87,27.87,0,0,1,1.86,4.22c.78,2.76-.89,5.88-3.94,4.26-3.2-1.71-4.13-18-7.78-17-.24,2.92,1.06,6.31,2,9a32.27,32.27,0,0,1,1.16,4.34c.36,1.82,1.47,3.69,1.43,5.54-.08,3.82-4.4,3.61-5.46.47a97.28,97.28,0,0,1-2.51-10.06c-.65-3-.93-6.73-3-9a8.45,8.45,0,0,0-.19,2.14c0,5.9,2,12.49,2,18.62,0,1.42.24,3.38-1.68,3.19a3.66,3.66,0,0,1-2.84-1.47c-2.48-3.15-1.87-9.87-2.85-13.7-.44-1.69-1.52-9.45-4-8.12-1.82,1-3.57,5.34-4,7.21-.32,1.4-1,8.19-3.78,4.38-1.46-2-.72-6.64-.49-9,.27-2.88,1.59-5.35,1.89-8.1a14.21,14.21,0,0,0,0-4.22c-.36-1.77-1.9-3.85-2.75-5.73C1647.36,917.86,1664.94,907.13,1673.44,917.28Z"/><path class="cls-34" d="M1474.84,1073.32c2.66-1.36,6.41.32,9.05,1a30.78,30.78,0,0,1,6.6,2.79c3.67,1.95,7.2-1.87,4.34-5.24-2.61-3.09-8.07-4.33-11.78-5.29a10.29,10.29,0,0,0-5-.33.29.29,0,0,0,.27.24Z"/><path class="cls-34" d="M1479.91,1057.46a28.55,28.55,0,0,1,7.78,1.07c2.28.61,4.13,2,6.25,2.91,1.82.81,5,1.84,6.48-.13s-2.19-4.29-3.58-5.56a13.61,13.61,0,0,0-9-3.35c-.81,0-6.59-.07-6.44.67Z"/><path class="cls-34" d="M1551,1091.67a32.52,32.52,0,0,1,7.09.67c2.28.52,4,1.6,6.06,2.47,1.57.65,3.35.94,4-1a4.07,4.07,0,0,0-1.13-4.3c-3.1-2.8-9.63-2.58-13.63-2.62a1.66,1.66,0,0,1,.37.14Z"/><path class="cls-34" d="M1557.3,1078a17.15,17.15,0,0,0,2.42.21,15.72,15.72,0,0,1,5.34,1.89c2,1.11,3.93,2.4,6.33,2.57,1.82.13,2.84-.74,3-2.64.16-2.13-1.28-3.4-2.85-4.56-2.32-1.73-5.46-2.48-8.3-3-1-.18-4.26-.2-5.11.49Z"/><path class="cls-33" d="M1620.18,911.73c-1.54,4.35-2.7,8.14-5.06,12.27-1.79,3.12-5.22,4.47-7.11,7.54a84.61,84.61,0,0,1-12.92,16c-3.31,3.22-6.31,5.83-9.56,9-4,4,1.4,2.1,3.43,1.58,1.76,3.44-7.35,6.19-7.39,10.32,1.77.25,3.22-.88,4.73-1.54.2,2.72-2,5.52-2.37,8.22a131.62,131.62,0,0,0-1.26,14.2c-.49,11.22-1.24,22.47-1.12,33.71.13,12.59,5.08,27.31,1.33,39.22"/><ellipse class="cls-7" cx="894.21" cy="451.94" rx="15.61" ry="37.32" transform="translate(335.5 1283.63) rotate(-82.92)"/><circle class="cls-35" cx="910.38" cy="440.04" r="27.98"/><path class="cls-36" d="M676.15,1488.62c.34-20.61,4.29-40.75,4-61.44-.31-23.56-6.61-45.56-10.94-68.47-4.68-24.8-9.48-66.36,23.64-71.71,22.06-3.56,43.73,11.78,61.71-6.06,8.48-8.42,16.63-18.62,28.38-22.77,9-3.17,18.08-1.62,27.4-2.5,18.7-1.78,36.54-15.74,55.43-20.51,10.33-2.6,23.42-7.71,27.73-18.7,13.6-34.67-131.33-38.63-87.41-70.92,7.49-5.51,33-12.44,28.91-25.5-3-9.53-19.48-9.18-27.43-12.34-27.75-11,7.1-21.43,13.63-29.41,9.14,0,24.75-17.3,31.9-23.48,9.51-8.23,19.65-17,27.82-26.59,13.52-15.89,18.24-34.1,19.17-54.28,1.11-24.28.44-46.92.49-71.06,0-25,1.19-48.7-.75-73.68-2.62-33.67-12-66.4-13-100.12-1.75-54.06,30.42-103,24-156.79-3.67-30.93-37.44-84.56-21.84-114.19"/><path class="cls-37" d="M1760.59,989.33c-28.79,4.6-15,39-15,39s6.87,4.46,5.74,7.41-19.06,12.93-30.85,13.12c-13.11.21-.41-13.57,19.39-23.25-6.36-13.89-6-35.63,16.18-41.38"/><path class="cls-37" d="M1810,997.25c-28.64,5.45-13.81,39.43-13.81,39.43s6.83,2.56,5.78,5.55-13.25,28.53-21.51,27.27-3.38-17.5,9.63-34.51c-6.77-13.7-6.75-36.3,15.25-42.71"/><path class="cls-37" d="M1760.31,935.58c-9.71,7-44.46,33-47.84,33.92-4.23,1.28-5.84.6-9.57-.47a32.09,32.09,0,0,0-5.25-1.14c-3.06-.37-8.12-.24-9.89,2.75-2.63,4.43,1.85,8.47,6,9a30.73,30.73,0,0,0,8.07.16c1.73-.26,3.92-1.36,5.6-.45-.32,1.69-2.79,7.65.66,8.39,3.26.7,4.2-6.56,5.94-8.39,3.75-4,38.73-26.8,43.25-30.45"/><ellipse class="cls-37" cx="1786.4" cy="965.34" rx="31.92" ry="51.02" transform="translate(449.55 2493.71) rotate(-77.21)"/><ellipse class="cls-37" cx="1786.4" cy="920.76" rx="23.44" ry="30.19" transform="translate(518.94 2480.42) rotate(-78.17)"/><path class="cls-38" d="M1768.08,930a10.9,10.9,0,0,0,9.7-2.38,2.63,2.63,0,0,0,.43-2.8c-.41-1-1.26-1.4-1.9-.86-4,3.31-10,3.36-13.15-2.29-.51-.9-1.38-1.08-1.94-.38a2.78,2.78,0,0,0-.1,2.9A11.4,11.4,0,0,0,1768.08,930Z"/><ellipse class="cls-38" cx="1760.52" cy="912.53" rx="4.61" ry="2.63" transform="translate(726.96 2604.83) rotate(-85.98)"/><ellipse class="cls-38" cx="1780.97" cy="916.35" rx="4.61" ry="2.63" transform="translate(742.15 2628.78) rotate(-85.98)"/><path class="cls-37" d="M1826.81,956.91c7.26,12.54,32.92,58.3,36.17,61,4,3.46,6.09,3.48,10.69,4.08a39,39,0,0,1,6.28,1.25c3.52,1.07,9,3.64,9.51,7.85.76,6.21-6.06,8.57-10.86,7.2a35.29,35.29,0,0,1-8.9-3.71c-1.77-1.12-3.64-3.4-5.91-3.2-.45,2.05-.59,9.9-4.71,9.06-3.9-.79-1.47-9.35-2.5-12.24-2.23-6.23-29.61-48.63-32.81-54.88"/></g></g></svg>