<svg xmlns="http://www.w3.org/2000/svg" xmlns:xlink="http://www.w3.org/1999/xlink" viewBox="0 0 2240.78 1683.13"><defs><style>.cls-1,.cls-10,.cls-12,.cls-2,.cls-25{fill:none;}.cls-10,.cls-11,.cls-12,.cls-13,.cls-14,.cls-16,.cls-17,.cls-18,.cls-19,.cls-2,.cls-20,.cls-21,.cls-22,.cls-23,.cls-24,.cls-25,.cls-28,.cls-29,.cls-33,.cls-34,.cls-35,.cls-36,.cls-37,.cls-4,.cls-6,.cls-7,.cls-9{stroke:#000;}.cls-2,.cls-25,.cls-35{stroke-linecap:round;}.cls-10,.cls-11,.cls-13,.cls-19,.cls-2,.cls-20,.cls-23,.cls-24,.cls-33,.cls-4,.cls-7,.cls-9{stroke-miterlimit:10;}.cls-2{stroke-width:0.5px;}.cls-3{isolation:isolate;}.cls-4{fill:#e7b5af;}.cls-10,.cls-11,.cls-12,.cls-13,.cls-14,.cls-16,.cls-17,.cls-18,.cls-19,.cls-20,.cls-21,.cls-22,.cls-23,.cls-24,.cls-25,.cls-28,.cls-29,.cls-33,.cls-34,.cls-35,.cls-36,.cls-37,.cls-4,.cls-6,.cls-7,.cls-9{stroke-width:2px;}.cls-5{opacity:0.21;fill:url(#_10_dpi_20_3);}.cls-6{fill:#ffc9c4;}.cls-12,.cls-14,.cls-16,.cls-17,.cls-18,.cls-21,.cls-22,.cls-25,.cls-28,.cls-29,.cls-34,.cls-35,.cls-36,.cls-37,.cls-6{stroke-linejoin:round;}.cls-7{fill:#131324;}.cls-8{clip-path:url(#clip-path);}.cls-9{fill:#6f4048;}.cls-11,.cls-36{fill:#d20a11;}.cls-13,.cls-18{fill:#e6ab55;}.cls-15,.cls-19{fill:#fff;}.cls-16{fill:#3b7d51;}.cls-17{fill:#f4eed8;}.cls-21{fill:#e6dad4;}.cls-22,.cls-23{fill:#debb97;}.cls-24{fill:#1d1d1b;}.cls-26{opacity:0.25;}.cls-26,.cls-32{mix-blend-mode:multiply;}.cls-27{fill:#c2ac8f;}.cls-28{fill:#ffdf8c;}.cls-29{fill:#ffd153;}.cls-30,.cls-32{opacity:0.16;}.cls-31,.cls-32{fill:url(#_10_dpi_20_2);}.cls-33,.cls-34{fill:#fff8e6;}.cls-37{fill:#5a8bba;}</style><pattern id="_10_dpi_20_3" data-name="10 dpi 20% 3" width="28.8" height="28.8" patternTransform="translate(-766.66 2402.89) scale(4.43)" patternUnits="userSpaceOnUse" viewBox="0 0 28.8 28.8"><rect class="cls-1" width="28.8" height="28.8"/><path class="cls-2" d="M23.92,27.57c-1.44,1.44-2.75,4.34-3.5,6.37"/><path class="cls-2" d="M11.17,28.07a4.73,4.73,0,0,0-1,2"/><path class="cls-2" d="M26.47,20.77c.74.14,1.48.45,2.25.62"/><path class="cls-2" d="M5.29,8.39a14.4,14.4,0,0,1,1.54,2.83,6,6,0,0,0,.39,1.07,10.64,10.64,0,0,0,1,1.22"/><path class="cls-2" d="M23.92-1.23c-1.44,1.44-2.75,4.34-3.5,6.37"/><path class="cls-2" d="M11.42,6.52A20.79,20.79,0,0,0,16.17,4"/><path class="cls-2" d="M15.18,14.41c1.55-1.4,4.19-1.09,6.05-1.81.68-.27,1.23-.85,1.94-.83"/><path class="cls-2" d="M5.29,19.64c-.14,1.85-1.73,3.57-2,5.38"/><path class="cls-2" d="M13.33,20.4c1.8.78,3.59,2.24,5.64,2.38"/><path class="cls-2" d="M26.56,7a16.4,16.4,0,0,1,3.21.87"/><path class="cls-2" d="M-2.33,20.77c.74.14,1.49.45,2.25.62"/><path class="cls-2" d="M11.17-.73a4.73,4.73,0,0,0-1,2"/><path class="cls-2" d="M-2.24,7A16.4,16.4,0,0,1,1,7.89"/></pattern><clipPath id="clip-path"><path class="cls-1" d="M1521.77,602.33c0-174.76-141.67-316.42-316.42-316.42a316.53,316.53,0,0,0-87.17,12.16c-118.13,45.9-201.86,160.68-201.86,295,0,174.75,141.67,316.42,316.42,316.42a316.53,316.53,0,0,0,87.17-12.16C1438,851.47,1521.77,736.68,1521.77,602.33Z"/></clipPath><pattern id="_10_dpi_20_2" data-name="10 dpi 20% 2" width="28.8" height="28.8" patternTransform="translate(255.03 3424.61) scale(4.43)" patternUnits="userSpaceOnUse" viewBox="0 0 28.8 28.8"><rect class="cls-1" width="28.8" height="28.8"/><path class="cls-2" d="M2.75,28.08c.37-.06.71.42,1,.62a3.32,3.32,0,0,1,1.61,2,3.61,3.61,0,0,0,.31,1.53,4.72,4.72,0,0,0,1.28.93c.65.45.51,1.81,1.16,2.26s1.23,1,1.9,1.37A34.67,34.67,0,0,0,14.4,39c1,.41,2.81-.26,3.69.3a10,10,0,0,1,1.71,1.07c.57.56.51,1.1.75,1.81s1.08.92,1.74,1.32a19.14,19.14,0,0,0,1.83,1c.56.27,1.25.4,1.77.7s.25.63,0,1-.48.53.1.83c.28.15.52.3.77.46"/><path class="cls-2" d="M20.75,29c.26.66,1.3.68,1.47,1.45.12.58-.58.82-.32,1.38s1.34.72,2,.84,2,.16,2.4.76c.3.42-.21.8.07,1.13s.87.23,1.14.52.11.39.25.53.55.17.75.47"/><path class="cls-2" d="M5.58,28c0,.8,1.64,1.38,2.07,2s0,1.37.51,2"/><path class="cls-2" d="M17.12,28.42c0,.07,0,.09,0,.14.29.56.94.8,1.14,1.47a1.57,1.57,0,0,1,0,.86c-.16,1,.58,1.15,1.3,1.62"/><path class="cls-2" d="M27.76,21.86c.59.76,1.82,1,2.63,1.49A3.68,3.68,0,0,1,32,25c.64,1,1.61,1.07,2.67,1.49A10,10,0,0,1,37,27.85c.53.4.91,1,1.47,1.34"/><path class="cls-2" d="M26.68,18.53c2.05.6,3.6,1.86,5.4,2.95A26.22,26.22,0,0,1,37,25.32a12.19,12.19,0,0,0,4,2.15c1.22.51,2.1,1.68,3.33,2.06"/><path class="cls-2" d="M26.76,13.78c1.33.5,2.43,1.57,3.81,2a11.41,11.41,0,0,1,4.59,2.72c1.06.93.49,1.1.25,2.11s2,1.35,2.78,1.93c1.36,1,3,1.26,4.45,2.1.81.48,1,1.22,1.68,1.69,1.07.71,2.43,1,3.49,1.75a4.81,4.81,0,0,0,1.95,1"/><path class="cls-2" d="M26.1,8.4c.06.46.39.65.79.95a47.71,47.71,0,0,0,6.26,3.47c2,1,2.34,2,4.24,3.22a14.8,14.8,0,0,1,3.24,2.17c1.32,1.42-.39.83-.72,1.76s3.3,1.71,3.73,1.92c1.23.58,2.85.9,3.94,1.71,1.3.95-.3.86,0,1.81.19.75,2.27,1.23,2.82,1.47A13.63,13.63,0,0,1,52.47,28,10.07,10.07,0,0,0,55,29.53"/><path class="cls-2" d="M28.16,7.22a17.72,17.72,0,0,1,2.21,1.69,28.8,28.8,0,0,0,6.93,3.57A24.26,24.26,0,0,1,42,15.14c1.07.68,2.26,1.07,3.37,1.66.68.36-.16,1.12.29,1.81s2.2.85,2.64,1.41c.85,1.1,3,1.39,3.34,2.82-.61.25-.52.61-.09,1,.85.74,2.42.53,3.44.91a13.38,13.38,0,0,1,2.34,1.55c1,.63,2,1.25,3.05,1.8"/><path class="cls-2" d="M26.05.61c.62-.11,1.61.86,2.11,1.17a26.84,26.84,0,0,0,2.89,1.56,3.54,3.54,0,0,1,1.84,1.25c.42.77-.18,1.82.37,2.4s1.51,2.44,2.37,2.73a38.07,38.07,0,0,1,6.45,3c.78.42,1.49-.78,1.88,0s.65.69,1.3.83a5.93,5.93,0,0,1,3.25,1.37,11.08,11.08,0,0,1,1.19,1.68c.36.61.43,1.34,1,1.78s1.92.29,2.24,1.2c.11.31,0,.31.23.55a6.63,6.63,0,0,0,1.17.65,11,11,0,0,0,1.19.59c.3.12.72.19.91.47"/><path class="cls-2" d="M27.84,16.16a11.69,11.69,0,0,0,1.36.72c.72.42,1.37.86,2.12,1.22s1.56,1.07,2.43,1.44"/><path class="cls-2" d="M24.88,22.58a5.7,5.7,0,0,0,1.53.74c.71.31,1.37.69,2.06,1,.31.15.65.14,1,.27s.72.64,1.17.83"/><path class="cls-2" d="M-1,21.86c.59.76,1.82,1,2.63,1.49A3.68,3.68,0,0,1,3.18,25c.64,1,1.61,1.07,2.67,1.49a10,10,0,0,1,2.31,1.33c.53.4.92,1,1.47,1.34"/><path class="cls-2" d="M-2.12,18.53c2.05.6,3.6,1.86,5.4,2.95a25.9,25.9,0,0,1,4.89,3.84,12.19,12.19,0,0,0,4,2.15c1.22.51,2.1,1.68,3.33,2.06"/><path class="cls-2" d="M-2,13.78c1.33.5,2.43,1.57,3.81,2a11.41,11.41,0,0,1,4.59,2.72c1.06.93.49,1.1.25,2.11s2,1.35,2.78,1.93c1.36,1,3,1.26,4.45,2.1.81.48,1,1.22,1.68,1.69,1.07.71,2.43,1,3.49,1.75a4.81,4.81,0,0,0,1.95,1"/><path class="cls-2" d="M-2.7,8.4c.06.46.39.65.79.95a47.71,47.71,0,0,0,6.26,3.47c2,1,2.34,2,4.24,3.22a14.8,14.8,0,0,1,3.24,2.17c1.32,1.42-.39.83-.72,1.76s3.3,1.71,3.73,1.92c1.23.58,2.85.9,3.94,1.71,1.3.95-.3.86-.05,1.81.19.75,2.27,1.23,2.82,1.47A13.63,13.63,0,0,1,23.67,28a10.07,10.07,0,0,0,2.56,1.57"/><path class="cls-2" d="M-.64,7.22A17.72,17.72,0,0,1,1.57,8.91,28.8,28.8,0,0,0,8.5,12.48a24.26,24.26,0,0,1,4.67,2.66c1.07.68,2.26,1.07,3.37,1.66.68.36-.16,1.12.29,1.81s2.2.85,2.64,1.41c.85,1.1,3,1.39,3.34,2.82-.61.25-.52.61-.09,1,.85.74,2.42.53,3.44.91a13.38,13.38,0,0,1,2.34,1.55c1,.63,2,1.25,3.05,1.8"/><path class="cls-2" d="M-2.75.61c.62-.11,1.61.86,2.12,1.17A25.78,25.78,0,0,0,2.25,3.34,3.54,3.54,0,0,1,4.09,4.59c.42.77-.18,1.82.37,2.4S6,9.43,6.83,9.72a38.07,38.07,0,0,1,6.45,3c.78.42,1.49-.78,1.88,0s.65.69,1.3.83a5.93,5.93,0,0,1,3.25,1.37,11.08,11.08,0,0,1,1.19,1.68c.36.61.43,1.34,1,1.78s1.92.29,2.24,1.2c.11.31,0,.31.23.55a6.63,6.63,0,0,0,1.17.65,12,12,0,0,0,1.19.59c.3.12.72.19.91.47"/><path class="cls-2" d="M2.75-.72c.37-.06.71.42,1,.62a3.32,3.32,0,0,1,1.61,2,3.64,3.64,0,0,0,.31,1.53,4.72,4.72,0,0,0,1.28.93c.65.45.51,1.8,1.16,2.26S9.3,7.61,10,8a34.67,34.67,0,0,0,4.43,2.13c1,.41,2.81-.26,3.69.3a10,10,0,0,1,1.71,1.07c.57.56.51,1.1.75,1.81s1.08.92,1.74,1.32,1.2.7,1.83,1,1.25.4,1.77.7.25.63,0,1-.48.53.1.83c.28.15.52.3.77.46"/><path class="cls-2" d="M9.5.32c.9.5,1.68,1.71,1,2.17s-.83.71,0,1.2c1.14.68.62,1.65,1.84,2.2.75.34,1.51.7,2.28,1a1.31,1.31,0,0,0,1.19,0,3.77,3.77,0,0,1,3.35.32A13.3,13.3,0,0,1,21,8.28a1.12,1.12,0,0,1,.62,1.07c-.08.64-.31,1,.18,1.49a4.54,4.54,0,0,0,1.37.79,1.71,1.71,0,0,1,.72.61c.11.23,0,.39.21.58s.79.21,1.07.35.63.39,1,.53a2,2,0,0,0,.59.12c.4.08.33.16.75.42"/><path class="cls-2" d="M15.21.61c1.06.65-.22,1-.9,2-.57.88-.49,1.09.53,1.37,1.41.38,4.56,1.41,5.93,1.94a6.16,6.16,0,0,1,1.76.92,2.72,2.72,0,0,0,2,.6,2.66,2.66,0,0,1,1.29.38c.33.31.14.82.47,1.21"/><path class="cls-2" d="M20.75.24c.26.66,1.3.68,1.47,1.45.12.58-.58.81-.32,1.38s1.34.72,2,.84,2,.16,2.4.76c.3.42-.21.8.07,1.13s.87.23,1.14.52c.14.14.11.39.25.53s.55.17.75.47"/><path class="cls-2" d="M-1,16.16a11.07,11.07,0,0,0,1.37.72c.71.42,1.36.86,2.11,1.22S4.08,19.17,5,19.54"/><path class="cls-2" d="M23.87,25.87c.3,0,.48.17.73.31.57.31,1.18.52,1.73.87s1.39.8,2.05,1.25a25.15,25.15,0,0,0,3.11,1.57"/><path class="cls-2" d="M5.58-.84c0,.8,1.64,1.38,2.07,2s0,1.37.51,2"/><path class="cls-2" d="M15,8.29a4.38,4.38,0,0,0,1.77.21,5.78,5.78,0,0,1,2.53.7"/><path class="cls-2" d="M17.12-.38c0,.07,0,.09,0,.14.29.56.94.8,1.14,1.47a1.57,1.57,0,0,1,0,.86c-.16,1,.58,1.15,1.3,1.61"/><path class="cls-2" d="M24.66,1.91c.57.43,1.13.87,1.72,1.28s1,.45,1.47.72c1,.49,2.78,1.18,3.19,2.25"/><path class="cls-2" d="M24.66,10.41c1.18,1,2.77,1.31,4,2.17a20.37,20.37,0,0,0,2.22,1.29"/><path class="cls-2" d="M14.33,18.41c.21.46.2,1,.56,1.43a5.09,5.09,0,0,0,1.55.81c.42.21.84.44,1.26.64"/><path class="cls-2" d="M8.41,18.12c0,.36.33.69.4,1.05.14.78,0,.89.6,1.49"/><path class="cls-2" d="M16,23.91a9.58,9.58,0,0,0,1.42,1"/><path class="cls-2" d="M17.45,15.45a3.56,3.56,0,0,1,1.26.91c.41.55.35,1.21,1,1.59"/><path class="cls-2" d="M-3.92,22.58a5.85,5.85,0,0,0,1.53.74c.71.31,1.37.69,2.06,1,.31.15.65.14,1,.27s.72.64,1.17.83"/><path class="cls-2" d="M9.41,24.25c.11.22.37.26.59.35a10.76,10.76,0,0,1,1.6.87,8.4,8.4,0,0,0,1.05.5c.3.14.53.42.84.53"/><path class="cls-2" d="M12.12,1.08c1.09.53.08,1.42.17,2.12"/><path class="cls-2" d="M-29.44,7.22a17.72,17.72,0,0,1,2.21,1.69,28.8,28.8,0,0,0,6.93,3.57,24.26,24.26,0,0,1,4.67,2.66c1.07.68,2.26,1.07,3.37,1.66.68.36-.16,1.12.29,1.81s2.2.85,2.64,1.41c.85,1.1,3,1.39,3.34,2.82-.61.25-.52.61-.09,1,.85.74,2.42.53,3.45.91A13.68,13.68,0,0,1-.3,26.29c1,.63,2,1.25,3.05,1.8"/><path class="cls-2" d="M-4.93,25.87c.3,0,.48.17.73.31.57.31,1.18.52,1.73.87s1.39.8,2.05,1.25a25.15,25.15,0,0,0,3.11,1.57"/><path class="cls-2" d="M-4.14,1.91c.57.43,1.13.87,1.72,1.28a15.56,15.56,0,0,0,1.48.72C0,4.4,1.83,5.09,2.24,6.16"/><path class="cls-2" d="M-4.14,10.41c1.18,1,2.77,1.31,4,2.17a20.37,20.37,0,0,0,2.22,1.29"/><path class="cls-2" d="M27.76-6.94c.59.76,1.82,1,2.63,1.49A3.68,3.68,0,0,1,32-3.77c.64,1,1.61,1.07,2.67,1.49A9.64,9.64,0,0,1,37-.95c.53.4.91,1,1.47,1.34"/><path class="cls-2" d="M26.68-10.27c2.05.6,3.6,1.86,5.4,2.95A26.22,26.22,0,0,1,37-3.48a12,12,0,0,0,4,2.14C42.15-.82,43,.35,44.26.73"/><path class="cls-2" d="M26.76-15c1.33.5,2.43,1.57,3.81,2a11.41,11.41,0,0,1,4.59,2.72c1.06.93.49,1.1.25,2.1s2,1.36,2.78,1.94c1.36,1,3,1.26,4.45,2.1.81.48,1,1.22,1.68,1.69,1.07.71,2.43,1,3.49,1.75a4.81,4.81,0,0,0,1.95,1"/><path class="cls-2" d="M26.1-20.4c.06.46.39.65.79.95A47.71,47.71,0,0,0,33.15-16c2,1.05,2.34,2.05,4.24,3.22a14.8,14.8,0,0,1,3.24,2.17c1.32,1.42-.39.83-.72,1.76s3.3,1.71,3.73,1.92c1.23.58,2.85.9,3.94,1.71,1.3,1-.3.86,0,1.81.19.75,2.27,1.23,2.82,1.47A13.63,13.63,0,0,1,52.47-.84,10.07,10.07,0,0,0,55,.73"/><path class="cls-2" d="M-1-6.94c.59.76,1.82,1,2.63,1.49A3.68,3.68,0,0,1,3.18-3.77c.64,1,1.61,1.07,2.67,1.49A9.64,9.64,0,0,1,8.16-.95c.53.4.92,1,1.47,1.34"/><path class="cls-2" d="M-2.12-10.27c2.05.6,3.6,1.86,5.4,2.95A25.9,25.9,0,0,1,8.17-3.48a12,12,0,0,0,4,2.14c1.22.52,2.1,1.69,3.33,2.07"/><path class="cls-2" d="M-2-15c1.33.5,2.43,1.57,3.81,2a11.41,11.41,0,0,1,4.59,2.72c1.06.93.49,1.1.25,2.1s2,1.36,2.78,1.94c1.36,1,3,1.26,4.45,2.1.81.48,1,1.22,1.68,1.69,1.07.71,2.43,1,3.49,1.75A4.81,4.81,0,0,0,21,.31"/><path class="cls-2" d="M-2.7-20.4c.06.46.39.65.79.95A47.71,47.71,0,0,0,4.35-16c2,1.05,2.34,2.05,4.24,3.22a14.8,14.8,0,0,1,3.24,2.17c1.32,1.42-.39.83-.72,1.76s3.3,1.71,3.73,1.92c1.23.58,2.85.9,3.94,1.71,1.3,1-.3.86-.05,1.81.19.75,2.27,1.23,2.82,1.47A13.63,13.63,0,0,1,23.67-.84,10.07,10.07,0,0,0,26.23.73"/><path class="cls-2" d="M23.87-2.93c.3,0,.48.17.73.31.57.31,1.18.52,1.73.87s1.39.8,2.05,1.25a25.15,25.15,0,0,0,3.11,1.57"/><path class="cls-2" d="M-4.93-2.93c.3,0,.48.17.73.31.57.31,1.18.52,1.73.87S-1.08-.95-.42-.5A25.15,25.15,0,0,0,2.69,1.07"/></pattern></defs><title>Inspiration</title><g class="cls-3"><g id="Layer_1" data-name="Layer 1"><rect class="cls-4" x="408.6" y="250.41" width="1423.58" height="1246.01"/><rect class="cls-5" x="408.6" y="251.16" width="1423.58" height="1246.01"/><path class="cls-6" d="M914.89,593.08c0-135,84.13-250.3,202.81-296.42-133,38-230.33,160.49-230.33,305.69,0,175.58,142.33,317.92,317.91,317.92a317.06,317.06,0,0,0,115.1-21.49A318.28,318.28,0,0,1,1232.81,911C1057.23,911,914.89,768.66,914.89,593.08Z"/><path class="cls-7" d="M1523.2,602.35c0-175.57-142.34-317.91-317.92-317.91a318.41,318.41,0,0,0-87.58,12.22C999,342.78,914.89,458.1,914.89,593.08c0,175.58,142.34,317.92,317.92,317.92a318.28,318.28,0,0,0,87.57-12.22C1439.07,852.66,1523.2,737.34,1523.2,602.35Z"/><g class="cls-8"><path class="cls-9" d="M1000.91,844.56s-3.93-87.67,39.35-169.23c-18-58.76-46-202.07-39.5-212.43S1156,541,1156,541,1310.8,470.1,1436,480c0,0,59-111.61,68.74-115.35s65.9,409,65.9,409L1324.7,1075"/><path class="cls-10" d="M1455.52,662.54s50.41-17.56,99.27-16.08"/><path class="cls-10" d="M1451.23,679.16s49.35-10.35,95.26-2.14"/><path class="cls-10" d="M1449.53,694.93s42-1.76,79,13.5"/></g><path class="cls-11" d="M1273.2,716.54c.57,4.39,28.75,14.21,34.2,12.64,8.46-2.43,26.24-24.16,23.66-29S1272,707.57,1273.2,716.54Z"/><path class="cls-12" d="M1016.86,543c-3.55-32-10.22-56.07,0-51.33,8.39,3.9,22.54,27.73,28.14,36.18,2-2.36,7-9.24,10.07-5.83,2.83,3.17-1.09,15.3-3.85,22.43a1,1,0,0,0,1.53,1.06,36.47,36.47,0,0,1,13.49-7.71,2.31,2.31,0,0,1,2.66,3.41,86.29,86.29,0,0,0-4.51,8.6c6.31-1.85,12.67-7.32,19.45-4.87.79,10.24-7.19,15.44-10,23.65,4.64-2,18.8-17.73,23-4.9,2.37,7.2-6.13,17.63-6.24,25.27,2.67-1.87,4.34-5.13,6.7-7.26.15,11.5-13.43,27.17-18.89,35.7-8.34,13-18,25-23.14,41"/><path class="cls-13" d="M1111.26,687.55s25.73-37.21,64.55-44.29,76,18.66,76,18.66-25.73,37.21-64.55,44.29S1111.26,687.55,1111.26,687.55Z"/><path class="cls-14" d="M1191.51,705.56s-8.88-9.58-10-27.12,6-36.41,6-36.41,16.59,13.25,17.67,30.8S1191.51,705.56,1191.51,705.56Z"/><path class="cls-13" d="M1333.33,634.25S1359.06,597,1397.88,590s76,18.65,76,18.65-25.74,37.22-64.56,44.3S1333.33,634.25,1333.33,634.25Z"/><path class="cls-14" d="M1413.58,652.26s-8.88-9.58-10-27.12,6.05-36.41,6.05-36.41,16.59,13.25,17.67,30.8S1413.58,652.26,1413.58,652.26Z"/><path class="cls-10" d="M1306.72,728.87l3.73,19.6s-11.39,29.34-49.19,33.34-57.14-20-57.14-20"/><path class="cls-10" d="M1310.45,748.47s29,15.34,61.66,0,38.68-47.17,38.68-47.17"/><rect class="cls-15" x="1149.92" y="324.97" width="9.19" height="9.19" transform="translate(2203.93 -253.76) rotate(135)"/><rect class="cls-15" x="1277.27" y="406.78" width="5.23" height="5.23" transform="translate(85.39 1024.92) rotate(-45)"/><rect class="cls-15" x="1392.76" y="419.42" width="5.23" height="5.23" transform="translate(110.27 1110.29) rotate(-45)"/><rect class="cls-15" x="981.08" y="715.31" width="5.23" height="5.23" transform="translate(-219.53 905.85) rotate(-45)"/><rect class="cls-15" x="1158.41" y="504.15" width="5.23" height="5.23" transform="translate(-18.28 969.39) rotate(-45)"/><rect class="cls-15" x="1178.94" y="406.78" width="5.23" height="5.23" transform="translate(56.59 955.39) rotate(-45)"/><rect class="cls-15" x="958.41" y="618.82" width="5.23" height="5.23" transform="translate(-157.94 861.56) rotate(-45)"/><rect class="cls-15" x="1294.15" y="315.01" width="5.23" height="5.23" transform="translate(155.22 1009.98) rotate(-45)"/><rect class="cls-15" x="1014.25" y="392.28" width="5.23" height="5.23" transform="translate(18.6 834.69) rotate(-45)"/><rect class="cls-15" x="1129.38" y="379.88" width="5.23" height="5.23" transform="translate(61.09 912.47) rotate(-45)"/><path class="cls-10" d="M1144.52,739.9s-53.29,3-97.89,23"/><path class="cls-10" d="M1154.84,753.63S1105.27,762.89,1066,788"/><path class="cls-10" d="M1162.42,767.56s-39.51,14.4-67.91,42.63"/><path class="cls-14" d="M728.86,962.69c0-15-59.21-22-132.25-15.67S464.37,970.55,464.37,985.5a5.64,5.64,0,0,0,.37,2l-.37,0v37.51c0,4.46,5.27,8.21,14.61,11.12v16c0,5.41,8.72,9.65,23.44,12.4l-5.61.49v430.23H696.42V1047.83l-5.62.49c14.72-5.29,23.44-11,23.44-16.45v-16c9.34-4.52,14.62-9.18,14.62-13.64V964.74l-.38,0A6.15,6.15,0,0,0,728.86,962.69Z"/><path class="cls-16" d="M524.12,936.85c1.26-3.42.32-7-2.85-8.85-5.16-3-10,.34-13.62,4-4.41,4.51-6.2,10.71-10.1,15.67-1.79,2.28-3.92,4-5.83,6.09,3.73,1.43,8.18,2.07,12.09,2.78,3.15.57,6.28,1.2,9.39,2,2.26.56,4.66,1.29,7,1,4.1-.48,10.45-3.38,12.25-7.31a16.13,16.13,0,0,0,1.25-9,6.47,6.47,0,0,0-5.37-5.32c-.8-.17-4-.52-3.94-.6"/><polygon class="cls-14" points="931.53 579.2 568.76 579.2 568.76 250.29 860.76 250.29 860.76 528.57 931.53 579.2"/><polygon class="cls-17" points="938.56 574.19 575.79 574.19 575.79 185.96 867.79 185.96 867.79 526.9 938.56 574.19"/><rect class="cls-18" x="597.79" y="208.95" width="248" height="342.24"/><path class="cls-19" d="M737.86,1495.28V1010.11h-47c-15.32-1.29-33.43-2-52.83-2s-37.51.74-52.83,2h-47v485.17"/><path class="cls-19" d="M700.33,978.79c-18.06-1.52-39.4-2.39-62.27-2.39s-44.21.87-62.27,2.39H520.43v21.86c0,8.72,52.66,15.78,117.63,15.78s117.63-7.06,117.63-15.78V978.79Z"/><ellipse class="cls-19" cx="638.06" cy="977.59" rx="117.63" ry="15.78"/><path class="cls-19" d="M708.06,957.49c-20.3-1.71-44.29-2.69-70-2.69s-49.7,1-70,2.69H505.81v24.58c0,9.79,59.21,17.74,132.25,17.74s132.25-7.95,132.25-17.74V957.49Z"/><path class="cls-19" d="M638.06,938.4c-10.95,0-21.58.18-31.75.52,51.76,2,92.68,8.64,92.48,15.3-.21,6.91-44.47,11.16-98.86,9.5-42.08-1.28-77.88-5.72-91.84-10.87-1.49,1.07-2.28,2.17-2.28,3.29,0,9.8,59.21,17.74,132.25,17.74s132.25-7.94,132.25-17.74S711.1,938.4,638.06,938.4Z"/><path class="cls-20" d="M698.79,954.22c.2-6.66-40.72-13.35-92.48-15.3-49.91,1.65-88.67,7.1-98.22,13.93,14,5.15,49.76,9.59,91.84,10.87C654.32,965.38,698.58,961.13,698.79,954.22Z"/><path class="cls-21" d="M720.88,1043.07c0-5-1.8-9.17-4-9.17h0c-2.2,0-4,4.12-4,9.17v452.21"/><path class="cls-21" d="M567.88,1043.07c0-5-1.8-9.17-4-9.17h0c-2.2,0-4,4.12-4,9.17v452.21"/><path class="cls-21" d="M650.44,1049.13a9.18,9.18,0,0,0-9.16-9.16h0a9.19,9.19,0,0,0-9.17,9.16v446.15"/><path class="cls-21" d="M689.7,1047.36c0-5-2.71-9.16-6-9.16h0c-3.3,0-6,4.12-6,9.16v447.92"/><path class="cls-21" d="M602.62,1047.36c0-5-2.71-9.16-6-9.16h0c-3.3,0-6,4.12-6,9.16v447.92"/><path class="cls-22" d="M569.07,868l11.15,86.82c0,4.88,26.52,8.83,59.23,8.83s59.23-3.95,59.23-8.83L709.83,868Z"/><ellipse class="cls-23" cx="639.45" cy="868.01" rx="70.38" ry="8.41"/><ellipse class="cls-24" cx="639.45" cy="868.01" rx="57.46" ry="4.31"/><path class="cls-16" d="M679.48,870.21c4.44-3.12,6.21-8.46,11.19-10.89,5.29-2.58,12.11-3.82,17.9-2.64,11.24,2.29,17.8,12.77,19.31,23.5,1.42,10.14-.61,20.56-3.08,30.37-3,12.06-6.72,24-10.6,35.77-8.12,24.72-19.68,49-14.33,75.61,2.27,11.29,7.44,21.54,13.8,31.06,6.65,9.94,15,18.3,22.83,27.29,9.11,10.48,17.49,23.09,16.81,37.58-.57,12.08-7.31,21.11-15.43,29.28v6.28c7.43-7.12,15.8-15.82,18.47-26,3.29-12.58.59-25-6-36s-15.86-19.64-24.08-29.19-15.89-21-19.91-33.25c-4.45-13.58-4.37-27.86-1-41.67,3.49-14.24,9.32-27.9,13.85-41.82,4-12.26,7.88-24.65,10.77-37.23,2.33-10.15,3.91-20.88,1.88-31.23-2.26-11.49-10.21-22.22-22.13-24.68-6.07-1.26-12.33-.3-18.13,1.73a20.76,20.76,0,0,0-8,4.69c-2.41,2.4-7.3,9.33-10.13,11.32"/><path class="cls-16" d="M668.55,869.69c7.79-6.92,11.58-20.05,14-29,1.91-7,2.93-14.29,5.25-21.16a72.62,72.62,0,0,1,18.44-28.39,54.27,54.27,0,0,1,13.88-10.25c5.07-2.45,10.66-3.57,16.15-4.63,2.86-.55,1.65-4.92-1.2-4.37-9.26,1.79-17.68,4.32-25.24,10.15a81.28,81.28,0,0,0-20.93,24.09c-8.18,14.45-8.75,31.32-15.11,46.48-2.91,7-7.36,15.52-15.52,17"/><path class="cls-16" d="M709.69,759.28c-5.7,2.26-13,2.76-18.13-.89s-3.19-11.57-.14-16.08a170.93,170.93,0,0,1,11.36-15.12c3.36-3.92,6.85-8.3,9-13,1.13-2.5,1.17-4.75,1.54-7.41,1.78,1.59,3.18,4.22,4.51,6.23,1.81,2.74,3.74,5.48,5.35,8.36,4.61,8.29,8,17.78,7.29,27.43-.41,5.31-2.68,10.25-8,12a18.89,18.89,0,0,1-7.5.44c-2-.27-3.68-1.33-5.48-1.75.18-.23.3-.07.57-.15"/><path class="cls-25" d="M711.2,781a8,8,0,0,0-.21-1.88c-.66-4.08-1.74-7.77-1.76-12,0-13.46,5.36-26.4,4.8-39.8"/><path class="cls-16" d="M739.35,784.53A10.08,10.08,0,0,0,730,796.45c1.07,6,6.26,10.39,12.14,11.63a35.43,35.43,0,0,0,19-1.8c3.17-1.17,6.27-2.5,9.43-3.64-.72-.87-2.43-1-3.43-1.54a20.92,20.92,0,0,1-3.68-2.64c-2.88-2.57-4.17-6.42-6.06-9.66s-4.29-6.22-7.95-7.29c-2.06-.61-4.57-1.13-6.48.09a15.09,15.09,0,0,0-3.37,2.78c.13,0,.24,0,.37,0"/><path class="cls-25" d="M716.93,781c6-1.3,13.88-.86,17.72.87a33.22,33.22,0,0,1,10,6.87c4.54,4.64,7,10.4,13.8,12"/><path class="cls-16" d="M685.32,782.27c1.79.7,5.08-1.85,6.18-3.07,2.09-2.31,4.73-6,4-9.42-.58-2.59-3.34-5.42-5.31-7.09a12.34,12.34,0,0,0-6.63-2.73c-6.37-.79-12.81-1.44-19-3.25-3-.87-5.66-1.36-8.29-2.91-.17,3,.18,6.08.23,9.06A47,47,0,0,0,658,775a41.18,41.18,0,0,0,4.94,10.89c1.69,2.56,5.32,5.75,8.33,6.61,4.88,1.39,9.76-1.75,12.06-5.81.72-1.28,1.22-2.94,2.13-4"/><path class="cls-25" d="M671.09,766.65c5.39,1.34,9.91,8.4,12.58,12.79s4.64,9,8,12.8a15,15,0,0,0,4.52,3.38"/><path class="cls-16" d="M709.44,797.31c-3.16.28-4.38,4.17-3.24,6.68,2.32,5.1,10.27,8,14.63,11,3.55,2.41,6.67,5.42,10.09,8,1.54,1.17,2.91,2.94,4.38,3.94,0-2.33-1.27-5.21-2-7.43-1.26-3.89-2.44-8-4.06-11.72-2-4.67-6.28-8.33-10.36-11.2-2.15-1.53-10.72-4.8-9.9.75"/><path class="cls-25" d="M699.11,796.12c2.52-1,6.12.23,8.6,1a21.67,21.67,0,0,1,5.27,2.19,33.93,33.93,0,0,1,10.31,8.94c1.65,2.28,3.28,4.46,5,6.69"/><path class="cls-16" d="M747.72,754.81a6.8,6.8,0,0,1-4.21-.1c-1.57-.67-3.13-2.71-3.89-4.2a4.4,4.4,0,0,1,.07-3.89,20.17,20.17,0,0,1,5-6.07,37.47,37.47,0,0,1,11.53-6.62c3.19-1.11,6.64-1.77,9.72-3.13s6.14-2.43,9.16-3.8a15.32,15.32,0,0,1,2.18-1c.19,2.53.42,5,.67,7.59.4,4.06,1.2,7.78-.44,11.69a25.68,25.68,0,0,1-9.75,11.26,15,15,0,0,1-8.92,2.53,18.31,18.31,0,0,1-8.52-3.25,4.38,4.38,0,0,0-2.31-1"/><path class="cls-25" d="M731,773.61c3.54-.9,7.34-4.34,9.58-7,4.46-5.37,6.79-12.15,11.3-17.54a30.67,30.67,0,0,1,11.54-8.46"/><path class="cls-16" d="M696.54,814.21a7.07,7.07,0,0,0-8.21,1.67,11.47,11.47,0,0,0-3.06,5.91c-.37,2.54,1,4.34,2.67,6.11a23,23,0,0,0,6.73,4.59c2.8,1.36,5.5,3.13,8.19,4.71a33,33,0,0,0,4.11,2.07,57.88,57.88,0,0,0,1.89-9.57c.44-2.83,1.55-5.5,1.54-8.36,0-3.93.16-10.22-4.42-11.89-3.47-1.27-9.06.9-9.82,4.6,0-.19.09-.28.13-.47"/><path class="cls-25" d="M704.08,831.89c-5.48-9.7-9.29-21.93-11-23.3"/><path class="cls-16" d="M681.09,802.14c2,3.15,3.25,6,.32,9.05-3.23,3.38-8.71,3.43-12.67,1.44a89,89,0,0,0-13.91-5.83c-1.55-.48-4-.85-5.32-1.71,2.68-.64,4.82-2.56,7.23-3.77a40,40,0,0,1,9.5-3.76,41.87,41.87,0,0,1,11.06-.79c1.88.12,4.14.56,4.56,2.61A2.72,2.72,0,0,1,681.09,802.14Z"/><path class="cls-25" d="M657.61,804.31c6.85,0,13.31-1,20-1.77a26.29,26.29,0,0,1,8.54.39c1.1.22,2.31.7,3.4.87"/><path class="cls-16" d="M676.48,833.14c-.57-3-.23-6.79-3.46-8.23-5.16-2.3-10.34,2.31-14.14,5.07s-6.29,6.07-9.24,9.61c-1.47,1.77-3.34,3-4.84,4.68,2.68.49,5.73.31,8.48.65a85.31,85.31,0,0,1,13.43,2.75c4.9,1.43,12.21,1.79,16.21-2.12,2.44-2.39,2.93-7.24.38-9.7-1.79-1.73-4.82-1.77-6.82-2.71"/><path class="cls-25" d="M654.86,840.94c3.81.06,8-2,11.57-3.3,2.34-.88,4.61-1.86,6.85-2.93s4.72-1.68,6.79-3"/><path class="cls-16" d="M735.37,875.34c-1-.59-2.73-.41-3.81-.21-3,.56-5.7,3.16-7,5.84s-1.29,6.7,1.32,8.74c2.45,1.93,6.24,2.7,9.21,3.34a49.78,49.78,0,0,1,11,3.65c1.55.73,3.74,2.27,5.46,2.43.88-3.45.59-6.89.75-10.41.21-4.74,1.48-8.82,0-13.52a10.36,10.36,0,0,0-9-7.42c-4.52-.35-7.46,3.36-8.35,7.32.06.11.16.11.27,0"/><path class="cls-25" d="M729.4,869.29c.07-.14-.11-.23.11-.24a43.14,43.14,0,0,1,5.41,5.65c1.7,2.35,3.39,4.74,5.12,7.09s3.46,5.13,5.48,7.47"/><path class="cls-16" d="M725.62,848.13c-3.62-.11-7.41.84-9.89-2.42-3.57-4.67-2.68-8.81.89-13.33a20.63,20.63,0,0,1,8.86-6c3.68-1.42,7.28-2.93,10.94-4.41,4.37-1.77,8.65-3.68,12.88-5.74-1.66,8.71.85,17.67-.27,26.39-1,7.61-4.12,14.6-12.16,16.28-4.75,1-7.88-.83-9.74-5-.72-1.65-2-3.4-1.76-5.31"/><path class="cls-25" d="M720.36,856.76c2.8-3.49,4.82-7.44,7.4-11.08,4.62-6.51,9.66-12.74,14.89-18.77"/><path class="cls-16" d="M710.06,870.17c-1.42-1.82-4-3.47-6.43-3.22-4.14.43-9.21,5-9.07,9.27.16,4.42,2.53,8.82,3.18,13.22.5,3.4.34,7,1.14,10.37,6-5.34,14.07-8.78,18.5-15.78,1.8-2.84,2.82-8.73,1-12-1.55-2.82-5.47-2.39-8.24-2.39"/><path class="cls-25" d="M708.85,856.84c4.62,4.95,2.52,10.31-.22,15.85-2.5,5.06-5.49,11.35-5.57,17"/><path class="cls-16" d="M717.43,912.68c-2.44-3.31-4.12-4.95-8.63-5.07-5.62-.14-9.82,4.28-12.9,8.49s-5.15,9-7.56,13.65a61.63,61.63,0,0,1-4.1,6c6.1-.14,10.93,3,16.47,5,3.18,1.19,7.48,2.59,10.83,1.39a31.78,31.78,0,0,0,8.16-4.93c4.94-3.88,6.32-15.83-1.29-17.76C718.26,917.1,718.51,914.62,717.43,912.68Z"/><path class="cls-25" d="M698.72,929.81c3.46-1.69,6.75-3.6,10.16-5.36,2.88-1.48,5.82-2.9,8.56-4.63a18.4,18.4,0,0,1,5.09-2.13"/><path class="cls-16" d="M734.44,912.4c-3-.56-3,3.52-1.86,5.26s3.53,2.64,5.28,3.66a57.85,57.85,0,0,0,7.73,3.5c6.83,2.7,14.29,5,21.69,4.55C763.51,922,756,913,748,909.67c-3.1-1.3-6.89-2.07-10.1-.88C736.65,909.26,734,910.93,734.44,912.4Z"/><path class="cls-25" d="M729.17,912.11c1.94-.55,3.53,0,5.46.33a27.26,27.26,0,0,1,7.59,2.63c2.62,1.3,5.14,2.8,7.76,4.11,3,1.49,5.67,4,9,4.46"/><path class="cls-16" d="M731.66,935.54c-3.07,0-5.43.45-6.68,3.58-1.86,4.69.64,8.51,3.61,12,3.17,3.69,6.7,7,10.18,10.4,1.77,1.73,3.86,3.84,4.47,6.27.84-.46,1.56-2.06,2.22-2.85a36,36,0,0,0,2.69-4.3c2.92-4.74,4.86-8.84,5.54-14.41.69-5.74-2-14.25-8.14-15.83a9.2,9.2,0,0,0-9.76,3.3c-.77.93-.71,1.33-1.85,1.61a10.83,10.83,0,0,1-2.65.25"/><path class="cls-25" d="M724.36,927.6c5.94,0,11.09,6.31,14.29,11,3.84,5.58,3.1,11.82,4.22,18.24"/><path class="cls-16" d="M704.78,956.81c3.5-.29,5.28,3.17,4.92,6.15-.52,4.37-4.63,6.62-8.59,7.56a52.76,52.76,0,0,1-15,.81c.68-4.26,3.4-9.47,5.64-13.12a11.44,11.44,0,0,1,9-5.92c2.9-.26,4,2.33,3.65,4.9"/><path class="cls-25" d="M692.69,967.78c2.85-3.84,7-6.56,10.55-9.77a58.28,58.28,0,0,1,6.41-4.54,26.46,26.46,0,0,0,2.56-1.62"/><path class="cls-16" d="M719.32,972.06c-3.53-2-11.46,1.81-13.28,5.09-2.63,4.76.7,9.51,5,11.64,1.87,1,3.87,1.61,5.7,2.64,2,1.12,3.92,2.38,5.94,3.46,4.17,2.24,7.89,5.08,11.85,7.61,1.87-4.42,2.79-9.14,4-13.77.93-3.67,1.53-7.63.62-11.43-1-4.25-3.61-7.33-7.91-8.39a11.27,11.27,0,0,0-7.84,1.17C722.38,970.58,720.43,972.78,719.32,972.06Z"/><path class="cls-25" d="M712.52,964.38c.51-.16,1.6.66,2.15,1a13.39,13.39,0,0,1,4.38,3.89,49,49,0,0,1,4.31,7.88c2.37,5.45,4.88,11.68,8.81,16.21"/><path class="cls-16" d="M692.12,994.86c2.58-1.78,7.6,0,8.7,3,1.24,3.45-.88,7.43-3.94,8.89-6.8,3.28-14.43,2.28-21.53,4,4.66-5.77,3.5-19.51,13.6-19.64,3.16-.05,2.57,2.07,3.17,4.16"/><path class="cls-25" d="M681.6,1006.32c1.82-1,3.27-3,4.62-4.54s2.84-3,4.15-4.6a61.66,61.66,0,0,1,5-5.8c1.64-1.58,3.23-4.76,5.8-4.69"/><path class="cls-16" d="M698,980.5c1.94-2.85-1.64-4.87-4.08-5.26-5.93-1-11.56,1-17.21,2.42-4.22,1-8.59,2.47-12.84,2.74,2.81,2.57,5.72,4.59,8.08,7.66,2.14,2.78,4.23,5.07,7.57,6.39s6.19,1.19,8.35-2.06c1.15-1.73,2.58-5,1.83-7.08,3.45-.29,6.87-1.26,8.3-4.81"/><path class="cls-25" d="M671.46,981.63a39.43,39.43,0,0,1,18.09,4.09c4.07,2,7.93,4.52,12.14,6.24"/><path class="cls-16" d="M689.35,1033.78c7.36,2.48,15.43,12.73,8.19,19.67-2.52,2.42-6.23,5.47-9.59,6.42s-6.93.89-10.34,1.29c-7.67.9-14.87,1.06-22.25,3.08,1.25-4.52,3.36-9.17,4.85-13.68,1.28-3.89,2.69-7.61,3.77-11.49,1.86-6.73,4.92-14,12.74-15.49a10.89,10.89,0,0,1,11,4.26c.94,1.35,2.7,4.71,1.12,5.94"/><path class="cls-25" d="M701.19,1025.71c-2,.09-4,2.12-5.65,3.12a56.5,56.5,0,0,0-8.52,6.06c-4,3.57-7.5,7.6-11.1,11.5a102.13,102.13,0,0,1-11,9.8"/><path class="cls-16" d="M725.49,1031c-1.89-.41-3.21-3-3.62-4.69a6.29,6.29,0,0,1,2.78-7.08c2.35-1.49,5.43-1.82,8.12-2.21a80.68,80.68,0,0,1,13.81-.62,140.09,140.09,0,0,1,28.9,3.92,5.11,5.11,0,0,1-1.3,1.67c-1.37,1.46-2.71,3-4,4.44-3,3.33-5.23,7.21-8.43,10.38-3.55,3.51-7.53,7.4-12,9.62a37.41,37.41,0,0,1-12.33,3.35c-5.52.65-14.28.09-14.88-7a15.48,15.48,0,0,1,1.45-8.47C724.45,1033.21,724.86,1032.06,725.49,1031Z"/><path class="cls-25" d="M709.67,1041.5a63.36,63.36,0,0,1,4.92-4.63,27,27,0,0,1,8.59-4.85c4.33-1.66,8.65-3.55,13.17-4.59,8.49-2,16.89-2,25.54-2.47"/><path class="cls-16" d="M710.38,1066.27c-3.85-6.7-13.34-2.36-14.73,4-1,4.34,1.24,8.88,2.56,12.9.76,2.34,1.11,4.86,1.87,7.16,3.14-.57,6.48-2.88,9.53-4,4.33-1.61,8.64-3.52,10.83-7.82,1.77-3.46,2.58-8-.73-10.83-3-2.49-6.24-1.52-9.43-1.13h.35"/><path class="cls-25" d="M715.8,1055.82a12.59,12.59,0,0,0-1.85,2.8,44,44,0,0,0-3.43,6c-1,2.38-1.44,5.16-2.23,7.65-1.16,3.66-2.65,8.52-5,11.62"/><path class="cls-16" d="M742.37,1074.77c-4.06-.49-7.37,5-8,8.34-.95,5.44,3.33,8.05,8.18,9.06,6.65,1.38,13.67-.5,20.33.9.28-4.85-1.61-11.17-3.37-15.68a12.92,12.92,0,0,0-7-7.5c-3.47-1.66-10.24.34-10.53,4.72,0,.24.1-.18.19-.22"/><path class="cls-16" d="M728.39,1094.61c-.36-5.88-7.38-2-9.52.33-3.35,3.73-6.41,8-9.5,11.92,1.88.57,4.2.26,6.17.36a32,32,0,0,0,10.85-1c4.13-1.29,7.63-4.29,7.49-8.9-.08-2.49-3.7-4.08-5.3-2.56"/><path class="cls-16" d="M742.56,1127.48c1.59-.88,1.75-4.63,1.16-6.35-1.47-4.25-6.09-6-10.22-5.46-9.13,1.2-16.56,8.59-25.65,10.14,2.13,1.8,4.91,3,7.19,4.63a60.57,60.57,0,0,0,9.55,5.76c4,1.93,9.09,5.87,13.81,4.61s6.93-9.19,4-12.77"/><path class="cls-16" d="M763.72,1112.18a7.55,7.55,0,0,1,1.69-10.12c3.41-2.66,7.23-2.29,11-.88a108.14,108.14,0,0,1,14.48,6.65c3.13,1.74,6.63,3.09,9.65,4.9a53.37,53.37,0,0,1-6.65,9.52c-3.67,4.41-7.54,6-13.08,7.27-6.23,1.37-15,.93-17.11-6.69C762.77,1119.36,765.4,1115,763.72,1112.18Z"/><path class="cls-16" d="M749,1156.76c-3.43-1.39-7.87-1.77-11.37-.24a12.12,12.12,0,0,0-5.84,6.66c-1.2,3.44.78,6,3.14,8.41,4.07,4.05,8.84,7.35,13,11.33a47.29,47.29,0,0,0,4.31,4.19c2.51-5,7-8.6,8.66-14.09s2.52-14.12-1.1-19.12c-2-2.71-5.06-4.48-8.36-2.82-2.53,1.27-2.62,3.29-2.65,5.8"/><path class="cls-25" d="M715.17,1103.42c1.85-.87,3.44-2.31,5.23-3.31a62.05,62.05,0,0,0,6-4,31.07,31.07,0,0,0,5-4.62c1.1-1.23,2-3.11,3.54-3.8"/><path class="cls-25" d="M734.81,1071.68c4.54-1.18,7.32,3,9.7,6a29.39,29.39,0,0,0,5.86,5.66,36.07,36.07,0,0,0,3.8,2.44,25.83,25.83,0,0,0,3.94,2.24"/><path class="cls-25" d="M757.48,1116c1.83-.65,3.42-1.64,5.33-2.15a38.82,38.82,0,0,1,10-1.25c6.63,0,12.86,1.24,19.43,1.76"/><path class="cls-25" d="M742.5,1148.76c.09.58,1,1.26,1.46,1.78a22.2,22.2,0,0,1,3,3.78,48.47,48.47,0,0,1,2.72,5.2c2.56,6,2,12.76,1.89,19.09"/><path class="cls-25" d="M721.09,1126.47c1.54.65,3.58.45,5.25.57s3.4.06,5.09.06c3.12,0,6.33-.42,9.43,0a18.19,18.19,0,0,1,9.07,3.65"/><path class="cls-16" d="M628.27,868.92c-3.26-4.35-6.83-13.84-8.9-18-5.28-10.51-11.7-23-20.9-30.49C582.24,807.3,562,810.19,550.8,828c-10.16,16.16-4.47,35.68-6.81,53.54-1.52,11.51-6.06,21.44-8.67,32.63A55.39,55.39,0,0,0,534,927.05c0,4.33,3.11,13.43,2.78,17.52,1.13,0,4.51.22,4.4-1.52-.29-4.64-2.9-13.08-3.09-17.72-.25-6.28,1.54-12.46,3.6-18.33,2-5.55,3.51-11.2,5-16.86A72.1,72.1,0,0,0,549.42,872c0-3.45.14-6.83.15-10.27,0-1.54-.15-3-.3-4.55-.1-1-.33-2.64-.31-3.52.15-5.3.24-9.54,1.85-14.46,1.24-3.83,2.61-7.8,5.27-10.83,4.38-5,9.75-9.18,16.52-10.3,6.33-1.05,14.29-.37,19.57,3.62,2.38,1.8,4.42,4.44,6.63,6.51a44.19,44.19,0,0,1,7.27,9.43,86.79,86.79,0,0,1,8.49,17.27c1.58,4.46,4.22,9.83,5.3,14.38"/><path class="cls-16" d="M576.84,805.2c-1.35-.09-2.74,1.38-4.08,1.73a9.4,9.4,0,0,1-8.55-1.5c-6.11-5.12.21-11.6,3.68-16.13,2-2.6,4.75-6.67,4.58-10.14a3.62,3.62,0,0,1,2.14.77c2,1,4,1.85,5.86,3a24.69,24.69,0,0,1,8.36,7.74c3,4.56,2.55,10.61-2,13.84a9.72,9.72,0,0,1-7,1.75c-1.13-.1-2.6-.88-3.37-.91"/><path class="cls-16" d="M606.07,815.81c-5.63,11.25,11.35,10.56,17.77,9.39,4-.72,8.56-.8,12.37-2-.23-1-1.21-1.71-1.88-2.5a34,34,0,0,1-2.66-3.73c-2.13-3.4-3.24-6.6-6.48-9.23-6.58-5.32-15.92-6.71-23.43-2.3-4.21,2.46-4.71,6.47-.32,8.59,1.55.75,3.31,1.19,4.48,2.18"/><path class="cls-16" d="M548.51,823.23c1-1.71,2.27-2.76,2.17-5a7.28,7.28,0,0,0-4.17-6.1c-4.3-1.88-10.13,3.54-13.29,5.92a81.77,81.77,0,0,1-9.08,6.31c-2.6,1.45-1.74,2.07.43,4.44,5.63,6.15,13.55,10.77,22.06,10.49,5.49-.19,12.49-5.25,9.53-11.36a7.93,7.93,0,0,0-7.5-4.56"/><path class="cls-16" d="M574.56,825.8c-.57-.37-.93-.95-1.61-1.23-1.81-.73-3.51,1.09-4.68,2.2-3.35,3.2-4.77,6.91-5.28,11.47-.49,4.29-1.21,8.49-2.08,12.67,1.83-1.5,4.36-2.19,6.4-3.44a45.21,45.21,0,0,0,10.16-7.82c2.49-2.68,6.15-8.08,4.13-12-1.28-2.48-5.15-1.72-7.34-1.21"/><path class="cls-16" d="M601.23,847.16c.39-2.58,1.07-5.17-1.05-7.26-2.69-2.66-7.2-.93-9.77,1-3.68,2.73-6.2,6.44-9.38,9.66-1.43,1.44-3.11,2.61-4.61,4,2.77,1.07,5.51,1.92,8.23,3.18,3.18,1.46,6.41,2.85,9.63,4.21,5.45,2.3,11,1.43,12.56-4.93a7.45,7.45,0,0,0-2.88-8.05c-.66-.45-3-1.19-2.88-1.57"/><path class="cls-16" d="M532.1,858c.23-3.3,1.57-6.7-1.49-9.23s-8.31-2.46-11.47-.57c-5.11,3.07-7.45,9-10.56,13.8-1.9,2.9-3.54,6-5.67,8.73-.69.88-1.64,1.7-2.21,2.6,10.84.46,20.87,5.74,31.84,6.09,3.18.1,4.75,0,7.44-1.73a19.42,19.42,0,0,0,4.17-3.18c2.58-2.76,4.23-5.77,3.34-9.7-1-4.5-4.7-5.86-8.88-6.16-1.58-.11-5.06.54-6.34-.41a2.18,2.18,0,0,1,.7.14"/><path class="cls-16" d="M547.37,900.72c-2.85-.9-5.54-1.72-8.51-.51-4.44,1.79-7.84,7.62-5.21,12.15,2.42,4.17,9.43,6.57,13.52,8.82a74.25,74.25,0,0,0,8.09,4c1.1-4.73,8.59-30.74-2.89-30.16-3.13.15-3.74,3.83-5.45,5.9"/><path class="cls-16" d="M529,897.05c0-3.7-.11-6.75-4.49-7.66-5.2-1.06-10.15,3-13.3,6.59a81.78,81.78,0,0,1-12.36,10.85c4.54-.26,10.14,2.23,14.42,3.67,3.77,1.26,7.28,3.26,11,4.73,5.23,2.09,11.78,1.76,15.58-3,3.49-4.38,3.38-11.43-2.11-14-2.83-1.3-5.47-1.2-8.49-1.25-.46.21,0,.12.25.24"/><path class="cls-25" d="M545,896.1c1.88,1.36,2.57,4.39,3.26,6.5,1.8,5.5,2.29,11.2,4.47,16.68"/><path class="cls-25" d="M510.26,903.64c1.39.7,4.51-.18,6-.45a32.62,32.62,0,0,0,6.75-2c2.08-.85,3.7-2.52,5.61-3.7,1.57-1,3.16-1.88,4.69-2.89,3.11-2,6.35-4.77,10.07-5.32"/><path class="cls-25" d="M509.9,868.55c2-1.46,4.72-2,7-3.06,2.6-1.23,5.29-2.07,7.89-3.29a72,72,0,0,0,9.19-5.08c3.14-2.08,6.33-4.57,9.89-5.9"/><path class="cls-25" d="M534.27,825.65c6.09.16,11.47-1.67,16.9-4.09a18.21,18.21,0,0,1,6.27-1.51"/><path class="cls-25" d="M576.53,790.35c.44,6.73,1.25,14.92-.6,21.36"/><path class="cls-25" d="M579.87,817.77c-1.19-.32-6.12,9.67-7.13,11.67-1.87,3.68-3,7.69-4.54,11.51"/><path class="cls-25" d="M584.71,852.62c1.89.11,3.61-.84,5.26-1.6,2-.91,4.08-1.57,6.08-2.49a22.42,22.42,0,0,1,6.39-1.63,55.45,55.45,0,0,1,8-.34"/><path class="cls-25" d="M597.29,819.29c7.83-4.82,19.69-5.72,28.18-1.82"/><path class="cls-25" d="M504.88,949.57c.88.58,3-1.22,3.89-1.78a83,83,0,0,0,9-6.44c3.58-3,7.46-5.71,11.13-8.6a23.71,23.71,0,0,1,4.62-3.32"/><g class="cls-26"><path class="cls-27" d="M610.58,1465.93a127.07,127.07,0,0,0-4.49-19.22c-3-9.28-10.23-13.85-13-23.5-25.89,2.12-15.7-25.27-14.82-42,.6-11.35-.78-26.36,5.8-36.08,3.82-5.65,10.78-8.12,15.3-12.54,5.3-5.18,5.18-8.68,7.18-15.41.83-2.82,4-4.12,3.84-8.06-.12-4.44-4.57-4.77-4.92-7.93-1.14-10.46,16.76-37.76-3-38.16-1.25-7.66,1.08-16,.09-23.83-1.61-12.84-5.53-18.65.66-30.73,11.54-22.53,8.93-45.68,8.1-70.52-.34-10.28-5.49-18.86-6-28.55-.37-6.91,2.74-12.3,5.11-18.74,6.68-18.15,10.63-35.56,7.44-55.39-4.52-28.07-12.31-16.68-32.4-22.24-.26-5.17,0-10.53-.3-15.7-8.73-.43-19,1.49-26.68-2.33-.37-17.57,1-35.23,2-53.2-26.81,2.61-46,6.54-52.38,11.07-1.49,1.07-2.28,2.17-2.28,3.29a2.77,2.77,0,0,0,.38,1.35h-.38v24.58c0,2.92,5.28,5.68,14.62,8.11v10.47c0,3.55,8.72,6.82,23.44,9.45h-5.62v485.18h70.59C609.47,1483.52,611.29,1470.67,610.58,1465.93Z"/></g><path class="cls-14" d="M1224.48,952.54c-44.24,2.38-80,5.73-108.91,14.22-59.36,14.85-106.36,61.63-110.57,114.67l-4.19,52.66c-9.57-11-7-9.13-25-8.16a64.28,64.28,0,0,0-17.74,3.49v-.19l-160.25,60c-1.46.49-2.9,1-4.3,1.61h0c-19,8-32.44,24.58-32.64,43.11l-2.79,262.45h479.41"/><path class="cls-28" d="M1012.08,1109.5h0a47.53,47.53,0,0,0-15.8,2.69V1112L850,1167.82l32.3,328.6h177.41V1157.17A47.67,47.67,0,0,0,1012.08,1109.5Z"/><path class="cls-29" d="M869,1163.9h0a47.67,47.67,0,0,1,47.67,47.67v284.85a0,0,0,0,1,0,0H821.32a0,0,0,0,1,0,0V1211.57A47.67,47.67,0,0,1,869,1163.9Z"/><path class="cls-29" d="M1059.75,1293.76l-82.55,32.57a47.63,47.63,0,0,0-30.14,44.3v125.79H1555.2V1338.23l112.68-44.47Z"/><polygon class="cls-29" points="1667.88 1293.76 1667.88 1496.42 1555.2 1496.42 1555.2 1338.23 1667.88 1293.76"/><g class="cls-30"><path class="cls-31" d="M1059.75,1293.76l-82.55,32.57a47.63,47.63,0,0,0-30.14,44.3v125.79H1555.2V1338.23l112.68-44.47Z"/><polygon class="cls-31" points="1667.88 1293.76 1667.88 1496.42 1555.2 1496.42 1555.2 1338.23 1667.88 1293.76"/></g><path class="cls-28" d="M1606.7,950.26H1248.83c-106.58,0-157.92,11-181.92,118.2l19.39,227.06h618.41L1718,1068.46C1721.81,1003.18,1672,950.26,1606.7,950.26Z"/><path class="cls-29" d="M1561.32,955.93h-382c-65.27,0-121.29,52.92-125.11,118.2l-13.28,227.06h618.41l13.28-227.06C1676.42,1008.85,1626.6,955.93,1561.32,955.93Z"/><path class="cls-32" d="M1561.32,955.93h-382c-65.27,0-121.29,52.92-125.11,118.2l-13.28,227.06h618.41l13.28-227.06C1676.42,1008.85,1626.6,955.93,1561.32,955.93Z"/><path class="cls-12" d="M1251.13,1496.42V1370.63a47.63,47.63,0,0,1,30.14-44.3l63.71-25.14,16.33-345.26"/><path class="cls-32" d="M869,1163.9h0a47.67,47.67,0,0,1,47.67,47.67v284.85a0,0,0,0,1,0,0H821.32a0,0,0,0,1,0,0V1211.57A47.67,47.67,0,0,1,869,1163.9Z"/><path class="cls-11" d="M1321.76,1374.47c-17.73,9.79-36.36,19.45-56.61,18.72,7.22,1.78,13,15.68,15.32,21.57a158.36,158.36,0,0,1,11.39,61.34q-.25,10.19-.29,20.32h-77.09c-2.85-10.75-5.84-21.15-8.93-30.94-8.72-27.67-16-49.47-19.63-78.33-3.4-26.82,15.38-38.33,21.44-45.73,23.54-28.75,52-48,81.87-67.74,35.61-23.49,104.36-43.32,93.45-46.58,65.55,19.6,118.73,14.7,174.37,2.67,3.58,15.73,10.23,23.55,10.46,39.21a132,132,0,0,1-1.22,19.16c-7.12,53.52-93.86,75.3-140.06,95-4.34,1.84-17.52,5.42-18.77,10a354.25,354.25,0,0,1-.14,43.54c-1.9,24.08-6.2,42-10.84,59.72h-78.63c-.65-32.7-1.79-71,1.17-95.1,4.62-37.53,7.62-54.17,34.85-78.87,28.61-26,44.9-30.74,73.05-57.92"/><path class="cls-33" d="M1494,888.86c3.62,46.67-25.93,73.42-51.12,111-20.27,30.26-39.5,71.85-35.3,108.82,1.21,10.66,9.64,27.75,24.14,26.55,14.1-1.18,24.08-24,27.79-34.1a312.94,312.94,0,0,0,14.61-53.74c2.38-13.08,3.45-26.6,7.74-39.25,8.63-25.42,21.6-48.8,23.34-75.92.77-11.82-.06-32.25-1.57-44"/><path class="cls-34" d="M1349.17,872.93c.4-11.69-1.35-23.27-.39-35,.36-4.47,3-13.79,7.4-6.52,2,3.35,2.92,8.47,3.16,12.33.55,8.72.52,17.36.91,26.09.58,13.16-.3,27.27,2.75,40.11,5.45-3.26,4.75-8.48,7.63-13.92,2-3.71,9.68-10.72,14.5-7.23,4.39,3.17-3.81,13.7-4.86,17.9-2,7.9,0,16.2-3.12,24.1-2.43,6.26-6.25,9.72-7.23,16.57-1.74,12-9.77,39.86-11.2,51.94-1.6,13.51-13.22,63.85-13.9,68.85,13.71-7.17,69-39.57,86.74-47.31,14.77-6.46,31.79-13,47.75-12.16,2.66,5.8,2.58,13.64,2.77,19.9.33,11,.64,23-2.68,33.61-1.39,4.47-3.24,10.37-4.46,14.12-1.54-8-29-1.08-33.62.33-14.7,4.56-83.88,36.34-97.33,41.09-11.88,4.2-20.2,4.36-32.72,2.17-10.67-1.86-20.9-15.88-19.33-23.83.94-4.79,1.59-16.58,2.16-21.59,2.5-22,44.38-106.77,50.41-129.65-11.72-12.77-34-24.84-30-45,1.14-5.66,4.82-9.51,9.11-13.21a63.43,63.43,0,0,1,16.58-10.84A42.36,42.36,0,0,1,1349.17,872.93Z"/><path class="cls-34" d="M1351,875.51c-1.26-1.75-5.94-6.18-6-8.39,2.21,1.81,6.4-2.5,7.71-4.4,2.44-3.54,1.07-5.64-2.73-7.08-5.62-2.14-16.59-.55-16.39,7s5.49,16.14,9.6,22.15"/><path class="cls-34" d="M1335.17,889.58c.37-2.13.49-4.92,2-6.51.26,2.85,6.27,2.83,8.54,2.44,4.23-.73,4.78-3.17,3.16-6.9-2.4-5.51-11.2-12.25-16.48-6.81s-7.71,15.2-9.14,22.34"/><path class="cls-34" d="M1326.4,895.3c.37-2.13.49-4.92,2-6.51.26,2.85,6.27,2.83,8.54,2.44,4.23-.73,4.78-3.17,3.16-6.9-2.4-5.51-11.2-12.25-16.48-6.81s-7.71,15.2-9.14,22.34"/><path class="cls-24" d="M1538.29,1236.79c8.32-1.32,7.08-5.7,6.6-14.64-4.56-84.46,16.62-95.58,31.6-122,10.12-17.87,19.28-33.09,18.58-54.55-.4-11.93,1-21.71-4.59-32.34-10-18.91-100-25-137.85,3.71-17.7,13.43-49.16,37.53-37.64,66,5.15,12.72,13.69,19.23,12,32.82-1.13,9.34-5.2,39.33-19.07,77.48-7.91,21.76-26.9,29.45-27.43,37.21C1380.54,1230.42,1421.61,1255.36,1538.29,1236.79Z"/><path class="cls-28" d="M1734.24,1109.5h0a47.53,47.53,0,0,0-15.8,2.69V1112l-146.24,55.84,32.3,328.6h177.41V1157.17A47.67,47.67,0,0,0,1734.24,1109.5Z"/><path class="cls-29" d="M1591.15,1163.9h0a47.67,47.67,0,0,1,47.67,47.67v284.85a0,0,0,0,1,0,0h-95.34a0,0,0,0,1,0,0V1211.57A47.67,47.67,0,0,1,1591.15,1163.9Z"/><path class="cls-32" d="M1591.15,1163.9h0a47.67,47.67,0,0,1,47.67,47.67v284.85a0,0,0,0,1,0,0h-95.34a0,0,0,0,1,0,0V1211.57A47.67,47.67,0,0,1,1591.15,1163.9Z"/><path class="cls-33" d="M1750.18,1107.29c-17-2.84-34.67-1.24-50.32,6-8.5,3.94-16.74,8.47-25.29,12.38-5.83,2.67-11.83,5.61-17.86,7.77-3.71,1.33-7.6,1.71-11.25,3.2a15.74,15.74,0,0,1,1.44-.68c-3.47.27-6.73-1.11-10.21-1.59-5.71-.8-11.79-1-17.16,1-3,1.1-6,.88-9.17.23-4.76-1-9.91-.43-14.71.24-3.65.52-6.68,2.24-9.93,4.1-1.84,1.06-4.87,1.82-5.93,3.85-.73,2.25-2.56,4.31-11.23,8.41-3.18,1.51-12,9.55-9.39,13.59-3.07,2.34-6.49,4.61-8.86,7.8a8.41,8.41,0,0,0-2,6.87c.12,1.62.65,6.14,3,5.66.23-2.18,4.31-4.47,5.78-5.59,3.14-2.37,6.15-5,9.4-7.16,4.33-3,8.74-5.9,13.73-7.46a42,42,0,0,1,5.8-1.34,24.37,24.37,0,0,1,3.11-.47c13.91,0,27.7-2,41.56-2.56,16.41-.69,32.27-4.37,48.56-5.67,20.86-1.67,41.79-9.59,61.65-16.5,13.66-4.76,30.95-9.84,23.86-28.14-2.07-5.34-6.78-9.56-11.53-12.41a22.15,22.15,0,0,0-4.76-7.42c-4.57-4.62-10.7-8.1-16-11.88-24.72-17.77-79.48-39.55-89.39-43.75-11.42-4.85-35.08-28.21-66.09-31.27-6.6-.65-14.22,14.15-16.2,19.52-3,8.25-3,17.61-2.81,26.33.18,7.27,2.32,17.82,6.71,23.76,14.57-.6,27.85-.39,41.63,4.42,25.58,8.92,50.69,19,76.73,26.31,3.51,1,7,2.08,10.53,3.17,3.29,1,7.79,1.36,10.7,3.17"/><path class="cls-33" d="M1563,1001.55c-1.61.15-2.32,1.06-3.63,1.67-6.9,3.23-12.67,8.08-18.66,12.72-9.15,7.1-18.75,13.66-28.48,20-13.49,8.75-41,23.59-51.38,2.57-4-8.07-1.23-16.05,2.47-23.6,1-2,1.79-4.79,3.7-5.6,12.62-5.35,17.17-29.7,19.52-42.83,1.79-10,2.92-20,3.89-30.14,1.39-14.47-2.23-23.61-9.14-36.27-8-14.66-21.19-21.06-34.41-30.19-11.63-8-21.9-17.93-29-30a40.43,40.43,0,0,1-4.91-21.22c8.72-.42,13.14,3.53,20.67,7.25,8.6,4.26,17.54,8.33,26.08,12.65,13.11,6.64,26.75,15.35,41.92,16,18.88.8,40-2,54.62,12.06,6.84,6.6,6.23,13.62,6.66,22.74.68,14.25-1.82,27.84-3.17,42.06C1557.72,953.28,1554.5,981.12,1563,1001.55Z"/><circle class="cls-35" cx="1417.43" cy="817.48" r="5.36"/><path class="cls-33" d="M1549,878.2c17.23,45.33-1.35,81-12.76,126.12-9.17,36.31-14,83.57.81,119.07,4.28,10.23,17,24.66,29.66,19,12.34-5.49,14.48-31.28,14.8-42.43a358.44,358.44,0,0,0-2.94-57.94c-1.77-13.74-4.86-27.52-4.78-41.41.15-27.94,4.82-55.16-1.72-82.68a322.72,322.72,0,0,0-14.58-43.28"/><path class="cls-25" d="M1478.93,1092.63c4.73,6.68,15.31,11,23.19,12.2"/><path class="cls-10" d="M1345.51,1065.1c-2.74,15.56-9.83,27.67-22.57,36.6"/><path class="cls-12" d="M1338.19,890.82c0,2.12.91,3.89,1.94,5.7"/><path class="cls-12" d="M1351.21,887.47c-1.34.25-2.73,2.45-3.52,3.44-2.11,2.68-4,5.78-6.32,8.23a36,36,0,0,1-5.32,4.56c-.88.59-1.6,1.34-2.45,2-1,.78-2.34,1.15-3.44,1.84"/><path class="cls-12" d="M1336.06,915.43a57.1,57.1,0,0,1,6.25.55,36.45,36.45,0,0,1,9.35,2.11c4.81,2,8.65,3.71,11.44,8.42"/><path class="cls-12" d="M1364,909c-1.1,1.1-2.48,2-3.6,3.11a17.76,17.76,0,0,0-4.43,7.16"/><path class="cls-25" d="M1536.22,862.24c-1.47-.61-3.74.43-4.72,1.47.55,2.06,4.6,0,4.92-1.45-1.66-.81-4.19.7-5.32,1.9.32,2.56,5.1-.29,5.83-1.35-.91-.86-2.59.15-3.56.54"/><path class="cls-25" d="M1521.89,858.54c-1.18-.59-3.11.15-4,1,.35,1.73,3.79.23,4.14-.94-1.34-.75-3.5.36-4.49,1.29.13,2.13,4.22,0,4.88-.81-.71-.76-2.15,0-3,.26"/><circle class="cls-36" cx="1338.17" cy="960.77" r="4.39"/><circle class="cls-36" cx="1341.99" cy="966.43" r="4.39"/><circle class="cls-36" cx="1365.55" cy="967.45" r="4.39"/><circle class="cls-36" cx="1360.41" cy="969.83" r="4.39"/><circle class="cls-36" cx="1354.56" cy="970.26" r="4.39"/><circle class="cls-36" cx="1347.81" cy="969.97" r="4.39"/><path class="cls-12" d="M597.79,407s80,143.83,248,83.83"/><path class="cls-12" d="M845.79,323.46S788.47,457.1,782.13,551.19"/><rect class="cls-36" x="637.02" y="256.21" width="70.82" height="70.82"/><rect class="cls-37" x="657.13" y="327.03" width="115.42" height="115.42"/></g></g></svg>