<svg xmlns="http://www.w3.org/2000/svg" xmlns:xlink="http://www.w3.org/1999/xlink" viewBox="0 0 2240.78 1683.13"><defs><style>.cls-1,.cls-19,.cls-2,.cls-8{fill:none;}.cls-10,.cls-11,.cls-12,.cls-13,.cls-14,.cls-15,.cls-18,.cls-19,.cls-2,.cls-33,.cls-34,.cls-35,.cls-36,.cls-37,.cls-4,.cls-5,.cls-6,.cls-7,.cls-8,.cls-9{stroke:#000;}.cls-2{stroke-linecap:round;stroke-width:0.5px;}.cls-2,.cls-33,.cls-8,.cls-9{stroke-miterlimit:10;}.cls-3{isolation:isolate;}.cls-4{fill:#debb97;}.cls-10,.cls-11,.cls-12,.cls-13,.cls-14,.cls-15,.cls-18,.cls-19,.cls-34,.cls-35,.cls-36,.cls-37,.cls-4,.cls-5,.cls-6,.cls-7{stroke-linejoin:round;}.cls-10,.cls-11,.cls-12,.cls-13,.cls-14,.cls-15,.cls-18,.cls-19,.cls-33,.cls-34,.cls-35,.cls-36,.cls-37,.cls-4,.cls-5,.cls-6,.cls-7,.cls-8,.cls-9{stroke-width:2px;}.cls-5{opacity:0.26;fill:url(#_10_dpi_20_4);}.cls-6{fill:#9e7842;}.cls-7,.cls-9{fill:#cbae78;}.cls-11{fill:#884a16;}.cls-12{fill:#d8c4bd;}.cls-13{fill:#f5f9f1;}.cls-14{fill:#c5d7ea;}.cls-15{fill:#5a8bba;}.cls-16{opacity:0.08;mix-blend-mode:multiply;}.cls-17{fill:url(#_10_dpi_20_);}.cls-18{fill:#f5bf9a;}.cls-20{clip-path:url(#clip-path);}.cls-21{clip-path:url(#clip-path-2);}.cls-22{fill:gray;}.cls-23{clip-path:url(#clip-path-3);}.cls-24{fill:#858585;}.cls-25{clip-path:url(#clip-path-4);}.cls-26{clip-path:url(#clip-path-5);}.cls-27{clip-path:url(#clip-path-6);}.cls-28{clip-path:url(#clip-path-7);}.cls-29{clip-path:url(#clip-path-8);}.cls-30{clip-path:url(#clip-path-9);}.cls-31{fill:#f1f1f1;}.cls-32{clip-path:url(#clip-path-10);}.cls-33{fill:#d20a11;}.cls-34{fill:#413253;}.cls-35{fill:#ce9fb5;}.cls-36{fill:#ffdf8c;}.cls-37{fill:#92b193;}</style><pattern id="_10_dpi_20_4" data-name="10 dpi 20% 4" width="28.8" height="28.8" patternTransform="translate(382.74 742.6) scale(4.43)" patternUnits="userSpaceOnUse" viewBox="0 0 28.8 28.8"><rect class="cls-1" width="28.8" height="28.8"/><path class="cls-2" d="M12.72,10.43c0,.15,0,.24.21.25,0-.15-.1-.15-.21-.21"/><path class="cls-2" d="M22,4.14c-.15.05-.21.13-.15.3.27.08.42-.13.35-.37a.27.27,0,0,0-.24.2"/><path class="cls-2" d="M23.05,17.27c-.18.74.75,0,.13-.17a.17.17,0,0,0-.13.17"/><path class="cls-2" d="M7.09,21.77c0,.12.06.2.21.19s0-.12,0-.19"/><path class="cls-2" d="M4.84,13.18a1.89,1.89,0,0,1-.09.21c.16,0,.11,0,.23,0s-.06-.1-.14-.08"/><path class="cls-2" d="M6.84,3.85c-.15.16-.06.4.21.37.23-.41-.39-.64-.42-.2,0,.59.93-.29.26-.34a.27.27,0,0,0,.08.4.26.26,0,0,0,0-.42.36.36,0,0,0,.08.4"/><path class="cls-2" d="M16.18,23.72c0-.06.06,0,0-.12s-.61.52-.45.71.66-.26.56-.53c-.53-.08-.34.65,0,.39s-.48-.7-.2-.07"/><path class="cls-2" d="M2.34,16.27c.07,0,.15.06.16-.17-.25,0-.25.26,0,.29"/><path class="cls-2" d="M27.22,8.06c.07,0,.13.07.16-.13a.52.52,0,0,0-.18.18.12.12,0,0,0,.14,0"/><path class="cls-2" d="M28.09,25.31s-.05,0,0,0a.75.75,0,0,1,0-.15c-.07,0,0,.06,0,.08"/><path class="cls-2" d="M1.34.64l0,.13"/><path class="cls-2" d="M16.05,5.89a.43.43,0,0,0-.21.17"/><path class="cls-2" d="M18.43,7a.24.24,0,0,1,.08.09"/><path class="cls-2" d="M2.59,25.22s0,0,0,0"/><path class="cls-2" d="M5.22,26.43c0,.12,0,.2.15.21a.27.27,0,0,0-.18-.38.39.39,0,0,0,0,.26"/><path class="cls-2" d="M4.09,6.27c-.09,0-.16,0-.18.11a.27.27,0,0,0,.44-.19A.32.32,0,0,0,4,6.45a.17.17,0,0,0,.22.07"/><path class="cls-2" d="M26.72,1a.62.62,0,0,0,0,.33"/><path class="cls-2" d="M16.18,14.72a.79.79,0,0,0-.38.21"/><path class="cls-2" d="M21.47,27.68c.06.09.06.17.2.16,0-.19-.13-.32-.32-.34-.1.23.14.64.39.38s0-.71-.31-.57a.4.4,0,0,0,.4.43.14.14,0,0,0,.05-.18"/><path class="cls-2" d="M24.3,22.27c0,.06,0,.09,0,.13s0-.11,0-.18"/><path class="cls-2" d="M12.05,29c.08,0,.11.09.21.08s-.09,0-.17-.08"/><path class="cls-2" d="M28.59,13.64c-.09,0-.1,0,0,0"/><path class="cls-2" d="M9.63,16.77s.07.06.09,0,0-.05,0-.09"/><path class="cls-2" d="M21.93,10.22v0"/><path class="cls-2" d="M-.21,13.64c-.09,0-.1,0,0,0"/><path class="cls-2" d="M12.05.17c.08,0,.11.09.21.08s-.09,0-.17-.08"/></pattern><pattern id="_10_dpi_20_" data-name="10 dpi 20%" width="28.8" height="28.8" patternTransform="translate(382.74 742.6) scale(4.43)" patternUnits="userSpaceOnUse" viewBox="0 0 28.8 28.8"><rect class="cls-1" width="28.8" height="28.8"/><path class="cls-2" d="M9.11,28a4,4,0,0,0,0,2.13"/><path class="cls-2" d="M6.45,8.27a17.88,17.88,0,0,0,.79,6.66"/><path class="cls-2" d="M15.15,6.18A10.42,10.42,0,0,1,15,9.38"/><path class="cls-2" d="M10.51,4.15a8.6,8.6,0,0,0,.27,3.46"/><path class="cls-2" d="M6.31,4A10.69,10.69,0,0,1,6.4,5.78"/><path class="cls-2" d="M12.55,8.69l-.31,2.17"/><path class="cls-2" d="M14.81,1.61a7.9,7.9,0,0,0-.57,2.88"/><path class="cls-2" d="M20.11,13.61a10.13,10.13,0,0,1,.29,2.25"/><path class="cls-2" d="M20.17,2.16a22.46,22.46,0,0,0-.4,3.37"/><path class="cls-2" d="M25.57,6.29a6.24,6.24,0,0,0-.1,3"/><path class="cls-2" d="M12.54,16a10.72,10.72,0,0,1,.23,2.71"/><path class="cls-2" d="M5.45,20a9.91,9.91,0,0,0-.51,3.33"/><path class="cls-2" d="M10.35,24.61a4.52,4.52,0,0,0,.09,2.13"/><path class="cls-2" d="M20.44,24.11a7.63,7.63,0,0,1,0,1.17"/><path class="cls-2" d="M3,12.7a3.7,3.7,0,0,0,.18,2.08"/><path class="cls-2" d="M3.81,7.45a8.55,8.55,0,0,0,.51,3.08"/><path class="cls-2" d="M15.17,20.43a8.45,8.45,0,0,1,0,2.46"/><path class="cls-2" d="M25.43,11.45a7.43,7.43,0,0,1-.25,3"/><path class="cls-2" d="M16.47,14a16.1,16.1,0,0,0,.32,4.54"/><path class="cls-2" d="M21.65,8.61A9.85,9.85,0,0,1,21.89,11"/><path class="cls-2" d="M17.69,20.76a40.5,40.5,0,0,1-1.08,5.12"/><path class="cls-2" d="M12.13,20.61a13.65,13.65,0,0,0,.53,3.17"/><path class="cls-2" d="M8.38,18.38a24,24,0,0,0-.4,5.8"/><path class="cls-2" d="M1.26,18.07a19.89,19.89,0,0,0,.57,5"/><path class="cls-2" d="M4,16.53a17,17,0,0,0-.45,2.83"/><path class="cls-2" d="M3,24.37A23,23,0,0,0,3.7,28"/><path class="cls-2" d="M6.86,26.45c-.05,1-.05,2,0,3"/><path class="cls-2" d="M14.44,26.2a11.18,11.18,0,0,0,.17,3.16"/><path class="cls-2" d="M18.49,26.61A11.84,11.84,0,0,0,18.28,29"/><path class="cls-2" d="M22.53,24.86c0,.89-.05,1.78,0,2.67"/><path class="cls-2" d="M25,24.57c.05,1.7.16,3.4.33,5.09"/><path class="cls-2" d="M25.38,17.81c-.08.94-.12,1.88-.13,2.83"/><path class="cls-2" d="M27.39,23.24l.17,1.87"/><path class="cls-2" d="M23.1,1a5.81,5.81,0,0,1,0,2.42"/><path class="cls-2" d="M27.14,2.11l-.09,2"/><path class="cls-2" d="M27.71,8.4a5.07,5.07,0,0,0,.75,2.75"/><path class="cls-2" d="M27.92,15a10.3,10.3,0,0,0-.14,2.29"/><path class="cls-2" d="M1.44,5.45a18.78,18.78,0,0,0-.12,3"/><path class="cls-2" d="M3.71,3a8.54,8.54,0,0,0,.57,2.83"/><path class="cls-2" d="M1.23.28,1.1,2.15"/><path class="cls-2" d="M9.11-.85a4,4,0,0,0,0,2.13"/><path class="cls-2" d="M11.9.53V2.41"/><path class="cls-2" d="M17.19,3a4.76,4.76,0,0,0,0,1.25"/><path class="cls-2" d="M9.23,9a7.63,7.63,0,0,0-.07,3.33"/><path class="cls-2" d="M.61,13c0,.64-.06,1.27,0,1.91"/><path class="cls-2" d="M.34,25.41a11.3,11.3,0,0,0,.35,2.08"/><path class="cls-2" d="M17.93,7a9.78,9.78,0,0,0,.72,4.63"/><path class="cls-2" d="M15,11.26a13.65,13.65,0,0,0-.3,3.37"/><path class="cls-2" d="M23.17,5.41a10.62,10.62,0,0,1-.12,2.25"/><path class="cls-2" d="M22.73,13.53a9.82,9.82,0,0,0,.38,2.69"/><path class="cls-2" d="M18.63,16.75a4.73,4.73,0,0,0,.06,1.19"/><path class="cls-2" d="M27.91,19.59a5.65,5.65,0,0,0-.11,1.69"/><path class="cls-2" d="M27.23,27.66A4.23,4.23,0,0,0,27.36,29"/><path class="cls-2" d="M10.79,13.72A4.84,4.84,0,0,0,10.36,16"/><path class="cls-2" d="M5.91,16.53l.32,1.63"/><path class="cls-2" d="M19.86,19.72l-.12,2.44"/><path class="cls-2" d="M22.16,18.34a13.06,13.06,0,0,0,.7,4.56"/><path class="cls-2" d="M6.86-2.35c-.05,1-.05,2,0,3"/><path class="cls-2" d="M14.44-2.6A11.18,11.18,0,0,0,14.61.56"/><path class="cls-2" d="M18.49-2.19A11.84,11.84,0,0,0,18.28.19"/><path class="cls-2" d="M25-4.23c.05,1.7.16,3.39.33,5.08"/><path class="cls-2" d="M27.23-1.15A4.26,4.26,0,0,0,27.36.23"/></pattern><clipPath id="clip-path"><path class="cls-1" d="M571.09,380.9,562.94,385a1.06,1.06,0,0,1-.25.09l8.15-4.1A.73.73,0,0,0,571.09,380.9Z"/></clipPath><clipPath id="clip-path-2"><path class="cls-1" d="M495.94,286.26l8.15-4.09a.88.88,0,0,0-.48.65l-8.16,4.09A.94.94,0,0,1,495.94,286.26Z"/></clipPath><clipPath id="clip-path-3"><path class="cls-1" d="M527.67,382.45l8.15-4.09a1.34,1.34,0,0,1,.47-.12l-8.15,4.09A1.6,1.6,0,0,0,527.67,382.45Z"/></clipPath><clipPath id="clip-path-4"><path class="cls-1" d="M527.71,382.42l8.16-4.09a1,1,0,0,0-.31.24l-8.15,4.1A.89.89,0,0,1,527.71,382.42Z"/></clipPath><clipPath id="clip-path-5"><path class="cls-1" d="M535.37,379.39l-8.15,4.09a1,1,0,0,1,.19-.81l8.15-4.1A1,1,0,0,0,535.37,379.39Z"/></clipPath><clipPath id="clip-path-6"><path class="cls-1" d="M549.39,442.4l-8.15,4.09a1.06,1.06,0,0,1-.25.09l8.15-4.09A.92.92,0,0,0,549.39,442.4Z"/></clipPath><clipPath id="clip-path-7"><path class="cls-1" d="M513.57,383.24l-8.15,4.09a1.08,1.08,0,0,0-.49-.7l8.15-4.09A1.08,1.08,0,0,1,513.57,383.24Z"/></clipPath><clipPath id="clip-path-8"><path class="cls-1" d="M513.08,382.54l-8.15,4.09a1,1,0,0,0-.64-.12l8.15-4.09A1,1,0,0,1,513.08,382.54Z"/></clipPath><clipPath id="clip-path-9"><path class="cls-1" d="M525.46,446.66l-8.15,4.09a1,1,0,0,1-1.14-.82l8.15-4.09A1,1,0,0,0,525.46,446.66Z"/></clipPath><clipPath id="clip-path-10"><path class="cls-1" d="M481.35,396.75l-8.15,4.09a1.05,1.05,0,0,1-1-.19,1,1,0,0,1-.33-1l8.15-4.09a1.08,1.08,0,0,0,.33,1A1.05,1.05,0,0,0,481.35,396.75Z"/></clipPath></defs><title>Leadership</title><g class="cls-3"><g id="Layer_1" data-name="Layer 1"><path class="cls-4" d="M1402,725.35s33.75-22.41,65.75,0,65,93.69,53,128-39.47,114.08-25.24,156.72-15.36,76.64-15.36,76.64,20.6-37-4.4-61-39-23.29-40-56.15-27.14-71.69-27.14-71.69"/><polygon class="cls-4" points="1912.6 1341.87 705.42 1341.87 328.18 1225.85 1535.36 1225.85 1912.6 1341.87"/><polygon class="cls-5" points="1912.6 1341.87 705.42 1341.87 328.18 1225.85 1535.36 1225.85 1912.6 1341.87"/><polygon class="cls-6" points="328.18 1345.37 705.42 1461.28 705.42 1341.87 328.18 1225.96 328.18 1345.37"/><rect class="cls-7" x="705.42" y="1341.87" width="1207.18" height="119.41"/><polygon class="cls-5" points="328.18 1345.37 705.42 1461.28 705.42 1341.87 328.18 1225.96 328.18 1345.37"/><rect class="cls-5" x="705.42" y="1341.87" width="1207.18" height="119.41"/><polyline class="cls-8" points="718.2 1365.6 718.2 1398.74 760.53 1398.74 760.53 1366.41 733.71 1366.41 733.71 1383.72 747.5 1383.72"/><polyline class="cls-8" points="775.19 1365.6 775.19 1398.74 817.52 1398.74 817.52 1366.41 790.7 1366.41 790.7 1383.72 804.48 1383.72"/><polyline class="cls-8" points="832.17 1365.6 832.17 1398.74 874.5 1398.74 874.5 1366.41 847.68 1366.41 847.68 1383.72 861.47 1383.72"/><polyline class="cls-8" points="889.16 1365.6 889.16 1398.74 931.49 1398.74 931.49 1366.41 904.67 1366.41 904.67 1383.72 918.46 1383.72"/><polyline class="cls-8" points="946.14 1365.6 946.14 1398.74 988.48 1398.74 988.48 1366.41 961.65 1366.41 961.65 1383.72 975.44 1383.72"/><polyline class="cls-8" points="1003.13 1365.6 1003.13 1398.74 1045.46 1398.74 1045.46 1366.41 1018.64 1366.41 1018.64 1383.72 1032.43 1383.72"/><polyline class="cls-8" points="1060.11 1365.6 1060.11 1398.74 1102.45 1398.74 1102.45 1366.41 1075.63 1366.41 1075.63 1383.72 1089.41 1383.72"/><polyline class="cls-8" points="1117.1 1365.6 1117.1 1398.74 1159.43 1398.74 1159.43 1366.41 1132.61 1366.41 1132.61 1383.72 1146.4 1383.72"/><polyline class="cls-8" points="1174.09 1365.6 1174.09 1398.74 1216.42 1398.74 1216.42 1366.41 1189.6 1366.41 1189.6 1383.72 1203.38 1383.72"/><polyline class="cls-8" points="1231.07 1365.6 1231.07 1398.74 1273.4 1398.74 1273.4 1366.41 1246.58 1366.41 1246.58 1383.72 1260.37 1383.72"/><polyline class="cls-8" points="1288.06 1365.6 1288.06 1398.74 1330.39 1398.74 1330.39 1366.41 1303.57 1366.41 1303.57 1383.72 1317.35 1383.72"/><polyline class="cls-8" points="1345.04 1365.6 1345.04 1398.74 1387.38 1398.74 1387.38 1366.41 1360.55 1366.41 1360.55 1383.72 1374.34 1383.72"/><polyline class="cls-8" points="1402.03 1365.6 1402.03 1398.74 1444.36 1398.74 1444.36 1366.41 1417.54 1366.41 1417.54 1383.72 1431.32 1383.72"/><polyline class="cls-8" points="1459.01 1365.6 1459.01 1398.74 1501.35 1398.74 1501.35 1366.41 1474.52 1366.41 1474.52 1383.72 1488.31 1383.72"/><polyline class="cls-8" points="1516 1365.6 1516 1398.74 1558.33 1398.74 1558.33 1366.41 1531.51 1366.41 1531.51 1383.72 1545.3 1383.72"/><polyline class="cls-8" points="1572.98 1365.6 1572.98 1398.74 1615.32 1398.74 1615.32 1366.41 1588.49 1366.41 1588.49 1383.72 1602.28 1383.72"/><polyline class="cls-8" points="1629.97 1365.6 1629.97 1398.74 1672.3 1398.74 1672.3 1366.41 1645.48 1366.41 1645.48 1383.72 1659.27 1383.72"/><polyline class="cls-8" points="1686.95 1365.6 1686.95 1398.74 1729.29 1398.74 1729.29 1366.41 1702.46 1366.41 1702.46 1383.72 1716.25 1383.72"/><polyline class="cls-8" points="1743.94 1365.6 1743.94 1398.74 1786.27 1398.74 1786.27 1366.41 1759.45 1366.41 1759.45 1383.72 1773.24 1383.72"/><polyline class="cls-8" points="1800.92 1365.6 1800.92 1398.74 1843.26 1398.74 1843.26 1366.41 1816.44 1366.41 1816.44 1383.72 1830.22 1383.72"/><polyline class="cls-8" points="1857.91 1365.6 1857.91 1398.74 1900.24 1398.74 1900.24 1366.41 1873.42 1366.41 1873.42 1383.72 1887.21 1383.72"/><line class="cls-9" x1="705.42" y1="1355.28" x2="1912.6" y2="1355.28"/><line class="cls-9" x1="705.42" y1="1410.5" x2="1912.6" y2="1410.5"/><polyline class="cls-8" points="337.24 1251.52 337.24 1284.65 376.46 1296.83 376.46 1264.5 351.61 1256.78 351.61 1274.09 364.38 1278.06"/><polyline class="cls-8" points="390.04 1267.91 390.04 1301.05 429.27 1313.22 429.27 1280.89 404.42 1273.17 404.42 1290.48 417.19 1294.45"/><polyline class="cls-8" points="442.85 1284.3 442.85 1317.44 482.08 1329.62 482.08 1297.28 457.22 1289.56 457.22 1306.88 470 1310.84"/><polyline class="cls-8" points="495.66 1300.69 495.66 1333.83 534.88 1346.01 534.88 1313.67 510.03 1305.96 510.03 1323.27 522.81 1327.23"/><polyline class="cls-8" points="548.46 1317.08 548.46 1350.22 587.69 1362.4 587.69 1330.06 562.84 1322.35 562.84 1339.66 575.61 1343.63"/><polyline class="cls-8" points="601.27 1333.48 601.27 1366.61 640.5 1378.79 640.5 1346.45 615.64 1338.74 615.64 1356.05 628.42 1360.02"/><polyline class="cls-8" points="654.08 1349.87 654.08 1383.01 693.31 1395.18 693.31 1362.85 668.45 1355.13 668.45 1372.44 681.23 1376.41"/><line class="cls-9" x1="328.18" y1="1238.15" x2="704.76" y2="1355.28"/><line class="cls-9" x1="328.18" y1="1293.36" x2="704.76" y2="1410.5"/><ellipse class="cls-10" cx="1600.43" cy="1281.89" rx="17.75" ry="122.65" transform="translate(255.64 2829.84) rotate(-87.71)"/><path class="cls-11" d="M870.74,302.41c-6-2.23-10.24-7.42-10.38-14-.12-6,2.39-7-.52-12.23-8.6-15.48,2.89-32.78,19.91-35.15,1.8-.25,4.75.14,6.24-.77,2.6-1.59,5.38-6.55,8-8.67,7.41-5.94,17-10.81,26.77-9.51,5.39.72,10.26,3.48,14.51,6.66,3.4,2.55,5.31,6.24,8.46,8.73,5.09,4,11.67-.89,17.76,3.81a19.9,19.9,0,0,1,5.56,6.59c1.55,3.39.25,6.94,3.13,9.47,4.33,3.81,12.28,2.12,17.25,6.25,3.15,2.62,4.3,5.55,5.66,9.27,11.91-5.48,20.54,5.74,24.53,16.09,2.14,5.53,4.41,12.92,2.4,18.79-1.27,3.72-5,6.57-6.08,10.29-1.17,4.19,1.63,5.95,4,10.2,4.21,7.51,7,17.37,4.83,26a29.31,29.31,0,0,1-14.46,18c-4.56,2.44-4.83,1.56-4.71,6.41.21,8.4-1.75,13.44-9.45,17.91-6.7,3.9-13.1,4.49-19.91,1.25.13,6.89-3.87,10-9.48,12.45-7.09,3.08-11,4.06-17.43-2.46"/><ellipse class="cls-10" cx="1006.48" cy="1281.16" rx="37.72" ry="475.08" transform="translate(-287.91 2270.57) rotate(-89.24)"/><path class="cls-12" d="M978.52,1232.7c-5.47,3.62-8.68,11.78-11,17.41a72.24,72.24,0,0,0-4.34,13.06c-.95,4.73,3.05,6.1,7.59,6.4a169.16,169.16,0,0,0,19.76.48c12-.63,23.62-.48,32-9.44,3.34-3.56,4.48-7.53,4.53-12.29,7.23-1.11,2.71-17.57,1.46-21.44l-39-35.91"/><path class="cls-13" d="M954.05,995.91c4,5.55,5,15.7,6.5,22.82,4.59,21.5,10.56,42.63,14.43,64.35,2,11.2,5,22,8,32.92,2.35,8.46,3.47,17.29,7.17,25.45,7.38,16.25,16.1,31.72,22.1,48.59,2.64,7.42,5.19,14.91,9.16,21.78,3.16,5.49,7.11,10.64,8.73,16.58-5.34-1.48-13.54-12.51-14,.32-2.59-2.2-3.32-7-6.26-8.35-3.1,4.75-.06,13.16.89,18.32a31.22,31.22,0,0,1-4.61-3.21c-2.23-1.85-4.42-6-7.05-6.84-3,4.37-7,8.47-9.08,13.36a23,23,0,0,1-5.36-11.64c-3-.26-5.24,1.27-7.48,2.4-.64-9.46.88-18.8-.52-28.34s-4-19.44-6.18-29c-2-8.7-3.35-16.76-7.34-24.94-3.57-7.31-8-13.65-12.88-20.27-5.33-7.31-8.67-15.76-13-23.59-7.14-12.84-11.86-26.57-18-39.82-8.09-17.38-17.24-34.49-25.2-51.82l27.39-61.62"/><path class="cls-12" d="M1240.34,1211.12c-3.9,5-9.08,8.67-12.7,14.52-4.32,7-7.42,12.87-9.32,20.91-1.61,6.82-1.71,7,5,9.49,11.93,4.41,22.37,4.78,34.92,4.78,10.45,0,25.45,2.64,29.61-9.58.94-2.77.52-5,1.78-7.65,1.58-3.28,4.6-3.3,4.06-9.11l-6.71-56.23"/><path class="cls-12" d="M1435.4,1249.26c-8.45,7.09-14.21,19.89-16.77,30.52-1.93,8-2.87,10.62,4,13.17,13.61,5,32.39,6.87,46,1.3,8.52-3.49,16.24-7.25,17-16.84a62.52,62.52,0,0,1,1.18-8.53c.68-2.89,3.25-4.39,0-7.64l-20.32-53.8"/><path class="cls-13" d="M1247.36,932.08c11.79,11.76,14.72,30.84,19.41,45.32,5.21,16.09,11.59,32.78,14.89,49.22,5,24.83,11.75,51.62,9.72,76.94-2,24.85-17.82,47.27-27.37,70.26-6.09,14.66-14.63,25.17-24.86,37.66,4.75.66,9.07-1.94,13.94-1.49-.2,2.43-1.43,4.88-1.12,7.37,2.89-.32,5.91-2.92,8.86-3.59,0,2.6,0,5.51,1.89,7.52,6.78-14,10,7.46,15.53,12.18a35.53,35.53,0,0,1,4.5-13.27c2,6.4,8.94,11.19,13,16.67.91-11.36-4.3-22.6-1.75-34.09,3.52-15.9,9.32-32.38,15.11-47.78,9.5-25.23,22-50.43,34.28-74.81,3-6,6.46-12.74,7.48-19.17s-2.74-11.85-4.9-17.61c-2.81-7.49-4.08-20.34-4.85-28.12l-20.45-140.75"/><path class="cls-6" d="M1092.59,686.64s-27.4,18.48-34.5,31.92c-3.9,7.38-4.82,35.14-4.82,35.14s11.59,9.89,8.79,15-50.78.73-72.22-10.91,8.86-19,51.81-10c.31-10.59.19-23.94,6.51-35.58,10.09-18.56,31.87-32.42,31.87-32.42"/><path class="cls-14" d="M1405.56,317c21.57.47,47.19,19.59,57.12,42.61s.46,41.39-21.11,40.92S1394.39,381,1384.46,358,1384,316.57,1405.56,317Z"/><path class="cls-15" d="M1441.58,400.59c-.61,0-1.21,0-1.82-.09l-.38,0c-.59,0-1.19-.1-1.79-.18l-.31,0c-.48-.06-1-.13-1.43-.21l-.72-.12-1.33-.26-.61-.13c-.64-.14-1.29-.3-1.93-.47l-.13,0c-.61-.16-1.22-.34-1.82-.52l-.64-.21-1.32-.43-.73-.26-1.25-.47-.73-.29-1.32-.55-.63-.27-.71-.33c-.58-.26-1.15-.54-1.73-.82l-.82-.41c-.54-.28-1.08-.56-1.61-.85l-.79-.43c-.63-.35-1.26-.72-1.88-1.09l-.45-.27c-.77-.47-1.54-.95-2.29-1.45l-.62-.42c-.56-.37-1.11-.75-1.66-1.14l-.78-.57c-.5-.36-1-.74-1.5-1.12l-.75-.58c-.57-.45-1.15-.91-1.71-1.38l-.45-.37q-1.07-.9-2.1-1.83l-1.6-1.48-.26-.25c-.45-.44-.9-.87-1.34-1.32l-.51-.52c-.36-.37-.72-.74-1.07-1.12-.18-.18-.35-.37-.52-.55-.39-.42-.77-.84-1.14-1.27l-.36-.4c-.49-.56-1-1.13-1.44-1.7l-.33-.41c-.36-.44-.71-.89-1.06-1.34l-.46-.59c-.3-.41-.61-.81-.9-1.22-.16-.21-.31-.42-.46-.64l-1-1.35-.33-.49q-.61-.93-1.2-1.86l-.24-.41c-.31-.49-.6-1-.89-1.49l-.38-.66-.71-1.29-.36-.7c-.24-.45-.46-.9-.68-1.35-.1-.21-.21-.41-.3-.62-.32-.66-.62-1.31-.9-2s-.66-1.58-1-2.36c-.06-.15-.12-.3-.17-.45-.28-.76-.54-1.5-.78-2.25l-.12-.41c-.21-.67-.4-1.33-.57-2,0-.13-.07-.26-.11-.4-.18-.73-.34-1.46-.49-2.18,0-.17-.06-.34-.1-.52-.11-.6-.2-1.19-.29-1.78l-.06-.45c-.09-.7-.16-1.39-.21-2.06l0-.46c0-.56,0-1.12-.06-1.67v-.47c0-.65,0-1.29.06-1.91,0-.4.07-.77.11-1.16s.06-.67.11-1,.13-.75.2-1.12.1-.64.17-.95.18-.72.28-1.08.15-.6.24-.89.24-.7.36-1,.19-.57.3-.84.31-.67.46-1,.23-.52.35-.76.38-.67.57-1,.25-.46.38-.67c.23-.37.48-.71.73-1.05.12-.17.23-.35.36-.52q.58-.75,1.23-1.44L1180.3,544.76a18.71,18.71,0,0,0-1.22,1.45c-.13.16-.24.34-.37.51-.24.35-.5.69-.72,1s-.26.45-.39.67-.39.66-.57,1-.23.51-.34.76-.32.67-.46,1-.2.55-.3.83-.26.69-.37,1-.16.6-.24.89-.2.72-.28,1.09-.11.63-.17.94-.14.74-.2,1.12-.07.66-.1,1-.09.77-.12,1.16c0,0,0,.08,0,.12,0,.59,0,1.18,0,1.79,0,.16,0,.31,0,.47q0,.83.06,1.68c0,.15,0,.3,0,.45,0,.68.12,1.37.21,2.06,0,.15,0,.31.07.46.08.58.18,1.18.29,1.77l.09.53c.15.72.31,1.44.5,2.18,0,.13.07.26.1.39.1.39.2.77.32,1.16s.16.55.25.83.08.28.13.42c.23.74.49,1.49.77,2.24,0,.15.11.3.17.45.3.78.61,1.57.95,2.37s.59,1.32.9,2l.3.62c.22.46.45.9.68,1.35.12.24.24.47.37.7.23.43.47.87.71,1.29.12.22.24.44.37.66.29.5.59,1,.89,1.5l.24.4c.39.63.79,1.25,1.21,1.86.1.17.22.32.33.49.31.45.62.91.94,1.36l.46.63.46.63c.14.2.3.39.45.59l.45.59,1.07,1.35.32.4c.47.57,1,1.14,1.44,1.7l.36.4,1.14,1.27c.17.19.35.37.52.55.35.38.71.75,1.08,1.13l.51.52c.44.44.88.88,1.34,1.31l.25.25c.49.47,1,.92,1.48,1.37l.12.11q1,.95,2.1,1.83l.45.37,1.72,1.39.74.57c.5.38,1,.76,1.51,1.13l.77.56c.55.39,1.1.77,1.66,1.14l.62.42c.76.5,1.52,1,2.29,1.45l.45.27c.62.37,1.25.74,1.88,1.09l.79.43,1.61.85.83.41c.57.29,1.15.56,1.72.82l.51.24.2.09.64.27,1.31.55.73.29,1.25.47.73.26,1.32.44.64.2c.61.19,1.22.36,1.82.53l.13,0c.64.17,1.29.33,1.94.47l.6.13,1.34.26.71.12.66.11.77.1.32,0c.59.07,1.19.13,1.78.17l.38,0c.61,0,1.22.08,1.82.09,8.32.18,14.84-2.44,19.14-7l206.12-220.69C1456.42,398.15,1449.9,400.77,1441.58,400.59Z"/><path class="cls-6" d="M1253.55,572.74,1116.91,452.32s-12-15.88-21.56-22.77-13-1.79-5.65,6.36,7.69,9.43,7.69,9.43-18.46,9.06-5.75,20.5,19.56,11.85,19.56,11.85,70,69.8,119.93,112"/><ellipse class="cls-6" cx="1288.37" cy="623.55" rx="93.21" ry="59.44" transform="translate(-31.9 70.74) rotate(-3.11)"/><path class="cls-13" d="M1243.43,827.58c9.93,31.29,24.77,58.06,42,86a110.92,110.92,0,0,0,22,26.55c6.72,6,13.65,12.65,18.22,20.45,23.75,40.61,45.88,80.54,78.17,115.32,6.56,7.07,13.16,14.31,18,22.64,8.7,14.91,9.84,32.27,10.25,49.38.58,24.22,3.59,64.9,3.59,89.16,0,1.81-1.19,11.29.42,12.67s8-1.52,10.87-1.29c0,3.4-.36,9.23,2.31,11.28,3-5.3,9.78-7.54,14.52-11.09-.58,9,5.83,17.75,13.16,22.32-.5-4.24-2.17-13.57,1.84-16.12,4.47,4.47,11,5.68,16.78,8.07-4.78-3.26-10-16.21-12-21.66-3.63-10-5.77-38.39-7.73-48.77-2.81-14.91-7.39-29-9.14-44.2-1.86-16-4-32.13-4.64-48.21s1.25-33-.62-48.89c-1.75-14.86-20.2-25.51-27-38a67,67,0,0,1-3.52-8.59c-3.15-8.28-7.07-17.07-9.14-25.72-.88-3.71-1.84-7.51-2.32-11.11-.92-6.86-.65-7.12-5.28-12.08-3.69-4-3.46-4.52-3.15-9.8.38-6.45,2.27-12.59,4-18.85,4.49-15.81,10.8-31.14,15.28-47,15.28-54.31,7.06-110.86-18.07-161.42,1-6.12-20.65-11.35-25-13q-22.08-8.51-44-17.34c-31.53-12.69-64.9-19.85-99.23-20-37.73-.18-76.94,8.72-112.73,20-38.75,12.15-81.27,27.84-122.16,28-38.5.19-32.76-21.53-71.39-16.93-29.79,3.55-70.2,28.75-125,39.65-14.72,2.94-23.62,30.18-25.24,43-2.91,23-3.83,48.09,1.27,70.79,4.61,20.5,22.73,44.85,20.15,65.83-6.29,51.06,42.12,72.42,46.7,73.21,7.92,1.35,11.42,22,19.32,21,15.78-2,30.61-5,44.9-11.17,51.07-10.85,99.42,17.15,150.3,17.11,36.24,0,71-11.09,102.76-28C1201,975.86,1225.41,955.78,1255,944c12.93-5.16,27.85-10.52,41.63-12.72"/><path class="cls-12" d="M791.12,1267.28c-3,1.25-4.49,5.76-5.91,8.4-4,7.34-7.73,14.06-8.9,22.44-.5,3.61-2.94,11.08-1.66,14.58.67,1.83,2.26,2.36,4.35,3.26,6.81,2.93,14,2.83,21.31,3.11a214.38,214.38,0,0,0,33.33-1.43c10.06-1.22,21.17-1.4,23.06-13.06a70.28,70.28,0,0,0,.67-16.14c-.31-3.73-2.28-8.57-1.7-12.23.31-1.94,1.78-2.91,2.51-4.73s.53-4,.53-6c0-5.34-1.42-8.3-3.36-13.31L835,1208.64"/><path class="cls-13" d="M918.24,1016.74c7.58-5,14.86-11.41,22.54-16.62,9.17-6.23,18.21-9.13,26-17.22,6.1-6.36,11.92-14.67,11.46-23.58-.32-6-2.12-11.77-3.86-17.49a272.64,272.64,0,0,1-10.7-55.22"/><path class="cls-13" d="M855,891.82c6.88,5.59,6.81,14.34,5.27,19.67-3.87,13.37-6,27.11-9.58,40.57-5.25,20-4,40-4,60.54,0,33.75-10.68,64.86-18.52,97.37-11,45.45.79,96.13-25.34,137.65-4.58,7.27-10.74,14-13.32,22,0-1.59,10.57-7,12.89-9.69-.82,2.56-2,5.09-2.58,7.71,4.17-2,9.11-6.49,12.53-9.74,1.76,4.17,2.61,9.12,5,12.91,1.7-4.11,5.35-7.34,7.85-11,2.57,6.16,4.38,13.72,7.43,19.81,2,3.91,5.12,7.12,7.42,10.81.48-11.53,2.67-31.87,11.59-40.68a32.5,32.5,0,0,0,6.63,7.79,199.35,199.35,0,0,1-5.51-21.94c-3-16.38.57-32.92,5.55-48.93A445.79,445.79,0,0,1,875.65,1141c6.73-15.31,7.4-29.72,10.41-46,4-21.76,12.34-45.15,23.59-64.08,16.72-28.12,38.64-52.26,51.47-82.78"/><g class="cls-16"><path class="cls-17" d="M1483.52,1241.28c-3.63-10-5.77-38.39-7.73-48.77-2.81-14.91-7.39-29-9.14-44.2-1.86-16-4-32.13-4.64-48.21s1.25-33-.62-48.89c-1.75-14.86-20.2-25.51-27-38a67,67,0,0,1-3.52-8.59c-3.15-8.28-7.07-17.07-9.14-25.72-.88-3.71-1.84-7.51-2.32-11.11-.92-6.86-.65-7.12-5.28-12.08-3.69-4-3.46-4.52-3.15-9.8.38-6.45,2.27-12.59,4-18.85,4.49-15.81,10.8-31.14,15.28-47,15.28-54.31,7.06-110.86-18.07-161.42,1-6.12-20.65-11.35-25-13q-22.08-8.51-44-17.34c-31.53-12.69-64.9-19.85-99.23-20-37.73-.18-76.94,8.72-112.73,20-38.75,12.15-81.27,27.84-122.16,28-38.5.19-32.76-21.53-71.39-16.93-29.79,3.55-70.2,28.75-125,39.65-14.72,2.94-23.62,30.18-25.24,43-2.91,23-3.83,48.09,1.27,70.79,4.61,20.5,22.73,44.85,20.15,65.83-4.81,39.05,22.36,60.72,37.47,69.11-.12,8.26.08,16.56.08,24.94,0,33.75-10.68,64.86-18.52,97.37-11,45.45.79,96.13-25.34,137.65-4.52,7.17-10.56,13.79-13.21,21.71,1.14-1.9,10.6-6.83,12.78-9.36-.82,2.56-2,5.09-2.58,7.71,4.17-2,9.11-6.49,12.53-9.74,1.76,4.17,2.61,9.12,5,12.91,1.7-4.11,5.35-7.34,7.85-11,2.57,6.16,4.38,13.72,7.43,19.81,2,3.91,5.12,7.12,7.42,10.81.48-11.53,2.67-31.87,11.59-40.68a32.5,32.5,0,0,0,6.63,7.79,199.35,199.35,0,0,1-5.51-21.94c-3-16.38.57-32.92,5.55-48.93A445.79,445.79,0,0,1,875.65,1141c6.73-15.31,7.4-29.72,10.41-46a206.48,206.48,0,0,1,19.38-56.52c4.69,9.43,9.43,18.85,13.86,28.36,6.16,13.25,10.88,27,18,39.82,4.35,7.83,7.69,16.28,13,23.58,4.84,6.63,9.31,13,12.88,20.28,4,8.18,5.3,16.24,7.34,24.94,2.23,9.52,4.77,19.31,6.18,29s-.12,18.88.52,28.34c2.24-1.13,4.52-2.66,7.48-2.4A23,23,0,0,0,990.1,1242c2.09-4.89,6-9,9.08-13.36,2.63.84,4.82,5,7.05,6.84a31.22,31.22,0,0,0,4.61,3.21c-1-5.16-4-13.57-.89-18.32,2.94,1.31,3.67,6.15,6.26,8.35.41-12.83,8.61-1.8,14-.32-1.62-5.94-5.57-11.09-8.73-16.58-4-6.87-6.52-14.36-9.16-21.78-6-16.87-14.72-32.34-22.1-48.59-3.7-8.16-4.82-17-7.17-25.45-3-11-6-21.72-8-32.92-3.87-21.72-9.84-42.85-14.43-64.35-1.23-5.75-2.12-13.46-4.5-19.14,38.16,2.94,75.46,19.19,114.24,19.16,36.24,0,71-11.09,102.76-28C1201,975.86,1225.41,955.78,1255,944l.59-.23c5.4,10.68,7.87,23.33,11.21,33.65,5.21,16.09,11.59,32.78,14.89,49.22,5,24.83,11.75,51.62,9.72,76.94-2,24.85-17.82,47.27-27.37,70.26-6.09,14.66-14.63,25.17-24.86,37.66,4.75.66,9.07-1.94,13.94-1.49-.2,2.43-1.43,4.88-1.12,7.37,2.89-.32,5.91-2.92,8.86-3.59,0,2.6,0,5.51,1.89,7.52,6.78-14,10,7.46,15.53,12.18a35.53,35.53,0,0,1,4.5-13.27c2,6.4,8.94,11.19,13,16.67.91-11.36-4.3-22.6-1.75-34.09,3.52-15.9,9.32-32.38,15.11-47.78,9.5-25.23,22-50.43,34.28-74.81,3-6,6.46-12.74,7.48-19.17s-2.74-11.85-4.9-17.61c-2.81-7.49-4.08-20.34-4.85-28.12l-5.43-37.38c20.18,34.58,40.39,68.19,68.08,98,6.56,7.07,13.16,14.31,18,22.64,8.7,14.91,9.84,32.27,10.25,49.38.58,24.22,3.59,64.9,3.59,89.16,0,1.81-1.19,11.29.42,12.67s8-1.52,10.87-1.29c0,3.4-.36,9.23,2.31,11.28,3-5.3,9.78-7.54,14.52-11.09-.58,9,5.83,17.75,13.16,22.32-.5-4.24-2.17-13.57,1.84-16.12,4.47,4.47,11,5.68,16.78,8.07C1490.76,1259.68,1485.51,1246.73,1483.52,1241.28Z"/><path class="cls-17" d="M789.55,1269.33a.68.68,0,0,0-.11.33C789.47,1269.55,789.52,1269.44,789.55,1269.33Z"/></g><ellipse class="cls-6" cx="1125.88" cy="636.02" rx="99.22" ry="63.39" transform="translate(-49.24 96.36) rotate(-4.8)"/><path class="cls-6" d="M1046.22,601.44c-1.33,1.67-33,40.71-65.31,18.77-32.11-21.82-22.87-87.76-16.6-111.33l-24.91-6.66c-.65,2.4-9.43,36.1-6.5,71.23,2.16,25.9,10.68,52.57,33.51,68.09,21.62,14.7,46.9,14.93,71.18.66a113.7,113.7,0,0,0,28.87-24.77"/><ellipse class="cls-6" cx="1121.85" cy="541.19" rx="60.38" ry="38.82" transform="matrix(1, -0.01, 0.01, 1, -4.77, 10)"/><path class="cls-18" d="M872.31,450.85c-18.56,0-35.1,15.42-42.2,16.92a32.54,32.54,0,0,0-15.45,7.9c-13.08,11.86-13.08,27.87-15.1,43.48-1.25,9.6-5.24,16.1-9.75,25-27.08,53.28-29.48,75.07-33.89,76.79-11.24-2.23-44.08,3.48-56,5.67-18.61,3.44-36.92,6.36-55.4,9-5.12.73-16.93,3.92-20.91,6.38-5.8,3.58-4.87,23.54-1.94,29.11,18.62-.13,37.1-1.5,55.93-.91,63.83,2,92-6.54,99.78-8.42,4.57-1.1,9.93-2.1,13.29-5.56,3-3.14,3.77-7.54,6.44-11,6.71-8.71,41.43-78.33,48.77-86.59,9.54-10.71,19.18-20.52,29.39-30.85,24.92-25.26,25.67,12.74,47.1-15.26a58.52,58.52,0,0,0,10.65-21.52c2.89-10.21,5.39-25,1.23-35.07"/><path class="cls-10" d="M640.23,632.8s-11,19.66.9,41.11c14.48-5.62,21.22-35.82,21.22-35.82"/><path class="cls-18" d="M592,581.88c-3.55,7.3.16,19.61,8.68,23.76,3.59,1.74,2.2-1.14,2.64,3.32a174.53,174.53,0,0,0,2.45,17.45c-1.21,3.33-11.79-8.82-16.64-7.63-3.6.88-27.48-33.44-29.18-30-1.18,2.35,11.35,59.17,11.35,61.72,0,5.07,4.72,5.75,5.53,10.73,1.15,7.1,18.34,11.69,24,11.69,11.83,0,22.43-.56,34.14-1.41,5.13-.36,9.66-1.5,13.24-5.74,5.44-6.43,9.86-25,3.43-30.26-2.47-2-12.12,1.79-15.11.31-4.28-2.11-8.19-4.13-10.89-8.18-3.22-4.82-7-17.48-9.78-23.14-1.86-3.78-3.17-7.25-6.22-9.83-3.7-3.14-7.75-5.56-11.64-8.48C596.16,584.8,594.11,581.31,592,581.88Z"/><path class="cls-18" d="M1017.44,463.12c13,44.88-25,88.75-34.66,139.57-4.13,21.68-20.26,50.33-15.46,71.76,4.08,18.21,15.33,31,23.17,47.49-5.35,7.92-11.41,14.91-20.09,20.42-20.17,12.81-45.82,11-61.71,31-.08-7,1.91-14.3,6.93-19.67-19.83,6.9-41,17-55.43,32.13-.58-8.07,2.5-17.77,7.37-24.43-9,4.34-24.89,17.89-27.06,26.95-.59-8.6,2.06-17.22,4.58-25.34-11.69,14.39-22.9,27.9-30.41,44.51-2-8.94-2.14-17.55-2-26.72.06-5.44,2.58-13.39,1.25-18.06-12.18,15.75-13.43,32.82-20.51,50.59-1.13-15.24-3.8-28.63,0-43.91,1.75-7,.88-14.42,2.63-21.42,2.37-9.47,3-23.81,8.2-29.21-.83-7-.64-16.93.43-26.82,1.76-16.26,8-29.54,11.92-38.28-.37-12.7.6-38.21,6.85-49.88-22.8-27-7.6-72.77,2.39-101.25"/><path class="cls-18" d="M967.52,498.61c9.28,2.87,15.12,9.94,24.1,18.32,4.5,10,1.8,24.48,1.8,35.18,0,15.1,2.37,38.92,7.07,53.54,3.21,10,5,11.1,8,20.66-7,8.73-8.3,11-12.82,20.64-5.85,12.47-11.29,40.32-14.12,55.71-3.22,17.45-3.09,54.18-24.3,61.93-17.92,1.12-26.52,10-33.55,17.26-1.85,15.3-3,23.18-.76,26.72,9.21,4.55,10.41-10.4,11.33-18.69,6-.78,9.55-5.83,15.84-2.74-5,27.78,24.1,43.07,34.62,22.29,9.46-18.69,8-25.83,10-35.26,22.49-43.72,58-101.26,58-149.88q0-38.6,2-76.84c1.31-26.15,9.56-52.94,2.48-79.16-6.33-23.44-26.25-36-62.59-34.48-9-1.13-17-1.61-22.49-2C948,430.27,946,355.49,948.51,342.32c1.8.16-10.77,20.44-16.3,20.32-7.31-.17-12.58,26.46-19.88,27-10,.77-28.88,6.06-37.62,10.71,16.17,6.38,10,21.8,4.79,35.78-4.47,12.05-19.43,22.05-31.44,28"/><path class="cls-18" d="M984.73,808.66c-1.81,3.11-10.35,18.47-12.21,21.56-.94,1.58-1.83,4.14-3.31,5.26-1.73,1.31-5.4,1.24-7.69,1.13A31.75,31.75,0,0,1,956,836c-2.66-.61-4.15-3.44-6.06-5.36l.45-.18"/><path class="cls-18" d="M974.86,812.51c-1.78,3.53-6,12.36-6.82,13.66-1.21,2-2,4.28-3.37,6.22s-2.94,4.58-4.82,6.18a8.79,8.79,0,0,1-6.87,2.22,18.53,18.53,0,0,1-4.54-1.67c-.68-.29-1.73-1.27-2.25-1a7.91,7.91,0,0,1-1-2.77,22,22,0,0,1-.38-12.52"/><path class="cls-18" d="M938.81,819.46c-1.47-2.94-5.6-5.66-9.26-5.21a2.49,2.49,0,0,0-2.36,2.7c-.23,3.86,1.86,7,3.34,10.35s1.05,7.44,2.68,10.64c1,1.92,4.28,1.83,6.14,1.65,4.87-.45,9.47-2.38,14.09-3.77,1.21-.37,3.58-1,4.41-2.06a16.43,16.43,0,0,0,1.72-3.43c.68-1.48,8.85-18.42,9.72-19.8"/><path class="cls-19" d="M910.79,453.21c13.55-.1,25.25-3.32,38.39-6.32,12.06-2.76,24.72-4.26,37.06-5.75"/><path class="cls-19" d="M855.55,464c7.05-1.39,13.73-3.44,20.66-5.41"/><path class="cls-19" d="M881.59,474.85c-8.33,18.8-12.18,38.75-17.41,58.49-4.53,17.06-8.57,35.24-1.45,52.2"/><path class="cls-19" d="M822.31,603.84c8.65-1.34,17.47-6.73,23.81-12.06"/><path class="cls-19" d="M875.31,588c13.21,6.07,28,10.39,42.82,10.83,21.25.63,36.08-22.69,47.9-35.38"/><path class="cls-19" d="M854.65,605.65c.32,8.76-1.57,17.17-3.34,25.77-3.9,19-6.84,37.51-6.89,56.84,0,17.4-5.52,40.56-1.15,63"/><path class="cls-19" d="M821.12,654.61c8.63-1.87,20.24-3.76,26.34-3.75"/><path class="cls-19" d="M812.68,716.19c6.94-3.42,19.9-5,25.68-6.18a15.65,15.65,0,0,1,4.91-.61"/><path class="cls-19" d="M863.33,650a14.79,14.79,0,0,0,4.4-.8A77.71,77.71,0,0,1,882.85,647c6.64-.3,14,.65,20.3.25"/><path class="cls-19" d="M862.43,707.18c5-3.27,15.58-4.17,21.57-4.42,5.07-.21,10.18,0,15.26,0"/><path class="cls-19" d="M876.21,612.17c12.49,6.42,27.76,19,27,32s4.87,32-1.3,58.23c2.38,13.84-9.64,23.48-9.69,47.55"/><path class="cls-18" d="M554.07,570.32c-3.18-9.5-10.47-15.24-19.43-18.63-2.85-1.08-7.76-1.49-7.35,3,.24,2.68,3.45,5,5.09,6.81,2,2.23,3.4,5.15,5.35,7.29,3,3.31,13.14,16.79,15.5,20.65"/><path class="cls-6" d="M603.88,419.24h15.23a0,0,0,0,1,0,0v857.63a6.69,6.69,0,0,1-6.69,6.69h-1.85a6.69,6.69,0,0,1-6.69-6.69V419.24a0,0,0,0,1,0,0Z" transform="translate(-150.31 131.35) rotate(-10.93)"/><g class="cls-3"><g class="cls-3"><g class="cls-20"><g class="cls-3"><path d="M571.09,380.9,562.94,385a1.06,1.06,0,0,1-.25.09l8.15-4.1a.73.73,0,0,0,.25-.08"/></g></g></g><polygon points="568.78 378.97 560.63 383.06 496.88 289.56 505.03 285.47 568.78 378.97"/><g class="cls-3"><g class="cls-21"><g class="cls-3"><path d="M503.61,282.82l-8.16,4.09a.94.94,0,0,1,.49-.65l8.15-4.09a.88.88,0,0,0-.48.65"/></g></g></g><polygon class="cls-22" points="568.78 378.97 560.63 383.06 528.14 382.33 536.29 378.24 568.78 378.97"/><polygon points="570.84 380.99 562.69 385.08 529.34 384.33 537.49 380.24 570.84 380.99"/><g class="cls-3"><g class="cls-23"><g class="cls-3"><path class="cls-24" d="M536.29,378.24l-8.15,4.09a1.6,1.6,0,0,0-.47.12l8.15-4.09a1.34,1.34,0,0,1,.47-.12"/></g></g></g><g class="cls-3"><g class="cls-25"><g class="cls-3"><path d="M535.56,378.57l-8.15,4.1a.89.89,0,0,1,.3-.25l8.16-4.09a1,1,0,0,0-.31.24"/></g></g></g><g class="cls-3"><g class="cls-26"><g class="cls-3"><path d="M535.37,379.39l-8.15,4.09a1,1,0,0,1,.19-.81l8.15-4.1a1,1,0,0,0-.19.82"/></g></g></g><g class="cls-3"><g class="cls-27"><g class="cls-3"><path d="M549.39,442.4l-8.15,4.09a1.06,1.06,0,0,1-.25.09l8.15-4.09a.92.92,0,0,0,.25-.09"/></g></g></g><polygon points="547.8 440.69 539.65 444.78 527.22 383.48 535.37 379.39 547.8 440.69"/><g class="cls-3"><g class="cls-28"><g class="cls-3"><path class="cls-24" d="M513.57,383.24l-8.15,4.09a1.08,1.08,0,0,0-.49-.7l8.15-4.09a1.08,1.08,0,0,1,.49.7"/></g></g></g><g class="cls-3"><g class="cls-29"><g class="cls-3"><path class="cls-24" d="M513.08,382.54l-8.15,4.09a1,1,0,0,0-.64-.12l8.15-4.09a1,1,0,0,1,.64.12"/></g></g></g><polygon class="cls-22" points="547.8 440.69 539.65 444.78 517.85 448.63 526 444.54 547.8 440.69"/><polygon class="cls-22" points="526 444.54 517.85 448.63 505.42 387.33 513.57 383.24 526 444.54"/><polygon points="549.14 442.49 540.99 446.58 517.31 450.75 525.46 446.66 549.14 442.49"/><polygon points="524.32 445.84 516.17 449.93 503.77 388.84 511.93 384.75 524.32 445.84"/><g class="cls-3"><g class="cls-30"><g class="cls-3"><path d="M525.46,446.66l-8.15,4.09a1,1,0,0,1-1.14-.82l8.15-4.09a1,1,0,0,0,1.14.82"/></g></g></g><polygon class="cls-22" points="512.44 382.42 504.29 386.51 474.15 398.31 482.31 394.22 512.44 382.42"/><polygon class="cls-22" points="482.31 394.22 474.15 398.31 496.88 289.56 505.03 285.47 482.31 394.22"/><path d="M571.42,379.46a1,1,0,0,1,.09,1,.92.92,0,0,1-.67.5l-33.35-.74,12.39,61.09a1,1,0,0,1-.74,1.16l-23.68,4.17a1,1,0,0,1-1.14-.82l-12.39-61.09-30.58,12a1.05,1.05,0,0,1-1-.19,1.08,1.08,0,0,1-.33-1l23.58-112.76a.89.89,0,0,1,.73-.73,1,1,0,0,1,1,.42Zm-35.31-1.21,32.68.72L505,285.47,482.3,394.22l30-11.75a1.06,1.06,0,0,1,.82.07,1.08,1.08,0,0,1,.49.7L526,444.53l21.8-3.84-12.43-61.3a1,1,0,0,1,.19-.82.91.91,0,0,1,.55-.32"/><path class="cls-31" d="M505,285.47,568.79,379l-32.5-.73a.93.93,0,0,0-.92,1.15l12.43,61.3L526,444.53l-12.43-61.29a1.08,1.08,0,0,0-.49-.7,1,1,0,0,0-.64-.12l-30.14,11.8Z"/><polygon points="511.93 384.75 503.77 388.84 473.2 400.84 481.35 396.75 511.93 384.75"/><polygon points="480.03 395.58 471.88 399.67 495.45 286.91 503.61 282.82 480.03 395.58"/><g class="cls-3"><g class="cls-32"><g class="cls-3"><path d="M481.35,396.75l-8.15,4.09a1.05,1.05,0,0,1-1-.19,1,1,0,0,1-.33-1l8.15-4.09a1.08,1.08,0,0,0,.33,1,1.05,1.05,0,0,0,1,.19"/></g></g></g></g><path class="cls-18" d="M950.53,333.45c-1.3,5.48-5.6,34.1-9.78,40.24-2.73,4-7.65,7.93-11.66,11.06-15.11,11.8-27,20.45-46.86,20.14-5.66-.09-14,.53-18.61-3.16s-3.94-10.09-3.67-15.56.8-8.78,1.37-14.41c.2-2.05.52-3.58,0-5.5-.36-1.29-2.28-2.6-2.31-3.87,0-1.8,2.42-2.89,2.55-4.34.18-1.86-1.62-2.09-1.64-3.92,0-3.18,2.72-8,2.24-11.85-4-.22-6.73.12-10.65-1.34-4.86-2.26,2.78-10.94,4.94-13.13,6.09-6.18,7.29-16.6,13.1-19-.3-6.36,1.47-13.79,2.8-19.95,1.48-6.82,3.71-11.82,8.63-16.75,12.14,1.58,21.72,17.27,26.31,27.24,3.27,7.12,5.87,5.14,7.25,11.18a24.59,24.59,0,0,0,7.9,13.31c4.55,4,11.52,6.65,18.11,7.42,3.1.36,7.17.69,9.42,2.59"/><path class="cls-19" d="M884.89,435c-.24,5.25-1.21,10.62-.36,15.88,1.32,8.13,7.27,3,10.47-1.29,10.28-13.86,14.79-29.74,21.33-45.1"/><path class="cls-19" d="M861.61,358.2c.89-.5,2.21.15,3.31.44A107.92,107.92,0,0,0,876,360.91c6.24.95,15.41,3.31,21.05-.47"/><path class="cls-19" d="M872.84,306.25c5.9-3.3,12-.16,17.65,1.92a45,45,0,0,0,16.48,3"/><path class="cls-19" d="M863.63,340.38a3.09,3.09,0,0,1-.86,0c-1.32-2.73,3.34-.47,4.23,0,2,1.13,3.69,2.69,5.9,3.43s4.35,1.1,5.33-1.13c1.24-2.83-1.32-5.07-2.92-7"/><path class="cls-18" d="M940.45,349.51c-.75,1.48.61,3.6,2.21,4.45,5.54,3,10.32-4.78,12.11-8.22a30.26,30.26,0,0,0,3-20c-.71-3.75-3.64-5.08-7.24-4.68-5.26.59-9.74,7.85-10.7,12.32"/><path class="cls-19" d="M878.15,310.82a16.8,16.8,0,0,0-2.65,4.63,13.88,13.88,0,0,0-1.23,2.62,11.34,11.34,0,0,1,2.7.48,48,48,0,0,0,5.46.83,91,91,0,0,0,13.31.27"/><path class="cls-18" d="M554.64,597c3.82-1.8,15.32-18.53,6.09-18.94-6.8-.3-14.25,5.88-16.51,12.13-2.07,5.72-2.8,10.52,1.83,15.12a19.42,19.42,0,0,0,6.06,3.54c.62.27,5.35,1.13,4.29,1.28Z"/><path class="cls-18" d="M558.54,617c5.66-.34,13.21-13.81,4.75-16.55-6.92-2.23-14.52,5.33-17.47,10.7s-2.39,11.24,4.07,12.91c2.65.68,7.6.48,10.32.48Z"/><path class="cls-18" d="M563,639.43a11.41,11.41,0,0,0,8.25-8.19c.79-3.86-4-6.47-7.16-6.88-6-.79-13.52,3.75-15.12,9.76-1.24,4.68,1.18,7.55,4.5,10.22,3.53,2.84,9.2,9.28,12.29,10.1Z"/><path class="cls-19" d="M819.62,568.75c-2.84.21-3.57,5.1,0,5"/><path class="cls-19" d="M912.13,552.11c-3.27-.08-2.74,4.85.3,5.27"/><path class="cls-18" d="M950.15,785.87c.06,4-5,14-6,17.85-1.09,4.37-1.78,8.91-3.06,13.23-.64,2.15-.93,2.45-2.86,3.1-1.49.5-3,.94-4.49,1.38-1.9.56-3.26,1.77-5,2.69-2.57,1.37-5,3.49-8,2.69-3.26-.85-5.91-3.8-9.32-4.11-2.89-.26-6-.36-8.23,1.71-.56.52-2,1.94-2.13,2.71-.18,1.28,1.67,2.81,2.65,3.58,3.76,2.93,8.66,3.57,12.54,6.3,1.77,1.24,2.55,2.06,4.78,2.14a24.74,24.74,0,0,0,12.48-2.8A97.32,97.32,0,0,1,945,831c2.29-.85,4.82-1,7-2.08s3.07-3.24,4.25-5.36c.86-1.53,4.63-11.09,5.47-13.07"/><path class="cls-6" d="M1167.35,688.15s-15.25,29.32-15.07,44.51c.09,8.35,12.53,33.19,12.53,33.19s14.91,3.16,14.91,9-44.27,24.88-68.67,24.88-1.27-20.9,40.74-33.55c-4.78-9.44-11.26-21.12-11.26-34.37,0-21.12,12.53-43.69,12.53-43.69"/><path class="cls-6" d="M1626.13,1187.9s-34.72-4.58-36.64,10.5c-1.06,8.28,7.83,38.44,7.83,38.44s14.32,7.92,13.51,13.58-47.28,9.51-71.44,1.53,1.63-18,45-16.47c-3.43-10.67-7.68-29.76-5.85-42.88,2.92-20.91,46.84-17,46.84-17"/><path class="cls-6" d="M1329.11,670.49s14,26.78,13.81,42c-.1,8.35-12.53,33.19-12.53,33.19s-9.32,3.22-9.32,9.09,9.32,40.42,33.71,40.42c18.38,0,9.4-26.49-11.38-49.14,4.79-9.45,11.26-21.13,11.26-34.38,0-21.12-12.53-46.24-12.53-46.24"/><path class="cls-6" d="M1184.13,608.57c.48,2.08,11.27,51.2-26,62.78-37.07,11.53-82.9-36.77-97.43-56.36L1040,630.34c1.48,2,22.38,29.86,51.69,49.45,21.6,14.44,47.78,24.39,74.14,16.19,25-7.76,40.89-27.39,44.85-55.27a113.59,113.59,0,0,0-1.4-38"/><path class="cls-6" d="M1066.46,622.25s-3.88-20-11.57-25.25-9.73,3.17-9.73,3.17-25.25-15.51-25.29,7c0,19.76,22.89,26.79,22.89,26.79"/><path class="cls-33" d="M1112,558.23a35.77,35.77,0,0,1-23.11-6.52,3.25,3.25,0,0,1-.29-4.73,3.65,3.65,0,0,1,4.88-.92c8.84,6.53,23.52,8.22,32.78-.25a3.23,3.23,0,1,1,4.33,4.71A30.18,30.18,0,0,1,1112,558.23Z"/><ellipse class="cls-33" cx="1131.67" cy="529.61" rx="7.7" ry="6.47" transform="translate(549.85 1635.34) rotate(-87.33)"/><ellipse class="cls-33" cx="1086.34" cy="532.65" rx="7.7" ry="6.47" transform="translate(503.6 1592.97) rotate(-87.33)"/><path class="cls-6" d="M1620.32,1095c-.52-.12-52.85-12.23-62.39-56-9-41.19,21.66-73.39,34.66-84.48,27.73-23.67-7.54-58-19.45-49.94s7.77,30.38,7.77,30.38c-.65.46-12,8.4-25.69,27.35-18.58,25.76-25.23,53.93-19.23,81.47,12.64,58,76.82,72.62,79.54,73.21"/><ellipse class="cls-6" cx="1677.07" cy="1131.13" rx="99.22" ry="63.39" transform="matrix(1, -0.08, 0.08, 1, -88.7, 144.18)"/><ellipse class="cls-6" cx="1673.04" cy="1037.24" rx="60.38" ry="38.82" transform="matrix(1, -0.01, 0.01, 1, -9.16, 14.92)"/><path class="cls-6" d="M1716.91,1185.7c.1,8.35,19,90.91,19,90.91s13.78,6.52,12.42,12.24-48.82,14-72.56,8.33,2.83-20.24,46.63-22.83c-2.47-10.3-15.57-64.07-18.52-89.47"/><path class="cls-33" d="M1660.51,1048.24a35.27,35.27,0,0,1-22.77-7.21,3.37,3.37,0,0,1-.25-4.8,3.5,3.5,0,0,1,4.82-.8c8.68,6.84,23.16,8.94,32.35.59a3.34,3.34,0,0,1,4.79,0,3.53,3.53,0,0,1-.55,4.86A28.83,28.83,0,0,1,1660.51,1048.24Z"/><ellipse class="cls-33" cx="1680.09" cy="1019.74" rx="7.79" ry="6.39" transform="translate(648.62 2692.66) rotate(-89.6)"/><ellipse class="cls-33" cx="1635.34" cy="1021.65" rx="7.79" ry="6.39" transform="translate(602.28 2649.81) rotate(-89.6)"/><ellipse class="cls-34" cx="1308.17" cy="515.88" rx="48.34" ry="46.79"/><path class="cls-35" d="M1279.24,505.85c10.31-2.4,20.4-6.16,30.42-9.56,10.66-3.62,21.23-7.4,31.85-11.13,11.34-4,33.21-15.1,52.76-5.9,18.64,8.78-4.56,18.78-13.75,23-14.49,6.69-25.8,9.78-41.52,13.59"/><ellipse class="cls-6" cx="1312.9" cy="538.07" rx="38.24" ry="58.71" transform="translate(707.08 1821.12) rotate(-87.01)"/><path class="cls-6" d="M1357.1,582.22c.54,0,54.24.78,74-39.48,18.58-37.85-3.49-76.42-13.43-90.32-13.77-19.27,17.58-31.38,20.95-35.2,5.86-6.65-4.31,19.83-4.31,19.83.52.61,9,10.21,17.78,31.88,11.87,29.46,11.59,58.4-.83,83.71-26.17,53.32-92,52.11-94.76,52"/><path class="cls-33" d="M1331.81,557a37.32,37.32,0,0,1-22.61-9.12,3.25,3.25,0,0,1,0-4.73,3.63,3.63,0,0,1,4.94-.35c8.36,7.49,22.9,10.85,32.74,3.49a3.49,3.49,0,0,1,4.85.44,3.38,3.38,0,0,1-.87,4.73A29.14,29.14,0,0,1,1331.81,557Z"/><ellipse class="cls-33" cx="1353.44" cy="530.75" rx="7.67" ry="6.49" transform="translate(808.36 1878.49) rotate(-89.39)"/><ellipse class="cls-33" cx="1307.98" cy="528.61" rx="7.67" ry="6.49" transform="translate(765.52 1830.91) rotate(-89.39)"/><path class="cls-36" d="M640.23,632.8s6.85,4.17,6.51,19.94c-.3,14.11-5.61,21.17-5.61,21.17s79,5.45,111.82-3.82c9.21-14.37,9.88-39.52-9.43-52.1C706.7,622.26,640.23,632.8,640.23,632.8Z"/><path class="cls-19" d="M712.55,621.76c11.14,8.36,13,23.48,12.75,36.39-.1,5.26-1.1,12.23-4.2,16.76"/><path class="cls-19" d="M718.48,621.36A41.84,41.84,0,0,0,730,632.62c2.45,1.56,5.64,3.48,8.74,3.11a3.78,3.78,0,0,0,3.23-4.72c-.66-2.48-3-4.45-5.08-5.75-1.22-.78-7.63-4.35-8.36-1.59s6.59,5.77,8.08,7"/><path class="cls-19" d="M727.19,636.85c.72,2,2.94,8.56,8.12,13.55,2,1.92,4.6,4.29,7.81,4a5.58,5.58,0,0,0,4.62-5.27c.08-2.9-1.71-5.28-3.36-6.89-1-1-6.33-5.38-7.88-2.24s4.87,7,6,8.42"/><path class="cls-19" d="M729,650.45c-.14,1.87-.82,9.2,2,15.08,1.08,2.26,2.56,5.11,5.59,6.14a5.47,5.47,0,0,0,6.23-2.28c1.17-2.21.45-4.75-.44-6.63-.53-1.13-3.71-6.63-6.32-4.8s1.77,7.29,2.25,8.85"/><path class="cls-19" d="M727.42,669.3c0,1.62.14,3.21.23,4.83"/><path class="cls-19" d="M735.33,618.78c4.94,3,9.4,8.8,10.88,11.53a42.94,42.94,0,0,1,4.61,15.36c.56,5.74-.65,11.2-2.14,16.71a41.27,41.27,0,0,1-2.67,7.39c-.16.33-1,1.72-.69,1.44"/><circle class="cls-37" cx="1665.21" cy="853.4" r="102.99"/><path class="cls-6" d="M1721.87,1089.6c.52-.12,52.85-12.23,62.39-56,9-41.19-21.66-73.39-34.66-84.48-27.73-23.67,7.54-58,19.44-49.94s-7.76,30.38-7.76,30.38c.65.46,12,8.4,25.69,27.35,18.58,25.76,25.23,53.93,19.23,81.47-12.64,58.05-76.82,72.62-79.54,73.21"/><path class="cls-19" d="M606.25,626.84c-4.57,5.81-3.74,15.66-.49,21.71"/><path class="cls-19" d="M587.67,621.05c0-.09.72,3.43.81,3.85,2,8.77,2.43,17.34,2.33,26.3"/><path class="cls-19" d="M615.65,672.67c4.79,0,9.43-5.42,11.93-8.94a38.6,38.6,0,0,0,6.89-17.23c.43-3.47,1-8.88-1-11.94"/><path class="cls-19" d="M594.43,659.64c-2-3.71,24.64-11.83,27.74-12.78"/></g></g></svg>