<svg xmlns="http://www.w3.org/2000/svg" xmlns:xlink="http://www.w3.org/1999/xlink" viewBox="0 0 2240.78 1683.13"><defs><style>.cls-1,.cls-13,.cls-2,.cls-26{fill:none;}.cls-10,.cls-13,.cls-14,.cls-15,.cls-16,.cls-17,.cls-18,.cls-19,.cls-2,.cls-20,.cls-21,.cls-22,.cls-23,.cls-24,.cls-26,.cls-27,.cls-28,.cls-29,.cls-30,.cls-31,.cls-4,.cls-5,.cls-6,.cls-7,.cls-8,.cls-9{stroke:#000;}.cls-2{stroke-linecap:round;stroke-width:0.5px;}.cls-13,.cls-14,.cls-17,.cls-2,.cls-21,.cls-22,.cls-23,.cls-24,.cls-4,.cls-6,.cls-7,.cls-8,.cls-9{stroke-miterlimit:10;}.cls-3{isolation:isolate;}.cls-4{fill:#d2805f;}.cls-10,.cls-13,.cls-14,.cls-15,.cls-16,.cls-17,.cls-18,.cls-19,.cls-20,.cls-21,.cls-22,.cls-23,.cls-24,.cls-26,.cls-27,.cls-28,.cls-29,.cls-30,.cls-31,.cls-4,.cls-5,.cls-6,.cls-7,.cls-8,.cls-9{stroke-width:2px;}.cls-10,.cls-15,.cls-16,.cls-18,.cls-19,.cls-20,.cls-26,.cls-27,.cls-28,.cls-29,.cls-30,.cls-31,.cls-5{stroke-linejoin:round;}.cls-25,.cls-5{opacity:0.26;}.cls-5{fill:url(#_10_dpi_20_4);}.cls-31,.cls-6{fill:#debb97;}.cls-7{fill:#ffdf8c;}.cls-8{fill:#c5d7ea;}.cls-12,.cls-9{fill:#e6dae7;}.cls-10{fill:#5a8bba;}.cls-11,.cls-14{fill:#fff;}.cls-15{fill:#543d27;}.cls-17{fill:#9e6042;}.cls-18{opacity:0.44;mix-blend-mode:multiply;fill:url(#_10_dpi_20_4-3);}.cls-19{fill:#e84e0f;}.cls-20{fill:#e6ab55;}.cls-21{fill:#f4eed8;}.cls-22{fill:#ce9fb5;}.cls-24{fill:#ffd153;}.cls-25{fill:url(#_10_dpi_20_);}.cls-27{fill:#d20a11;}.cls-28{fill:#e30613;}.cls-29{fill:#92b193;}.cls-30{fill:#9e7842;}</style><pattern id="_10_dpi_20_4" data-name="10 dpi 20% 4" width="28.8" height="28.8" patternTransform="translate(-766.66 742.6) scale(4.43)" patternUnits="userSpaceOnUse" viewBox="0 0 28.8 28.8"><rect class="cls-1" width="28.8" height="28.8"/><path class="cls-2" d="M12.72,10.43c0,.15,0,.24.21.25,0-.15-.1-.15-.21-.21"/><path class="cls-2" d="M22,4.14c-.15.05-.21.13-.15.3.27.08.42-.13.35-.37a.27.27,0,0,0-.24.2"/><path class="cls-2" d="M23.05,17.27c-.18.74.75,0,.13-.17a.17.17,0,0,0-.13.17"/><path class="cls-2" d="M7.09,21.77c0,.12.06.2.21.19s0-.12,0-.19"/><path class="cls-2" d="M4.84,13.18a1.89,1.89,0,0,1-.09.21c.16,0,.11,0,.23,0s-.06-.1-.14-.08"/><path class="cls-2" d="M6.84,3.85c-.15.16-.06.4.21.37.23-.41-.39-.64-.42-.2,0,.59.93-.29.26-.34a.27.27,0,0,0,.08.4.26.26,0,0,0,0-.42.36.36,0,0,0,.08.4"/><path class="cls-2" d="M16.18,23.72c0-.06.06,0,0-.12s-.61.52-.45.71.66-.26.56-.53c-.53-.08-.34.65,0,.39s-.48-.7-.2-.07"/><path class="cls-2" d="M2.34,16.27c.07,0,.15.06.16-.17-.25,0-.25.26,0,.29"/><path class="cls-2" d="M27.22,8.06c.07,0,.13.07.16-.13a.52.52,0,0,0-.18.18.12.12,0,0,0,.14,0"/><path class="cls-2" d="M28.09,25.31s-.05,0,0,0a.75.75,0,0,1,0-.15c-.07,0,0,.06,0,.08"/><path class="cls-2" d="M1.34.64l0,.13"/><path class="cls-2" d="M16.05,5.89a.43.43,0,0,0-.21.17"/><path class="cls-2" d="M18.43,7a.24.24,0,0,1,.08.09"/><path class="cls-2" d="M2.59,25.22s0,0,0,0"/><path class="cls-2" d="M5.22,26.43c0,.12,0,.2.15.21a.27.27,0,0,0-.18-.38.39.39,0,0,0,0,.26"/><path class="cls-2" d="M4.09,6.27c-.09,0-.16,0-.18.11a.27.27,0,0,0,.44-.19A.32.32,0,0,0,4,6.45a.17.17,0,0,0,.22.07"/><path class="cls-2" d="M26.72,1a.62.62,0,0,0,0,.33"/><path class="cls-2" d="M16.18,14.72a.79.79,0,0,0-.38.21"/><path class="cls-2" d="M21.47,27.68c.06.09.06.17.2.16,0-.19-.13-.32-.32-.34-.1.23.14.64.39.38s0-.71-.31-.57a.4.4,0,0,0,.4.43.14.14,0,0,0,.05-.18"/><path class="cls-2" d="M24.3,22.27c0,.06,0,.09,0,.13s0-.11,0-.18"/><path class="cls-2" d="M12.05,29c.08,0,.11.09.21.08s-.09,0-.17-.08"/><path class="cls-2" d="M28.59,13.64c-.09,0-.1,0,0,0"/><path class="cls-2" d="M9.63,16.77s.07.06.09,0,0-.05,0-.09"/><path class="cls-2" d="M21.93,10.22v0"/><path class="cls-2" d="M-.21,13.64c-.09,0-.1,0,0,0"/><path class="cls-2" d="M12.05.17c.08,0,.11.09.21.08s-.09,0-.17-.08"/></pattern><pattern id="_10_dpi_20_4-3" data-name="10 dpi 20% 4" width="28.8" height="28.8" patternTransform="translate(510.45 742.6) scale(4.43)" patternUnits="userSpaceOnUse" viewBox="0 0 28.8 28.8"><rect class="cls-1" width="28.8" height="28.8"/><path class="cls-2" d="M12.72,10.43c0,.15,0,.24.21.25,0-.15-.1-.15-.21-.21"/><path class="cls-2" d="M22,4.14c-.15.05-.21.13-.15.3.27.08.42-.13.35-.37a.27.27,0,0,0-.24.2"/><path class="cls-2" d="M23.05,17.27c-.18.74.75,0,.13-.17a.17.17,0,0,0-.13.17"/><path class="cls-2" d="M7.09,21.77c0,.12.06.2.21.19s0-.12,0-.19"/><path class="cls-2" d="M4.84,13.18a1.89,1.89,0,0,1-.09.21c.16,0,.11,0,.23,0s-.06-.1-.14-.08"/><path class="cls-2" d="M6.84,3.85c-.15.16-.06.4.21.37.23-.41-.39-.64-.42-.2,0,.59.93-.29.26-.34a.27.27,0,0,0,.08.4.26.26,0,0,0,0-.42.36.36,0,0,0,.08.4"/><path class="cls-2" d="M16.18,23.72c0-.06.06,0,0-.12s-.61.52-.45.71.66-.26.56-.53c-.53-.08-.34.65,0,.39s-.48-.7-.2-.07"/><path class="cls-2" d="M2.34,16.27c.07,0,.15.06.16-.17-.25,0-.25.26,0,.29"/><path class="cls-2" d="M27.22,8.06c.07,0,.13.07.16-.13a.52.52,0,0,0-.18.18.12.12,0,0,0,.14,0"/><path class="cls-2" d="M28.09,25.31s-.05,0,0,0a.75.75,0,0,1,0-.15c-.07,0,0,.06,0,.08"/><path class="cls-2" d="M1.34.64l0,.13"/><path class="cls-2" d="M16.05,5.89a.43.43,0,0,0-.21.17"/><path class="cls-2" d="M18.43,7a.24.24,0,0,1,.08.09"/><path class="cls-2" d="M2.59,25.22s0,0,0,0"/><path class="cls-2" d="M5.22,26.43c0,.12,0,.2.15.21a.27.27,0,0,0-.18-.38.39.39,0,0,0,0,.26"/><path class="cls-2" d="M4.09,6.27c-.09,0-.16,0-.18.11a.27.27,0,0,0,.44-.19A.32.32,0,0,0,4,6.45a.17.17,0,0,0,.22.07"/><path class="cls-2" d="M26.72,1a.62.62,0,0,0,0,.33"/><path class="cls-2" d="M16.18,14.72a.79.79,0,0,0-.38.21"/><path class="cls-2" d="M21.47,27.68c.06.09.06.17.2.16,0-.19-.13-.32-.32-.34-.1.23.14.64.39.38s0-.71-.31-.57a.4.4,0,0,0,.4.43.14.14,0,0,0,.05-.18"/><path class="cls-2" d="M24.3,22.27c0,.06,0,.09,0,.13s0-.11,0-.18"/><path class="cls-2" d="M12.05,29c.08,0,.11.09.21.08s-.09,0-.17-.08"/><path class="cls-2" d="M28.59,13.64c-.09,0-.1,0,0,0"/><path class="cls-2" d="M9.63,16.77s.07.06.09,0,0-.05,0-.09"/><path class="cls-2" d="M21.93,10.22v0"/><path class="cls-2" d="M-.21,13.64c-.09,0-.1,0,0,0"/><path class="cls-2" d="M12.05.17c.08,0,.11.09.21.08s-.09,0-.17-.08"/></pattern><pattern id="_10_dpi_20_" data-name="10 dpi 20%" width="28.8" height="28.8" patternTransform="translate(-766.66 742.6) scale(4.43)" patternUnits="userSpaceOnUse" viewBox="0 0 28.8 28.8"><rect class="cls-1" width="28.8" height="28.8"/><path class="cls-2" d="M9.11,28a4,4,0,0,0,0,2.13"/><path class="cls-2" d="M6.45,8.27a17.88,17.88,0,0,0,.79,6.66"/><path class="cls-2" d="M15.15,6.18A10.42,10.42,0,0,1,15,9.38"/><path class="cls-2" d="M10.51,4.15a8.6,8.6,0,0,0,.27,3.46"/><path class="cls-2" d="M6.31,4A10.69,10.69,0,0,1,6.4,5.78"/><path class="cls-2" d="M12.55,8.69l-.31,2.17"/><path class="cls-2" d="M14.81,1.61a7.9,7.9,0,0,0-.57,2.88"/><path class="cls-2" d="M20.11,13.61a10.13,10.13,0,0,1,.29,2.25"/><path class="cls-2" d="M20.17,2.16a22.46,22.46,0,0,0-.4,3.37"/><path class="cls-2" d="M25.57,6.29a6.24,6.24,0,0,0-.1,3"/><path class="cls-2" d="M12.54,16a10.72,10.72,0,0,1,.23,2.71"/><path class="cls-2" d="M5.45,20a9.91,9.91,0,0,0-.51,3.33"/><path class="cls-2" d="M10.35,24.61a4.52,4.52,0,0,0,.09,2.13"/><path class="cls-2" d="M20.44,24.11a7.63,7.63,0,0,1,0,1.17"/><path class="cls-2" d="M3,12.7a3.7,3.7,0,0,0,.18,2.08"/><path class="cls-2" d="M3.81,7.45a8.55,8.55,0,0,0,.51,3.08"/><path class="cls-2" d="M15.17,20.43a8.45,8.45,0,0,1,0,2.46"/><path class="cls-2" d="M25.43,11.45a7.43,7.43,0,0,1-.25,3"/><path class="cls-2" d="M16.47,14a16.1,16.1,0,0,0,.32,4.54"/><path class="cls-2" d="M21.65,8.61A9.85,9.85,0,0,1,21.89,11"/><path class="cls-2" d="M17.69,20.76a40.5,40.5,0,0,1-1.08,5.12"/><path class="cls-2" d="M12.13,20.61a13.65,13.65,0,0,0,.53,3.17"/><path class="cls-2" d="M8.38,18.38a24,24,0,0,0-.4,5.8"/><path class="cls-2" d="M1.26,18.07a19.89,19.89,0,0,0,.57,5"/><path class="cls-2" d="M4,16.53a17,17,0,0,0-.45,2.83"/><path class="cls-2" d="M3,24.37A23,23,0,0,0,3.7,28"/><path class="cls-2" d="M6.86,26.45c-.05,1-.05,2,0,3"/><path class="cls-2" d="M14.44,26.2a11.18,11.18,0,0,0,.17,3.16"/><path class="cls-2" d="M18.49,26.61A11.84,11.84,0,0,0,18.28,29"/><path class="cls-2" d="M22.53,24.86c0,.89-.05,1.78,0,2.67"/><path class="cls-2" d="M25,24.57c.05,1.7.16,3.4.33,5.09"/><path class="cls-2" d="M25.38,17.81c-.08.94-.12,1.88-.13,2.83"/><path class="cls-2" d="M27.39,23.24l.17,1.87"/><path class="cls-2" d="M23.1,1a5.81,5.81,0,0,1,0,2.42"/><path class="cls-2" d="M27.14,2.11l-.09,2"/><path class="cls-2" d="M27.71,8.4a5.07,5.07,0,0,0,.75,2.75"/><path class="cls-2" d="M27.92,15a10.3,10.3,0,0,0-.14,2.29"/><path class="cls-2" d="M1.44,5.45a18.78,18.78,0,0,0-.12,3"/><path class="cls-2" d="M3.71,3a8.54,8.54,0,0,0,.57,2.83"/><path class="cls-2" d="M1.23.28,1.1,2.15"/><path class="cls-2" d="M9.11-.85a4,4,0,0,0,0,2.13"/><path class="cls-2" d="M11.9.53V2.41"/><path class="cls-2" d="M17.19,3a4.76,4.76,0,0,0,0,1.25"/><path class="cls-2" d="M9.23,9a7.63,7.63,0,0,0-.07,3.33"/><path class="cls-2" d="M.61,13c0,.64-.06,1.27,0,1.91"/><path class="cls-2" d="M.34,25.41a11.3,11.3,0,0,0,.35,2.08"/><path class="cls-2" d="M17.93,7a9.78,9.78,0,0,0,.72,4.63"/><path class="cls-2" d="M15,11.26a13.65,13.65,0,0,0-.3,3.37"/><path class="cls-2" d="M23.17,5.41a10.62,10.62,0,0,1-.12,2.25"/><path class="cls-2" d="M22.73,13.53a9.82,9.82,0,0,0,.38,2.69"/><path class="cls-2" d="M18.63,16.75a4.73,4.73,0,0,0,.06,1.19"/><path class="cls-2" d="M27.91,19.59a5.65,5.65,0,0,0-.11,1.69"/><path class="cls-2" d="M27.23,27.66A4.23,4.23,0,0,0,27.36,29"/><path class="cls-2" d="M10.79,13.72A4.84,4.84,0,0,0,10.36,16"/><path class="cls-2" d="M5.91,16.53l.32,1.63"/><path class="cls-2" d="M19.86,19.72l-.12,2.44"/><path class="cls-2" d="M22.16,18.34a13.06,13.06,0,0,0,.7,4.56"/><path class="cls-2" d="M6.86-2.35c-.05,1-.05,2,0,3"/><path class="cls-2" d="M14.44-2.6A11.18,11.18,0,0,0,14.61.56"/><path class="cls-2" d="M18.49-2.19A11.84,11.84,0,0,0,18.28.19"/><path class="cls-2" d="M25-4.23c.05,1.7.16,3.39.33,5.08"/><path class="cls-2" d="M27.23-1.15A4.26,4.26,0,0,0,27.36.23"/></pattern></defs><title>Management</title><g class="cls-3"><g id="Layer_1" data-name="Layer 1"><rect class="cls-4" x="408.6" y="248.61" width="1423.58" height="1246.01"/><rect class="cls-5" x="408.6" y="248.61" width="1423.58" height="1246.01"/><path class="cls-6" d="M774.72,291.31h0a287.41,287.41,0,0,0-57.63,1.4C572.08,311,462.32,440.06,462.32,605.13v633.36l573.39,43.25,51.4,3.88V652.26C1087.11,465.93,947.25,304.32,774.72,291.31Z"/><path class="cls-7" d="M1041.64,644.8c0-159.21-119.5-297.29-266.92-308.41h0a245.64,245.64,0,0,0-49.24,1.2c1.77.09,3.55.19,5.33.33h0C878.22,349,997.72,487.12,997.72,646.33v580.3l43.92,3.31Z"/><path class="cls-8" d="M730.8,337.92h0c-1.78-.14-3.56-.24-5.33-.33C601.58,353.2,507.79,463.49,507.79,604.53v585.14l489.93,37V646.33C997.72,487.12,878.22,349,730.8,337.92Z"/><path class="cls-7" d="M538.64,473.18A107,107,0,1,0,703.77,341.59C632.1,357.6,572.53,406,538.64,473.18Z"/><polygon class="cls-9" points="1751.99 385.46 1333.15 352.96 1389.27 311.27 1389.27 188.5 1751.99 216.65 1751.99 385.46"/><circle class="cls-10" cx="852.94" cy="547.69" r="40.2"/><path class="cls-11" d="M717.76,870.63a354.23,354.23,0,0,1,50.44-1.46c-3-7.79,1.28-16.6,9.52-19.73,3.53-1.34,7.62-1.74,10.77-3.6,4.44-2.62,6-7.49,8.33-11.7,6.62-12.16,21.28-20.39,37.42-21,11.93-.44,24,3,36,3.82s25.49-1.84,30.5-10.79c1.44-2.58,2.09-5.54,4-7.84s5.95-3.69,8.92-1.93c-4.35-12.46,16-18.65,21-30.22,1.33-3.11,1.48-6.58,2.23-9.87,4.93-21.56,33.82-30.94,59.84-31.58l-.08,109.34c-5.65,2.32-9.5,7-10.75,14-.47,2.58.64,9.61-3,10.85-1.24.43-8.94-1.94-11-2a24.27,24.27,0,0,0-14.22,3.46c-5.92,3.44-7.64,10.79-7.87,17.27-.34,9.18-1.23,6.12-10.67,4.06-7.71-1.69-16.89-2.9-23.64-.34-7.76,3-11.53,7.3-21.29,3.89-10.81-3.78-57.55-26.4-56.95-6.52-4.05-1.52-8.12-3.06-12.64-3-6.12.08-8.13,3.29-13.16,5-6.46,2.25-18.52.41-25.9-.21-6.4-.55-12-3.14-18.31-3.34-7.12-.22-18.3,1.94-25.22,5.92C732,882.09,720,879,717.76,870.63Z"/><path class="cls-12" d="M785.64,880.59c7.38.62,19.44,2.46,25.9.21,5-1.74,7-4.95,13.16-5,4.52-.06,8.59,1.48,12.64,3-.6-19.88,46.14,2.74,56.95,6.52,9.76,3.41,13.53-.94,21.29-3.89,6.75-2.56,15.93-1.35,23.64.34,9.44,2.06,10.33,5.12,10.67-4.06.23-6.48,2-13.83,7.87-17.27A24.27,24.27,0,0,1,972,857c2.08.07,9.78,2.44,11,2,3.63-1.24,2.52-8.27,3-10.85,1.25-7,5.1-11.7,10.75-14l0,82.91c-37.28,4.87-76.13-10.6-114.49-12.72-9.83-.54-19.83-.23-29.39-2.93-6.85-1.93-13.15-5.33-19.87-7.64-10.07-3.47-20.79-4.42-31.34-5.34l-57.71-5-1.78-.18c6.92-4,18.1-6.14,25.22-5.92C773.6,877.45,779.24,880,785.64,880.59Z"/><path class="cls-13" d="M996.69,917c-37.28,4.87-76.13-10.6-114.49-12.72-9.83-.54-19.83-.23-29.39-2.93-6.85-1.93-13.15-5.33-19.87-7.64-10.07-3.47-20.79-4.42-31.34-5.34l-57.71-5c-10.46-.91-23.74-3.85-26.13-12.72a354.23,354.23,0,0,1,50.44-1.46c-3-7.79,1.28-16.6,9.52-19.73,3.53-1.34,7.62-1.74,10.77-3.6,4.44-2.62,6-7.49,8.33-11.7,6.62-12.16,21.28-20.39,37.42-21,11.93-.44,24,3,36,3.82s25.49-1.84,30.5-10.79c1.44-2.58,2.09-5.54,4-7.84s5.95-3.69,8.92-1.93c-4.35-12.46,16-18.65,21-30.22,1.33-3.11,1.48-6.58,2.23-9.87,4.93-21.56,33.82-30.94,59.84-31.58"/><path class="cls-14" d="M508.82,675.45c11.13,3,24.07-3.67,35.21-.62,11.58,3.16,21.49.17,33.52.52,9.61.28,19.27-1.26,28.84-.45,8,.69,15.78,3,23.54,5.07A404.17,404.17,0,0,0,688.23,691a8.35,8.35,0,0,0,4.36-.28c3.36-1.49,3.34-6.47,1.46-9.59s-5-5.45-6.4-8.8c-.8-1.86-1.06-4-2.23-5.64a11.06,11.06,0,0,0-4.86-3.35c-14-6.07-30.9-8-40.93-19.55a23.37,23.37,0,0,1-6.08-15.52c.05-2.48.58-5,.08-7.42a15.71,15.71,0,0,0-2.88-5.78c-10.75-15.11-30.28-25.68-48.13-20l-7.56-28.73c-1.42-5.39-2.88-10.89-6-15.49-7.18-10.65-22-14.93-27.36-26.62-1.78-3.86-2.34-8.22-4.33-12s-7.75-9.91-11.82-8.57c0,0-17.77,38.56-17.77,106.28C507.79,649.76,508.82,675.45,508.82,675.45Z"/><polyline class="cls-15" points="1417.21 410.54 1404.76 415 1404.76 715.66 1651.13 734.22 1671.04 728.79"/><polygon class="cls-6" points="1671.04 728.79 1417.21 709.1 1417.21 410.54 1671.04 430.24 1671.04 728.79"/><path class="cls-16" d="M1658.21,1493.57l-11.15-803.06c-.12-9.39-6.56-15.49-14.4-13.63s-14.1,11-14,20.36l10.54,796.33"/><path class="cls-16" d="M1619,799.91l-140.37-9.61-.11-21.1L1623,779.1a8.9,8.9,0,0,1,8.49,9h0A12.07,12.07,0,0,1,1619,799.91Z"/><path class="cls-16" d="M1620.15,893.76l-140.38-9.62-.11-21.1,144.52,9.9a8.93,8.93,0,0,1,8.5,9.06h0A12.08,12.08,0,0,1,1620.15,893.76Z"/><path class="cls-16" d="M1621.34,987.61,1481,978l-.11-21.1,144.52,9.9a8.93,8.93,0,0,1,8.5,9.05h0A12.1,12.1,0,0,1,1621.34,987.61Z"/><path class="cls-16" d="M1622.52,1081.45l-140.38-9.62-.1-21.1,144.51,9.91a8.91,8.91,0,0,1,8.5,9h0A12.07,12.07,0,0,1,1622.52,1081.45Z"/><path class="cls-16" d="M1623.71,1175.3l-140.38-9.62-.11-21.1,144.52,9.9a8.93,8.93,0,0,1,8.5,9h0A12.1,12.1,0,0,1,1623.71,1175.3Z"/><path class="cls-16" d="M1624.89,1269.14l-140.37-9.62-.11-21.1,144.52,9.91a8.9,8.9,0,0,1,8.49,9.05h0A12.07,12.07,0,0,1,1624.89,1269.14Z"/><path class="cls-16" d="M1626.08,1363l-140.38-9.62-.11-21.1,144.52,9.9a8.92,8.92,0,0,1,8.5,9.06h0A12.09,12.09,0,0,1,1626.08,1363Z"/><path class="cls-16" d="M1627.27,1456.83l-140.38-9.61-.11-21.1,144.52,9.9a8.91,8.91,0,0,1,8.5,9h0A12.08,12.08,0,0,1,1627.27,1456.83Z"/><path class="cls-16" d="M1496.81,1493.57,1486.74,679.4c-.11-9.38-6.56-15.48-14.4-13.62s-14.1,11-14,20.36l10.11,807.19"/><polygon class="cls-17" points="1643.31 696.74 1445.33 681.38 1445.33 441.01 1643.31 456.38 1643.31 696.74"/><polygon class="cls-18" points="1643.31 696.74 1445.33 681.38 1445.33 441.01 1643.31 456.38 1643.31 696.74"/><path class="cls-19" d="M1445.33,591.37s47.14-8.13,71.26,13.93,21.31,83.26,21.31,83.26l-92.57-7.18Z"/><circle class="cls-19" cx="1514.09" cy="596.78" r="44.62"/><path class="cls-20" d="M1492.49,609l-8.6,30.56,30.2-24S1509.39,595.68,1492.49,609Z"/><polygon class="cls-21" points="1277.81 606.03 1023.14 586.27 1023.14 207.16 1277.81 226.92 1277.81 606.03"/><line class="cls-21" x1="1040.55" y1="295.12" x2="1260.4" y2="312.18"/><line class="cls-21" x1="1213.21" y1="247.72" x2="1260.43" y2="251.38"/><line class="cls-21" x1="1213.21" y1="256.61" x2="1260.43" y2="260.27"/><line class="cls-21" x1="1213.21" y1="265.5" x2="1260.43" y2="269.17"/><line class="cls-21" x1="1040.55" y1="321.07" x2="1260.4" y2="338.13"/><line class="cls-21" x1="1040.55" y1="347.02" x2="1260.4" y2="364.08"/><line class="cls-21" x1="1040.55" y1="372.97" x2="1260.4" y2="390.03"/><line class="cls-21" x1="1040.55" y1="398.92" x2="1260.4" y2="415.98"/><line class="cls-21" x1="1040.55" y1="424.87" x2="1260.4" y2="441.93"/><line class="cls-21" x1="1040.55" y1="450.82" x2="1260.4" y2="467.88"/><line class="cls-21" x1="1040.55" y1="476.77" x2="1260.4" y2="493.83"/><line class="cls-21" x1="1040.55" y1="502.72" x2="1260.4" y2="519.78"/><line class="cls-21" x1="1040.55" y1="528.67" x2="1219.14" y2="542.53"/><polygon class="cls-16" points="1643.31 456.38 1445.33 496.95 1445.33 441.01 1643.31 456.38"/><path class="cls-11" d="M806.07,1144.7l57.57-19.57,4.82-21.23c1.53-8.27,1.31-22-1.62-30-1.31-3.62-3.17-7-4.11-10.88-1-4.06.52-9.79-1.6-13-3-4.57-13.5-5.28-17.9-3.2-6.87,3.24-6.17,8.76-7.28,14.72-.48,2.6-1.78,3.32-3.2,5.23a32.73,32.73,0,0,0-4.09,7.13h0c-11.33,0-20.79-4.43-31.9-6-9.12-1.32-17.68-2.2-26.84-3.69-14.58-2.37-25-3.5-37.72-4.86-14.42-1.54-39.37-1-43.46,8.31-11.7,1.81-21.22,5.91-20.31,14.65h0c-3.49,2.75-4.95,6.43.18,10.26h.08a4.63,4.63,0,0,0-.43.56c-5.62,8.75,12.4,11.42,18.59,12.46,21,3.54,42.33,2.61,63.39,7.3,17.07,3.8,28.57,12.82,42.66,22.86Z"/><path class="cls-22" d="M920.11,1493.75c.07-9.2,13.13-80.09,13.13-80.09-9.65,2.69-21.52,6.22-32.09,3.5-11.86-3.05-20.3-10.93-27.26-21.07-25.64-37.39-46.49-141.58-59.17-184.78-4.86-16.59-14.78-41.81-21.94-57.61-1.75-3.86-7.49-10.47-5.07-15.09,2.3-4.39,12.41-3.06,17.29-3.71,18.24-2.41,60.77-12,63.88-33,6.54.09,13.94,15.62,16.81,20.48,6.11,10.39,34.82,86.58,40.95,97.06,5.49,9.39,8.15,19.8,13.27,29.37l6.82,12.76c17.68-50,81.35-169.08,103.93-192.67,17.06-17.82,38.29-31.14,62.49-37.05,4.62-1.13,10.56-1.34,14.75-3.44,12.64-6.33,29,1.11,43.21.23,18.57-1.15,36.61-8.62,53.89-15.14,18.49-7,37.75-15.26,57.75-16.37,21.07-1.16,42.62,4.57,58.7,20.32,10.39.46,13.59-.61,23.74-1.26,59.68,2.34,92.39,61.47,117.42,109.54,34.38,66,49.06,165.34,61.48,367.38"/><path class="cls-23" d="M1193.24,1033.69s52.49,31,52.49,30.2S1285,989.38,1285,989.38l-48.82-11.29"/><path class="cls-24" d="M1289,962.57c79.32,45.11,20.66,68.53,12.44,88-19.78,46.91-39.3,54.28-61,91.22-55.45,94.59-65.73,214.42-74.67,321.17a.26.26,0,0,1-.46.15c-1.64-2-4.73-3.06-7.13-5.38a.27.27,0,0,0-.45.18c-.16,2.42-1.55,4.08-2.07,6.28a.27.27,0,0,1-.47.11c-4.12-4.94-8.78-4-11.78,1.1a.26.26,0,0,1-.47,0c-.68-1.51-2.48-3.32-3.08-4.85a.23.23,0,0,0-.23-.17c-1.87,0-6,.08-7.75.32a.24.24,0,0,0-.17.09,20.22,20.22,0,0,1-3,2.89.26.26,0,0,1-.41-.09c-.9-1.84-3.35-4.28-4.16-6.44a.27.27,0,0,0-.46-.09c-1,1.31-3.06,2.63-4.08,4a.25.25,0,0,1-.41,0,6.77,6.77,0,0,0-9.68-1.14.26.26,0,0,1-.4-.09c-1.64-3.44-3.12-7-4.43-10.56a.27.27,0,0,0-.47-.06c-1,1.6-3.09,3.14-4.09,5a.26.26,0,0,1-.44,0c-3-3.86-7-3.48-10.63.36a.25.25,0,0,1-.39,0c-1-1.25-3.35-2.67-4.35-4.25a.26.26,0,0,0-.42,0c-1.11,1.17-1.86,1-2.85,2.62a.26.26,0,0,1-.48-.06c-.5-2-2.2-4.45-2.77-6.13a.27.27,0,0,0-.45-.08,43.86,43.86,0,0,1-3.78,3,.26.26,0,0,1-.44-.2c0-85.29,10.65-167,42-246.59,23-58.43,52.67-86,93.78-133.19,13.88-16,28.71-32.26,41.41-48.78,5.48-7.11,9.45-12.57,8.16-22.27"/><path class="cls-25" d="M1289,962.57c79.32,45.11,20.66,68.53,12.44,88-19.78,46.91-39.3,54.28-61,91.22-55.45,94.59-65.73,214.42-74.67,321.17a.26.26,0,0,1-.46.15c-1.64-2-4.73-3.06-7.13-5.38a.27.27,0,0,0-.45.18c-.16,2.42-1.55,4.08-2.07,6.28a.27.27,0,0,1-.47.11c-4.12-4.94-8.78-4-11.78,1.1a.26.26,0,0,1-.47,0c-.68-1.51-2.48-3.32-3.08-4.85a.23.23,0,0,0-.23-.17c-1.87,0-6,.08-7.75.32a.24.24,0,0,0-.17.09,20.22,20.22,0,0,1-3,2.89.26.26,0,0,1-.41-.09c-.9-1.84-3.35-4.28-4.16-6.44a.27.27,0,0,0-.46-.09c-1,1.31-3.06,2.63-4.08,4a.25.25,0,0,1-.41,0,6.77,6.77,0,0,0-9.68-1.14.26.26,0,0,1-.4-.09c-1.64-3.44-3.12-7-4.43-10.56a.27.27,0,0,0-.47-.06c-1,1.6-3.09,3.14-4.09,5a.26.26,0,0,1-.44,0c-3-3.86-7-3.48-10.63.36a.25.25,0,0,1-.39,0c-1-1.25-3.35-2.67-4.35-4.25a.26.26,0,0,0-.42,0c-1.11,1.17-1.86,1-2.85,2.62a.26.26,0,0,1-.48-.06c-.5-2-2.2-4.45-2.77-6.13a.27.27,0,0,0-.45-.08,43.86,43.86,0,0,1-3.78,3,.26.26,0,0,1-.44-.2c0-85.29,10.65-167,42-246.59,23-58.43,52.67-86,93.78-133.19,13.88-16,28.71-32.26,41.41-48.78,5.48-7.11,9.45-12.57,8.16-22.27"/><path class="cls-23" d="M1126.16,1095.19s30.58,56.94,86.79,44.9,84.3-42.25,105.13-75.31,30.39-39.25,46.05-48.58"/><path class="cls-24" d="M1258.54,963.7c-24,8.63-51.09,7.1-75.32,15.94-25.46,9.3-50.29,31.07-60.26,56.65-7.42,19-9.47,45.11,1,63.15,19.32,33.35,69.45,42.66,103.53,32.27,33.62-10.24,63.12-40.78,84.63-67.54,8.8-11,16.23-22.7,26.8-32.45,6.12-5.64,14.46-14.4,25.23-15.52,17.5-1.82-24.57-18.66-33.44-19.86-13.19-1.78-23-.81-34.21,5.87-18.1,10.83-30.37,33-51.44,39.85-10,3.26-17.92,1.64-24-6.93-9.12-12.84-2-22.44,9.28-33.05"/><path class="cls-25" d="M1258.54,963.7c-24,8.63-51.09,7.1-75.32,15.94-25.46,9.3-50.29,31.07-60.26,56.65-7.42,19-9.47,45.11,1,63.15,19.32,33.35,69.45,42.66,103.53,32.27,33.62-10.24,63.12-40.78,84.63-67.54,8.8-11,16.23-22.7,26.8-32.45,6.12-5.64,14.46-14.4,25.23-15.52,17.5-1.82-24.57-18.66-33.44-19.86-13.19-1.78-23-.81-34.21,5.87-18.1,10.83-30.37,33-51.44,39.85-10,3.26-17.92,1.64-24-6.93-9.12-12.84-2-22.44,9.28-33.05"/><path class="cls-23" d="M1160.86,1012.22s33.79,27.12,72.17,15.83,44.1-50,66.89-58.86c-8.94-5.49-13.83-6.62-13.83-6.62"/><path class="cls-13" d="M792.9,1135.68c-14.09-10-25.59-19.06-42.65-22.86-21.07-4.69-42.37-3.76-63.39-7.3-6.19-1-24.22-3.71-18.6-12.46,3.85-6,20.31-3.94,26-3.75,19.73.67,41.23,3.34,61,5.47"/><path class="cls-13" d="M668.61,1092.5c-9-6.75,2.39-13,9.31-14.56,7.16-1.57,15.83-.58,23.11-.25,17.28.77,34.63,3.67,51.93,3.87,6,.07,10.13,1.54,15.86,1.74"/><path class="cls-13" d="M668.43,1082.24c-2-19.32,47-16,57.68-15.29,11.57.73,22.93,4,34.38,5,9,.8,14.21,1.27,23.09,2.75"/><path class="cls-13" d="M688.74,1067.6c4.08-9.32,29-9.86,43.46-8.32,12.74,1.36,23.14,2.49,37.72,4.86,9.16,1.49,17.72,2.37,26.84,3.69,11.11,1.61,20.57,6,31.9,6"/><path class="cls-13" d="M828.19,1089.31c-2.93-8.58-.29-16,4.56-22.57,1.42-1.91,2.72-2.63,3.2-5.23,1.11-6,.41-11.48,7.28-14.72,4.41-2.08,14.89-1.37,17.9,3.2,2.12,3.21.6,8.94,1.6,13,.94,3.83,2.8,7.26,4.12,10.88,2.92,8.05,3.14,21.76,1.61,30"/><path class="cls-13" d="M750.23,1100.25c9.07-13.25,26.32-21.68,40.12-29.18"/><path class="cls-13" d="M775.76,1103.9A224.7,224.7,0,0,1,820,1093"/><path class="cls-26" d="M933.24,1413.66c8.18-32,15.19-60.92,24.12-92.71,16.94-60.25,15.22-62.77,43.2-119.06,22.35-45,48.92-86.84,77.58-128"/><path d="M1382.56,1494.22c.09-19.57,0-47.59,0-67.16a1371.79,1371.79,0,0,0-11.28-176.71s3.9,129.61,0,136.25-2.78,19.36,2.3,29.94,1.7,17.91-2.25,30.33,2.56,30.38-2.39,47.35"/><path class="cls-26" d="M946.91,1260.75c1.22,6.58,6.18,13.15,9.54,19,3.46,6,5.19,13,8,19.39"/><path class="cls-26" d="M801.93,1159.29c12.84-.09,24.92-.19,37.25-4.52"/><path class="cls-26" d="M818.86,1171.71a56.64,56.64,0,0,1-15.8-5.65"/><path class="cls-26" d="M950.3,1270.91c4.15,1.46,9.68,2.09,13,5.08"/><path class="cls-13" d="M1345.35,1025.8s36.09-1.52,50.39,11.28,47.41,40.9,58.7,67.11,21.82,21.52,29.35,52.84,19.57,100.56,24.84,146.47-12.8,60.21-3,58,15.05-3.76,10.53,5.27-2.75,28.89,1.64,49.82,6.64,76.58,6.64,76.58"/><path class="cls-14" d="M1130,847c9-74,12.82-149.73,28.88-222.6,5-22.63,11.29-45.26,24.84-64.46,5.55-7.86,17-14.6,28.29-10.6,26.53,9.38,12.61,52.63,6.79,82.86-12.91,67.06-18.07,115.8-18.06,174.91"/><path class="cls-14" d="M1253.65,779c-54.15-19.8-113,11.18-123.62,58.18-7.14,31.74-10,55.69-9.7,88.72.26,30.42,5.81,52.53,25.94,74.46,14.39,15.69,34.85,22.36,54.7,22.8,61.32,1.34,101.59-60.74,114.42-116.08,16.65-71.85,23.51-146.91,34.09-219.88,4.21-29,7.87-58.1,9.73-87.39,1.19-18.66,3.53-40.15-4.79-57.74-10.07-21.27-34.75-14.35-45.24,1-11.28,16.5-15.47,39.81-20.57,58.78-5.46,20.3-9.63,40.78-13.67,61.39-5.34,27.23-10.82,53.83-15.34,81.25-2.82,17.11-5,28.73-8,44.91"/><path class="cls-23" d="M1159.48,896.53c-4.57,18.27,26.76,14,19.22-3C1174.62,884.33,1162,886.29,1159.48,896.53Z"/><path class="cls-13" d="M1243.67,908.67c-28.35,21-63.5,25.73-78.62,13.42,0,0-20.07,16.4-48.31-8.41"/><path class="cls-13" d="M1310.64,555.82c2.69-6.34,7.42-14,15.62-13.44,9.41.66,8.35,16.75,7.84,23.27-.68,8.8-4.19,18.37-7.84,25.66-4.55,9.08-5.26,13.28-2.37,22,2.59,7.76-.7,12.85-2.56,20.16-1.8,7.08,2.64,11.5,2.76,18.37.2,11.06-3.52,21.06-5.52,31.78-2.7,14.38-8.08,28.65-9.7,43.17-.66,6,0,6,2.76,10.24,2,3,3.38,3.81,2.29,8.13-1.7,6.74-7.42,11.74-8.6,18.91-1.32,8.06,4.35,13.7-3.2,19.09-4.94,3.52-7.44,4.48-1.5,8.57-1.66,1.09-3.5,1.77-5.23,2.72.16,1.11.68.64,1.39.9"/><path class="cls-23" d="M1117.08,849.31h66.42s-18.06,35.19-40.26,35.19S1117.08,849.31,1117.08,849.31Z"/><path class="cls-23" d="M1194.5,849.31h66.42s-18.06,35.19-40.27,35.19S1194.5,849.31,1194.5,849.31Z"/><line class="cls-23" x1="1121.6" y1="849.31" x2="1304.3" y2="849.31"/><path class="cls-13" d="M1281.53,790.42c10.93,3.58,20.61,8.19,29.35,15.81"/><path class="cls-13" d="M1181.43,573.67c2.9-6.91,13-15.89,20.25-10.55,6.94,5.08,3.61,12.61-.64,18.13-4.51,5.84-12.16,9.92-8.72,17.63,1.94,4.34,2.79,6.83,1.53,12.12-1.48,6.24-3.61,12.39-5.3,18.57-4.3,15.8-6.62,30.71-5.9,47.17.37,8.58.58,15.47-3.77,23-3.25,5.61-9.85,16-7.17,23.19,1.84,4.92,6.27,5.77,5.56,12.26-.37,3.45-2.36,6.63-4,9.62-1.08,1.94-5.29,7-4.71,9.55,1,4.36,6.87,4.17,6.35,9.73-.61,6.52-11,7.43-10.34,14.12,1.68.43,3.43.1,5,.71-2.13,3.7-9.3,2.86-13,4.47.22.1,2.36,5.05,2.59,5.18.09,1.79-1.74,2.3-2.21,3.73a20.82,20.82,0,0,0-.38,2.63"/><path class="cls-26" d="M1242.54,1183.84a227.09,227.09,0,0,0,31.13,0c19.2-1.13,62.09,0,62.09,0"/><path class="cls-26" d="M1155.82,1011.42s20,39.66,73.83,38.3,132.83-62.69,79.4-44.63"/><path class="cls-20" d="M1761.46,1493.57,1649.29,690.51c-1.3-9.39-8.52-15.49-16.12-13.63s-12.72,11-11.42,20.36l110.71,796.33"/><path class="cls-20" d="M1635,799.91l-141.58-9.61-2.77-21.1,145.77,9.9a10.41,10.41,0,0,1,9.63,9h0A10.43,10.43,0,0,1,1635,799.91Z"/><path class="cls-20" d="M1648,893.76l-141.59-9.62L1503.6,863l145.76,9.9A10.45,10.45,0,0,1,1659,882h0A10.43,10.43,0,0,1,1648,893.76Z"/><path class="cls-20" d="M1660.94,987.61,1519.35,978l-2.76-21.1,145.76,9.9a10.45,10.45,0,0,1,9.64,9.05h0A10.44,10.44,0,0,1,1660.94,987.61Z"/><path class="cls-20" d="M1673.93,1081.45l-141.59-9.62-2.76-21.1,145.76,9.91a10.43,10.43,0,0,1,9.64,9h0A10.43,10.43,0,0,1,1673.93,1081.45Z"/><path class="cls-20" d="M1686.92,1175.3l-141.59-9.62-2.76-21.1,145.76,9.9a10.44,10.44,0,0,1,9.64,9h0A10.44,10.44,0,0,1,1686.92,1175.3Z"/><path class="cls-20" d="M1699.91,1269.14l-141.59-9.62-2.76-21.1,145.77,9.91a10.42,10.42,0,0,1,9.63,9.05h0A10.43,10.43,0,0,1,1699.91,1269.14Z"/><path class="cls-20" d="M1712.9,1363l-141.58-9.62-2.77-21.1,145.77,9.9a10.43,10.43,0,0,1,9.63,9.06h0A10.43,10.43,0,0,1,1712.9,1363Z"/><path class="cls-20" d="M1725.89,1456.83l-141.58-9.61-2.77-21.1,145.77,9.9a10.43,10.43,0,0,1,9.64,9h0A10.43,10.43,0,0,1,1725.89,1456.83Z"/><path class="cls-20" d="M1600.06,1493.57,1487.57,679.4c-1.3-9.38-8.51-15.48-16.11-13.62s-12.73,11-11.43,20.36l111.65,807.19"/><polygon class="cls-19" points="628.12 1004.11 737.88 907.25 745.55 1009.47 628.12 1004.11"/><polygon class="cls-27" points="745.55 1009.47 798.02 1056.76 737.88 907.25 745.55 1009.47"/><polygon class="cls-28" points="798.02 1056.76 679.16 1049.84 628.12 1004.11 745.55 1009.47 798.02 1056.76"/><polygon class="cls-29" points="639.51 842.68 544.03 774.36 581.92 627.73 677.41 696.05 639.51 842.68"/><polygon class="cls-30" points="639.51 842.68 756.14 829.18 794.04 682.55 677.41 696.05 639.51 842.68"/><polygon class="cls-31" points="677.41 696.05 581.92 627.73 696.94 620.49 794.04 682.55 677.41 696.05"/><ellipse class="cls-9" cx="1507.49" cy="279.26" rx="18.72" ry="24.19" transform="matrix(1, -0.04, 0.04, 1, -8.88, 53.16)"/><ellipse class="cls-9" cx="1569.22" cy="284.66" rx="18.72" ry="24.19" transform="translate(-9.04 55.33) rotate(-2.01)"/><ellipse class="cls-9" cx="1627.38" cy="290.48" rx="18.72" ry="24.19" transform="translate(-9.2 57.38) rotate(-2.01)"/><path class="cls-16" d="M1496.64,590.44c-1.66,0-2.77-3.88,0-4.43S1496.64,590.44,1496.64,590.44Z"/><path class="cls-16" d="M1518.53,592.67c-1.66,0-2.77-3.87,0-4.43S1518.53,592.67,1518.53,592.67Z"/><path class="cls-19" d="M1534.71,645.22s41.5,18.32,60.5,61.32,7.5,45.86-4,27.68-14-24.18-14-24.18,9.88,25.76,3.22,29.5c-6.22,3.5-15.22-23.8-18.72-42.8,0,15.5-1.77,31.66-6.2,27.23-3.67-3.67-9.21-19.57-8.3-37.93-3.09,27.25-9.31,2.52-9.31,2.52S1539.22,672.41,1534.71,645.22Z"/></g></g></svg>