<svg xmlns="http://www.w3.org/2000/svg" xmlns:xlink="http://www.w3.org/1999/xlink" viewBox="0 0 2240.78 1683.13"><defs><style>.cls-1,.cls-14,.cls-2,.cls-26,.cls-29{fill:none;}.cls-10,.cls-11,.cls-12,.cls-13,.cls-14,.cls-15,.cls-16,.cls-17,.cls-18,.cls-19,.cls-2,.cls-20,.cls-21,.cls-22,.cls-23,.cls-24,.cls-25,.cls-26,.cls-27,.cls-28,.cls-29,.cls-4,.cls-5,.cls-6,.cls-7,.cls-8,.cls-9{stroke:#000;}.cls-10,.cls-12,.cls-14,.cls-15,.cls-16,.cls-17,.cls-18,.cls-19,.cls-2,.cls-20,.cls-21,.cls-22,.cls-25,.cls-27,.cls-28,.cls-7{stroke-linecap:round;}.cls-11,.cls-13,.cls-2,.cls-23,.cls-24,.cls-26{stroke-miterlimit:10;}.cls-2{stroke-width:0.5px;}.cls-3{isolation:isolate;}.cls-4{fill:#c2ac8f;}.cls-10,.cls-12,.cls-14,.cls-15,.cls-16,.cls-17,.cls-18,.cls-19,.cls-20,.cls-21,.cls-22,.cls-25,.cls-27,.cls-28,.cls-29,.cls-4,.cls-5,.cls-6,.cls-7,.cls-8,.cls-9{stroke-linejoin:round;}.cls-10,.cls-11,.cls-12,.cls-13,.cls-14,.cls-15,.cls-16,.cls-17,.cls-18,.cls-19,.cls-20,.cls-21,.cls-22,.cls-23,.cls-24,.cls-25,.cls-26,.cls-27,.cls-28,.cls-29,.cls-4,.cls-5,.cls-6,.cls-7,.cls-8,.cls-9{stroke-width:2px;}.cls-5{fill:#867763;}.cls-6{opacity:0.11;mix-blend-mode:multiply;fill:url(#_10_dpi_20_);}.cls-7{fill:#debb97;}.cls-8{fill:#992b16;}.cls-10{fill:#f4eed8;}.cls-11{fill:#1d1d1b;}.cls-12{fill:#f07f2c;}.cls-13{fill:#f59f5c;}.cls-15{fill:#c5d7ea;}.cls-16{fill:#562b30;}.cls-17{fill:#92b193;}.cls-18{fill:#e6ab55;}.cls-19{fill:#ffdf8c;}.cls-20{fill:#4c3216;}.cls-21{fill:#fff;}.cls-22{fill:#ce9fb5;}.cls-23{opacity:0.23;fill:url(#_10_dpi_20_2-2);}.cls-24{fill:#1f3b38;}.cls-27{fill:#bd2f56;}.cls-28{fill:#864146;}</style><pattern id="_10_dpi_20_" data-name="10 dpi 20%" width="28.8" height="28.8" patternTransform="translate(-766.66 742.6) scale(4.43)" patternUnits="userSpaceOnUse" viewBox="0 0 28.8 28.8"><rect class="cls-1" width="28.8" height="28.8"/><path class="cls-2" d="M9.11,28a4,4,0,0,0,0,2.13"/><path class="cls-2" d="M6.45,8.27a17.88,17.88,0,0,0,.79,6.66"/><path class="cls-2" d="M15.15,6.18A10.42,10.42,0,0,1,15,9.38"/><path class="cls-2" d="M10.51,4.15a8.6,8.6,0,0,0,.27,3.46"/><path class="cls-2" d="M6.31,4A10.69,10.69,0,0,1,6.4,5.78"/><path class="cls-2" d="M12.55,8.69l-.31,2.17"/><path class="cls-2" d="M14.81,1.61a7.9,7.9,0,0,0-.57,2.88"/><path class="cls-2" d="M20.11,13.61a10.13,10.13,0,0,1,.29,2.25"/><path class="cls-2" d="M20.17,2.16a22.46,22.46,0,0,0-.4,3.37"/><path class="cls-2" d="M25.57,6.29a6.24,6.24,0,0,0-.1,3"/><path class="cls-2" d="M12.54,16a10.72,10.72,0,0,1,.23,2.71"/><path class="cls-2" d="M5.45,20a9.91,9.91,0,0,0-.51,3.33"/><path class="cls-2" d="M10.35,24.61a4.52,4.52,0,0,0,.09,2.13"/><path class="cls-2" d="M20.44,24.11a7.63,7.63,0,0,1,0,1.17"/><path class="cls-2" d="M3,12.7a3.7,3.7,0,0,0,.18,2.08"/><path class="cls-2" d="M3.81,7.45a8.55,8.55,0,0,0,.51,3.08"/><path class="cls-2" d="M15.17,20.43a8.45,8.45,0,0,1,0,2.46"/><path class="cls-2" d="M25.43,11.45a7.43,7.43,0,0,1-.25,3"/><path class="cls-2" d="M16.47,14a16.1,16.1,0,0,0,.32,4.54"/><path class="cls-2" d="M21.65,8.61A9.85,9.85,0,0,1,21.89,11"/><path class="cls-2" d="M17.69,20.76a40.5,40.5,0,0,1-1.08,5.12"/><path class="cls-2" d="M12.13,20.61a13.65,13.65,0,0,0,.53,3.17"/><path class="cls-2" d="M8.38,18.38a24,24,0,0,0-.4,5.8"/><path class="cls-2" d="M1.26,18.07a19.89,19.89,0,0,0,.57,5"/><path class="cls-2" d="M4,16.53a17,17,0,0,0-.45,2.83"/><path class="cls-2" d="M3,24.37A23,23,0,0,0,3.7,28"/><path class="cls-2" d="M6.86,26.45c-.05,1-.05,2,0,3"/><path class="cls-2" d="M14.44,26.2a11.18,11.18,0,0,0,.17,3.16"/><path class="cls-2" d="M18.49,26.61A11.84,11.84,0,0,0,18.28,29"/><path class="cls-2" d="M22.53,24.86c0,.89-.05,1.78,0,2.67"/><path class="cls-2" d="M25,24.57c.05,1.7.16,3.4.33,5.09"/><path class="cls-2" d="M25.38,17.81c-.08.94-.12,1.88-.13,2.83"/><path class="cls-2" d="M27.39,23.24l.17,1.87"/><path class="cls-2" d="M23.1,1a5.81,5.81,0,0,1,0,2.42"/><path class="cls-2" d="M27.14,2.11l-.09,2"/><path class="cls-2" d="M27.71,8.4a5.07,5.07,0,0,0,.75,2.75"/><path class="cls-2" d="M27.92,15a10.3,10.3,0,0,0-.14,2.29"/><path class="cls-2" d="M1.44,5.45a18.78,18.78,0,0,0-.12,3"/><path class="cls-2" d="M3.71,3a8.54,8.54,0,0,0,.57,2.83"/><path class="cls-2" d="M1.23.28,1.1,2.15"/><path class="cls-2" d="M9.11-.85a4,4,0,0,0,0,2.13"/><path class="cls-2" d="M11.9.53V2.41"/><path class="cls-2" d="M17.19,3a4.76,4.76,0,0,0,0,1.25"/><path class="cls-2" d="M9.23,9a7.63,7.63,0,0,0-.07,3.33"/><path class="cls-2" d="M.61,13c0,.64-.06,1.27,0,1.91"/><path class="cls-2" d="M.34,25.41a11.3,11.3,0,0,0,.35,2.08"/><path class="cls-2" d="M17.93,7a9.78,9.78,0,0,0,.72,4.63"/><path class="cls-2" d="M15,11.26a13.65,13.65,0,0,0-.3,3.37"/><path class="cls-2" d="M23.17,5.41a10.62,10.62,0,0,1-.12,2.25"/><path class="cls-2" d="M22.73,13.53a9.82,9.82,0,0,0,.38,2.69"/><path class="cls-2" d="M18.63,16.75a4.73,4.73,0,0,0,.06,1.19"/><path class="cls-2" d="M27.91,19.59a5.65,5.65,0,0,0-.11,1.69"/><path class="cls-2" d="M27.23,27.66A4.23,4.23,0,0,0,27.36,29"/><path class="cls-2" d="M10.79,13.72A4.84,4.84,0,0,0,10.36,16"/><path class="cls-2" d="M5.91,16.53l.32,1.63"/><path class="cls-2" d="M19.86,19.72l-.12,2.44"/><path class="cls-2" d="M22.16,18.34a13.06,13.06,0,0,0,.7,4.56"/><path class="cls-2" d="M6.86-2.35c-.05,1-.05,2,0,3"/><path class="cls-2" d="M14.44-2.6A11.18,11.18,0,0,0,14.61.56"/><path class="cls-2" d="M18.49-2.19A11.84,11.84,0,0,0,18.28.19"/><path class="cls-2" d="M25-4.23c.05,1.7.16,3.39.33,5.08"/><path class="cls-2" d="M27.23-1.15A4.26,4.26,0,0,0,27.36.23"/></pattern><pattern id="_10_dpi_20_2-2" data-name="10 dpi 20% 2" width="28.8" height="28.8" patternTransform="translate(326.45 1764.32) scale(4.43)" patternUnits="userSpaceOnUse" viewBox="0 0 28.8 28.8"><rect class="cls-1" width="28.8" height="28.8"/><path class="cls-2" d="M2.75,28.08c.37-.06.71.42,1,.62a3.32,3.32,0,0,1,1.61,2,3.61,3.61,0,0,0,.31,1.53,4.72,4.72,0,0,0,1.28.93c.65.45.51,1.81,1.16,2.26s1.23,1,1.9,1.37A34.67,34.67,0,0,0,14.4,39c1,.41,2.81-.26,3.69.3a10,10,0,0,1,1.71,1.07c.57.56.51,1.1.75,1.81s1.08.92,1.74,1.32a19.14,19.14,0,0,0,1.83,1c.56.27,1.25.4,1.77.7s.25.63,0,1-.48.53.1.83c.28.15.52.3.77.46"/><path class="cls-2" d="M20.75,29c.26.66,1.3.68,1.47,1.45.12.58-.58.82-.32,1.38s1.34.72,2,.84,2,.16,2.4.76c.3.42-.21.8.07,1.13s.87.23,1.14.52.11.39.25.53.55.17.75.47"/><path class="cls-2" d="M5.58,28c0,.8,1.64,1.38,2.07,2s0,1.37.51,2"/><path class="cls-2" d="M17.12,28.42c0,.07,0,.09,0,.14.29.56.94.8,1.14,1.47a1.57,1.57,0,0,1,0,.86c-.16,1,.58,1.15,1.3,1.62"/><path class="cls-2" d="M27.76,21.86c.59.76,1.82,1,2.63,1.49A3.68,3.68,0,0,1,32,25c.64,1,1.61,1.07,2.67,1.49A10,10,0,0,1,37,27.85c.53.4.91,1,1.47,1.34"/><path class="cls-2" d="M26.68,18.53c2.05.6,3.6,1.86,5.4,2.95A26.22,26.22,0,0,1,37,25.32a12.19,12.19,0,0,0,4,2.15c1.22.51,2.1,1.68,3.33,2.06"/><path class="cls-2" d="M26.76,13.78c1.33.5,2.43,1.57,3.81,2a11.41,11.41,0,0,1,4.59,2.72c1.06.93.49,1.1.25,2.11s2,1.35,2.78,1.93c1.36,1,3,1.26,4.45,2.1.81.48,1,1.22,1.68,1.69,1.07.71,2.43,1,3.49,1.75a4.81,4.81,0,0,0,1.95,1"/><path class="cls-2" d="M26.1,8.4c.06.46.39.65.79.95a47.71,47.71,0,0,0,6.26,3.47c2,1,2.34,2,4.24,3.22a14.8,14.8,0,0,1,3.24,2.17c1.32,1.42-.39.83-.72,1.76s3.3,1.71,3.73,1.92c1.23.58,2.85.9,3.94,1.71,1.3.95-.3.86,0,1.81.19.75,2.27,1.23,2.82,1.47A13.63,13.63,0,0,1,52.47,28,10.07,10.07,0,0,0,55,29.53"/><path class="cls-2" d="M28.16,7.22a17.72,17.72,0,0,1,2.21,1.69,28.8,28.8,0,0,0,6.93,3.57A24.26,24.26,0,0,1,42,15.14c1.07.68,2.26,1.07,3.37,1.66.68.36-.16,1.12.29,1.81s2.2.85,2.64,1.41c.85,1.1,3,1.39,3.34,2.82-.61.25-.52.61-.09,1,.85.74,2.42.53,3.44.91a13.38,13.38,0,0,1,2.34,1.55c1,.63,2,1.25,3.05,1.8"/><path class="cls-2" d="M26.05.61c.62-.11,1.61.86,2.11,1.17a26.84,26.84,0,0,0,2.89,1.56,3.54,3.54,0,0,1,1.84,1.25c.42.77-.18,1.82.37,2.4s1.51,2.44,2.37,2.73a38.07,38.07,0,0,1,6.45,3c.78.42,1.49-.78,1.88,0s.65.69,1.3.83a5.93,5.93,0,0,1,3.25,1.37,11.08,11.08,0,0,1,1.19,1.68c.36.61.43,1.34,1,1.78s1.92.29,2.24,1.2c.11.31,0,.31.23.55a6.63,6.63,0,0,0,1.17.65,11,11,0,0,0,1.19.59c.3.12.72.19.91.47"/><path class="cls-2" d="M27.84,16.16a11.69,11.69,0,0,0,1.36.72c.72.42,1.37.86,2.12,1.22s1.56,1.07,2.43,1.44"/><path class="cls-2" d="M24.88,22.58a5.7,5.7,0,0,0,1.53.74c.71.31,1.37.69,2.06,1,.31.15.65.14,1,.27s.72.64,1.17.83"/><path class="cls-2" d="M-1,21.86c.59.76,1.82,1,2.63,1.49A3.68,3.68,0,0,1,3.18,25c.64,1,1.61,1.07,2.67,1.49a10,10,0,0,1,2.31,1.33c.53.4.92,1,1.47,1.34"/><path class="cls-2" d="M-2.12,18.53c2.05.6,3.6,1.86,5.4,2.95a25.9,25.9,0,0,1,4.89,3.84,12.19,12.19,0,0,0,4,2.15c1.22.51,2.1,1.68,3.33,2.06"/><path class="cls-2" d="M-2,13.78c1.33.5,2.43,1.57,3.81,2a11.41,11.41,0,0,1,4.59,2.72c1.06.93.49,1.1.25,2.11s2,1.35,2.78,1.93c1.36,1,3,1.26,4.45,2.1.81.48,1,1.22,1.68,1.69,1.07.71,2.43,1,3.49,1.75a4.81,4.81,0,0,0,1.95,1"/><path class="cls-2" d="M-2.7,8.4c.06.46.39.65.79.95a47.71,47.71,0,0,0,6.26,3.47c2,1,2.34,2,4.24,3.22a14.8,14.8,0,0,1,3.24,2.17c1.32,1.42-.39.83-.72,1.76s3.3,1.71,3.73,1.92c1.23.58,2.85.9,3.94,1.71,1.3.95-.3.86-.05,1.81.19.75,2.27,1.23,2.82,1.47A13.63,13.63,0,0,1,23.67,28a10.07,10.07,0,0,0,2.56,1.57"/><path class="cls-2" d="M-.64,7.22A17.72,17.72,0,0,1,1.57,8.91,28.8,28.8,0,0,0,8.5,12.48a24.26,24.26,0,0,1,4.67,2.66c1.07.68,2.26,1.07,3.37,1.66.68.36-.16,1.12.29,1.81s2.2.85,2.64,1.41c.85,1.1,3,1.39,3.34,2.82-.61.25-.52.61-.09,1,.85.74,2.42.53,3.44.91a13.38,13.38,0,0,1,2.34,1.55c1,.63,2,1.25,3.05,1.8"/><path class="cls-2" d="M-2.75.61c.62-.11,1.61.86,2.12,1.17A25.78,25.78,0,0,0,2.25,3.34,3.54,3.54,0,0,1,4.09,4.59c.42.77-.18,1.82.37,2.4S6,9.43,6.83,9.72a38.07,38.07,0,0,1,6.45,3c.78.42,1.49-.78,1.88,0s.65.69,1.3.83a5.93,5.93,0,0,1,3.25,1.37,11.08,11.08,0,0,1,1.19,1.68c.36.61.43,1.34,1,1.78s1.92.29,2.24,1.2c.11.31,0,.31.23.55a6.63,6.63,0,0,0,1.17.65,12,12,0,0,0,1.19.59c.3.12.72.19.91.47"/><path class="cls-2" d="M2.75-.72c.37-.06.71.42,1,.62a3.32,3.32,0,0,1,1.61,2,3.64,3.64,0,0,0,.31,1.53,4.72,4.72,0,0,0,1.28.93c.65.45.51,1.8,1.16,2.26S9.3,7.61,10,8a34.67,34.67,0,0,0,4.43,2.13c1,.41,2.81-.26,3.69.3a10,10,0,0,1,1.71,1.07c.57.56.51,1.1.75,1.81s1.08.92,1.74,1.32,1.2.7,1.83,1,1.25.4,1.77.7.25.63,0,1-.48.53.1.83c.28.15.52.3.77.46"/><path class="cls-2" d="M9.5.32c.9.5,1.68,1.71,1,2.17s-.83.71,0,1.2c1.14.68.62,1.65,1.84,2.2.75.34,1.51.7,2.28,1a1.31,1.31,0,0,0,1.19,0,3.77,3.77,0,0,1,3.35.32A13.3,13.3,0,0,1,21,8.28a1.12,1.12,0,0,1,.62,1.07c-.08.64-.31,1,.18,1.49a4.54,4.54,0,0,0,1.37.79,1.71,1.71,0,0,1,.72.61c.11.23,0,.39.21.58s.79.21,1.07.35.63.39,1,.53a2,2,0,0,0,.59.12c.4.08.33.16.75.42"/><path class="cls-2" d="M15.21.61c1.06.65-.22,1-.9,2-.57.88-.49,1.09.53,1.37,1.41.38,4.56,1.41,5.93,1.94a6.16,6.16,0,0,1,1.76.92,2.72,2.72,0,0,0,2,.6,2.66,2.66,0,0,1,1.29.38c.33.31.14.82.47,1.21"/><path class="cls-2" d="M20.75.24c.26.66,1.3.68,1.47,1.45.12.58-.58.81-.32,1.38s1.34.72,2,.84,2,.16,2.4.76c.3.42-.21.8.07,1.13s.87.23,1.14.52c.14.14.11.39.25.53s.55.17.75.47"/><path class="cls-2" d="M-1,16.16a11.07,11.07,0,0,0,1.37.72c.71.42,1.36.86,2.11,1.22S4.08,19.17,5,19.54"/><path class="cls-2" d="M23.87,25.87c.3,0,.48.17.73.31.57.31,1.18.52,1.73.87s1.39.8,2.05,1.25a25.15,25.15,0,0,0,3.11,1.57"/><path class="cls-2" d="M5.58-.84c0,.8,1.64,1.38,2.07,2s0,1.37.51,2"/><path class="cls-2" d="M15,8.29a4.38,4.38,0,0,0,1.77.21,5.78,5.78,0,0,1,2.53.7"/><path class="cls-2" d="M17.12-.38c0,.07,0,.09,0,.14.29.56.94.8,1.14,1.47a1.57,1.57,0,0,1,0,.86c-.16,1,.58,1.15,1.3,1.61"/><path class="cls-2" d="M24.66,1.91c.57.43,1.13.87,1.72,1.28s1,.45,1.47.72c1,.49,2.78,1.18,3.19,2.25"/><path class="cls-2" d="M24.66,10.41c1.18,1,2.77,1.31,4,2.17a20.37,20.37,0,0,0,2.22,1.29"/><path class="cls-2" d="M14.33,18.41c.21.46.2,1,.56,1.43a5.09,5.09,0,0,0,1.55.81c.42.21.84.44,1.26.64"/><path class="cls-2" d="M8.41,18.12c0,.36.33.69.4,1.05.14.78,0,.89.6,1.49"/><path class="cls-2" d="M16,23.91a9.58,9.58,0,0,0,1.42,1"/><path class="cls-2" d="M17.45,15.45a3.56,3.56,0,0,1,1.26.91c.41.55.35,1.21,1,1.59"/><path class="cls-2" d="M-3.92,22.58a5.85,5.85,0,0,0,1.53.74c.71.31,1.37.69,2.06,1,.31.15.65.14,1,.27s.72.64,1.17.83"/><path class="cls-2" d="M9.41,24.25c.11.22.37.26.59.35a10.76,10.76,0,0,1,1.6.87,8.4,8.4,0,0,0,1.05.5c.3.14.53.42.84.53"/><path class="cls-2" d="M12.12,1.08c1.09.53.08,1.42.17,2.12"/><path class="cls-2" d="M-29.44,7.22a17.72,17.72,0,0,1,2.21,1.69,28.8,28.8,0,0,0,6.93,3.57,24.26,24.26,0,0,1,4.67,2.66c1.07.68,2.26,1.07,3.37,1.66.68.36-.16,1.12.29,1.81s2.2.85,2.64,1.41c.85,1.1,3,1.39,3.34,2.82-.61.25-.52.61-.09,1,.85.74,2.42.53,3.45.91A13.68,13.68,0,0,1-.3,26.29c1,.63,2,1.25,3.05,1.8"/><path class="cls-2" d="M-4.93,25.87c.3,0,.48.17.73.31.57.31,1.18.52,1.73.87s1.39.8,2.05,1.25a25.15,25.15,0,0,0,3.11,1.57"/><path class="cls-2" d="M-4.14,1.91c.57.43,1.13.87,1.72,1.28a15.56,15.56,0,0,0,1.48.72C0,4.4,1.83,5.09,2.24,6.16"/><path class="cls-2" d="M-4.14,10.41c1.18,1,2.77,1.31,4,2.17a20.37,20.37,0,0,0,2.22,1.29"/><path class="cls-2" d="M27.76-6.94c.59.76,1.82,1,2.63,1.49A3.68,3.68,0,0,1,32-3.77c.64,1,1.61,1.07,2.67,1.49A9.64,9.64,0,0,1,37-.95c.53.4.91,1,1.47,1.34"/><path class="cls-2" d="M26.68-10.27c2.05.6,3.6,1.86,5.4,2.95A26.22,26.22,0,0,1,37-3.48a12,12,0,0,0,4,2.14C42.15-.82,43,.35,44.26.73"/><path class="cls-2" d="M26.76-15c1.33.5,2.43,1.57,3.81,2a11.41,11.41,0,0,1,4.59,2.72c1.06.93.49,1.1.25,2.1s2,1.36,2.78,1.94c1.36,1,3,1.26,4.45,2.1.81.48,1,1.22,1.68,1.69,1.07.71,2.43,1,3.49,1.75a4.81,4.81,0,0,0,1.95,1"/><path class="cls-2" d="M26.1-20.4c.06.46.39.65.79.95A47.71,47.71,0,0,0,33.15-16c2,1.05,2.34,2.05,4.24,3.22a14.8,14.8,0,0,1,3.24,2.17c1.32,1.42-.39.83-.72,1.76s3.3,1.71,3.73,1.92c1.23.58,2.85.9,3.94,1.71,1.3,1-.3.86,0,1.81.19.75,2.27,1.23,2.82,1.47A13.63,13.63,0,0,1,52.47-.84,10.07,10.07,0,0,0,55,.73"/><path class="cls-2" d="M-1-6.94c.59.76,1.82,1,2.63,1.49A3.68,3.68,0,0,1,3.18-3.77c.64,1,1.61,1.07,2.67,1.49A9.64,9.64,0,0,1,8.16-.95c.53.4.92,1,1.47,1.34"/><path class="cls-2" d="M-2.12-10.27c2.05.6,3.6,1.86,5.4,2.95A25.9,25.9,0,0,1,8.17-3.48a12,12,0,0,0,4,2.14c1.22.52,2.1,1.69,3.33,2.07"/><path class="cls-2" d="M-2-15c1.33.5,2.43,1.57,3.81,2a11.41,11.41,0,0,1,4.59,2.72c1.06.93.49,1.1.25,2.1s2,1.36,2.78,1.94c1.36,1,3,1.26,4.45,2.1.81.48,1,1.22,1.68,1.69,1.07.71,2.43,1,3.49,1.75A4.81,4.81,0,0,0,21,.31"/><path class="cls-2" d="M-2.7-20.4c.06.46.39.65.79.95A47.71,47.71,0,0,0,4.35-16c2,1.05,2.34,2.05,4.24,3.22a14.8,14.8,0,0,1,3.24,2.17c1.32,1.42-.39.83-.72,1.76s3.3,1.71,3.73,1.92c1.23.58,2.85.9,3.94,1.71,1.3,1-.3.86-.05,1.81.19.75,2.27,1.23,2.82,1.47A13.63,13.63,0,0,1,23.67-.84,10.07,10.07,0,0,0,26.23.73"/><path class="cls-2" d="M23.87-2.93c.3,0,.48.17.73.31.57.31,1.18.52,1.73.87s1.39.8,2.05,1.25a25.15,25.15,0,0,0,3.11,1.57"/><path class="cls-2" d="M-4.93-2.93c.3,0,.48.17.73.31.57.31,1.18.52,1.73.87S-1.08-.95-.42-.5A25.15,25.15,0,0,0,2.69,1.07"/></pattern></defs><title>Party</title><g class="cls-3"><g id="Layer_1" data-name="Layer 1"><rect class="cls-4" x="408.35" y="251.28" width="1423.58" height="1246.01"/><polygon class="cls-5" points="1467.06 1393.33 1467.06 251.28 1831.93 251.28 1831.93 1445.13 1467.06 1393.33"/><rect class="cls-6" x="408.85" y="250.95" width="1423.58" height="1246.01"/><path class="cls-7" d="M697.09,410.77h0c8.68-15.69,18-31,28.22-45.76,8.43-12.22,17.7-24.12,27.44-35.67H510.54V497.61A742.17,742.17,0,0,1,648,519.05C662,482,677.88,445.45,697.09,410.77Z"/><path class="cls-7" d="M697.09,410.77A855.16,855.16,0,0,0,829.8,392.66a455.54,455.54,0,0,1,10.89-63.32H752.75c-9.74,11.55-19,23.45-27.44,35.67C715.13,379.78,705.77,395.08,697.09,410.77Z"/><path class="cls-7" d="M888.21,376.91h0c35.33-11.56,69.25-27,95.34-47.57H840.69a455.54,455.54,0,0,0-10.89,63.32C849,388.44,868.81,383.26,888.21,376.91Z"/><path class="cls-7" d="M648,519.05a742.17,742.17,0,0,0-137.43-21.44V641.19l106-11.4a626.84,626.84,0,0,1,27.81-101.18Q646.16,523.82,648,519.05Z"/><path class="cls-7" d="M983.55,329.34c-26.09,20.57-60,36-95.34,47.57,0,0-43.11,122.49,11.84,222.41l61.14-6.57c2-6.19,3.32-12.8,4.63-17.7,7.12-26.79,7.61-53.2,10.6-80.51,3.92-35.79,5.32-83.62,35.31-108.36,7.45-6.16,20.49-17.74,29.08-8,8.91,10.1,4.92,34.82,2.28,46-7.11,30-25.57,56.46-32.61,86.78-1.15,5-4.62,20.38,1,23.93,7.78,4.94,13.59-11,15.83-15.61,10.56-22.06,14.3-47.4,25.25-69,6.64-13.1,11.36-7.13,11.65,4.43.62,24.87-11.91,48.84-18.27,72.24-2.19,8-5,18.89,1.85,25.48,6,5.82,8.34,1.42,12.17-5.26,5.27-9.17,10.73-18.36,16.76-27V329.34Z"/><path class="cls-7" d="M648,519.05q-1.82,4.79-3.58,9.56a626.84,626.84,0,0,0-27.81,101.18l232-24.94c-34.89-21.44-70.87-40.79-109.47-56.19A734.4,734.4,0,0,0,648,519.05Z"/><path class="cls-7" d="M888.21,376.91c-19.4,6.35-39.22,11.53-58.41,15.75-6.3,63.2-1.26,151.43,60.19,207.74l10.06-1.08C845.1,499.4,888.2,376.94,888.21,376.91Z"/><path class="cls-7" d="M1047.78,552.39c-6.84-6.59-4-17.44-1.85-25.48,6.36-23.4,18.89-47.37,18.27-72.24-.29-11.56-5-17.53-11.65-4.43-11,21.61-14.69,46.95-25.25,69-2.24,4.66-8,20.55-15.83,15.61-5.61-3.55-2.14-18.94-1-23.93,7-30.32,25.5-56.78,32.61-86.78,2.64-11.14,6.63-35.86-2.28-46-8.59-9.75-21.63,1.83-29.08,8-30,24.74-31.39,72.57-35.31,108.36-3,27.31-3.48,53.72-10.6,80.51-1.31,4.9-2.65,11.51-4.63,17.7l115.52-12.42v-60.2c-6,8.64-11.49,17.83-16.76,27C1056.12,553.81,1053.81,558.21,1047.78,552.39Z"/><path class="cls-7" d="M829.8,392.66a855.16,855.16,0,0,1-132.71,18.11C677.88,445.45,662,482,648,519.05a734.4,734.4,0,0,1,91.17,29.61c38.6,15.4,74.58,34.75,109.47,56.19L890,600.4C828.54,544.09,823.5,455.86,829.8,392.66Z"/><polygon class="cls-8" points="501.88 1496.92 1467.06 1393.33 1831.93 1445.13 1831.93 1497.29 501.88 1496.92"/><path class="cls-9" d="M581.26,1496C564.91,957.77,551,532.72,634.42,532.72S675,957.77,691.4,1496"/><path class="cls-9" d="M580.28,734.12S549,811.4,549,834.19s40.81,47.35,40.81,47.35"/><path class="cls-10" d="M699.7,1495c-5.33-155.11,6.92-304.61,1.74-460.24-11.77-18-65.7-16.68-79.41-14.12,7,19.71,5.25,53.75,6.12,77.22,1.43,38.81,4.44,77.45,5.78,116.3.87,25.22,2.76,50.39.37,75-6.58,68,6.83,137.17,9.23,206.86"/><path class="cls-10" d="M788.27,1495c-5.33-155.11,16.87-304.61,11.69-460.24-11.77-18-65.7-16.68-79.42-14.12,7,19.71,5.25,53.75,6.12,77.22,1.44,38.81,1.13,77.45,2.47,116.3.87,25.22,6.07,50.39,3.69,75-6.59,68,4.6,137.17,7,206.86"/><path class="cls-11" d="M718.65,1180c5,1.2,26.19-7.38,31.14-7.23,20.46.62,41.85.19,61.68-4.33,7-1.61,16.34-8,22-12,1.32-3.47-3.1-55.53-4-76.06-1.74-39.58-21.08-126.44-29.31-165.23-2.94-13.91-5.77-27.08-9.67-40.73-.77-2.7-.65-6.43-3-7.57-5.29-.44-10.65,2-15.88,2.8-16.49,2.39-33.22-.6-49.84-2.14-19.27-1.78-37.9-8.28-57.12-10.79-6.93-.91-21.14-4.41-26,1-8.45,9.43-12,34.32-15.45,47-5.8,21.37-18.16,89.25-21.61,111.44-3.53,22.73-4.38,45.79-6.5,68.75-1.67,18.12-5.59,37.76-5.27,56,11.94,9.39,10.83,22.52,24.13,30.06,27.57,15.64,54.23,13.65,82.8,10,6.81-.86,15.56.88,21.88-1"/><path class="cls-12" d="M610,872c-7.06,5.79-15.49,8.52-18.88,17.61-4.45,11.93-3.62,29.75-4.36,42.49-1.1,18.72,14.1,25.44,30,31.3,15.08,5.57,31.71,7.91,47.55,10.12,9.66,1.35,14.38,4.12,17.49-7.3s3.33-25.17,3.8-36.91c.61-15.71-9-22.28-20.1-31.9-10.67-9.21-18.35-20.93-32.44-24.24-9.13-2.14-15.85.56-24.58-.39"/><path class="cls-10" d="M762.2,657.31c18.86,16.06,26.31,38.49,34,63.4,4.63,15,16.38,56.27,20.15,71.33-3.77-15.06-3.76-44.78-3.54-72.14.11-12.85.17-23.78-.7-36.56a253.69,253.69,0,0,1-.31-28.91c.78-18-3.33-41.55,9.05-56,5.81,7.73.66,23.65.28,32.66,7.39-6.15,10.4-25,11.66-34.62,1.33-10.12.6-16.85,6.42-25.11,7,9.43.28,30.57,0,42,7.13-8.69,4.75-24.18,6.32-35.09,11,1.68,2.17,36.07,2.11,43.69,4.31-10.75,5.49-21.16,7.06-32.67,13.72,1-1.32,36.76-2.51,44.07,6.82-4.72,9.39-22,10.61-30.07,12.56,7.32-1.65,39.47-6.56,48.61-3.58,6.68-8.41,12.65-12.7,18.93-6.94,10.15-3,23.6-2,35.84,2.6,33.83,13.21,67.77,11.71,101.58-.67,15-6.83,44.74-27.39,34.27-20.88-10.63-35.69-24.59-50.5-42.55-3.59-4.37-7.39-8.19-10.61-12.76-2.11-3-3.76-5.93-5.81-8.89-6-8.7-5.09-10.7-1.74-23.55"/><path class="cls-13" d="M773.21,668.79c8.57,20.28,47.86,62.06,13.31,92-13.25,11.49-2,81.91,6.88,124.34-12.63,7.8-59,20.37-101.56,10.22-32-7.63-61.74-19.52-58.46-33.26,32.65-136.81-43.28-122.69-11.15-174,20.4-32.57,34.64-34.3,74.94-40.42,17.84-2.71,61.6-3.76,76,21.09"/><path class="cls-10" d="M676.42,651.32c.08-36,2.3-13.43-11.17-48-11.17-28.68-23.65-69.62-5.58-96.73,13.84-20.78,37.31-29.08,63.2-22.67,17,4.21,28.65,18.61,35.34,33.91,3.69,8.45,5.22,21.85,5.51,30.78.42,12.66-4.77,22.57-8.35,34.46C751,597.47,746.66,612,745.75,627c-1.5,24.5-1.5,4.4-.65,29,.28,8.31-15.8,20-22.29,20.14C701.87,676.51,688.79,666.18,676.42,651.32Z"/><path class="cls-14" d="M715.35,524c1.22.07,1.89.35,1.91,1.77-2,1.36-3.14-.17-2.58-2.3,2.5-.28,3.85,4,1.38,4.89-1.78-1.43-2.42-3.82-1.11-5.62,2.25.38,4.12,4.1,1.24,4.52"/><path class="cls-14" d="M739.77,522.72c1.21.07,1.89.35,1.91,1.77-2,1.36-3.14-.17-2.58-2.31,2.5-.27,3.85,4,1.38,4.9-1.78-1.44-2.43-3.82-1.12-5.62,2.26.38,4.12,4.1,1.24,4.52"/><path class="cls-14" d="M789.24,1280.09c-10,2-15.85,1.43-24.72-4.68"/><path class="cls-14" d="M690.36,1278.33c-6.3.84-12.82,2.85-18.2-2.34"/><ellipse class="cls-15" cx="732.57" cy="953.23" rx="23.39" ry="5.41"/><polyline class="cls-15" points="729.73 952.17 729.73 917.04 735.98 917.04 735.98 952.17"/><path class="cls-16" d="M726.46,900.83v23.36h12.3s.06-6.19.06-22.77c0-10.1,10.77-13.87,19.21-19.88H707.18C715.49,887.79,726.46,891.21,726.46,900.83Z"/><path class="cls-15" d="M767.9,864.88c-19.69-7-51.08-7.6-69.88,0,0,8,4.09,12.84,9.16,16.66H758C763.44,877.67,767.9,872.88,767.9,864.88Z"/><path class="cls-15" d="M698,864.88s30.74,11.69,69.88,0"/><path class="cls-10" d="M648.62,660.72c-20.8,8.22-41.33,28.36-50.54,48.73-8.38,18.52-12.93,38.83-20.65,57.72-6.23,15.24-13.11,31.49-16.52,47.7-5.24,24.89,11.82,43.49,31.45,57.2C614.14,887.28,634.24,904,657,917.52c21,12.52,65.42,40.66,86.07,18,3.66-4,7.74-12.49,8.76-18.13,1.88-10.4-3.11-16.48-12.79-16,.17,1.1-2.17,6.63-2,7.73-6,1.71-7.63,2.38-8.33-2.08-1.22-7.71-.26-12.48-11.84-8.58-6.61,2.23-11.58,5.3-19.4,3.9-12.27-2.2-23.39-14.19-33-21.86C651,869.86,637.28,855,622.9,845.87c-7.67-4.86-16.72-10.28-18.19-19.1,5.9-21,9.68-46.24,24.64-68.58,14.44-21.55,32-41.8,34.47-68.76.68-7.56-1.83-22.08-15.2-28.71"/><path class="cls-14" d="M668.5,652.93c25.91,17.18,22.93,67.09,22.66,93.21-.35,34.26-2.24,67.92-8.64,101.55-1.76,9.19-4,18.35-5.42,27.56-.45,3-1.06,6.06-1.41,9-.27,2.29-2.09,5.08-.17,3.28"/><path class="cls-12" d="M1146.29,592.85c-3.79-.75-22.19-10.68-25.92-11.37-3-.56-6.83-3.14-9.91-3.46-5-.5-9.27-1.24-14.17-1.38v20.44"/><path class="cls-12" d="M1084.55,562.44c2.43-3.06,6.89-6,10.84-4.35,3.5,1.46,3.94,5.16,4.19,8.49.49,6.6-.75,13.4,0,19.94.54,5.07,5.14,6.28,9.51,6.28l-1.82,12.55-30.77-1.42"/><path class="cls-12" d="M1070.38,561.83c2.85-1.12,7.75-6.71,12.42-4.14,2.69,1.48,2.53,5.34,2.56,8.16.08,6.61-2.45,14.55-.43,21,1.38,4.36,7.76,8.31,12.37,8.6v6.68l-32.18,3.24"/><path class="cls-12" d="M1055.2,566.28c-.56-5.18,6.88-10.33,11.5-9.92,4.2.38,4.71,2.75,4.5,6.68-.4,7.34-2.1,14.76-1.32,22.15.3,3,.77,5.95,3.29,7.87,2.34,1.78,6.18,1,8.14,2.78v7.48h-30.16"/><path class="cls-12" d="M1067.67,598.34c-11.35-.51-8-16.85-8.42-25-.35-7.08-1.21-17.47-10.76-10.8-6.42,4.49-4.42,14-4.42,21.12,0,7.7-2.28,19.63,3.64,24.91,6.28,5.6,17.25,4.91,24.9,6.47,8.63,1.77,25.17,9.38,24.89,20.23,5-2.4,12.63-2.08,18.14-2.4s11.24-.43,16.91-.43c7.62,0,18.62,2,25-2.86,9-6.82,6.81-22.2-.36-29.56-5.53-5.67-14.14-9.27-22-10.1-3.6-.39-18.16-3.09-18.91,1.2"/><path class="cls-14" d="M1069,601.6c10-5.73,23.81-6,35.2-6.07,6.1-.07,17.52.42,21.88,5.77"/><path class="cls-17" d="M1159.64,594.84c0,3.86-24.29,7-54.24,7s-54.25-3.14-54.25-7S1105.4,478.2,1105.4,478.2,1159.64,591,1159.64,594.84Z"/><path class="cls-11" d="M1242.27,633.23c-7.29,4.25-17.33,9.16-25,25.44-12.06,25.71-13.61,54.14-19.43,81-4,18.35-6.18,38.05-13.78,55.65-4.07-26.13-6.38-54.16-10.28-81.21-3.72-25.75-4.78-52.06-10.72-77.35-1.19-5-.31-6.06-6.5-8.12-5.13-1.71-12.06-1.35-17.76-1.41-10.15-.11-42.48,1.73-45.47,6.19-6.65,9.89-1.2,27.65-.59,37.67,1.68,27.9,8.22,42.06,10.8,63.69,3.94,33.14,10.56,66.52,18.33,99.13,4.06,17,28.68,55.74,55.11,57.67,27.9,2,52.73-15.9,65.47-33.64,13.08-18.19,22.6-33.86,27.47-54.15"/><rect class="cls-18" x="903.6" y="1396.16" width="279.91" height="100.79"/><path class="cls-19" d="M1122.71,1374.67c9.88,2.48,15.54,5.36,15.54,8.43,0,9.36-52.53,17-117.33,17-51.68,0-95.56-4.83-111.2-11.53-4,2.41-6.12,5-6.12,7.64,0,14.38,62.66,26,139.95,26s140-11.67,140-26C1183.5,1387.24,1159.42,1379.37,1122.71,1374.67Z"/><path class="cls-9" d="M1138.25,1383.1c0-3.07-5.66-5.95-15.54-8.43a638.84,638.84,0,0,0-79.16-4.57c-63,0-116.29,7.76-133.83,18.42,15.64,6.7,59.52,11.53,111.2,11.53C1085.72,1400.05,1138.25,1392.46,1138.25,1383.1Z"/><path class="cls-20" d="M1042.71,1320.42c-7,1.16-10.38,11.71-15.09,17.23-8.08,9.45-19.27,16.07-29.78,21.84-10.18,5.6-21.14,9-32.07,11.86-13.82,3.58-24.57,2.88-21.48,22.68,13,5.13,28,4.27,41.61,4.41,29.43.31,56-2.07,75.44-6.2,10.83-7.17,18.28-9.37,22.16-25.4,2.51,6.5,1.69,19.35,5,24.78,9.41,2.37,39.33,3.05,47.4-6,11.53-12.89-8.44-74.32-17.07-80.7"/><path class="cls-11" d="M1320.21,895.16c-82.45,4.35-153.26-13.1-231.27-4.84-82.42,8.73-95.4,77.58-88.84,172,6.06,87.18,17.06,127.11,22.3,214.1,1.13,18.76.56,39.47,4.33,57.06,18.08-1,36.86,1.12,55.13.23,17.14-.83,34.07-3.87,50.25-3.9.58-29.15-13.84-125.81-13.37-168.54.33-29.9-1.53-62.35-6.31-91.77-2.87-17.67-5.06-34.3-5.08-52.27,10.23-9.24,9.62.74,20.71,2.71,28.72,5.08,56.83,9,86,9.67,36.91.82,73.6-.19,110.24-4.38,8.17-.94,16.42-3,24.66-5.12,6.36-1.65,13.42-2.34,19.53-4.87,4.44-1.83,8-6.25,12.9-6"/><path class="cls-11" d="M1331.19,950c14.25,9.77,14.92,55,17.35,73.7,8.82,67.82,16.4,135.68,25.42,203.47,5.09,38.18,5.68,75.5,13.26,113.22,4.58,22.83,7.18,46.84,8.9,70.18,1.89,25.68,5.45,63.85,12.8,84.65l103.29-1.33c-3.45-6.16.68-30.86,0-41.43-2.26-33.21-1.1-66.59-3.61-99.74-3.4-45-5.4-90.2-8.36-135.19-4.64-70.73-5.83-142.14-14.22-212.49-3.83-32-5.85-64.58-10.12-96.21-1.42-10.54-.62-48.19-14.72-45.06-3.46-1.49-6.91-4.39-10.71-6.34-13.36-6.84-29.42-7.35-43.78-9.91-23.35-4.16-46.31-4-69.93-3.7-11.87.17-28.21,3.31-36.49,6.69"/><path class="cls-11" d="M1241.92,674.18c-11.42,20.72-7.11,60.14,0,82.16,18.5,57.31,23.29,130,26.69,137.93,0,0,6,1.79,9.74,2.94,11.55,3.54,39.32-2.65,51.48-1.75,36.76,28.7,37.11,7.63,62.7,7,11.12-.29,21.8-.73,32.84-1.92,8.93-1,41.26-.14,49.75-2.27-1.84-63.45,17.67-101.74,23.06-149.31,4.83-42.7,9.9-61.66,2.41-104.31-1.41-8-5.72-11.45-15-15.54-14.46-6.35-26.75-9-42.34-11.71-32.82-5.62-68.71-6.55-102.23-5.6-17.54.49-82.37,10-98.71,21.45"/><path class="cls-21" d="M1303.29,612.54c-16.68,6.47-12,24.31-8.59,35.86,3.11,10.35,4.1,21,9,31.07,6.29,12.84,3.37,84.81,26.19,79.76,18.69-4.14,42.5-69.46,51.36-81.84,3.11-4.34,6.73-7.47,10.64-11.23,3.57-3.44,4.93-7.64,8.32-11.13,3.73-3.84,7.45-6,10-10.72,9.53-17.87-19.64-19.25-35.87-24.52-12.26-4-23.06-8.45-36.78-8.77-9.69-.23-19.34.4-29,1"/><path class="cls-14" d="M1305.8,676.6c4.52-1.41,10.58-3.6,15.58-5.27,4.41-1.47,8.8-3,13-4.84,3.15-1.41,6.28-3.2,9.2-4.84,1.89,3.69,2.9,7.6,5.11,11.15,2.87,4.59,6.45,7.67,10.91,10.69a44.53,44.53,0,0,0,16.42,6.67"/><path class="cls-22" d="M1334.82,666.73c-1.54,2.33-5.32,3.51-6.33,6.29-1.09,3,.8,4.67,2,7.34s-.44,3.7-2.69,5.87a67.86,67.86,0,0,0-8.17,9.19,43.59,43.59,0,0,1-3.47,4.22c-3,3.25-10.42,12.53-8.55,16.23,2.47,4.9-1.79,12.55-.3,17.7,22.51,77.58,43.66,10.42,45.71,5.62,1.47-3.43-5.69-36-6.67-39.6-1.3-4.75-2.4-9.51-3.64-14.25-.89-3.42-1.08-2.57,2.13-4.58,2.56-1.61,4.82-4.2,4.17-6.52-1.22-4.39-4.87-6.27-5.55-10.89"/><path class="cls-23" d="M1334.82,666.83c-1.54,2.41-5.32,3.62-6.33,6.48-1.09,3.1.8,4.81,2,7.55s-.44,3.82-2.69,6.06a68.6,68.6,0,0,0-8.17,9.46,46.22,46.22,0,0,1-3.47,4.35c-3,3.34-10.42,12.9-8.55,16.72,2.47,5-1.79,12.91-.3,18.22,22.51,79.9,43.66,10.73,45.71,5.79,1.47-3.54-5.69-37.1-6.67-40.79-1.3-4.89-2.4-9.79-3.64-14.68-.89-3.51-1.08-2.64,2.13-4.71,2.56-1.66,4.82-4.32,4.17-6.72-1.22-4.51-4.87-6.45-5.55-11.21"/><path class="cls-24" d="M1308.94,607.64c-10.29,5.58-27,15.43-34.53,24,5,0,11.54,2.23,16.37,3.57-5,1.86-18.44,5-20.12,9.3-1.16,2.95.16,8,.4,11a124.51,124.51,0,0,0,2.31,14,189.54,189.54,0,0,0,6.2,23,176.6,176.6,0,0,0,10.12,24.74c2.26,4.45,5.16,8.52,7.59,12.9,5.32,9.61,8.26,19.85,12.87,29.67,6.22,13.25,9.23,27,12.53,41,1.2,5.1.47,12.59,3,17.2-.51-7,2-14.18,2-21.25s1.64-13.78,2-20.75c1.07-18.37-13.66-34.37-22.2-92.86-5.4-37-6.47-50.17-6.55-57.11-.08-6.06,2.79-9.27,5.26-14.69"/><path class="cls-24" d="M1398.17,628.26c2.85,5.25,4.47,11.21,2.74,17-2,6.66-8,12.33-12,18.16-6,9-11.93,17.21-19.61,25.25a149.35,149.35,0,0,0-17.41,22.47c-7.9,12.27-15.92,24.46-20.24,38a223.83,223.83,0,0,0-10.34,56.16c-.78,13.93-.69,27.37,2,41.12.85,4.23,3.28,9.49,4.34,12.84a169.69,169.69,0,0,1,7.28-50.14,242.37,242.37,0,0,1,21.92-50.93c8.48-14.8,19.14-28.86,29.61-42.7a172.43,172.43,0,0,1,27.22-28.4c6.68-5.59,13.72-10.63,20-16.48,4-3.71,13.82-10.7,15-15.77,1.09-4.81-7-5.21-11.32-6.9-5.24-2-10.45-5.1-16.16-5.73,8.94-4,18.32-4.53,27.85-6.76,1.18-5-12.47-12-16.15-14.77-9-6.71-20.17-9.95-32-10.37"/><path class="cls-12" d="M1394.59,645a3.6,3.6,0,0,0,.74-3.18c-1.58-7.25,18.2-47.83,19.59-51.78,23.76-67.78,15.22-128.7,14.3-143.22-2.71-42.94-7.31-84.39-17.59-81.75-20.92,5.38-22.11,79.28-21.78,90.84-12.52-1.37-36-1.61-41.85-1.25-1.73-2.13-3-37.19-5.54-49-1.72-8-4.62-43-18.26-41.94-9.08.72-15.43,30.74-17.43,45.45-2.23,16.36.83,70.2-16.07,84.57-8.81,7.49-20.19,16.07-31.15,16.84-4.1.29-18,1.28-15.14,6.47,6.13,11.09,22.14,18,27.79,22,14.62,10.28,19.18,22.46,25.63,40.16,5.45,15,8.07,30.61,9.78,46.67,1.2,11.23,16.22,18.9,25.32,22.71,11.43,4.79,22,6.16,34.13,5.28C1376.76,653.1,1388.17,652.32,1394.59,645Z"/><ellipse class="cls-25" cx="1253.41" cy="506.58" rx="10.07" ry="10.17" transform="translate(3.72 1022.27) rotate(-44.43)"/><path class="cls-14" d="M1358.79,488.47c-1.18.16-1.82.48-1.67,1.88,2.1,1.2,3.07-.39,2.27-2.45-2.49-.1-3.33,4.16-.79,4.91a4,4,0,0,0,.45-5.61c-2.18.54-3.58,4.33-.7,4.54"/><path class="cls-14" d="M1334.6,488.93c-1.18.16-1.82.49-1.67,1.88,2.1,1.2,3.07-.39,2.27-2.45-2.49-.09-3.33,4.17-.79,4.91a4,4,0,0,0,.45-5.61c-2.18.54-3.58,4.34-.7,4.54"/><path class="cls-21" d="M1378.2,652c-.83-9.25-8.23-17.48-14.75-24.1-6.69-6.8-13.91-13.6-21.26-19.79-4.66-3.91-10.42-6.76-13.17-12.2,1.41,3,1.19,7.77,1.23,10.94.11,8.18-.79,16.4-1,24.55-.12-3.64-2.18-7-2.89-10.52-.64,3.61-4,7.19-5.39,10.7-1,2.68-2.75,6-2.85,8.86,0,0,9.4,8.66,29.65,12.51S1378.2,652,1378.2,652Z"/><path class="cls-14" d="M1319.66,389.3c-.26-1.6.52-10.24,2.89-11.38,6.5-3.11,8.71,8.08,9,11.72.58,7-3.26,12.88-4.72,19.57,10.34-1.33,2.09,7.64,3.68,12.56.55,1.7,1.9,2.71,2.33,4.53s-1.5,5.22-1,6.31c1,2.28,3.86.76,4,3.95.13,2.1-1.92,2.68-2.94,4.17,6.44.33,3.52,9.17,3.23,13.18"/><path class="cls-14" d="M1403.85,387.2c-.1-1.11.07-5.9,2.78-8.22,4-3.43,5.13,3.69,5.47,6.06,1.54,10.65,2.73,24.25.6,35-2.35,1.68-4.84,4.88-6.82,7.2a25.23,25.23,0,0,1,6.95-1.24c.17,4-11.32,6-9.81,11.3.52,1.84,5.36,2.3,6.72,3.49,1.92,1.66,2.14,3.37,3,5.64-1.69.12-4-.13-4.47,1.74,2.24,1.1,6.78,6.54,6.1,9.64-4.54-.13-7.86-.4-13.46-.43"/><path class="cls-14" d="M1348,454.62c-16.43-.05-25.61,1.88-25.61,1.88"/><path class="cls-26" d="M1183.5,794.08c1.37,5.51,3.63,10.72,4.87,16.38,1.28,5.82,1.21,11.54,1.81,17.44.44,4.31-1.3,8.59-.93,12.74,0,.42.56,2.62.92,2.79,4.84,2.39,4.87-14.54,4.87-16.53a101.14,101.14,0,0,0-2-19.95c-.49-2.52-1.2-5-1-7.59a6.76,6.76,0,0,1,7.82,3.75c1,2,.87,5,2.55,6.63s4.49,2.22,5.07-.78"/><path class="cls-11" d="M1483.49,720.94c23.55,1,47.18,5.1,70.58,7.64,24,2.6,48.16,9.19,72.26,10,23.49.85,57.93-46.76,70.11-101.45,16.2-72.75,22.93-93.26,23.81-159.66.13-9.48-41.67-33.79-64.6-13.23-4.8,4.29-12.09,33.92-17.33,67.35-4.3,27.37-6.86,127.43-34.26,124.49-48.43-5.2-50.11-5.57-95.15-23.32-11.71-4.61-51.19-13.81-65.7-15.43"/><path class="cls-26" d="M1326.71,856.38c.56,11.85,3.91,13.12,5.66,24.78.92,6.18-7.18,9.61,4.73,19.66"/><path class="cls-14" d="M1300.89,543.82c14,3.3,31.66,6,44.57-1.65"/><circle class="cls-27" cx="1107.81" cy="443.32" r="33.7"/><circle class="cls-12" cx="1109.04" cy="359.31" r="52.5"/><path class="cls-17" d="M1047.28,196.63c-.22-3.85,23.84-8.37,53.75-10.07s54.34,0,54.56,3.9S1108.07,310,1108.07,310,1047.5,200.49,1047.28,196.63Z"/><ellipse class="cls-19" cx="1101.39" cy="192.81" rx="54.24" ry="6.26" transform="translate(-9.19 63.03) rotate(-3.26)"/><path class="cls-14" d="M1104.1,1055.46c.68-16.42-3.51-31.76-7.85-47.32-2.32-8.32-10.38-23.48-7.41-32.31,10-2.14,12.51,19.7,15.14,26.66,3.49,9.25,4.48,5.14,5.71-3.84.6-4.45,6.54-29.11,10.86-16.22,2.06,6.14-4.8,14.86-2.46,20,3.71,8.1,25.36-5.63,29.12-7.29"/><path class="cls-14" d="M1109,1118.47a74.05,74.05,0,0,0,.71,12.18,219.32,219.32,0,0,1,.52,44.59c-1.81,21.76-3.9,43.65-5.38,65.44-.66,9.86-3.78,24.47-1.13,34,1.39,5,5.7,9.32,8.21,3,0,.94.4,1.19.71,2"/><path class="cls-14" d="M1491.5,1200.72c-4.09,27.48-23.48,55.61-21.78,83.61,11.5,1.42,16.6-15.58,19.28-24.93,10.28,14.8,2.75,51.64,2.5,67.35"/><path class="cls-12" d="M761.1,581.43a175.55,175.55,0,0,1-36.69-2.77c-10.38-1.9-19.71-11-17.21-22.22h0c2.87-9.56,13.08-14.06,22.45-12.37a172.49,172.49,0,0,0,62.83-2.27c4.27-1.1,8.54,1,9.59,5h0c1,4-1.79,8.41-6.41,9.63a188.75,188.75,0,0,1-62.94,3.59,132.38,132.38,0,0,0,27.83,1.52c6.29-.21,11.77,3.67,12.23,9.15h0C773.24,576.18,768,581.23,761.1,581.43Z"/><ellipse class="cls-28" cx="732.74" cy="880.42" rx="26.01" ry="4.47"/><path class="cls-20" d="M1005.51,1355.14s20.36-4.64,36.09,8.34"/><path class="cls-20" d="M1018.88,1346s12.78-4.88,28.24,5.66"/><path class="cls-20" d="M1027.62,1337.65s10.23-2.92,25.38,2"/><path class="cls-14" d="M1013.73,1391.47c2,.14,3.86-.52,5.79-.8,5.77-.84,11.4-.77,17.17-2,5.55-1.23,11-1.33,16.46-3.15,2.75-.93,5.53-1.65,8.23-2.68,4.33-1.66,9.39-4.23,12.47-7.79,3-3.4,6.46-9.23,7.13-13.57.4-2.63.73-3.54,2.6-1.1,1.13,1.47,1.69,3,3.54,3.53,3.31,1,5.72-1.75,8.77-1.58s1.27,2.4.15,4.63c-.86,1.7-3.49,6.74-2.56,8.65.83,1.69,7.6,1.33,9.72,1.52a11.84,11.84,0,0,1,4.68,1.51c8.43,3.82,19.25-.06,25.28-6.15"/><path class="cls-12" d="M1662.83,458.54c-.11-4.61.33-9.67.59-14.26.33-5.92-2.24-10.24-2.92-16-1.43-11.94,1.51-22.84,4.83-34.1.77-2.58,4.56-19.68,9.56-13.45,2.11,2.64,1,8.77,1,11.91,0,5.8-2.84,11.18-2.36,16.81.49-5.78,6-11.94,8.18-17.35a59.15,59.15,0,0,0,3.27-10.46c2.42-11.62,3.16-23.17,4.24-35,.52-5.61.42-22.48,6.44-26,7-4.17,7.7,19,7.5,23-.3,6-1.74,11.72-1.56,17.72,4-.18,8.29.91,11,3.91,3,3.34,1.37,8.19,3.46,10.86,1.34,1.7,4.83,2,6.54,3.46,3.11,2.59,2,4.06,3,7.24.6,1.84,2,2.7,3,4.59,1.56,3,1.63,7.62,1.76,10.93.74,19.05-1.18,41.91-11.13,58.67-2.55,4.3-4.5,10.48-7.92,14-3.63,3.76-10.09,3.89-14.9,4.26-11.61.91-35.51-4.08-33.57-20.74"/><path class="cls-26" d="M1579,658.51c3,0,8.63-1.14,10.52,1.88,2.35,3.76-3.42,9.06-2.38,13.3,5.92.82,9.77-10.24,14.66-13,1.27,6.54-7,14.79-3.64,21.75,2.84-1.12,4.71-5.81,6.28-8.28,1.8-2.81,3.46-5.7,5.11-8.6,3.9-6.83,7.22-13.94,11.81-20.37"/><path class="cls-26" d="M1341.17,998.63c.41-7.36-3.7-16.41-7.33-22.58-1.9-3.24-4.92-5.78-7.1-8.85a16.92,16.92,0,0,0-3.53-4.12c-1.6-1.24-2.48-2.18-4.61-1s-2.63,5.34-3.32,7.47a36.58,36.58,0,0,1-11.83,17.61"/><path class="cls-26" d="M1429.29,1301a77.47,77.47,0,0,1-14-5c-5.7-2.72-9.52-6.35-13.61-11.06-1.68-1.93-3.06-4.49-5.36-5.71s-2.81-2.35-4.38.38c-3.61,6.3,8.71,11.49,9,16.67.56,9.09-11.14-8.11-12.48,1.44"/><path class="cls-26" d="M1107.42,659.12c4.35-2,12.83-2,18.09-2.79a171.49,171.49,0,0,1,24.71-1.38c2.14,0,10.48-1.19,12.16.91,4.63,5.78-9.69,4.26-11.76,5.7,3.05,4.22,11.24,2.43,10.6,10.09"/><path class="cls-14" d="M1675.8,411.69c1.31.48,2,1.58,3,2.78,5.51,7,8.45,16.38,9.8,25"/><path class="cls-14" d="M1701.78,361.36c-6.26-1.14-16.41,17.14-6.27,16.93,4.32-.09,7.94-2.25,11.37-4.4"/><path class="cls-14" d="M1700.39,377.36a13.72,13.72,0,0,0-.24,2.79"/><path class="cls-14" d="M1717.78,377.36c-5.8-3-17.29,7.2-20.23,15.77-1.26,3.69-1.62,5.66,1.85,7.95,3.79,2.49,7.28.27,10.38-2.49,4.06-3.62,6.67-8,11.71-10.33"/><path class="cls-14" d="M1725.66,387.2c-2.64-.28-6.66,2.5-8,4.49-2.49,3.59-3.5,9.35-3.8,13.66-.23,3.3-1.45,7.77,1.51,9.58,10,6.11,9.12-11.92,10.33-17.16"/><path class="cls-29" d="M1663.05,438.51c1,3.81,1,7.57,3,11.15,1.87,3.42,3.82,5.63,7.54,7.21,3.27,1.39,7.1,2.57,10.73,2.21.81-.08,1.93-.74,2.7-.64,1,.14,2.2,1.06,3.18,1.41a69.52,69.52,0,0,0,8.8,2.75c6.1,1.35,11.7.21,17.7-1.37"/><path class="cls-14" d="M1691.65,441.76c-.11-.34.75-.79,1.54-1.37a94.18,94.18,0,0,1,22.73-11.78"/><path class="cls-14" d="M1685.62,388.73a51.19,51.19,0,0,1,11.44,5.56"/></g></g></svg>