<svg xmlns="http://www.w3.org/2000/svg" xmlns:xlink="http://www.w3.org/1999/xlink" viewBox="0 0 2240.78 1683.13"><defs><style>.cls-1,.cls-12,.cls-2,.cls-28,.cls-3{fill:none;}.cls-10,.cls-11,.cls-12,.cls-13,.cls-14,.cls-15,.cls-16,.cls-17,.cls-19,.cls-2,.cls-20,.cls-21,.cls-23,.cls-24,.cls-25,.cls-26,.cls-27,.cls-28,.cls-3,.cls-5,.cls-6,.cls-7,.cls-8,.cls-9{stroke:#000;}.cls-2{stroke-linecap:round;stroke-width:0.5px;}.cls-2,.cls-26,.cls-27,.cls-28,.cls-3{stroke-miterlimit:10;}.cls-4{isolation:isolate;}.cls-5{fill:#f07f2c;}.cls-10,.cls-11,.cls-12,.cls-13,.cls-14,.cls-15,.cls-16,.cls-17,.cls-19,.cls-20,.cls-21,.cls-23,.cls-24,.cls-25,.cls-5,.cls-6,.cls-7,.cls-8,.cls-9{stroke-linejoin:round;}.cls-10,.cls-11,.cls-12,.cls-13,.cls-14,.cls-15,.cls-16,.cls-17,.cls-19,.cls-20,.cls-21,.cls-23,.cls-24,.cls-25,.cls-26,.cls-27,.cls-28,.cls-5,.cls-6,.cls-7,.cls-8,.cls-9{stroke-width:2px;}.cls-7{fill:#e6dae7;}.cls-8{fill:#b24b27;}.cls-9{fill:#e84e0f;}.cls-10{fill:#d20a11;}.cls-11{fill:#ce9fb5;}.cls-13{fill:#92b193;}.cls-14{fill:#7c8881;}.cls-15,.cls-21{opacity:0.26;fill:url(#_10_dpi_20_4);}.cls-16{fill:#413253;}.cls-17{fill:#992b16;}.cls-18{opacity:0.3;fill:url(#_10_dpi_50_);}.cls-19{fill:#ffe4b0;}.cls-20{fill:#fff;}.cls-21,.cls-22{mix-blend-mode:multiply;}.cls-22{fill:#e6e6e6;}.cls-23{fill:#debb97;}.cls-24{fill:#9e7842;}.cls-25{fill:#ffd153;}.cls-26{fill:#c5d7ea;}</style><pattern id="_10_dpi_20_4" data-name="10 dpi 20% 4" width="28.8" height="28.8" patternTransform="translate(510.45 742.6) scale(4.43)" patternUnits="userSpaceOnUse" viewBox="0 0 28.8 28.8"><rect class="cls-1" width="28.8" height="28.8"/><path class="cls-2" d="M12.72,10.43c0,.15,0,.24.21.25,0-.15-.1-.15-.21-.21"/><path class="cls-2" d="M22,4.14c-.15.05-.21.13-.15.3.27.08.42-.13.35-.37a.27.27,0,0,0-.24.2"/><path class="cls-2" d="M23.05,17.27c-.18.74.75,0,.13-.17a.17.17,0,0,0-.13.17"/><path class="cls-2" d="M7.09,21.77c0,.12.06.2.21.19s0-.12,0-.19"/><path class="cls-2" d="M4.84,13.18a1.89,1.89,0,0,1-.09.21c.16,0,.11,0,.23,0s-.06-.1-.14-.08"/><path class="cls-2" d="M6.84,3.85c-.15.16-.06.4.21.37.23-.41-.39-.64-.42-.2,0,.59.93-.29.26-.34a.27.27,0,0,0,.08.4.26.26,0,0,0,0-.42.36.36,0,0,0,.08.4"/><path class="cls-2" d="M16.18,23.72c0-.06.06,0,0-.12s-.61.52-.45.71.66-.26.56-.53c-.53-.08-.34.65,0,.39s-.48-.7-.2-.07"/><path class="cls-2" d="M2.34,16.27c.07,0,.15.06.16-.17-.25,0-.25.26,0,.29"/><path class="cls-2" d="M27.22,8.06c.07,0,.13.07.16-.13a.52.52,0,0,0-.18.18.12.12,0,0,0,.14,0"/><path class="cls-2" d="M28.09,25.31s-.05,0,0,0a.75.75,0,0,1,0-.15c-.07,0,0,.06,0,.08"/><path class="cls-2" d="M1.34.64l0,.13"/><path class="cls-2" d="M16.05,5.89a.43.43,0,0,0-.21.17"/><path class="cls-2" d="M18.43,7a.24.24,0,0,1,.08.09"/><path class="cls-2" d="M2.59,25.22s0,0,0,0"/><path class="cls-2" d="M5.22,26.43c0,.12,0,.2.15.21a.27.27,0,0,0-.18-.38.39.39,0,0,0,0,.26"/><path class="cls-2" d="M4.09,6.27c-.09,0-.16,0-.18.11a.27.27,0,0,0,.44-.19A.32.32,0,0,0,4,6.45a.17.17,0,0,0,.22.07"/><path class="cls-2" d="M26.72,1a.62.62,0,0,0,0,.33"/><path class="cls-2" d="M16.18,14.72a.79.79,0,0,0-.38.21"/><path class="cls-2" d="M21.47,27.68c.06.09.06.17.2.16,0-.19-.13-.32-.32-.34-.1.23.14.64.39.38s0-.71-.31-.57a.4.4,0,0,0,.4.43.14.14,0,0,0,.05-.18"/><path class="cls-2" d="M24.3,22.27c0,.06,0,.09,0,.13s0-.11,0-.18"/><path class="cls-2" d="M12.05,29c.08,0,.11.09.21.08s-.09,0-.17-.08"/><path class="cls-2" d="M28.59,13.64c-.09,0-.1,0,0,0"/><path class="cls-2" d="M9.63,16.77s.07.06.09,0,0-.05,0-.09"/><path class="cls-2" d="M21.93,10.22v0"/><path class="cls-2" d="M-.21,13.64c-.09,0-.1,0,0,0"/><path class="cls-2" d="M12.05.17c.08,0,.11.09.21.08s-.09,0-.17-.08"/></pattern><pattern id="_10_dpi_50_" data-name="10 dpi 50%" width="28.8" height="28.8" patternTransform="translate(231.08 1682.94) scale(2)" patternUnits="userSpaceOnUse" viewBox="0 0 28.8 28.8"><rect class="cls-1" width="28.8" height="28.8"/><path class="cls-3" d="M10.79,24.79c3.92.24,2.84-5.63,4.28-7.72a6.65,6.65,0,0,1,5.42-2.89,13.77,13.77,0,0,1,2.38.49,2.55,2.55,0,0,0,2.8-1.21"/><path class="cls-3" d="M18.62,18.12A13.29,13.29,0,0,1,20.71,18a17,17,0,0,1,1.89,0,6.31,6.31,0,0,1,1.87.7,3.1,3.1,0,0,0,3.48-.3,9.1,9.1,0,0,0,2.47-4.86"/><path class="cls-3" d="M11.58,3.61C9.66,8.29,14,8.66,14.4,10.1c.55,1.82-.58,3.82-1.86,5.05"/><path class="cls-3" d="M10.67,20.79a3.36,3.36,0,0,1-2.26-1.4c-.94-1.47-.41-3,.38-4.38s1.85-2.88.8-4.32c-.93-1.27-2.94-1.36-4.3-1.82"/><path class="cls-3" d="M5.57,22.4c.65.71,1.4,1.29,2,2.05A4.34,4.34,0,0,1,8.43,26c.22.75.17,1.62.46,2.34a2.5,2.5,0,0,0,3.47,1.11,12.32,12.32,0,0,0,2.44-1.86,4.07,4.07,0,0,1,2.67-.9"/><path class="cls-3" d="M17.46,21.67a10.2,10.2,0,0,0,1.29.73A4.74,4.74,0,0,1,21,25a7.09,7.09,0,0,1,.09,3.24c-.08.53-.23.95.09,1.44a2.07,2.07,0,0,0,1.32.78"/><path class="cls-3" d="M14.77,3.71C16.88,3,18.64,5.76,20.6,6c1.34.14,2.72,2.51,3.62,1.31s1-5.07,1.23-6.54"/><path class="cls-3" d="M29.67,3.71a5.19,5.19,0,0,0-2.17,3c-.25,1.1.53,4.6.8,5.66"/><path class="cls-3" d="M16.33,8.5a4.53,4.53,0,0,0,2.39,1.39c.78.16,1.58,0,2.36.23a4.73,4.73,0,0,1,2.34,1.59"/><path class="cls-3" d="M29.38,29.28a10.07,10.07,0,0,1-2.56-3.12c-.38-1-.37-1.93-1.16-2.75A6.41,6.41,0,0,0,22,21.59"/><path class="cls-3" d="M4,17a8,8,0,0,1-1,1.6c-.43.53-1,.72-1.51,1.2a2.67,2.67,0,0,0-.71,2.52C1,23.45,2.12,24,2.79,24.8a5.58,5.58,0,0,1,.92,4.53"/><path class="cls-3" d="M5.47,13.41c0-2-2.61-2.28-3.3-3.87a2.85,2.85,0,0,1,.59-3,5.92,5.92,0,0,1,1.5-1.36A9.45,9.45,0,0,1,6.07,4.7c1-.3.09-2.32.84-3.11"/><path class="cls-3" d="M-10.18,18.12A13.29,13.29,0,0,1-8.09,18,17,17,0,0,1-6.2,18a6.31,6.31,0,0,1,1.87.7,3.11,3.11,0,0,0,3.49-.3,9.16,9.16,0,0,0,2.46-4.86"/><path class="cls-3" d="M.87,3.71a5.19,5.19,0,0,0-2.17,3c-.25,1.1.53,4.6.8,5.66"/><path class="cls-3" d="M.58,29.28A10.07,10.07,0,0,1-2,26.16c-.38-1-.37-1.93-1.16-2.75a6.41,6.41,0,0,0-3.71-1.82"/><path class="cls-3" d="M5.57-6.4c.65.71,1.4,1.29,2,2.05a4.34,4.34,0,0,1,.84,1.59c.22.75.17,1.63.46,2.34A2.5,2.5,0,0,0,12.36.69,12.32,12.32,0,0,0,14.8-1.17a4.07,4.07,0,0,1,2.67-.9"/><path class="cls-3" d="M17.46-7.13a10.2,10.2,0,0,0,1.29.73A4.74,4.74,0,0,1,21-3.84,7.09,7.09,0,0,1,21.05-.6c-.08.53-.23,1,.09,1.44a2.07,2.07,0,0,0,1.32.78"/><path class="cls-3" d="M29.38.48a10.07,10.07,0,0,1-2.56-3.12c-.38-1-.37-1.93-1.16-2.75A6.41,6.41,0,0,0,22-7.21"/><path class="cls-3" d="M4-11.8a8,8,0,0,1-1,1.6c-.43.53-1,.72-1.51,1.21A2.65,2.65,0,0,0,.73-6.48C1-5.35,2.12-4.81,2.79-4A5.58,5.58,0,0,1,3.71.53"/><path class="cls-3" d="M.58.48A10.07,10.07,0,0,1-2-2.64c-.38-1-.37-1.93-1.16-2.75A6.41,6.41,0,0,0-6.85-7.21"/></pattern></defs><title>Pipeline</title><g class="cls-4"><g id="Layer_1" data-name="Layer 1"><polygon class="cls-5" points="1288.69 1470.17 275.5 1262.74 931.49 999.2 1944.69 1206.63 1288.69 1470.17"/><ellipse class="cls-6" cx="1556.68" cy="1176.09" rx="26.02" ry="179.8" transform="translate(93.46 2466.61) rotate(-78.48)"/><path class="cls-7" d="M1714.34,1169.2c-1.7,2.55.29,10.32.3,13.7a28,28,0,0,1-.29,5.73,35.42,35.42,0,0,1-5.7,12.51c-1.69,2.32-4,3.79-6.22,5.46-1.7,1.25-5.35,3.09-6.17,5.07-4.07,9.88,22.09,3.72,25.84,1.14,6.54-4.49,8.52-10.94,12.58-17.5,2.59-4.19,6.29-7.21,9.75-10.69,1.43-1.44,2.82-2.48,2.82-4.74,0-5.26-5.61-8.68-7-9.45q-8.65-5.64-17.24-11.41"/><path class="cls-7" d="M1661.91,1180.74c-4.42,11.16-13.75,16.6-23,22.88-3.14,2.14-12.9,6.13-10.55,10.08,2.68,4.5,10.58,3.36,14.83,3a54.64,54.64,0,0,0,20.53-5.93,27,27,0,0,0,8.79-6.78,10.68,10.68,0,0,1,6.88-4.2c2.56-.57,7-.91,8.92-3,6.81-7.37-2.62-23.93-5.94-29.71"/><polygon class="cls-8" points="1286.73 1350.57 928.41 1276.41 1251.22 1146.72 1609.54 1220.88 1286.73 1350.57"/><path class="cls-9" d="M677.22,748.61l-49.72-10.2A68.47,68.47,0,0,1,573,671.58V241.07H617.5V671.58a23.79,23.79,0,0,0,18.94,23.22L686.16,705Z"/><path class="cls-9" d="M779.19,517.23,729.47,507A68.47,68.47,0,0,1,675,440.2V210.52h44.52V440.2a23.78,23.78,0,0,0,18.94,23.22l49.72,10.2Z"/><ellipse class="cls-10" cx="697.22" cy="210.52" rx="22.26" ry="8.73"/><path class="cls-11" d="M535.16,1043.73c-13.88,0-23.33-6.36-29-20-7.47-18-2.61-40.57,15.42-48L668,914.77V567a74.34,74.34,0,0,1,47-69.36L1027.07,372.8a47.53,47.53,0,0,1,65.17,44.13v67l79.49-30.48a47.52,47.52,0,0,1,64.54,44.37v168.1l18.83,3.8,278.26-112.14c18.11-7.3,33.14-.39,40.44,17.72s4.1,40.56-14,47.86l-178.64,72,115.52,23.3a47.67,47.67,0,0,1,38.12,46.59V934a47.52,47.52,0,0,1-56.84,46.6L969.46,878.92A47.52,47.52,0,0,1,961,788.24l208.65-84.08a47.13,47.13,0,0,1-4.11-19.26V531.55l-73.32,28.11v81a47.52,47.52,0,0,1-57.07,46.55L886.34,656.68a47.53,47.53,0,0,1-7.46-90.93l142.66-54.7V451.17L741.24,563.29a4,4,0,0,0-2.52,3.71V930.26a47.37,47.37,0,0,1-29.33,43.9l-171,71.37C533.93,1047.36,539.66,1043.73,535.16,1043.73Zm524.27-218.92,404.66,80.93V784l-202.2-40.8ZM978.27,603.36l43.27,8.88V586.77Z"/><path class="cls-12" d="M1261.89,743.22s-34.58-6.71-57.93-11.72-34.29-27.34-34.29-27.34"/><line class="cls-12" x1="1021.54" y1="511.05" x2="1021.54" y2="596.42"/><line class="cls-12" x1="1092.24" y1="483.94" x2="1092.24" y2="559.66"/><line class="cls-12" x1="978.27" y1="603.36" x2="911.32" y2="590.62"/><line class="cls-12" x1="1059.43" y1="824.81" x2="999.91" y2="813.86"/><line class="cls-12" x1="1165.56" y1="531.55" x2="1179.76" y2="526.35"/><line class="cls-12" x1="1021.54" y1="451.17" x2="1036.61" y2="444.85"/><path class="cls-6" d="M745,1074.14c13.47,1.06,27.34,2.49,41.48,4.29,123.5,15.75,221.08,54.18,217.94,85.84s-105.8,44.58-229.3,28.84c-83.54-10.65-155.22-31.68-191.89-54"/><path class="cls-13" d="M957.69,766c-17-4.17-37.13-6.58-58.69-6.58s-41.66,2.41-58.68,6.58H788.14v391.63c0,24,49.64,43.47,110.86,43.47s110.87-19.46,110.87-43.47V766Z"/><ellipse class="cls-14" cx="899" cy="762.71" rx="110.86" ry="43.47"/><path class="cls-15" d="M1009.87,762.71c0-24-49.64-43.47-110.87-43.47S788.14,738.7,788.14,762.71a18.06,18.06,0,0,0,.31,3.29h-.31v391.63c0,24,49.64,43.47,110.86,43.47s110.87-19.46,110.87-43.47V766h-.32A17.23,17.23,0,0,0,1009.87,762.71Z"/><ellipse class="cls-16" cx="529.01" cy="1011.14" rx="26.35" ry="36.08" transform="translate(-91.96 53.72) rotate(-5.35)"/><ellipse class="cls-10" cx="595.24" cy="241.07" rx="22.26" ry="8.73"/><path class="cls-12" d="M617.5,305.23c0,4.82-10,8.73-22.26,8.73S573,310.05,573,305.23"/><path class="cls-12" d="M617.5,369.4c0,4.82-10,8.72-22.26,8.72S573,374.22,573,369.4"/><path class="cls-12" d="M617.5,433.56c0,4.82-10,8.73-22.26,8.73S573,438.38,573,433.56"/><path class="cls-12" d="M719.48,277.93c0,4.82-10,8.73-22.26,8.73S675,282.75,675,277.93"/><path class="cls-12" d="M719.48,342.09c0,4.82-10,8.73-22.26,8.73S675,346.91,675,342.09"/><path class="cls-12" d="M719.48,406.26c0,4.82-10,8.72-22.26,8.72S675,411.08,675,406.26"/><path class="cls-12" d="M617.5,497.72c0,4.82-10,8.73-22.26,8.73S573,502.54,573,497.72"/><path class="cls-12" d="M617.5,561.88c0,4.82-10,8.73-22.26,8.73S573,566.7,573,561.88"/><path class="cls-12" d="M617.5,626.05c0,4.82-10,8.72-22.26,8.72S573,630.87,573,626.05"/><polygon class="cls-17" points="1251.22 1343.22 1251.22 1146.72 1609.54 1220.88 1286.73 1350.57 1251.22 1343.22"/><polygon class="cls-18" points="1286.73 1350.57 928.41 1276.41 1251.22 1146.72 1609.54 1220.88 1286.73 1350.57"/><path class="cls-19" d="M980.53,1202.7c-2.71,0-4.9-1.15-4.9-3.85V777.76a23.54,23.54,0,0,0-7.31-17l-5.62-5.35a.34.34,0,0,0-.43-.08.34.34,0,0,0-.24.36V787.8c0,2.71-2.19,3.86-4.9,3.86s-4.9-1.15-4.9-3.86V755.67a10.19,10.19,0,0,1,17.22-7.38l5.62,5.34a33.39,33.39,0,0,1,10.36,24.13v421.09C985.43,1201.55,983.24,1202.7,980.53,1202.7Z"/><path class="cls-19" d="M918.79,835.94a4.9,4.9,0,0,1-.75-9.75l57.74-9a4.9,4.9,0,1,1,1.51,9.68l-57.74,9A6.66,6.66,0,0,1,918.79,835.94Z"/><path class="cls-19" d="M918.79,871.67a4.9,4.9,0,0,1-.75-9.75l57.74-9a4.9,4.9,0,1,1,1.51,9.68l-57.74,9A5,5,0,0,1,918.79,871.67Z"/><path class="cls-19" d="M919.71,907.4a4.9,4.9,0,0,1-.75-9.74l57.74-9a4.9,4.9,0,1,1,1.51,9.68l-57.74,9A5,5,0,0,1,919.71,907.4Z"/><path class="cls-19" d="M918.79,943.13a4.9,4.9,0,0,1-.75-9.74l57.74-9a4.9,4.9,0,1,1,1.51,9.68l-57.74,9A5,5,0,0,1,918.79,943.13Z"/><path class="cls-19" d="M918.79,978.86a4.9,4.9,0,0,1-.75-9.74l57.74-9a4.9,4.9,0,0,1,1.51,9.69l-57.74,9A5,5,0,0,1,918.79,978.86Z"/><path class="cls-19" d="M918.79,1014.59a4.9,4.9,0,0,1-.75-9.74l57.74-9a4.9,4.9,0,0,1,1.51,9.69l-57.74,9A5,5,0,0,1,918.79,1014.59Z"/><path class="cls-19" d="M918.79,1050.32a4.9,4.9,0,0,1-.75-9.74l57.74-9a4.9,4.9,0,1,1,1.51,9.68l-57.74,9A5,5,0,0,1,918.79,1050.32Z"/><path class="cls-19" d="M918.79,1086.05a4.9,4.9,0,0,1-.75-9.74l57.74-9a4.9,4.9,0,1,1,1.51,9.68l-57.74,9A5,5,0,0,1,918.79,1086.05Z"/><path class="cls-19" d="M918.79,1121.78A4.9,4.9,0,0,1,918,1112l57.74-9a4.9,4.9,0,1,1,1.51,9.68l-57.74,9A6.61,6.61,0,0,1,918.79,1121.78Z"/><path class="cls-19" d="M918.79,1157.52a4.9,4.9,0,0,1-.75-9.75l57.74-9a4.9,4.9,0,1,1,1.51,9.68l-57.74,9A5,5,0,0,1,918.79,1157.52Z"/><path class="cls-19" d="M917.06,1210c-2.71,0-4.9-1.15-4.9-3.86V785a23.56,23.56,0,0,0-7.31-17l-5.63-5.34a.32.32,0,0,0-.42-.08.33.33,0,0,0-.24.36v32.13c0,2.7-2.19,3.86-4.9,3.86s-4.9-1.16-4.9-3.86V762.92A10.19,10.19,0,0,1,906,755.53l5.63,5.35A33.41,33.41,0,0,1,922,785v421.09C922,1208.8,919.77,1210,917.06,1210Z"/><line class="cls-12" x1="1386.28" y1="704.16" x2="1254.78" y2="677.62"/><line class="cls-12" x1="1464.09" y1="905.74" x2="1464.09" y2="917.96"/><path class="cls-20" d="M1256.86,1344.39c6.94-207.41,29.56-339.19,30-472.72-27.43-29.23-45.78-96.65-45.78-96.65l218.27-12.31s-32.43,125.4-26.26,180.42c8,71.46,45.42,330.4,45.42,330.4l-191.76,77Z"/><path class="cls-21" d="M1256.86,1344.39c6.94-207.41,29.56-339.19,30-472.72-27.43-29.23-45.78-96.65-45.78-96.65l218.27-12.31s-32.43,125.4-26.26,180.42c8,71.46,45.42,330.4,45.42,330.4l-191.76,77Z"/><path class="cls-22" d="M1290.32,891.19c0,17.36-1.64,34.49-2.19,51.72-.64,19.67.71,39.25-1.39,58.81-3.68,34.4-4.45,69.75-9.57,104.13-2.35,15.81-3.62,31.76-5.43,47.77-.67,6-4.43,21,5,13.66,8-6.24,9.38-22.89,11.16-32.2,3.56-18.63,7.94-36.92,12.72-55.48,1.37-5.31,4.62-32.61,12.42-33.68,5.21-.71,5.35,8.2,10,9.1,7,1.36,7.31-29.89,8.05-36.57,2.08-18.79,2.46-38.85,2.92-57.78.18-7.42-2-19.49,2.37-25.71,3.53-5,8.45-2.41,12.15-7.73,4-5.67,1.67-8.32,9.55-11.25,6.1-2.28,9-2.44,14-7.81,8.69-9.35,11-20.36,12.26-32.66,1.85-17.73,9.7-54.8-12.15-63.08-27.39-10.39-58.57-2.14-69.93,25.89-5.75,14.21-16.76,31.59-14.25,47.8.58,3.78,2.53,6.53,2.22,10.91"/><path class="cls-20" d="M1336.27,898s3.4,58.29,0,116.58"/><path class="cls-20" d="M1348.78,898s-2.79,63.45,0,94.43"/><path class="cls-23" d="M1362.78,488.15a144.47,144.47,0,0,0-82,0h-36.46L1262,883.43c.57,12.7,27.32,22.83,59.76,22.83s59.19-10.13,59.76-22.83l17.69-395.28Z"/><line class="cls-23" x1="1257.63" y1="488.15" x2="1272.77" y2="896.41"/><line class="cls-23" x1="1286.42" y1="901.46" x2="1275.32" y2="488.15"/><line class="cls-23" x1="1295.44" y1="488.15" x2="1301.78" y2="904.85"/><line class="cls-23" x1="1386.59" y1="488.15" x2="1371.31" y2="896.03"/><line class="cls-23" x1="1368.9" y1="488.15" x2="1357.64" y2="901.46"/><line class="cls-23" x1="1348.78" y1="488.15" x2="1342.28" y2="904.85"/><line class="cls-23" x1="1321.78" y1="488.15" x2="1321.78" y2="906.26"/><path class="cls-23" d="M1374.83,453.22a239.47,239.47,0,0,0-106.1,0h-47.17v24.64c0,21.71,44.87,39.3,100.22,39.3S1422,499.57,1422,477.86V453.22Z"/><ellipse class="cls-23" cx="1321.78" cy="450.24" rx="100.21" ry="39.29"/><path class="cls-23" d="M1380.46,430.82c-17-4.17-37.13-6.58-58.68-6.58s-41.67,2.41-58.69,6.58h-52.18v27.26c0,24,49.64,43.47,110.87,43.47s110.86-19.46,110.86-43.47V430.82Z"/><ellipse class="cls-23" cx="1321.78" cy="427.53" rx="110.86" ry="43.47"/><path class="cls-5" d="M1395.23,431.78c5.29-1.73,1.73-12.5,3.13-17.34,2.24-7.76,7.25-15.21,10.78-22.47,7-14.46,5.5-31.35,5.61-47.06-5.12,15.09-21.68,23.93-32.62,34.43-11.44,11-22.62,25.84-22.24,42.3-4.11-14.54.87-29.72,10.16-41,6-7.3,14.55-12.69,21.72-18.79,7-5.93,11.77-11.95,17.08-19.3,19.47-26.91,6.92-73.85-16.92-94.86.55,19.7,0,47.73-20.77,57.72,0-4.13,4.39-9,5.72-13.16a79.14,79.14,0,0,0,3.33-22.86c0-13.12-5.3-26-10.61-37.79-5.9-13.15-14.54-25.45-14.61-40.29-.06-11.76,2.43-25,11.28-33.55-16.42,9.81-34.24,18.14-45,34.79-6.89,10.69-12.07,28.53-4.06,40.32-2.44-4.48-6.86-7.9-9.52-12.35-3-5.08-5.31-11.58-5.19-17.52.14-7.61,4.77-17.76,10.81-22.54-5.65,5.52-12.8,9-19.17,13.69-11.31,8.26-20.79,18.78-26.92,31.49-9.37,19.43-6.51,47.07,8.93,62.9,10,10.27,23.93,17.1,24.73,33.09.32,6.25-.26,14-2.89,19.76-1.73,3.79-6.38,11.08-10.39,12.25,11.92-15,3.82-38.24-10.25-49.28,3,2.16,2.07,10.8,2,14.45-.3,13-5.65,21-13.38,31.16-5.92,7.81-12.69,14.29-17.25,23-3.74,7.12-6.65,15.09-6.37,23.42.3,8.53,2.19,17.68,6.27,25.23,1.6,3,5.39,9.58,9.18,9.76C1257.83,431.38,1311.66,459.1,1395.23,431.78Z"/><path class="cls-20" d="M1403,881s36.78-11.71,47.31-39.82c11.44-30.55,30.89-68.12,28.18-100.67-1.27-15.17-5.18-27.15-9.08-42.5-5-19.6-2.05-11.55-4.83-31.26-3.75-26.69-35.86-44.61-47-70-5.63-12.83-8.39-62.83-38.22-41.08-22,16.06-22.82,49.47-9.46,70.09,5.13,7.91,12.34,13.82,12.53,23.58.21,10.45,6.51,31.79.9,40.55-25.71,40.11-9.25,92.49,3.24,121.8"/><path class="cls-21" d="M1403,881s36.78-11.71,47.31-39.82c11.44-30.55,30.89-68.12,28.18-100.67-1.27-15.17-5.18-27.15-9.08-42.5-5-19.6-2.05-11.55-4.83-31.26-3.75-26.69-35.86-44.61-47-70-5.63-12.83-8.39-62.83-38.22-41.08-22,16.06-22.82,49.47-9.46,70.09,5.13,7.91,12.34,13.82,12.53,23.58.21,10.45,6.51,31.79.9,40.55-25.71,40.11-9.25,92.49,3.24,121.8"/><path class="cls-20" d="M1260.37,714.79c-14.67,1.53-44.73,10.71-48,25.55-1.2,5.38-.52,10.92.36,15.78,1.14,6.33.59,13.82,4,19.73,5.38,9.21,23.09,12,34.12,13.39,12.07,1.46,24.9,2.72,37.09,3.38,15.13.81,28.37-.39,32.71-16,3.19-11.51.31-24-9.79-31.71-10.27-7.86-37.56-10.79-49.32-4.53"/><path class="cls-20" d="M1251.22,651.54c-17.54-.12-53.47,6.68-57.36,23.55-1.42,6.11-.57,12.67.5,18.45,1.4,7.53.77,16.19,4.94,23.53,6.48,11.44,27.68,17.06,40.89,20.06,14.45,3.27,29.81,6.41,44.4,8.76,18.1,2.91,34,3.24,39.07-14.4,3.77-13,.26-27.91-11.87-38.24-12.32-10.5-45-17.47-59-11.7"/><path class="cls-20" d="M1245.56,587.82c-18.5-.89-56.42,4.9-60.59,23-1.52,6.56-.66,13.68.45,20,1.44,8.21.74,17.54,5.1,25.67,6.8,12.65,29.13,19.64,43,23.45,15.21,4.16,31.4,8.22,46.78,11.39,19.08,3.94,35.79,5,41.25-13.88,4-13.9.39-30.18-12.35-41.87-13-11.89-47.37-20.83-62.21-15.2"/><path class="cls-20" d="M1245.5,538.15c-17.31-.84-51,4.59-54.93,21.51-1.42,6.14-.39,12.83.64,18.73,1.36,7.68.48,16.39,4.56,24,6.36,11.84,27.27,18.38,40.29,22,14.25,3.89,29.4,7.69,43.79,10.66,17.86,3.69,33.5,4.65,38.62-13,3.77-13,.36-28.25-11.56-39.2-12.13-11.12-46.12-20.3-60-15"/><path class="cls-12" d="M1228.7,556.25s8.55.76,19.21,11.79"/><path class="cls-12" d="M1289.25,590.22s-6,21.1-1,40c-26.65-8.55-33.19-15.29-33.46-28.6S1265.89,583,1289.25,590.22Z"/><path class="cls-12" d="M1292,646.21s-6.07,21.71-1,40.16c-26.74-5.87-33.31-12-33.58-25.24S1268.56,641.3,1292,646.21Z"/><path class="cls-12" d="M1292,700.79s-6.28,22.15-1,40.23c-27.67-3.95-34.47-9.55-34.75-22.82S1267.74,697.57,1292,700.79Z"/><path class="cls-12" d="M1293.38,753.3s-3.06,19.33,3.49,35.11c-24.59-3.45-31.13-8.34-32.83-19.92S1271.85,750.48,1293.38,753.3Z"/><path class="cls-12" d="M1404.66,557.88a21.89,21.89,0,0,1-9.32,16.6c4.66,27.35,13.05,40.25,24.58,27"/><path class="cls-12" d="M1424.88,608.58c-.66,4.34-6.68,8.8-9.48,11.67"/><path class="cls-12" d="M1428.53,614.41c-2.64,6.17-7.52,11.24-12,16.05"/><path class="cls-12" d="M1194.88,563.32c0,9.93,2.31,19.38,2.28,29.29"/><path class="cls-12" d="M1190.7,620.76a40.18,40.18,0,0,0,2.66,16"/><path class="cls-12" d="M1234.07,702.56c.08,7.59.55,15.31,3.42,22.45"/><path class="cls-12" d="M1229.12,706a85,85,0,0,0,1.52,17.12"/><path class="cls-12" d="M1385.42,686.07c5.64,2.19,12.1,1.78,18,1.64"/><path class="cls-12" d="M1439.1,1061.86c2.92,41.14,7.6,66.2,11.89,99.25,3.67,28.28,4.85,55.24,4.89,83.72,0,11.73-.65,28.05-5.15,39"/><path class="cls-21" d="M1323.66,731.49c3.77-13,.26-27.91-11.87-38.24-.6-.52-1.27-1-2-1.52,5.41-2.21,9.54-6.59,11.78-14.32,4-13.9.39-30.18-12.35-41.87-.22-.21-.47-.41-.71-.62,4.52-2.2,8-6.21,9.93-12.91,3.77-13,.36-28.25-11.56-39.2-12.13-11.12-46.12-20.3-60-15l-1.4-29.63c-17.31-.84-51,4.59-54.93,21.51-1.42,6.14-.39,12.83.64,18.73,1.16,6.56.7,13.88,3.08,20.61-4.79,3.16-8.23,7-9.32,11.8-1.52,6.56-.66,13.68.45,20,1.44,8.21.74,17.54,5.1,25.67a28.88,28.88,0,0,0,9.23,9.61,17.34,17.34,0,0,0-5.89,9c-1.42,6.11-.57,12.67.5,18.45,1.4,7.53.77,16.19,4.94,23.53,3.43,6.06,11,10.48,19.29,13.75-3.2,2.84-5.48,6-6.26,9.52-1.2,5.38-.52,10.92.36,15.78,1.14,6.33.59,13.82,4,19.73,5.38,9.21,23.09,12,34.12,13.39,12.07,1.46,24.9,2.72,37.09,3.38,15.13.81,28.37-.39,32.71-16,3.11-11.21.43-23.31-9-31.07C1317.2,743.41,1321.44,739.14,1323.66,731.49Z"/><path class="cls-22" d="M1219.61,731.86c-4.23,8.27-3.74,16.11-1.88,24.8,1.06,5,1,14.06,4.53,17.66s9.71,4.51,14.08,5.91c2.92.94,6.46,2.27,8.88-.69,2.88-3.53-.73-8.54-1.66-12.28-1.55-6.23-6.32-14.76-3.78-21.14,1-2.62,5.6-6,4.54-9.09-1.46-4.33-11.19-6.59-14.08-10.78-2.16-3.13-3-7-3.69-10.68-.41-2.23-.31-5.22-1.19-7.27-1-2.25-3.25-3.53-4.44-5.55-2.56-4.38-4-12.23-2.48-17.15s1.14-7.39.34-12.3c-.34-.09-.65.06-1-.06-2.34-3.94-3.31-6.32-2.46-10.73.8-4.15,3.2-9.42,1.94-13.63-1.73-5.76-10.93-18.47-4.52-24.52,5.25-5,10.81,2.28,15.69,3.93,2.89,1,17.7,3,14.67-4-1.06-2.47-8.16-5.26-10.21-6.91-2.76-2.24-5.34-4.18-8.15-6.26-8.51-6.29-2.62-14.93-7.43-22.27-4.08-6.22-3.79-10.73-3.83-17.54,0-4-1.39-6.14,3-8.69,4.72-2.71,11.82-4.71,17-5.46,5-.7,7,2.26,11.11,4.35,2-2.34-.26-10.13-.37-13.39s.45-3.81-2.34-5.22c-3.24-1.64-9.1-.24-12.36.62-9,2.4-18.58,5.52-26.31,10.88-8.77,6.07-9.61,14-8.48,24.28.68,6.16,5.75,18.54,2.31,24.05-2,3.21-4.89,4.41-6.09,8.35-1.73,5.68-1.82,12.6-1.54,18.47.44,9.09.88,22,6.48,29.42,1.68,2.23,4.78,4.87,5.3,7.66.7,3.64-2,7.79-2.45,11.41-1.7,14-.17,29,6.94,41.27,2.27,3.92,15.19,8.57,14.19,13"/><path class="cls-22" d="M1377.84,559.17c-18.45,18.37-17.4,45.5-4.25,66.18,4.36,6.87,9.53,13.16,12,20.88,3.2,9.81,2.7,19.39,3.15,29.57.2,4.49,1.46,9.69,0,14.1-1.21,3.72-4,7.49-5.55,11.21-4.3,10.44-8.58,20.25-10.19,31.91-2,14.44.72,29.06,5.31,42.61,3.78,11.18,10.2,22,10.4,34.06.14,8.16-4,14.49-4.38,23-.54,10.83-1.16,22.3-.43,33.31,8.38-11.42,21.26-24,26.29-37.58,7.84-21.2,6-45.64,1.1-67.29-6.31-27.77,4.26-56.92-2-84.27-3-13.12-7.16-25.28-15.36-35.89-6.06-7.84-8.39-18-11-27.42-2.86-10.52-2.46-22.47-1.91-33.34.46-9,6.18-16.89,6.48-25.33C1383.2,554.78,1381.74,557.81,1377.84,559.17Z"/><path class="cls-22" d="M1259.69,1344.84c.07-22.77,2.47-45.75,3.64-68.52.62-12.2,2.2-24.29,3.74-36.42,1.67-13.14.69-30.31,8.84-41.59,5.42,4.35,4.42,21.77,5.8,28.8,3,15.11,1.52,39.14,9.79,52.19,7,11.07,19.62,4.76,28.6-1.72,12.78-9.22,27-22.07,44.61-16.95,11.17,3.26,8.11,13,11.51,21.37,4.83,11.88,10.9-2.37,19.16,1.62,5.07,2.44,3.87,9,12.39,5.07,7.13-3.29,9.12-12.85,17.08-15.66s11.84,1.79,16.46-7.79c8.14-16.89,11.9-33.79,28.48-44.11-.57,9,1.13,21.52,2.13,30.72.71,6.61,2.46,16.4,5.82,22l-191,76.71S1259.77,1345.17,1259.69,1344.84Z"/><ellipse class="cls-24" cx="627.37" cy="978.2" rx="52.83" ry="40.04" transform="translate(-487.3 1306.79) rotate(-73.75)"/><ellipse class="cls-23" cx="632.9" cy="979.91" rx="52.83" ry="40.04" transform="translate(-484.96 1313.33) rotate(-73.75)"/><ellipse class="cls-20" cx="632.9" cy="979.91" rx="40" ry="30.31" transform="translate(-484.96 1313.33) rotate(-73.75)"/><polyline class="cls-20" points="632.9 951.95 632.9 979.91 642.36 988.73"/><polygon class="cls-25" points="1640.4 818.91 1743.35 818.48 1753.32 844.49 1698.3 886.21 1634.82 852.93 1640.4 818.91"/><path class="cls-25" d="M1639.25,825.4s-9.94,30.79-5,69,23.84,287.07,23.84,287.07,19.26,9.24,30.68-3.07c-2.75-52.34,9.56-302.48,9.56-302.48"/><path class="cls-25" d="M1687.36,854.11c-2.7,32.1-18.1,84.21-25.94,115.85-4.51,18.22-.74,28,4.21,45.81,9.53,34.22,40.31,150.83,45.14,158.22,4.21,6.43,29.57,2,27.45-6.06-4-15.31-8-50.12-10.77-66.93-3.79-23.31-5.08-53-8.55-76.24-1.73-11.55-2.84-13.2-2.21-25,.23-4.29,4.66-25.81,13.22-43.3,12.53-25.61,25-56.82,27.78-81.21,1.25-11-2.71-39.27-14.34-56.77"/><path class="cls-25" d="M1623.38,808.38c5.44-2.28,10.14-3,14.78-7.5,5-4.84,8.51-11.35,12.33-17.14,6.68-10.13,14.8-21.28,17.43-33.37a52.21,52.21,0,0,0-2.35-29.75c-1.84-5-3.32-10-8.42-12.43-17.54-8.31-28.68,23-32.36,33.55"/><path class="cls-25" d="M1743.31,818.63c-30.35,13-72.8,16.57-104.06,6.77,2.8-21.23,6.06-28.7,6.32-35.81.69-19-23.35-15.39-10.17-56.87,9.45-29.74,38.95-35,66-30.64,21.63,3.44,36.64,9.81,39.62,37,2.38,21.81-4.08,27.23-3.48,49.16C1737.91,800,1739.18,809.28,1743.31,818.63Z"/><path class="cls-26" d="M1654.29,708.23s-7.44,19.2,24,18.79,37.54-21.7,37.54-21.7a97.8,97.8,0,0,0-37.35-4.28C1661,702.59,1654.29,708.23,1654.29,708.23Z"/><path class="cls-26" d="M1668.06,630.46c1-31.29,14.64-54.26,14.75-54.43,7.37,28.31,3.11,43.05,3.58,57.82"/><path class="cls-26" d="M1662.88,713.65c.92-6.11,1.77-16.89.69-22.91-1.38-7.65-3.88-15.44-8.53-21.75-6.6-9-17.15-14.38-23.78-23.47-4.36-6-12.9-22.64-8.19-27.15,6.48-6.23,12.8.28,17.72,3.28,10.93,6.66,17.27,8.8,29.32,3.83,12.44-5.13,21.68-5.87,29.23,7.69,5.83,10.49,7.41,23.11,7.55,35.06.14,12.82-3.65,26.58,4.2,38.12"/><path class="cls-26" d="M1690.71,634.83c1.47-8.08,8.74-24.69,11.2-29.38,3.49-6.64,11.13-20,18.24-25.78,3.06,18.71-2.79,37.25-6.27,55.56-2.62,13.7-7,29-7.37,41.66"/><circle class="cls-27" cx="1629.46" cy="616.18" r="5.03"/><path class="cls-25" d="M1624.18,689.66c-.73.76-2.15,6.21-2.45,7.84-2.25,11.93-19.51,69.89-20.68,89.07-.5,8.2,3.13,19.91,12.67,22.67,5.09,5.74,14.62,1.66,21-4.33,8-7.55,7.34-26,7.82-36.11,1.1-23.25,4.42-38.06,4.89-61.27.11-5.43.34-8.33.24-13.73,0-2.82-1.07-4.33-6-6.69C1637.13,684.89,1628,685.2,1624.18,689.66Z"/><path class="cls-26" d="M1663,809.66c-3.12-1.07-6.58-1.17-9.75-2.17-1.43-.45-2.75-1.17-4.17-1.65a29.5,29.5,0,0,1-4.53-1.55c-1.36-.76-2.36-1.85-3.82-2.5a21.57,21.57,0,0,0-4.09-1.36c-1.21-.26-3.41-1-4,.48s1,3.51,1.93,4.57,4.73,5,4,6.39-5.18.83-6.49.64A85.91,85.91,0,0,0,1620,812c-3.1,0-6.79-1.5-11.12-5.32-.57-.49-2.29-2.44-3.1-2.21-2.85,4.68.16,9.59,2.55,12.37,3.6,4.19,7.11,8.36,12.67,9.74a129,129,0,0,0,30.51,3.63c2.47,0,6.52,0,8.61,1.5"/><path class="cls-26" d="M1662.88,660.36a17.37,17.37,0,0,0,5.89-4.36c1.64-1.89,1.8-3.23,2.91-5.51,1.24-2.55,2.58-8.27,3.23-11.48-.62-2.12-2.61-2.56-4.38-1.49-2.84,1.73-1.92,5.21-3.29,8.12-1.78,3.78-3.58,7.27-7.31,9.47a83.22,83.22,0,0,1-9.42,4.41c-3.77,1.46-6.36,3.64-9,2.45-1-.44-1.44-4.29-2-7.77l-4.68-4.43c-1.54,4.78-1.57,21.54-2.37,22.65-5.59,7.79-6,15.28-5.6,15.44l18.63,3.39c1-4.8,5-7.78,6.47-8.85a23.39,23.39,0,0,1,10.93-4.66c9.42-1.57,14.45-10,18.52-17.08,1.51-2.64,3.14-9.06.13-9.06"/><path class="cls-12" d="M1664.64,670.4a15,15,0,0,0,6.76-3.65c2.57-2.1,5-4.18,6.65-7.15a29.27,29.27,0,0,0,3.32-10.2c.22-2.39,0-4.45-3.67-4.45"/><path class="cls-12" d="M1664.85,664.62a38.35,38.35,0,0,0,4.88-3.06c2.16-1.67,4-3.26,5.09-5.84a46.64,46.64,0,0,0,2.68-9c.42-2,1.8-6.4-2.42-5.71"/><path class="cls-12" d="M1733.36,844.19s7,18.29-5,62.07-23.36,76.28-19.68,80.28,6.42,10.8-.7,5.9-2.88,1.92,0,6.76,10.23,35.34,11.56,66.34,10.38,92.8,15.87,107.67"/><path class="cls-12" d="M1649.08,777.79s15.5,5.75,26-6.5c11,9.25,22.67,9.75,40.71-2"/><path class="cls-27" d="M1684.16,629a2.34,2.34,0,0,1-.81,2.06.89.89,0,0,1-.4.2c-.54.05-.72-.72-.61-1.26a5.82,5.82,0,0,1,.61-1.66.9.9,0,0,1,.52-.51c.35-.09.69.28.72.65a2,2,0,0,1-.34,1.05"/><path class="cls-27" d="M1674.34,626.31a2.34,2.34,0,0,1-.81,2.06.73.73,0,0,1-.4.2c-.54.06-.72-.72-.61-1.26a6,6,0,0,1,.6-1.65.92.92,0,0,1,.52-.52c.36-.09.7.28.72.66a2,2,0,0,1-.34,1.05"/><path class="cls-28" d="M1659.33,1186.41c2.36,1,9.17-.69,10.42,2.74.8,2.18-4.76,5-3.18,6.39,1,.85,4.5-.46,5.58-.82,2-.67,4-1.63,5.94-2.43a31.72,31.72,0,0,0,5.59-3.13,17.7,17.7,0,0,0,5.48-6.61c-.26.16-.19.32-.33.61"/><path class="cls-28" d="M1654.21,1192.54a7.53,7.53,0,0,1,6.62,3"/><path class="cls-28" d="M1648.83,1197.16a.78.78,0,0,1,.05-.37c3.3-.43,6,1.76,8.08,4"/><path class="cls-28" d="M1645,1200c2.36-.43,4.36,2.39,5.25,4.12"/><path class="cls-12" d="M1714.46,1181.91c2.06-.93,7.38-1.33,9.51.24,1.76,1.31-.27,4.24,0,6,.71,3.82,7.22-4.15,8.07-5.35,1.46-2.07,2.84-4.18,4.25-6.28,1.26-1.88,1.63-4.36,2.74-6.12"/><path class="cls-12" d="M1707.58,1202.91s.77.26,1.11.38a9.05,9.05,0,0,1,3.27,2.12"/><path class="cls-12" d="M1711.08,1198c2.15.58,4.58.79,6.25,2.5"/><path class="cls-12" d="M1713.21,1192.66c0-.3.91-.23,1.6-.2a12.49,12.49,0,0,1,7.4,2.83"/><path class="cls-12" d="M605.42,938.88c-18.61-3.33-30.18-33.33-28.68-50,1-11.24,8.85-19.09,20.15-20.62,6.92-.94,16.14.58,19,7.93,7,17.87-21.94,24.88-34,22.61-21.28-4-30.07-36.16-23.26-53.89,4.26-11.11,14-20.65,26.21-21.44C592,823,600.73,827,598.76,835.7c-1.06,4.66-7.9,10.27-12.67,7.65s-4.92-14-4-18.35c3.66-16.85,36.21-27.83,50.3-18.21,10.31,7,.49,27.25-4.64,21.51s6.62-11.8,10.41-13c5.29-1.62,10.05-1,15.3.36,5.88,1.47,10.11,4.24,15.35,6.5"/><path class="cls-25" d="M1722.27,708.26s21.83,1,28.32,19.06c4,11.07,22.83,57.46,27.68,75.77s7.06,39.95-26.7,41.88c-16.93,1-92.12-9.45-92.12-9.45s-4.22-17,1.66-29.19a681.29,681.29,0,0,0,83.2,2.73s-14.85-36.13-20.91-56.24"/><path class="cls-12" d="M1658,831s94.84,14.81,105.51,6.33-5.92-4.05,4.08-7.8,9-.5,6.5-16.5,2.5-11.75-13.75-51.5-18.25-45-38-49.25"/><path class="cls-28" d="M1604.67,808.2c1.18,4.51,6.27,6.06,10.14,7.16a45.71,45.71,0,0,0,12,1.68"/><path class="cls-28" d="M1608.67,817.12c.68,0,1.28.68,1.85,1s1.32.66,2,1a19.34,19.34,0,0,0,3.44,1.31,67.68,67.68,0,0,0,8.35.92,11.39,11.39,0,0,1,3,.25"/><path class="cls-28" d="M1614.83,823.7c1.76.33,3.32,1,5.12,1.21,1.18.11,2.27.29,3.45.29,1.82,0,4.12.31,5.85-.25"/></g></g></svg>