<svg xmlns="http://www.w3.org/2000/svg" xmlns:xlink="http://www.w3.org/1999/xlink" viewBox="0 0 2240.78 1683.13"><defs><style>.cls-1,.cls-16,.cls-19,.cls-2,.cls-22,.cls-3{fill:none;}.cls-10,.cls-11,.cls-12,.cls-13,.cls-14,.cls-15,.cls-16,.cls-17,.cls-19,.cls-2,.cls-20,.cls-21,.cls-22,.cls-23,.cls-24,.cls-25,.cls-26,.cls-27,.cls-28,.cls-29,.cls-3,.cls-5,.cls-6,.cls-7,.cls-8,.cls-9{stroke:#000;}.cls-2,.cls-21,.cls-22{stroke-linecap:round;}.cls-17,.cls-19,.cls-2,.cls-28,.cls-3{stroke-miterlimit:10;}.cls-2{stroke-width:0.5px;}.cls-4{isolation:isolate;}.cls-5{fill:#70241b;}.cls-10,.cls-11,.cls-12,.cls-13,.cls-14,.cls-15,.cls-16,.cls-20,.cls-21,.cls-22,.cls-23,.cls-24,.cls-25,.cls-26,.cls-27,.cls-29,.cls-5,.cls-6,.cls-7,.cls-8,.cls-9{stroke-linejoin:round;}.cls-10,.cls-11,.cls-12,.cls-13,.cls-14,.cls-15,.cls-16,.cls-17,.cls-19,.cls-20,.cls-21,.cls-22,.cls-23,.cls-24,.cls-25,.cls-26,.cls-27,.cls-28,.cls-29,.cls-5,.cls-6,.cls-7,.cls-8,.cls-9{stroke-width:2px;}.cls-6{opacity:0.29;fill:url(#_10_dpi_20_);}.cls-18,.cls-6{mix-blend-mode:multiply;}.cls-7{fill:#fff8e6;}.cls-9{fill:#94794f;}.cls-10{fill:#dfc287;}.cls-11{fill:#cbae78;}.cls-12{fill:#9e7842;}.cls-13{fill:#2c2e2c;}.cls-14{fill:#af714f;}.cls-15{fill:#debb97;}.cls-17{fill:#92b193;}.cls-18{opacity:0.13;fill:url(#_10_dpi_50_);}.cls-20{fill:#c88e72;}.cls-23{fill:#f59f5c;}.cls-24{fill:#562b30;}.cls-25{fill:#e0d5e0;}.cls-26{fill:#bd2f56;}.cls-27{fill:#ffd153;}.cls-28{fill:#d20a11;}.cls-29{fill:#f4eed8;}</style><pattern id="_10_dpi_20_" data-name="10 dpi 20%" width="28.8" height="28.8" patternTransform="translate(-766.66 2402.89) scale(4.43)" patternUnits="userSpaceOnUse" viewBox="0 0 28.8 28.8"><rect class="cls-1" width="28.8" height="28.8"/><path class="cls-2" d="M9.11,28a4,4,0,0,0,0,2.13"/><path class="cls-2" d="M6.45,8.27a17.88,17.88,0,0,0,.79,6.66"/><path class="cls-2" d="M15.15,6.18A10.42,10.42,0,0,1,15,9.38"/><path class="cls-2" d="M10.51,4.15a8.6,8.6,0,0,0,.27,3.46"/><path class="cls-2" d="M6.31,4A10.69,10.69,0,0,1,6.4,5.78"/><path class="cls-2" d="M12.55,8.69l-.31,2.17"/><path class="cls-2" d="M14.81,1.61a7.9,7.9,0,0,0-.57,2.88"/><path class="cls-2" d="M20.11,13.61a10.13,10.13,0,0,1,.29,2.25"/><path class="cls-2" d="M20.17,2.16a22.46,22.46,0,0,0-.4,3.37"/><path class="cls-2" d="M25.57,6.29a6.24,6.24,0,0,0-.1,3"/><path class="cls-2" d="M12.54,16a10.72,10.72,0,0,1,.23,2.71"/><path class="cls-2" d="M5.45,20a9.91,9.91,0,0,0-.51,3.33"/><path class="cls-2" d="M10.35,24.61a4.52,4.52,0,0,0,.09,2.13"/><path class="cls-2" d="M20.44,24.11a7.63,7.63,0,0,1,0,1.17"/><path class="cls-2" d="M3,12.7a3.7,3.7,0,0,0,.18,2.08"/><path class="cls-2" d="M3.81,7.45a8.55,8.55,0,0,0,.51,3.08"/><path class="cls-2" d="M15.17,20.43a8.45,8.45,0,0,1,0,2.46"/><path class="cls-2" d="M25.43,11.45a7.43,7.43,0,0,1-.25,3"/><path class="cls-2" d="M16.47,14a16.1,16.1,0,0,0,.32,4.54"/><path class="cls-2" d="M21.65,8.61A9.85,9.85,0,0,1,21.89,11"/><path class="cls-2" d="M17.69,20.76a40.5,40.5,0,0,1-1.08,5.12"/><path class="cls-2" d="M12.13,20.61a13.65,13.65,0,0,0,.53,3.17"/><path class="cls-2" d="M8.38,18.38a24,24,0,0,0-.4,5.8"/><path class="cls-2" d="M1.26,18.07a19.89,19.89,0,0,0,.57,5"/><path class="cls-2" d="M4,16.53a17,17,0,0,0-.45,2.83"/><path class="cls-2" d="M3,24.37A23,23,0,0,0,3.7,28"/><path class="cls-2" d="M6.86,26.45c-.05,1-.05,2,0,3"/><path class="cls-2" d="M14.44,26.2a11.18,11.18,0,0,0,.17,3.16"/><path class="cls-2" d="M18.49,26.61A11.84,11.84,0,0,0,18.28,29"/><path class="cls-2" d="M22.53,24.86c0,.89-.05,1.78,0,2.67"/><path class="cls-2" d="M25,24.57c.05,1.7.16,3.4.33,5.09"/><path class="cls-2" d="M25.38,17.81c-.08.94-.12,1.88-.13,2.83"/><path class="cls-2" d="M27.39,23.24l.17,1.87"/><path class="cls-2" d="M23.1,1a5.81,5.81,0,0,1,0,2.42"/><path class="cls-2" d="M27.14,2.11l-.09,2"/><path class="cls-2" d="M27.71,8.4a5.07,5.07,0,0,0,.75,2.75"/><path class="cls-2" d="M27.92,15a10.3,10.3,0,0,0-.14,2.29"/><path class="cls-2" d="M1.44,5.45a18.78,18.78,0,0,0-.12,3"/><path class="cls-2" d="M3.71,3a8.54,8.54,0,0,0,.57,2.83"/><path class="cls-2" d="M1.23.28,1.1,2.15"/><path class="cls-2" d="M9.11-.85a4,4,0,0,0,0,2.13"/><path class="cls-2" d="M11.9.53V2.41"/><path class="cls-2" d="M17.19,3a4.76,4.76,0,0,0,0,1.25"/><path class="cls-2" d="M9.23,9a7.63,7.63,0,0,0-.07,3.33"/><path class="cls-2" d="M.61,13c0,.64-.06,1.27,0,1.91"/><path class="cls-2" d="M.34,25.41a11.3,11.3,0,0,0,.35,2.08"/><path class="cls-2" d="M17.93,7a9.78,9.78,0,0,0,.72,4.63"/><path class="cls-2" d="M15,11.26a13.65,13.65,0,0,0-.3,3.37"/><path class="cls-2" d="M23.17,5.41a10.62,10.62,0,0,1-.12,2.25"/><path class="cls-2" d="M22.73,13.53a9.82,9.82,0,0,0,.38,2.69"/><path class="cls-2" d="M18.63,16.75a4.73,4.73,0,0,0,.06,1.19"/><path class="cls-2" d="M27.91,19.59a5.65,5.65,0,0,0-.11,1.69"/><path class="cls-2" d="M27.23,27.66A4.23,4.23,0,0,0,27.36,29"/><path class="cls-2" d="M10.79,13.72A4.84,4.84,0,0,0,10.36,16"/><path class="cls-2" d="M5.91,16.53l.32,1.63"/><path class="cls-2" d="M19.86,19.72l-.12,2.44"/><path class="cls-2" d="M22.16,18.34a13.06,13.06,0,0,0,.7,4.56"/><path class="cls-2" d="M6.86-2.35c-.05,1-.05,2,0,3"/><path class="cls-2" d="M14.44-2.6A11.18,11.18,0,0,0,14.61.56"/><path class="cls-2" d="M18.49-2.19A11.84,11.84,0,0,0,18.28.19"/><path class="cls-2" d="M25-4.23c.05,1.7.16,3.39.33,5.08"/><path class="cls-2" d="M27.23-1.15A4.26,4.26,0,0,0,27.36.23"/></pattern><pattern id="_10_dpi_50_" data-name="10 dpi 50%" width="28.8" height="28.8" patternTransform="translate(288.66 2604.2) scale(2)" patternUnits="userSpaceOnUse" viewBox="0 0 28.8 28.8"><rect class="cls-1" width="28.8" height="28.8"/><path class="cls-3" d="M10.79,24.79c3.92.24,2.84-5.63,4.28-7.72a6.65,6.65,0,0,1,5.42-2.89,13.77,13.77,0,0,1,2.38.49,2.55,2.55,0,0,0,2.8-1.21"/><path class="cls-3" d="M18.62,18.12A13.29,13.29,0,0,1,20.71,18a17,17,0,0,1,1.89,0,6.31,6.31,0,0,1,1.87.7,3.1,3.1,0,0,0,3.48-.3,9.1,9.1,0,0,0,2.47-4.86"/><path class="cls-3" d="M11.58,3.61C9.66,8.29,14,8.66,14.4,10.1c.55,1.82-.58,3.82-1.86,5.05"/><path class="cls-3" d="M10.67,20.79a3.36,3.36,0,0,1-2.26-1.4c-.94-1.47-.41-3,.38-4.38s1.85-2.88.8-4.32c-.93-1.27-2.94-1.36-4.3-1.82"/><path class="cls-3" d="M5.57,22.4c.65.71,1.4,1.29,2,2.05A4.34,4.34,0,0,1,8.43,26c.22.75.17,1.62.46,2.34a2.5,2.5,0,0,0,3.47,1.11,12.32,12.32,0,0,0,2.44-1.86,4.07,4.07,0,0,1,2.67-.9"/><path class="cls-3" d="M17.46,21.67a10.2,10.2,0,0,0,1.29.73A4.74,4.74,0,0,1,21,25a7.09,7.09,0,0,1,.09,3.24c-.08.53-.23.95.09,1.44a2.07,2.07,0,0,0,1.32.78"/><path class="cls-3" d="M14.77,3.71C16.88,3,18.64,5.76,20.6,6c1.34.14,2.72,2.51,3.62,1.31s1-5.07,1.23-6.54"/><path class="cls-3" d="M29.67,3.71a5.19,5.19,0,0,0-2.17,3c-.25,1.1.53,4.6.8,5.66"/><path class="cls-3" d="M16.33,8.5a4.53,4.53,0,0,0,2.39,1.39c.78.16,1.58,0,2.36.23a4.73,4.73,0,0,1,2.34,1.59"/><path class="cls-3" d="M29.38,29.28a10.07,10.07,0,0,1-2.56-3.12c-.38-1-.37-1.93-1.16-2.75A6.41,6.41,0,0,0,22,21.59"/><path class="cls-3" d="M4,17a8,8,0,0,1-1,1.6c-.43.53-1,.72-1.51,1.2a2.67,2.67,0,0,0-.71,2.52C1,23.45,2.12,24,2.79,24.8a5.58,5.58,0,0,1,.92,4.53"/><path class="cls-3" d="M5.47,13.41c0-2-2.61-2.28-3.3-3.87a2.85,2.85,0,0,1,.59-3,5.92,5.92,0,0,1,1.5-1.36A9.45,9.45,0,0,1,6.07,4.7c1-.3.09-2.32.84-3.11"/><path class="cls-3" d="M-10.18,18.12A13.29,13.29,0,0,1-8.09,18,17,17,0,0,1-6.2,18a6.31,6.31,0,0,1,1.87.7,3.11,3.11,0,0,0,3.49-.3,9.16,9.16,0,0,0,2.46-4.86"/><path class="cls-3" d="M.87,3.71a5.19,5.19,0,0,0-2.17,3c-.25,1.1.53,4.6.8,5.66"/><path class="cls-3" d="M.58,29.28A10.07,10.07,0,0,1-2,26.16c-.38-1-.37-1.93-1.16-2.75a6.41,6.41,0,0,0-3.71-1.82"/><path class="cls-3" d="M5.57-6.4c.65.71,1.4,1.29,2,2.05a4.34,4.34,0,0,1,.84,1.59c.22.75.17,1.63.46,2.34A2.5,2.5,0,0,0,12.36.69,12.32,12.32,0,0,0,14.8-1.17a4.07,4.07,0,0,1,2.67-.9"/><path class="cls-3" d="M17.46-7.13a10.2,10.2,0,0,0,1.29.73A4.74,4.74,0,0,1,21-3.84,7.09,7.09,0,0,1,21.05-.6c-.08.53-.23,1,.09,1.44a2.07,2.07,0,0,0,1.32.78"/><path class="cls-3" d="M29.38.48a10.07,10.07,0,0,1-2.56-3.12c-.38-1-.37-1.93-1.16-2.75A6.41,6.41,0,0,0,22-7.21"/><path class="cls-3" d="M4-11.8a8,8,0,0,1-1,1.6c-.43.53-1,.72-1.51,1.21A2.65,2.65,0,0,0,.73-6.48C1-5.35,2.12-4.81,2.79-4A5.58,5.58,0,0,1,3.71.53"/><path class="cls-3" d="M.58.48A10.07,10.07,0,0,1-2-2.64c-.38-1-.37-1.93-1.16-2.75A6.41,6.41,0,0,0-6.85-7.21"/></pattern></defs><title>Planning</title><g class="cls-4"><g id="Layer_1" data-name="Layer 1"><polygon class="cls-5" points="1985.27 1373.13 784.41 1457.75 281.4 1153.44 1482.26 1068.82 1985.27 1373.13"/><polygon class="cls-6" points="1985.27 1373.13 784.41 1457.75 281.4 1153.44 1482.26 1068.82 1985.27 1373.13"/><polygon class="cls-7" points="1447.79 672.05 542.3 733.03 542.18 289.79 1447.67 228.8 1447.79 672.05"/><ellipse class="cls-8" cx="913.8" cy="1235.09" rx="84.45" ry="370.58" transform="translate(-355.68 2100.49) rotate(-87.79)"/><ellipse class="cls-8" cx="1381.74" cy="1220.35" rx="59.97" ry="262.35" transform="translate(-31.01 2404.68) rotate(-81.42)"/><path class="cls-8" d="M576.46,1133.11c69.71,10.19,120.53,31.12,118.68,50.72-2.15,22.7-74.19,35-160.9,27.51s-155.25-32-153.1-54.71c.36-3.82,2.7-7.34,6.76-10.53"/><polygon class="cls-9" points="876.4 827.95 793.29 838.49 789.48 824.19 872.6 813.65 876.4 827.95"/><polygon class="cls-10" points="892.84 799.07 809.72 809.62 789.48 824.19 872.6 813.65 892.84 799.07"/><polygon class="cls-11" points="876.4 827.95 896.68 813.39 892.88 799.09 872.6 813.65 876.4 827.95"/><path class="cls-12" d="M630.24,944.36S710.3,921.78,732.85,869c26.13-61.22,44.32-65.28,65.68-67.55,16-1.7,32.62-1.41,21.63,11a30.12,30.12,0,0,1-25.68,10.09s12.6,2.09,14.38,10.73-14.11,4.77-22.67,0c-9.69,8-16.35,36.61-32.44,66.64-19,35.47-50.74,57.06-96,71.53"/><path class="cls-13" d="M747.36,985.18V1242c0,3.56,4.87,6.45,10.89,6.45s10.89-2.89,10.89-6.45V985.18Z"/><path class="cls-13" d="M1071.71,985.18v225.41c0,3.56,4.88,6.45,10.89,6.45s10.9-2.89,10.9-6.45V985.18Z"/><path class="cls-14" d="M1154.94,1137.55c-40-5.57-87.29-8.79-138-8.79s-97.94,3.22-138,8.79H756.39v5.14c0,32.07,116.67,58.06,260.6,58.06s260.6-26,260.6-58.06v-5.14Z"/><path class="cls-14" d="M1092.86,1079.74c-1.51,2.36-5.52,4-10.26,4-5.5,0-10-2.29-10.78-5.26-17.68-.85-36-1.3-54.83-1.3-115.77,0-213.88,16.82-247.85,40.09v1.2a2.72,2.72,0,0,1,0,.93v0h0c-.4,2.71-4,4.92-8.62,5.46-2.71,3.36-4.12,6.81-4.12,10.34,0,32.06,116.67,58.06,260.6,58.06s260.6-26,260.6-58.06C1277.59,1109.11,1199.78,1087,1092.86,1079.74Z"/><path class="cls-13" d="M975.27,985.18H953.49V1312.5h0s0,0,0,.06c0,3.57,4.88,6.45,10.89,6.45s10.89-2.88,10.89-6.45v-.06h0Z"/><path class="cls-13" d="M1263,985.18v165.49a3,3,0,0,0,1.78,2.82v7l-1.78,1.4v97c0,3.57,4.88,6.45,10.89,6.45s10.89-2.88,10.89-6.45V985.18Z"/><path class="cls-14" d="M1190.71,953.34c-48.42-6.74-105.64-10.65-167-10.65s-118.53,3.91-167,10.65H708.37V964c0,38.81,141.2,70.27,315.39,70.27s315.39-31.46,315.39-70.27V953.34Z"/><path class="cls-15" d="M1023.76,882.73c-122,0-227.86,15.45-280.31,38,27.77-4.49,65.41-6.67,106.86-5.49,85.41,2.43,154.64,18.18,154.64,35.17s-69.23,28.8-154.64,26.37c-63.51-1.81-118.06-11-141.87-22.55,3,38.22,143,69,315.32,69,174.18,0,315.39-31.46,315.39-70.27S1197.94,882.73,1023.76,882.73Z"/><path class="cls-8" d="M1005,950.45c0-17-69.23-32.74-154.64-35.17-41.45-1.18-79.09,1-106.86,5.49C721,930.42,708.37,941.38,708.37,953c0,.43,0,.85.07,1.27,23.81,11.57,78.36,20.74,141.87,22.55C935.72,979.25,1005,967.44,1005,950.45Z"/><polygon class="cls-9" points="995.32 957.47 903.21 945.05 903.21 928.64 995.32 941.07 995.32 957.47"/><polygon class="cls-10" points="1021.18 931.21 929.07 918.79 903.21 928.64 995.32 941.07 1021.18 931.21"/><polygon class="cls-11" points="995.32 957.47 1021.21 947.66 1021.21 931.25 995.32 941.07 995.32 957.47"/><polygon class="cls-9" points="944.65 976.82 852.55 964.39 852.55 947.98 944.65 960.41 944.65 976.82"/><polygon class="cls-10" points="970.51 950.55 878.4 938.13 852.55 947.98 944.65 960.41 970.51 950.55"/><polygon class="cls-11" points="944.65 976.82 970.55 967 970.55 950.59 944.65 960.41 944.65 976.82"/><polygon class="cls-9" points="1251.07 931.65 1158.96 919.23 1158.96 902.82 1251.07 915.24 1251.07 931.65"/><polygon class="cls-10" points="1276.93 905.39 1184.82 892.97 1158.96 902.82 1251.07 915.24 1276.93 905.39"/><polygon class="cls-11" points="1251.07 931.65 1276.96 921.84 1276.96 905.43 1251.07 915.24 1251.07 931.65"/><polygon class="cls-9" points="1222.35 945.12 1130.24 932.7 1130.24 916.29 1222.35 928.72 1222.35 945.12"/><polygon class="cls-10" points="1248.2 918.86 1156.1 906.44 1130.24 916.29 1222.35 928.72 1248.2 918.86"/><polygon class="cls-11" points="1222.35 945.12 1248.24 935.31 1248.24 918.9 1222.35 928.72 1222.35 945.12"/><polygon class="cls-9" points="1234.85 920.61 1142.74 908.19 1142.74 891.78 1234.85 904.21 1234.85 920.61"/><polygon class="cls-10" points="1260.7 894.35 1168.6 881.93 1142.74 891.78 1234.85 904.21 1260.7 894.35"/><polygon class="cls-11" points="1234.85 920.61 1260.74 910.8 1260.74 894.39 1234.85 904.21 1234.85 920.61"/><polygon class="cls-9" points="817.54 993.75 766.24 957.73 766.24 941.32 817.54 977.35 817.54 993.75"/><polygon class="cls-10" points="848.39 971.39 797.1 935.36 766.24 941.32 817.54 977.35 848.39 971.39"/><polygon class="cls-11" points="817.54 993.75 848.43 987.83 848.43 971.42 817.54 977.35 817.54 993.75"/><polygon class="cls-9" points="883.99 951.6 854.98 947.86 854.98 931.45 883.99 935.19 883.99 951.6"/><polygon class="cls-10" points="958.11 906.57 929.1 902.83 854.98 931.45 883.99 935.19 958.11 906.57"/><polygon class="cls-11" points="883.99 951.6 958.15 923.01 958.15 906.61 883.99 935.19 883.99 951.6"/><polygon class="cls-9" points="946.07 957.47 917.06 953.73 917.06 937.32 946.07 941.07 946.07 957.47"/><polygon class="cls-10" points="1020.19 912.44 991.18 908.7 917.06 937.32 946.07 941.07 1020.19 912.44"/><polygon class="cls-11" points="946.07 957.47 1020.23 928.88 1020.23 912.48 946.07 941.07 946.07 957.47"/><polygon class="cls-9" points="1001.74 922.17 909.63 909.75 909.63 893.34 1001.74 905.76 1001.74 922.17"/><polygon class="cls-10" points="1027.59 895.91 935.48 883.49 909.63 893.34 1001.74 905.76 1027.59 895.91"/><polygon class="cls-11" points="1001.74 922.17 1027.63 912.35 1027.63 895.94 1001.74 905.76 1001.74 922.17"/><polygon class="cls-9" points="944.65 941.51 852.55 929.09 852.55 912.68 944.65 925.1 944.65 941.51"/><polygon class="cls-10" points="970.51 915.25 878.4 902.83 852.55 912.68 944.65 925.1 970.51 915.25"/><polygon class="cls-11" points="944.65 941.51 970.55 931.69 970.55 915.28 944.65 925.1 944.65 941.51"/><polygon class="cls-9" points="879.34 917.72 850.33 913.98 850.33 897.57 879.34 901.32 879.34 917.72"/><polygon class="cls-10" points="953.46 872.69 924.45 868.95 850.33 897.57 879.34 901.32 953.46 872.69"/><polygon class="cls-11" points="879.34 917.72 953.49 889.13 953.49 872.73 879.34 901.32 879.34 917.72"/><polygon class="cls-9" points="938.64 924.89 909.63 921.15 909.63 904.74 938.64 908.48 938.64 924.89"/><polygon class="cls-10" points="1012.76 879.86 983.75 876.12 909.63 904.74 938.64 908.48 1012.76 879.86"/><polygon class="cls-11" points="938.64 924.89 1012.79 896.3 1012.79 879.89 938.64 908.48 938.64 924.89"/><polygon class="cls-9" points="990.71 891.29 898.6 878.87 898.6 862.46 990.71 874.88 990.71 891.29"/><polygon class="cls-10" points="1016.56 865.03 924.46 852.61 898.6 862.46 990.71 874.88 1016.56 865.03"/><polygon class="cls-11" points="990.71 891.29 1016.6 881.47 1016.6 865.06 990.71 874.88 990.71 891.29"/><polygon class="cls-9" points="944.65 907.63 852.55 895.21 852.55 878.8 944.65 891.22 944.65 907.63"/><polygon class="cls-10" points="970.51 881.37 878.4 868.95 852.55 878.8 944.65 891.22 970.51 881.37"/><polygon class="cls-11" points="944.65 907.63 970.55 897.81 970.55 881.4 944.65 891.22 944.65 907.63"/><polygon class="cls-9" points="882.17 882.03 853.16 878.28 853.16 861.87 882.17 865.62 882.17 882.03"/><polygon class="cls-10" points="956.29 837 927.28 833.25 853.16 861.87 882.17 865.62 956.29 837"/><polygon class="cls-11" points="882.17 882.03 956.33 853.44 956.33 837.03 882.17 865.62 882.17 882.03"/><polygon class="cls-9" points="944.87 889.54 915.86 885.8 915.86 869.39 944.87 873.14 944.87 889.54"/><polygon class="cls-10" points="1018.99 844.51 989.99 840.77 915.86 869.39 944.87 873.14 1018.99 844.51"/><polygon class="cls-11" points="944.87 889.54 1019.03 860.96 1019.03 844.55 944.87 873.14 944.87 889.54"/><polygon class="cls-9" points="988.79 855.68 896.68 843.26 896.68 826.85 988.79 839.27 988.79 855.68"/><polygon class="cls-10" points="1014.64 829.42 922.54 817 896.68 826.85 988.79 839.27 1014.64 829.42"/><polygon class="cls-11" points="988.79 855.68 1014.68 845.87 1014.68 829.46 988.79 839.27 988.79 855.68"/><polygon class="cls-9" points="944.65 872.09 852.55 859.67 852.55 843.26 944.65 855.68 944.65 872.09"/><polygon class="cls-10" points="970.51 845.83 878.4 833.41 852.55 843.26 944.65 855.68 970.51 845.83"/><polygon class="cls-11" points="944.65 872.09 970.55 862.27 970.55 845.87 944.65 855.68 944.65 872.09"/><polygon class="cls-9" points="876.02 845.02 847.02 841.27 847.02 824.86 876.02 828.61 876.02 845.02"/><polygon class="cls-10" points="950.15 799.99 921.14 796.24 847.02 824.86 876.02 828.61 950.15 799.99"/><polygon class="cls-11" points="876.02 845.02 950.18 816.43 950.18 800.02 876.02 828.61 876.02 845.02"/><polygon class="cls-9" points="944.85 854.43 915.85 850.68 915.85 834.27 944.85 838.02 944.85 854.43"/><polygon class="cls-10" points="1018.98 809.4 989.97 805.65 915.85 834.27 944.85 838.02 1018.98 809.4"/><polygon class="cls-11" points="944.85 854.43 1019.01 825.84 1019.01 809.43 944.85 838.02 944.85 854.43"/><polygon class="cls-9" points="988.79 816.79 896.68 804.37 896.68 787.96 988.79 800.38 988.79 816.79"/><polygon class="cls-10" points="1014.64 790.53 922.54 778.1 896.68 787.96 988.79 800.38 1014.64 790.53"/><polygon class="cls-11" points="988.79 816.79 1014.68 806.97 1014.68 790.56 988.79 800.38 988.79 816.79"/><polygon class="cls-9" points="944.65 833.2 852.55 820.77 852.55 804.37 944.65 816.79 944.65 833.2"/><polygon class="cls-10" points="970.51 806.94 878.4 794.51 852.55 804.37 944.65 816.79 970.51 806.94"/><polygon class="cls-11" points="944.65 833.2 970.55 823.38 970.55 806.97 944.65 816.79 944.65 833.2"/><polygon class="cls-9" points="882.15 805.65 853.14 801.9 853.14 785.5 882.15 789.24 882.15 805.65"/><polygon class="cls-10" points="956.27 760.62 927.26 756.87 853.14 785.5 882.15 789.24 956.27 760.62"/><polygon class="cls-11" points="882.15 805.65 956.31 777.06 956.31 760.65 882.15 789.24 882.15 805.65"/><polygon class="cls-9" points="942.11 817.81 913.11 814.06 913.11 797.65 942.11 801.4 942.11 817.81"/><polygon class="cls-10" points="1016.23 772.78 987.23 769.03 913.11 797.65 942.11 801.4 1016.23 772.78"/><polygon class="cls-11" points="942.11 817.81 1016.27 789.22 1016.27 772.81 942.11 801.4 942.11 817.81"/><polygon class="cls-9" points="988.79 779.99 896.68 767.57 896.68 751.16 988.79 763.59 988.79 779.99"/><polygon class="cls-10" points="1014.64 753.73 922.54 741.31 896.68 751.16 988.79 763.59 1014.64 753.73"/><polygon class="cls-11" points="988.79 779.99 1014.68 770.18 1014.68 753.77 988.79 763.59 988.79 779.99"/><polygon class="cls-9" points="942.74 799.34 850.63 786.91 850.63 770.5 942.74 782.93 942.74 799.34"/><polygon class="cls-10" points="968.59 773.08 876.48 760.65 850.63 770.5 942.74 782.93 968.59 773.08"/><polygon class="cls-11" points="942.74 799.34 968.63 789.52 968.63 773.11 942.74 782.93 942.74 799.34"/><polygon class="cls-9" points="879.32 771.62 850.31 767.87 850.31 751.46 879.32 755.21 879.32 771.62"/><polygon class="cls-10" points="953.44 726.59 924.43 722.84 850.31 751.46 879.32 755.21 953.44 726.59"/><polygon class="cls-11" points="879.32 771.62 953.48 743.03 953.48 726.62 879.32 755.21 879.32 771.62"/><polygon class="cls-9" points="942.11 778.1 913.11 774.36 913.11 757.95 942.11 761.7 942.11 778.1"/><polygon class="cls-10" points="1016.23 733.07 987.23 729.33 913.11 757.95 942.11 761.7 1016.23 733.07"/><polygon class="cls-11" points="942.11 778.1 1016.27 749.52 1016.27 733.11 942.11 761.7 942.11 778.1"/><polygon class="cls-9" points="962.13 752.45 870.03 740.02 870.03 723.62 962.13 736.04 962.13 752.45"/><polygon class="cls-10" points="987.99 726.19 895.88 713.76 870.03 723.62 962.13 736.04 987.99 726.19"/><polygon class="cls-11" points="962.13 752.45 988.03 742.63 988.03 726.22 962.13 736.04 962.13 752.45"/><polygon class="cls-9" points="916.06 741.31 887.05 737.57 887.05 721.16 916.06 724.9 916.06 741.31"/><polygon class="cls-10" points="990.18 696.28 961.17 692.53 887.05 721.16 916.06 724.9 990.18 696.28"/><polygon class="cls-11" points="916.06 741.31 990.22 712.72 990.22 696.31 916.06 724.9 916.06 741.31"/><polygon class="cls-9" points="960.72 720.58 868.61 708.16 868.61 691.75 960.72 704.17 960.72 720.58"/><polygon class="cls-10" points="986.57 694.32 894.46 681.9 868.61 691.75 960.72 704.17 986.57 694.32"/><polygon class="cls-11" points="960.72 720.58 986.61 710.76 986.61 694.35 960.72 704.17 960.72 720.58"/><polygon class="cls-9" points="908.99 710.52 879.98 706.77 879.98 690.36 908.99 694.11 908.99 710.52"/><polygon class="cls-10" points="983.11 665.49 954.11 661.74 879.98 690.36 908.99 694.11 983.11 665.49"/><polygon class="cls-11" points="908.99 710.52 983.15 681.93 983.15 665.52 908.99 694.11 908.99 710.52"/><polygon class="cls-9" points="971.74 687.79 879.64 675.37 879.64 658.96 971.74 671.38 971.74 687.79"/><polygon class="cls-10" points="997.6 661.53 905.49 649.11 879.64 658.96 971.74 671.38 997.6 661.53"/><polygon class="cls-11" points="971.74 687.79 997.64 677.98 997.64 661.57 971.74 671.38 971.74 687.79"/><polyline class="cls-16" points="836.34 652.64 603.6 668.32 603.54 464.37"/><path class="cls-16" d="M603.6,668.32s12.72-7.67,16.22-31.81,9-66.06,34.5-63.35,18.5,36.77,42,29.49,21.83-68.14,45-82.78c19-12,26,18.5,38.5,16s21-38,56.52-43"/><path class="cls-16" d="M1050,391.06c-4.49,12.7,27.22-11,31.49-13.94,7.79-5.38,32.83-24.79,39.47-19.67,5,3.82-25.34,32.23-1.32,22.28,14.57-6,36.63-24.71,49.9-21.89,8.91,1.88-3.15,10.68,1.22,15.2,5,5.23,37-17.54,44.82-21.39,26.88-13.15-4.24,15.46-.19,19.22,3.63,3.36,23.85-11.52,30.45-12.3,1-.12,5-1.17,5.64-.63,1.3,1-1.12,4.41-.4,4.91,5.24,3.64,13.64-6.45,21.2-6.15"/><path class="cls-16" d="M1289.94,366.18c14.1-.28,38.67-29.37,49.81-25.43,6.64,2.35-6.39,12.92-2.09,16.93,6.34,5.92,26.7-16.83,36.29-14.54,7.1,1.7,1.16,9.77,15.25,5.56"/><path class="cls-16" d="M1044,429.09c3.14-.12,7.15-.18,10.65-1.23,6.44-1.93,16.2-11.54,21.69-12,9.48-.86-.39,12.16-2.26,18.8,7.13,4.38,39.41-28.52,49.75-31.43,2.63-.74,5-.8,6.37.31,6.11,4.75-7.5,17.85-10.4,25.38,9.26.92,22.25-16.42,32.56-18.93,1.56,3.07-1.74,7.66,1.55,9.33,4.56,2.33,16.85-5.38,23-3.13"/><path class="cls-16" d="M1201.65,410.05c-2.86,2.72-5.62,6.45-4.41,8.64,3.32,6,29.51-14.06,36-18.26,5.44-3.54,20-12.71,24.66-10.65s-3.71,8.62-7.52,13c-15.23,17.36,8.8,5,17.11-.25,3.62-2.28,15.26-11.16,18.3-8.94,2.1,1.54-3.44,7.9-3.29,10.34.49,7.86,23-10.26,30-13.41,3.53-1.6,8.5-3.83,9.56-1.15,1.49,3.79-6.17,8.92-6.88,12.31-1.68,8.06,10.55-2.54,15.33-3,.57-.06,1.35,1.46,2.28,1.56,3.07.34,6.63-.25,10.06-.56"/><path class="cls-16" d="M1196.2,325.64c9.52-.51,17-5.42,26.69-10.33,1.89-1,8.49-4.91,10-3.36,1.16,1.16-1.16,3.11-.73,4.28,4.36,11.87,33.38-17.26,45-14.81-1.34,3.44-8.56,11.35-6.4,13.77,3.5,3.93,14.78-4.49,19.37-7.4,7.32-4.64,51.56-29.17,30.59-6.76-5.88,6.28-20.84,15.22-21.84,22.25-.71,5,2.95,3.3,9.49-.08,17.87-9.22,40.44-33.92,59.31-34.74-2.38,4.7-19.53,16.88-12.68,18.49,5.4,1.27,18.7-11,24.69-8.7"/><path class="cls-16" d="M1076,311.12c-7.13,7.73-31,19.54-29,29.22,3,14.51,41.36-14.89,51.63-20.69,6.77-3.83,21.73-10.7,15-.28-2.81,4.36-15.54,14.16-7.93,15.61,7.16,1.36,20.32-13.29,28.22-12.62,5.91.5.52,2.52,1.13,6.16,2.11,12.45,36.79-19.61,46.06-19.73-1.35,3.39-9.85,12-7.4,13.61,3.75,2.47,19.89-9.37,25.43-10.63"/><polygon class="cls-12" points="533.75 729.61 542.3 733.68 542.18 290.44 533.63 286.36 533.75 729.61"/><polygon class="cls-15" points="542.18 290.44 1447.67 229.45 1439.12 225.38 533.63 286.36 542.18 290.44"/><path class="cls-16" d="M829.32,489.71c2.39,1.72,5.84,1.72,8.25,3.33-2,2.21-3.23,5.35-4.58,8"/><path class="cls-16" d="M1134.47,469.31c0,24.9.46,49.78.66,74.66"/><path class="cls-16" d="M1153.8,466.64c-.31,12.79.07,25.79,0,38.63-.06,7.76-3.15,28.55.71,35.37"/><path class="cls-16" d="M1176.47,464.64c.38,25.92-4.41,55.5-2.67,79.33"/><path class="cls-16" d="M1196.47,463.31c-1.08,25.3,2.61,51.52-.67,76.66"/><path class="cls-16" d="M1096.47,525.31c14.86-2.33,29.15-9.3,43.23-14.14,29.53-10.17,59.7-18.34,89.43-27.86"/><path class="cls-16" d="M1295,527.19c.56-12.79.43-25.79.79-38.62.21-7.76,3.71-28.49,0-35.38"/><path class="cls-16" d="M1272.32,528.74c.12-25.92,5.48-55.4,4.21-79.26"/><path class="cls-16" d="M1252.29,529.69c1.57-25.28-1.6-51.57,2.16-76.64"/><path class="cls-16" d="M607.29,357.49c2.41,5.4.64,14.71-.14,20.35l115.5,46.39c.31-6.41,2.09-13.59,1.88-19.65-33.51-13.46-69.9-27.68-103.17-41.44-4.57-1.89-11.5-6-14.43-6.64"/><path class="cls-16" d="M722.83,424.72c2.76-.31,5.34-3.83,7.58-5.27,3.7-2.39,15.46-9.59,19.05-12.07,2.35-1.63,5.19-3.42,6.57-5.67,2-3.25,1.07-8.51,1.67-12.19.33-2,0-5.47.21-7.46-4.14,1.69-7.28,4.52-10.93,6.76-4.86,3-19.26,11.28-22.63,15.26"/><path class="cls-16" d="M607.11,357c5.1-.36,22.41-12,27.34-14.76,2.89-1.59,6.67-4,9.61-5l112.47,45.17a2.26,2.26,0,0,0,2,.38"/><path class="cls-16" d="M810.27,360.92c-.44.38-.9.75-1.35,1.12,18.49,3.33,57.54-38.25,47-41.33-11.09-3.25-26,18.11-28.61,29.39-5.86,24.85,26.19,4.55,37.55-10.33,4-5.17,19.53-21.78,28.84-15.08,9.89,7.13-24.26,24.53-20.57,30.29,4.62,7.2,16.47-8.31,22.92-13.21,4.08-3.1,14.15-16.11,17.42-11.27,2.57,3.81-6.63,9.37-3.55,13.78,11.32.18,17.87-17.2,28-13.83,4.81,1.6-3.58,9.39.57,11.82,1.28.76,8.56-.75,12.08-6.74"/><path class="cls-16" d="M807.34,380.89c12.5.5,25.21-2,37.48-3.73,40.07-5.77,80.1-10.19,120.52-12.72"/><path class="cls-16" d="M814.78,423.57c5.75,1.76,9.57-1.67,13.31-5.91,8.17-9.27,12.59-18.39,23.9-24.87,3.55-2,12.9-6.36,14.56.09,1.14,4.39-7.1,12.36-9.36,15.49-1.85,2.56-6.15,7.11-5.23,10.62,1.2,4.59,7.26,3.83,10.54,2.34,4.69-2.12,11.42-8,14.66-12.12,1.39-1.78,1.38-3.34,3.35-3.59-.57,2.74-4.11,6-3.46,9,1.4,6.47,14.3-7.39,18-8.45-1.08,2.38-4,5.16-3.16,8.09,9.36-1,17.09-13.65,23.08-19.62,5.1-5.09,16.59-16.71,24.39-16.45.6,6.33-5.68,10.72-9.25,15.12-2,2.42-11.35,15.36-2.15,12.29,4.35-1.46,7.27-8.14,12.23-8.49,3.73-.26,1.51.84,3.06,3,2.54,3.52,3.18,2.77,8,3.61,2.43.43,5.75,2.91,8.1,1.49"/><path class="cls-12" d="M1529.82,1196.33c-4.33,9.63-5,23.74-12.22,31.75-2.95,3.26-8.46,3.67-12.7,4.27-5.17.73-23.83,7.72-20.77,15.89,1,2.82,6.51,4.56,8.77,5.22,3.8,1.11,7.9,1.62,11.75,2.5a48.65,48.65,0,0,0,20.22-.3c6.44-1.52,12-5.11,17.56-8,3.38-1.74,7-2,9.51-5.07,4.32-5.23,7.4-10.92,13.1-14.18,4.76-2.72,9.57-5.49,14.21-8a25.52,25.52,0,0,0,8.29-7.16"/><path class="cls-17" d="M1588.85,737.11c1,17-1.48,35.82-4.5,52.28a286.22,286.22,0,0,1-35.4,95.22c-3.55,6-7.21,12.32-9.64,18.73C1536,912,1537,921.73,1533.76,931c-3.15,8.93-5,18.3-8.47,27.29-2.19,5.66-4.08,12-7.22,17.16-2.46,4-11,9.57-11.46,12.15,3.42,3.31,7.81,3.69,10.63,8.25,3.08,5,1.48,9.85,5.61,14.66,3.17,3.71,6.55,5,9.64,9.81,4.24,6.59,6.73,13.33,10.59,20.07,7.49,13.07,11.93,25.93,17.77,39.55,5.44,12.67,4.7,27.35,5.43,40.7,1,18.84,4.94,37.89,5.38,56.55.32,13.73-2,33.07-16.5,33.07-10.91,0-23.72-2.76-28.14-10.5-7-12.35-5.68-25.58-12.46-38.47-9.55-18.18-14-39-23-57.84-14.47-30.27-31.39-59.12-45.45-89.42-5.43-11.72-14.18-24-13.42-37.36.3-5.29,2.63-11.37,3.77-16.84a294.9,294.9,0,0,1,9.69-34.51c11.09-32.77,19.46-67.48,28.55-100.91,5-18.47,8.44-37.19,14.83-55.19,2.7-7.61,5.94-15.29,8-23.08,7.94-3.76,16-9.39,24.32-12.43,13.65-5,27.65-7.52,42.18-9.38"/><path class="cls-12" d="M1576.82,1221.52c-6.92-.51-14.72,9-19.07,12.7-3.48,3-6.84,6-10.19,9-4.48,4.09-8.94,7.86-13.79,11.58-6.5,5-14.38,7.51-21.27,11.81-9.31,5.82-7.56,15.21,4,19.22,14,4.83,32.29,6.35,46.81,4.14,8.63-1.32,18-5.16,25.74-8.56,9-4,18.12-7.57,27.09-11.54,9.52-4.22,23.76-7.35,29.48-15.81,2.72-4,2.85-9.28,1.49-13.83a28.58,28.58,0,0,0-4.21-8c-4.73-6.83-9-13.71-13-20.86"/><path class="cls-17" d="M1528.25,715.67c10.92,0,20.46,2.45,31.24,4.86,13,2.88,26.14,4,39.11,6.81a173.35,173.35,0,0,1,18.91,5.41c4,1.35,8.85,3.61,12.65,5.11,6.51,21.51,11.35,46.25,14.37,68.1,8.44,61.14,1.29,122.13-5.3,182-1.54,14-7.71,27.86-7.54,41.94.28,23,9.25,46.54,9.58,70.11.24,16.76,1.2,33.84.89,50.57-.27,14-.24,27.41.44,41.57.78,16.31,3.07,36.47.27,41-8.3,13.35-32.17,14.45-48.11,12.39-15.43-2-35.85-6.26-40-15.76-2.57-6-1.79-15.75-1.21-22.07,1.58-17.36-1-34.57-1.93-52.18-2.39-43.41-.7-84.73-6.26-128.24-2.1-16.39-1.53-33.49-1.91-49.87-.4-17.16-.53-33.56-.37-50.5.19-21.63-5.06-43.93-5.52-65.78-.44-20.24-5.11-48.16-1-67.89"/><path class="cls-18" d="M1642.16,1150.61c.31-16.73-.65-33.81-.89-50.57-.33-23.57-9.3-47.11-9.58-70.11-.17-14.08,6-27.93,7.54-41.94,6.59-59.9,13.74-120.89,5.3-182-3-21.85-7.86-46.59-14.37-68.1-3.8-1.51-8.64-3.76-12.65-5.11a173.35,173.35,0,0,0-18.91-5.41c-13-2.77-26.16-3.93-39.11-6.81-10.78-2.41-20.32-4.82-31.24-4.86l1.66,15.4c-2.68.8-5.36,1.65-8,2.63-8.3,3-16.38,8.67-24.32,12.43-2.07,7.79-5.31,15.47-8,23.08-6.39,18-9.8,36.72-14.83,55.19-9.09,33.43-17.46,68.14-28.55,100.91a294.9,294.9,0,0,0-9.69,34.51c-1.14,5.47-3.47,11.55-3.77,16.84-.76,13.35,8,25.64,13.42,37.36,14.06,30.3,31,59.15,45.45,89.42,9,18.83,13.41,39.66,23,57.84,6.78,12.89,5.41,26.12,12.46,38.47,4.18,7.32,15.87,10.18,26.35,10.47-.5,6.19-.82,14.34,1.43,19.56,4.11,9.5,24.53,13.76,40,15.76,15.94,2.06,39.81,1,48.11-12.39,2.8-4.5.51-24.66-.27-41C1641.92,1178,1641.89,1164.58,1642.16,1150.61Zm-109.67-130.3c-3.09-4.81-6.47-6.1-9.64-9.81-4.13-4.81-2.53-9.67-5.61-14.66-2.82-4.56-7.21-4.94-10.63-8.25.43-2.58,9-8.12,11.46-12.15,3.14-5.16,5-11.5,7.22-17.16,3.47-9,5.32-18.36,8.47-27.29,3.26-9.26,2.27-19,5.55-27.65.56-1.48,1.19-3,1.87-4.42a223.48,223.48,0,0,1,1.94,28c-.16,16.94,0,33.34.37,50.5.38,16.38-.19,33.48,1.91,49.87.93,7.29,1.64,14.51,2.22,21.7-1.4-2.87-2.89-5.73-4.54-8.61C1539.22,1033.64,1536.73,1026.9,1532.49,1020.31Z"/><path class="cls-19" d="M1509.31,983.64c-1.59,1.34-2.94,3.22-4.43,4.7-3.87,3.86-9.06,6.95-13.57,10"/><path class="cls-19" d="M1493.3,1005.55c3.57-3,6.14-7.47,10.44-9.68,1.08-.55,4.75-2.13,6-1.3,1.54,1,2,5,2.18,6.64.55,4.52-.61,9.32-.36,14,.16,2.89-.55,9.63,3.33,10.06,2.49.27,5.76-3,8-3.92a10.75,10.75,0,0,1,4.16-1.12"/><path class="cls-19" d="M1538.28,877.77c-1.49,7.9-1.38,17.17-6.36,24.08-.85,1.18-1.08,3.3-3.09,2.6s-1.45-4.84-3.28-5.27c-4.79-1.11-2.61,9-2.4,11.39,1,11.87.87,21.75-1.54,33.39"/><path class="cls-19" d="M1630.57,1003.58c-1.24,13.15-8.81,23-15.51,33.27-1.42,2.18-4.87,6-.41,6.89,2.78.53,7.8-5.38,10.36-6.24,1.07,10.63.63,18.11,4.51,29.26"/><path class="cls-19" d="M1569.28,781.3c3.77,1.52,10.48.6,15,.49,15.35-.36,30.5-.94,45.15-5"/><path class="cls-19" d="M1490.49,764.37c7.43.93,14.41,6.16,21.88,7.9"/><path class="cls-20" d="M1481.53,580.13c-11.38.87-24.51,5.62-35.4,8.74a155.5,155.5,0,0,0-21.74,8.49c-4.58,2.09-10.25,4.64-15,5.44-4.78-23.52-10.43-46.54-20.71-68.56-7.94-17-18.39-35-23.15-53.16-4.12-1.71-9.72-1.88-14.14-1.49-6.07.52-9.49,1.24-8.21,7.37,8.46,40.72,13.78,74.61,22.49,102.42,4.33,13.84,6.84,14.06,11.45,27.9,2,5.88,3.34,12.93,6.89,18.05,7.71,11.1,24.48,8.15,36,7.45,11.15-.68,21.56-5.18,32.6-6.75,10.62-1.51,29.61-2.24,37.58-10.11"/><path class="cls-13" d="M1531.68,559.84c-19.74,7.58-45.77,14.78-66,19.82-17.88,4.44-12.71,16.75-12,34.36.36,9.63,1.22,31.76,11.53,37.52,5.22,2.91,10.85-.49,15.79-1.47,10.48-2.08,20.12-2.22,31.51-2.22"/><path class="cls-13" d="M1523.67,562.62c15.85-6.69,32.93-6.74,50.43-6.23,23.44.7,46.19,17.23,50.32,37.38,6.73,32.82,7.31,64.35,6.86,101.68-.16,13,.86,26.09.31,39a49.22,49.22,0,0,0,2.74,19.21c4.31,11.2-26.88,4.14-39.61,4.69a272.78,272.78,0,0,1-52.54-2.47c-8.92-1.39-17.89-2.26-26.8-3.76-5.43-.91-12-4.35-17.33-4.17-1.15-10.4-.12-23-.11-33.45a397.5,397.5,0,0,0-1.77-39.72c-2.24-22.59-3.57-45.5-2.91-68"/><path class="cls-16" d="M1528.36,1258.76c3.41-1.67,9.24-.53,13-.2a26.26,26.26,0,0,1,14,5.36,49.9,49.9,0,0,1,10.13,9.32c2,2.71,4.82,5.31,6.09,8.47"/><path class="cls-16" d="M1507.16,1273.43c3.24,4.53,9.95,5.9,15,7.35a81.38,81.38,0,0,0,14.93,2.62c9.23.86,19.81,1.29,28.86-.38,9.29-1.71,17.77-5.63,26.24-9.51,4.58-2.1,8.84-4.66,13.49-6.6,5.41-2.26,10.88-4.38,16.36-6.51,5.82-2.27,12.06-4.36,17.09-8.08,2.95-2.18,8.25-5.47,8.68-9.54"/><path class="cls-16" d="M1485.45,1242.4c-1,5.07,23.86,7.47,28,7.67a47.15,47.15,0,0,0,15.49-2c6-1.7,9.66-5.58,14-9.62a129.67,129.67,0,0,1,11.44-9.94"/><path class="cls-16" d="M1513.46,1230.56c-2.44,6.34-2.9,12.22-2.53,19"/><path class="cls-8" d="M1624.42,684.83c-1.82,4.94,7.41,3.42,9.39,2.78,11.88-3.81,21-11.13,29.6-20,4.42-4.57,22.94-18.41,17.68-26.85-1.54-2.47-5.59-2.17-7.85-3a28.42,28.42,0,0,0-24.69,2.83c-10.7,7.11-18,19-23,30.65"/><path class="cls-20" d="M1671.69,635.15c16.22,32.55,20.9,72.65,28.16,106.61,6.43,30,11.16,59.9,10.78,90.6-.14,11.33-.68,22.63-1.76,33.91-.91,9.53.23,20.48-2.42,29.7,1.64,3.41,1.44,9.27,1.92,13s1.34,7.91.83,11.64c-.37,2.69-2.79,8-4.91,9.91-4.11,3.77-11,4.19-16.64,3.62-5.16-.52-9.57,1.61-13.94-2s-5.9-9.32-5.56-14.57c.16-2.54,1.26-6.37,5-4,2.53,1.63,2.19,5.87,2.29,8.21-.18-2.57.35-3.85-.9-6.34-1.36-2.7-2.67-4.31-2.64-7.54.06-7.71,7.89-11.19,12.53-16.61-5.32-46-20.08-103.14-19.86-135.86.06-9.87-2.27-18.7-5.61-28-3.42-9.57-9.14-18.18-13-27.61a289.19,289.19,0,0,1-12-37.68c-.79-3.1-.83-6.5-3-9.08"/><path class="cls-13" d="M1589.75,559.58c36.59,5.2,79,49,92.17,83.3-23.14-8.22-54.48,22.77-57.78,42.76-2.07-17.13,2.19-38.72-14.59-50.46"/><path class="cls-16" d="M1401.22,607.79a47.32,47.32,0,0,1,8.74-5.08"/><path class="cls-16" d="M1693.38,737.17c-4.42,3.05,3,4.64.32,8.46"/><path class="cls-16" d="M1506.86,594.63c.44,12-1.85,25.69,1.23,37.41,14,53.35,71.84-12.9,85.71-26.13"/><path class="cls-20" d="M1521.6,460.94c-1.19-7.31-3.16-23.39-3.79-30.71a253.18,253.18,0,0,1-.69-33.91c.13-2.85.12-23.55,4.3-23.44s9.94,13.89,11.44,16.89c7.46,14.9,13.32,30.17,19,45.71,2.68,7.34,5.14,14.72,8.18,21.92,2.58,6.09,4.09,12.57,6.62,18.63"/><path class="cls-20" d="M1540.45,528.43c1.51,29.15-22.43,35.33-25.38,37.19,15.6,61.54,94.54,11.46,103.25,4.68-3.39-2.46-10-5-13.32-8-11-9.86-12.17-15.81-12.67-34-.07-2.45,3.7-4.4,5.18-5.24a53.13,53.13,0,0,0,13.39-10.1,41.74,41.74,0,0,0,10.21-19.74c1.87-9.11.36-20.2-3.17-28.68-6.83-16.36-23.2-26.32-40.76-28.25a71.79,71.79,0,0,0-34.3,4.75c-9,3.75-18.43,12.65-23.08,21.24-5.2,9.6-7.18,23.28-4.57,34.93a39.12,39.12,0,0,0,4.9,12.42C1529.36,523.73,1540.72,523.63,1540.45,528.43Z"/><path class="cls-20" d="M1576.36,450.59c1.77-6.84,6.28-21.67,8.6-28.34a230.14,230.14,0,0,1,12.92-30.1c1.27-2.47,9.56-20.7,13.61-19.18s4.17,15.62,4.44,18.78c1.34,15.67,1,31.12.28,46.74-.32,7.38-.87,14.72-.77,22.1.08,6.24-1,12.46-1,18.66"/><ellipse class="cls-21" cx="1526.67" cy="481.67" rx="3.84" ry="3.99" transform="translate(113.66 1234.07) rotate(-45.55)"/><path class="cls-22" d="M1515.1,491.27c5.32,11.08,10.1,10.78,11.57,1.93,4.23,18.08,42.47,13.58,51.89,9.33"/><path class="cls-22" d="M1601,399.43c.9-1.72,4.57-11.63,7.63-12,2.11-.28,1.34,3.32,1.13,4.65-1.24,8-2.6,15.93-4.36,23.79-1.12,5-3.5,10.17-4.12,15.17,1.93-.22,2.79.8,3.1,2.56.41,2.34-1.24,3.07-1.68,5-.51,2.27,1.81,4.47,1.32,7-.4,2.11-2.27,3.46-3.07,5.39-1.35,3.26-2.19,7.3-3.22,10.69a8.9,8.9,0,0,1-1.17-.92c-3.13-2.21-6.73-3.58-10.2-5.09"/><path class="cls-22" d="M1520,405.26c-.15-1.88-.34-12.19,1.67-13.08,2.27-1,2.18,4.67,2.33,5.93a33.18,33.18,0,0,1,.24,9.69c-.49,2.86-1.39,5.57-1.36,8.5,1,.11,2-.59,3.13-.71a21.31,21.31,0,0,1,3.39,0c-.25,1.14-1.22,2.22-1.15,3.53,2.51.7,3,2.79,3.54,4.91.91,3.45,1.87,6.82,2.65,10.3.49,2.17,2.51,7.43,1.51,9.44"/><path class="cls-22" d="M1547.54,469.9c-1.51.91-2,3.66-1.65,5.25,2.27.89,2.93-4.16,1.8-5.43-1.83,1-2,4.27-1.64,6.1,2.58,1.43,3-4.82,2.47-6.19-1.38.25-1.52,2.45-1.78,3.59"/><path class="cls-22" d="M1527,465.67c-1.51.92-2,3.67-1.65,5.26,2.27.89,2.94-4.17,1.81-5.43-1.83,1-2,4.26-1.64,6.1,2.58,1.43,3-4.82,2.47-6.19-1.38.25-1.52,2.44-1.78,3.59"/><path class="cls-16" d="M1568.84,740.18c3.22.72,6.15,1.6,9.51,1.53,4.33-.09,8.66-.83,13-1,8-.31,15.11,1,22.84,2.87,2.66.64,10.45,3.12,11.71-.12.5-1.29.44-2-.53-2.8a9.41,9.41,0,0,0-2.88-.9c-6.34-1.83-12.92-2.34-19.46-3"/><path class="cls-23" d="M1333.16,445.31c-1.06,0-3.61,1.48-4.57,2.28s-1,1.35.05,2.2c1.94,1.53,6.09,1.32,8.47.88"/><path class="cls-20" d="M1344.59,493.85c-.42-5-5.74-9.42-10.08-11.29-2.52-1.09-4.53-2.17-6.25-4.67-1.43-2.09-2.36-4.47-3.92-6.56s-3.49-3.68-3.17-6.46c.37-3.24.64-3.8,1-7.05.21-1.91-.27-4.92,2.07-5.32,4.59-.78,4.74,7.27,4.86,10.09,3.88,2.75,5,5.51,7.88,6.23,4.09,1,2.85-8.23,2.21-10.8-.72-2.88-1.19-8.08-3-10.55a24.13,24.13,0,0,0-5.5-4.07c-1.78-.69-1.63,1.52-2.45,3.25a6,6,0,0,1-1.87,2.57c-1.38.92-4.19,1-5.32-.51-1.53-2,1.15-7.59,1.91-9.76,1.18-3.33.91-6.79,5.11-7.37,4-.54,6,.71,9.38,2.82,2.31,1.42,7.68,3.79,8.17,6.75a16.33,16.33,0,0,1,5.3,1.48c1.6.66,1.87,1.31,3.07,2.31,2.46,2.05,6.37.53,8.19,3.42.71,1.13.87,2.52,1.54,3.56,1.73,2.68,2.5,3.48,2.73,6.74.31,4.45.84,9.5.17,13.9-.81,5.34.9,10.9,1.24,16.35"/><path class="cls-16" d="M1327.2,442.09a26.49,26.49,0,0,0,4,1.55"/><path d="M1337.66,445.26c-5.34.74-9,1.34-14.87,2.39a19.82,19.82,0,0,0-5.27,1.52c-1.14.54-5.33,3.31-4.91,4.11s5.58,1.55,7.18,1.31c3.28-.49,9-1.14,12.24-1.75,4-.73,7.15-1.28,11.78-2.08,1.68-.28,3.69-.44,5.11-1.24,1.71-1,1-4.5-.17-5.16-1.42-.79-3.42-.22-6.34.2-1.41.21-3.38.45-4.75.7"/><path class="cls-16" d="M1315,482.89c0,13.79.68,27.88-1,41.5"/><path class="cls-24" d="M1684.45,891.27s8.36-5.07,15-3.37a9.23,9.23,0,0,1,7,8.07l2.3-7.79s-4.75-9.34-15.09-7.48c-8.61,1.55-9.88,5.11-9.88,5.11Z"/><ellipse class="cls-25" cx="1701.24" cy="884.51" rx="6.75" ry="5.19" transform="translate(768.41 2559.74) rotate(-88.36)"/><path class="cls-26" d="M868.08,514.78s-2.33,37.81,10.64,62.64c29.76-4.42,66.45-5.53,66.45-5.53s-12.69-17.82-13-61.36C910.37,511.18,868.08,514.78,868.08,514.78Z"/><path class="cls-27" d="M959.11,480.83s-1.75,37.81,8,62.64c22.34-4.43,61.23-5.53,61.23-5.53s-9.53-17.83-9.8-61.37C1002.2,477.23,959.11,480.83,959.11,480.83Z"/><path class="cls-12" d="M553.08,1070.16v94.45s-12.41,3.85-12.41,11,9,36.62,38.66,36.62c23.67,0,14.67-40.66-12-48.71v-93.35"/><path class="cls-12" d="M634,1052.45v94.45s-18.12,3.85-18.12,11,53.82,30.24,83.47,30.24,0-26.94-51.07-42.32v-93.35"/><ellipse class="cls-12" cx="599.57" cy="1011.75" rx="114.18" ry="72.89" transform="translate(-126.82 86.83) rotate(-7.49)"/><ellipse class="cls-12" cx="599.57" cy="910.99" rx="74.7" ry="47.69" transform="translate(-113.68 85.96) rotate(-7.49)"/><path class="cls-12" d="M545.12,992.69c-.58,2.53-13.68,62.14,31.55,76.2,45,14,100.61-44.63,118.24-68.4l25.17,18.62c-1.8,2.43-27.16,36.24-62.73,60-26.22,17.52-58,29.6-90,19.65-30.29-9.42-49.62-33.24-54.43-67.08a138,138,0,0,1,1.7-46.13"/><path class="cls-28" d="M634.53,931.93a34.79,34.79,0,0,1-27.23-4.65c-1.77-1.18-2.2-4-1-6.42s3.69-3.33,5.45-2.15c11,7.29,27.93,6.89,37.39-6.41,1.52-2.14,4-2.61,5.53-1s1.55,4.55,0,6.69A34.75,34.75,0,0,1,634.53,931.93Z"/><ellipse class="cls-28" cx="653.22" cy="889.13" rx="7.44" ry="10.61" transform="translate(-7.53 5.58) rotate(-0.49)"/><ellipse class="cls-28" cx="601.87" cy="901.69" rx="7.44" ry="10.61" transform="translate(-7.64 5.14) rotate(-0.49)"/><path class="cls-12" d="M687.92,1009.29s4.7-24.31,14-30.63,11.8,3.84,11.8,3.84,30.65-18.82,30.7,8.49c0,24-27.78,32.51-27.78,32.51"/><ellipse class="cls-29" cx="594.43" cy="871.95" rx="89.8" ry="15.29" transform="matrix(0.99, -0.14, 0.14, 0.99, -117.41, 92.89)"/><path class="cls-15" d="M641.5,860.45a239.25,239.25,0,0,1-47.22,11.77,249.42,249.42,0,0,1-49.25,2c-3.72-23.24,14.86-45.17,41.5-49S637.78,837.21,641.5,860.45Z"/></g></g></svg>