<svg id="Layer_1" data-name="Layer 1" xmlns="http://www.w3.org/2000/svg" xmlns:xlink="http://www.w3.org/1999/xlink" viewBox="0 0 2240.78 1683.13"><defs><style>.cls-1,.cls-12,.cls-2,.cls-3{fill:none;}.cls-10,.cls-11,.cls-12,.cls-13,.cls-14,.cls-15,.cls-16,.cls-17,.cls-18,.cls-2,.cls-20,.cls-21,.cls-22,.cls-23,.cls-24,.cls-3,.cls-4,.cls-5,.cls-6,.cls-7,.cls-8,.cls-9{stroke:#000;}.cls-2{stroke-linecap:round;stroke-width:0.5px;}.cls-10,.cls-11,.cls-12,.cls-13,.cls-14,.cls-15,.cls-16,.cls-17,.cls-18,.cls-2,.cls-24,.cls-3,.cls-4,.cls-7,.cls-8,.cls-9{stroke-miterlimit:10;}.cls-10,.cls-11,.cls-12,.cls-13,.cls-14,.cls-15,.cls-16,.cls-17,.cls-18,.cls-20,.cls-21,.cls-22,.cls-23,.cls-24,.cls-4,.cls-5,.cls-6,.cls-7,.cls-8,.cls-9{stroke-width:2px;}.cls-5{fill:#92b193;}.cls-20,.cls-21,.cls-22,.cls-23,.cls-5,.cls-6{stroke-linejoin:round;}.cls-7{fill:#3d393b;}.cls-8{opacity:0.23;fill:url(#_10_dpi_20_2);}.cls-9{fill:#2b2720;}.cls-10{fill:#6b6b6a;}.cls-11{fill:#929292;}.cls-13{fill:#4d4d4d;}.cls-14{fill:#c5d7ea;}.cls-15,.cls-23{fill:#f4eed8;}.cls-16{fill:#5a8bba;}.cls-17{fill:#e6ab55;}.cls-18,.cls-20{fill:#ffdf8c;}.cls-19{opacity:0.2;fill:url(#_10_dpi_50_);}.cls-21{fill:#e30613;}.cls-22{fill:#9e7842;}.cls-24{fill:#d20a11;}</style><pattern id="_10_dpi_20_2" data-name="10 dpi 20% 2" width="28.8" height="28.8" patternTransform="translate(326.45 1764.32) scale(4.43)" patternUnits="userSpaceOnUse" viewBox="0 0 28.8 28.8"><rect class="cls-1" width="28.8" height="28.8"/><path class="cls-2" d="M2.75,28.08c.37-.06.71.42,1,.62a3.32,3.32,0,0,1,1.61,2,3.61,3.61,0,0,0,.31,1.53,4.72,4.72,0,0,0,1.28.93c.65.45.51,1.81,1.16,2.26s1.23,1,1.9,1.37A34.67,34.67,0,0,0,14.4,39c1,.41,2.81-.26,3.69.3a10,10,0,0,1,1.71,1.07c.57.56.51,1.1.75,1.81s1.08.92,1.74,1.32a19.14,19.14,0,0,0,1.83,1c.56.27,1.25.4,1.77.7s.25.63,0,1-.48.53.1.83c.28.15.52.3.77.46"/><path class="cls-2" d="M20.75,29c.26.66,1.3.68,1.47,1.45.12.58-.58.82-.32,1.38s1.34.72,2,.84,2,.16,2.4.76c.3.42-.21.8.07,1.13s.87.23,1.14.52.11.39.25.53.55.17.75.47"/><path class="cls-2" d="M5.58,28c0,.8,1.64,1.38,2.07,2s0,1.37.51,2"/><path class="cls-2" d="M17.12,28.42c0,.07,0,.09,0,.14.29.56.94.8,1.14,1.47a1.57,1.57,0,0,1,0,.86c-.16,1,.58,1.15,1.3,1.62"/><path class="cls-2" d="M27.76,21.86c.59.76,1.82,1,2.63,1.49A3.68,3.68,0,0,1,32,25c.64,1,1.61,1.07,2.67,1.49A10,10,0,0,1,37,27.85c.53.4.91,1,1.47,1.34"/><path class="cls-2" d="M26.68,18.53c2.05.6,3.6,1.86,5.4,2.95A26.22,26.22,0,0,1,37,25.32a12.19,12.19,0,0,0,4,2.15c1.22.51,2.1,1.68,3.33,2.06"/><path class="cls-2" d="M26.76,13.78c1.33.5,2.43,1.57,3.81,2a11.41,11.41,0,0,1,4.59,2.72c1.06.93.49,1.1.25,2.11s2,1.35,2.78,1.93c1.36,1,3,1.26,4.45,2.1.81.48,1,1.22,1.68,1.69,1.07.71,2.43,1,3.49,1.75a4.81,4.81,0,0,0,1.95,1"/><path class="cls-2" d="M26.1,8.4c.06.46.39.65.79.95a47.71,47.71,0,0,0,6.26,3.47c2,1,2.34,2,4.24,3.22a14.8,14.8,0,0,1,3.24,2.17c1.32,1.42-.39.83-.72,1.76s3.3,1.71,3.73,1.92c1.23.58,2.85.9,3.94,1.71,1.3.95-.3.86,0,1.81.19.75,2.27,1.23,2.82,1.47A13.63,13.63,0,0,1,52.47,28,10.07,10.07,0,0,0,55,29.53"/><path class="cls-2" d="M28.16,7.22a17.72,17.72,0,0,1,2.21,1.69,28.8,28.8,0,0,0,6.93,3.57A24.26,24.26,0,0,1,42,15.14c1.07.68,2.26,1.07,3.37,1.66.68.36-.16,1.12.29,1.81s2.2.85,2.64,1.41c.85,1.1,3,1.39,3.34,2.82-.61.25-.52.61-.09,1,.85.74,2.42.53,3.44.91a13.38,13.38,0,0,1,2.34,1.55c1,.63,2,1.25,3.05,1.8"/><path class="cls-2" d="M26.05.61c.62-.11,1.61.86,2.11,1.17a26.84,26.84,0,0,0,2.89,1.56,3.54,3.54,0,0,1,1.84,1.25c.42.77-.18,1.82.37,2.4s1.51,2.44,2.37,2.73a38.07,38.07,0,0,1,6.45,3c.78.42,1.49-.78,1.88,0s.65.69,1.3.83a5.93,5.93,0,0,1,3.25,1.37,11.08,11.08,0,0,1,1.19,1.68c.36.61.43,1.34,1,1.78s1.92.29,2.24,1.2c.11.31,0,.31.23.55a6.63,6.63,0,0,0,1.17.65,11,11,0,0,0,1.19.59c.3.12.72.19.91.47"/><path class="cls-2" d="M27.84,16.16a11.69,11.69,0,0,0,1.36.72c.72.42,1.37.86,2.12,1.22s1.56,1.07,2.43,1.44"/><path class="cls-2" d="M24.88,22.58a5.7,5.7,0,0,0,1.53.74c.71.31,1.37.69,2.06,1,.31.15.65.14,1,.27s.72.64,1.17.83"/><path class="cls-2" d="M-1,21.86c.59.76,1.82,1,2.63,1.49A3.68,3.68,0,0,1,3.18,25c.64,1,1.61,1.07,2.67,1.49a10,10,0,0,1,2.31,1.33c.53.4.92,1,1.47,1.34"/><path class="cls-2" d="M-2.12,18.53c2.05.6,3.6,1.86,5.4,2.95a25.9,25.9,0,0,1,4.89,3.84,12.19,12.19,0,0,0,4,2.15c1.22.51,2.1,1.68,3.33,2.06"/><path class="cls-2" d="M-2,13.78c1.33.5,2.43,1.57,3.81,2a11.41,11.41,0,0,1,4.59,2.72c1.06.93.49,1.1.25,2.11s2,1.35,2.78,1.93c1.36,1,3,1.26,4.45,2.1.81.48,1,1.22,1.68,1.69,1.07.71,2.43,1,3.49,1.75a4.81,4.81,0,0,0,1.95,1"/><path class="cls-2" d="M-2.7,8.4c.06.46.39.65.79.95a47.71,47.71,0,0,0,6.26,3.47c2,1,2.34,2,4.24,3.22a14.8,14.8,0,0,1,3.24,2.17c1.32,1.42-.39.83-.72,1.76s3.3,1.71,3.73,1.92c1.23.58,2.85.9,3.94,1.71,1.3.95-.3.86-.05,1.81.19.75,2.27,1.23,2.82,1.47A13.63,13.63,0,0,1,23.67,28a10.07,10.07,0,0,0,2.56,1.57"/><path class="cls-2" d="M-.64,7.22A17.72,17.72,0,0,1,1.57,8.91,28.8,28.8,0,0,0,8.5,12.48a24.26,24.26,0,0,1,4.67,2.66c1.07.68,2.26,1.07,3.37,1.66.68.36-.16,1.12.29,1.81s2.2.85,2.64,1.41c.85,1.1,3,1.39,3.34,2.82-.61.25-.52.61-.09,1,.85.74,2.42.53,3.44.91a13.38,13.38,0,0,1,2.34,1.55c1,.63,2,1.25,3.05,1.8"/><path class="cls-2" d="M-2.75.61c.62-.11,1.61.86,2.12,1.17A25.78,25.78,0,0,0,2.25,3.34,3.54,3.54,0,0,1,4.09,4.59c.42.77-.18,1.82.37,2.4S6,9.43,6.83,9.72a38.07,38.07,0,0,1,6.45,3c.78.42,1.49-.78,1.88,0s.65.69,1.3.83a5.93,5.93,0,0,1,3.25,1.37,11.08,11.08,0,0,1,1.19,1.68c.36.61.43,1.34,1,1.78s1.92.29,2.24,1.2c.11.31,0,.31.23.55a6.63,6.63,0,0,0,1.17.65,12,12,0,0,0,1.19.59c.3.12.72.19.91.47"/><path class="cls-2" d="M2.75-.72c.37-.06.71.42,1,.62a3.32,3.32,0,0,1,1.61,2,3.64,3.64,0,0,0,.31,1.53,4.72,4.72,0,0,0,1.28.93c.65.45.51,1.8,1.16,2.26S9.3,7.61,10,8a34.67,34.67,0,0,0,4.43,2.13c1,.41,2.81-.26,3.69.3a10,10,0,0,1,1.71,1.07c.57.56.51,1.1.75,1.81s1.08.92,1.74,1.32,1.2.7,1.83,1,1.25.4,1.77.7.25.63,0,1-.48.53.1.83c.28.15.52.3.77.46"/><path class="cls-2" d="M9.5.32c.9.5,1.68,1.71,1,2.17s-.83.71,0,1.2c1.14.68.62,1.65,1.84,2.2.75.34,1.51.7,2.28,1a1.31,1.31,0,0,0,1.19,0,3.77,3.77,0,0,1,3.35.32A13.3,13.3,0,0,1,21,8.28a1.12,1.12,0,0,1,.62,1.07c-.08.64-.31,1,.18,1.49a4.54,4.54,0,0,0,1.37.79,1.71,1.71,0,0,1,.72.61c.11.23,0,.39.21.58s.79.21,1.07.35.63.39,1,.53a2,2,0,0,0,.59.12c.4.08.33.16.75.42"/><path class="cls-2" d="M15.21.61c1.06.65-.22,1-.9,2-.57.88-.49,1.09.53,1.37,1.41.38,4.56,1.41,5.93,1.94a6.16,6.16,0,0,1,1.76.92,2.72,2.72,0,0,0,2,.6,2.66,2.66,0,0,1,1.29.38c.33.31.14.82.47,1.21"/><path class="cls-2" d="M20.75.24c.26.66,1.3.68,1.47,1.45.12.58-.58.81-.32,1.38s1.34.72,2,.84,2,.16,2.4.76c.3.42-.21.8.07,1.13s.87.23,1.14.52c.14.14.11.39.25.53s.55.17.75.47"/><path class="cls-2" d="M-1,16.16a11.07,11.07,0,0,0,1.37.72c.71.42,1.36.86,2.11,1.22S4.08,19.17,5,19.54"/><path class="cls-2" d="M23.87,25.87c.3,0,.48.17.73.31.57.31,1.18.52,1.73.87s1.39.8,2.05,1.25a25.15,25.15,0,0,0,3.11,1.57"/><path class="cls-2" d="M5.58-.84c0,.8,1.64,1.38,2.07,2s0,1.37.51,2"/><path class="cls-2" d="M15,8.29a4.38,4.38,0,0,0,1.77.21,5.78,5.78,0,0,1,2.53.7"/><path class="cls-2" d="M17.12-.38c0,.07,0,.09,0,.14.29.56.94.8,1.14,1.47a1.57,1.57,0,0,1,0,.86c-.16,1,.58,1.15,1.3,1.61"/><path class="cls-2" d="M24.66,1.91c.57.43,1.13.87,1.72,1.28s1,.45,1.47.72c1,.49,2.78,1.18,3.19,2.25"/><path class="cls-2" d="M24.66,10.41c1.18,1,2.77,1.31,4,2.17a20.37,20.37,0,0,0,2.22,1.29"/><path class="cls-2" d="M14.33,18.41c.21.46.2,1,.56,1.43a5.09,5.09,0,0,0,1.55.81c.42.21.84.44,1.26.64"/><path class="cls-2" d="M8.41,18.12c0,.36.33.69.4,1.05.14.78,0,.89.6,1.49"/><path class="cls-2" d="M16,23.91a9.58,9.58,0,0,0,1.42,1"/><path class="cls-2" d="M17.45,15.45a3.56,3.56,0,0,1,1.26.91c.41.55.35,1.21,1,1.59"/><path class="cls-2" d="M-3.92,22.58a5.85,5.85,0,0,0,1.53.74c.71.31,1.37.69,2.06,1,.31.15.65.14,1,.27s.72.64,1.17.83"/><path class="cls-2" d="M9.41,24.25c.11.22.37.26.59.35a10.76,10.76,0,0,1,1.6.87,8.4,8.4,0,0,0,1.05.5c.3.14.53.42.84.53"/><path class="cls-2" d="M12.12,1.08c1.09.53.08,1.42.17,2.12"/><path class="cls-2" d="M-29.44,7.22a17.72,17.72,0,0,1,2.21,1.69,28.8,28.8,0,0,0,6.93,3.57,24.26,24.26,0,0,1,4.67,2.66c1.07.68,2.26,1.07,3.37,1.66.68.36-.16,1.12.29,1.81s2.2.85,2.64,1.41c.85,1.1,3,1.39,3.34,2.82-.61.25-.52.61-.09,1,.85.74,2.42.53,3.45.91A13.68,13.68,0,0,1-.3,26.29c1,.63,2,1.25,3.05,1.8"/><path class="cls-2" d="M-4.93,25.87c.3,0,.48.17.73.31.57.31,1.18.52,1.73.87s1.39.8,2.05,1.25a25.15,25.15,0,0,0,3.11,1.57"/><path class="cls-2" d="M-4.14,1.91c.57.43,1.13.87,1.72,1.28a15.56,15.56,0,0,0,1.48.72C0,4.4,1.83,5.09,2.24,6.16"/><path class="cls-2" d="M-4.14,10.41c1.18,1,2.77,1.31,4,2.17a20.37,20.37,0,0,0,2.22,1.29"/><path class="cls-2" d="M27.76-6.94c.59.76,1.82,1,2.63,1.49A3.68,3.68,0,0,1,32-3.77c.64,1,1.61,1.07,2.67,1.49A9.64,9.64,0,0,1,37-.95c.53.4.91,1,1.47,1.34"/><path class="cls-2" d="M26.68-10.27c2.05.6,3.6,1.86,5.4,2.95A26.22,26.22,0,0,1,37-3.48a12,12,0,0,0,4,2.14C42.15-.82,43,.35,44.26.73"/><path class="cls-2" d="M26.76-15c1.33.5,2.43,1.57,3.81,2a11.41,11.41,0,0,1,4.59,2.72c1.06.93.49,1.1.25,2.1s2,1.36,2.78,1.94c1.36,1,3,1.26,4.45,2.1.81.48,1,1.22,1.68,1.69,1.07.71,2.43,1,3.49,1.75a4.81,4.81,0,0,0,1.95,1"/><path class="cls-2" d="M26.1-20.4c.06.46.39.65.79.95A47.71,47.71,0,0,0,33.15-16c2,1.05,2.34,2.05,4.24,3.22a14.8,14.8,0,0,1,3.24,2.17c1.32,1.42-.39.83-.72,1.76s3.3,1.71,3.73,1.92c1.23.58,2.85.9,3.94,1.71,1.3,1-.3.86,0,1.81.19.75,2.27,1.23,2.82,1.47A13.63,13.63,0,0,1,52.47-.84,10.07,10.07,0,0,0,55,.73"/><path class="cls-2" d="M-1-6.94c.59.76,1.82,1,2.63,1.49A3.68,3.68,0,0,1,3.18-3.77c.64,1,1.61,1.07,2.67,1.49A9.64,9.64,0,0,1,8.16-.95c.53.4.92,1,1.47,1.34"/><path class="cls-2" d="M-2.12-10.27c2.05.6,3.6,1.86,5.4,2.95A25.9,25.9,0,0,1,8.17-3.48a12,12,0,0,0,4,2.14c1.22.52,2.1,1.69,3.33,2.07"/><path class="cls-2" d="M-2-15c1.33.5,2.43,1.57,3.81,2a11.41,11.41,0,0,1,4.59,2.72c1.06.93.49,1.1.25,2.1s2,1.36,2.78,1.94c1.36,1,3,1.26,4.45,2.1.81.48,1,1.22,1.68,1.69,1.07.71,2.43,1,3.49,1.75A4.81,4.81,0,0,0,21,.31"/><path class="cls-2" d="M-2.7-20.4c.06.46.39.65.79.95A47.71,47.71,0,0,0,4.35-16c2,1.05,2.34,2.05,4.24,3.22a14.8,14.8,0,0,1,3.24,2.17c1.32,1.42-.39.83-.72,1.76s3.3,1.71,3.73,1.92c1.23.58,2.85.9,3.94,1.71,1.3,1-.3.86-.05,1.81.19.75,2.27,1.23,2.82,1.47A13.63,13.63,0,0,1,23.67-.84,10.07,10.07,0,0,0,26.23.73"/><path class="cls-2" d="M23.87-2.93c.3,0,.48.17.73.31.57.31,1.18.52,1.73.87s1.39.8,2.05,1.25a25.15,25.15,0,0,0,3.11,1.57"/><path class="cls-2" d="M-4.93-2.93c.3,0,.48.17.73.31.57.31,1.18.52,1.73.87S-1.08-.95-.42-.5A25.15,25.15,0,0,0,2.69,1.07"/></pattern><pattern id="_10_dpi_50_" data-name="10 dpi 50%" width="28.8" height="28.8" patternTransform="translate(680.46 1222.31) scale(2)" patternUnits="userSpaceOnUse" viewBox="0 0 28.8 28.8"><rect class="cls-1" width="28.8" height="28.8"/><path class="cls-3" d="M10.79,24.79c3.92.24,2.84-5.63,4.28-7.72a6.65,6.65,0,0,1,5.42-2.89,13.77,13.77,0,0,1,2.38.49,2.55,2.55,0,0,0,2.8-1.21"/><path class="cls-3" d="M18.62,18.12A13.29,13.29,0,0,1,20.71,18a17,17,0,0,1,1.89,0,6.31,6.31,0,0,1,1.87.7,3.1,3.1,0,0,0,3.48-.3,9.1,9.1,0,0,0,2.47-4.86"/><path class="cls-3" d="M11.58,3.61C9.66,8.29,14,8.66,14.4,10.1c.55,1.82-.58,3.82-1.86,5.05"/><path class="cls-3" d="M10.67,20.79a3.36,3.36,0,0,1-2.26-1.4c-.94-1.47-.41-3,.38-4.38s1.85-2.88.8-4.32c-.93-1.27-2.94-1.36-4.3-1.82"/><path class="cls-3" d="M5.57,22.4c.65.71,1.4,1.29,2,2.05A4.34,4.34,0,0,1,8.43,26c.22.75.17,1.62.46,2.34a2.5,2.5,0,0,0,3.47,1.11,12.32,12.32,0,0,0,2.44-1.86,4.07,4.07,0,0,1,2.67-.9"/><path class="cls-3" d="M17.46,21.67a10.2,10.2,0,0,0,1.29.73A4.74,4.74,0,0,1,21,25a7.09,7.09,0,0,1,.09,3.24c-.08.53-.23.95.09,1.44a2.07,2.07,0,0,0,1.32.78"/><path class="cls-3" d="M14.77,3.71C16.88,3,18.64,5.76,20.6,6c1.34.14,2.72,2.51,3.62,1.31s1-5.07,1.23-6.54"/><path class="cls-3" d="M29.67,3.71a5.19,5.19,0,0,0-2.17,3c-.25,1.1.53,4.6.8,5.66"/><path class="cls-3" d="M16.33,8.5a4.53,4.53,0,0,0,2.39,1.39c.78.16,1.58,0,2.36.23a4.73,4.73,0,0,1,2.34,1.59"/><path class="cls-3" d="M29.38,29.28a10.07,10.07,0,0,1-2.56-3.12c-.38-1-.37-1.93-1.16-2.75A6.41,6.41,0,0,0,22,21.59"/><path class="cls-3" d="M4,17a8,8,0,0,1-1,1.6c-.43.53-1,.72-1.51,1.2a2.67,2.67,0,0,0-.71,2.52C1,23.45,2.12,24,2.79,24.8a5.58,5.58,0,0,1,.92,4.53"/><path class="cls-3" d="M5.47,13.41c0-2-2.61-2.28-3.3-3.87a2.85,2.85,0,0,1,.59-3,5.92,5.92,0,0,1,1.5-1.36A9.45,9.45,0,0,1,6.07,4.7c1-.3.09-2.32.84-3.11"/><path class="cls-3" d="M-10.18,18.12A13.29,13.29,0,0,1-8.09,18,17,17,0,0,1-6.2,18a6.31,6.31,0,0,1,1.87.7,3.11,3.11,0,0,0,3.49-.3,9.16,9.16,0,0,0,2.46-4.86"/><path class="cls-3" d="M.87,3.71a5.19,5.19,0,0,0-2.17,3c-.25,1.1.53,4.6.8,5.66"/><path class="cls-3" d="M.58,29.28A10.07,10.07,0,0,1-2,26.16c-.38-1-.37-1.93-1.16-2.75a6.41,6.41,0,0,0-3.71-1.82"/><path class="cls-3" d="M5.57-6.4c.65.71,1.4,1.29,2,2.05a4.34,4.34,0,0,1,.84,1.59c.22.75.17,1.63.46,2.34A2.5,2.5,0,0,0,12.36.69,12.32,12.32,0,0,0,14.8-1.17a4.07,4.07,0,0,1,2.67-.9"/><path class="cls-3" d="M17.46-7.13a10.2,10.2,0,0,0,1.29.73A4.74,4.74,0,0,1,21-3.84,7.09,7.09,0,0,1,21.05-.6c-.08.53-.23,1,.09,1.44a2.07,2.07,0,0,0,1.32.78"/><path class="cls-3" d="M29.38.48a10.07,10.07,0,0,1-2.56-3.12c-.38-1-.37-1.93-1.16-2.75A6.41,6.41,0,0,0,22-7.21"/><path class="cls-3" d="M4-11.8a8,8,0,0,1-1,1.6c-.43.53-1,.72-1.51,1.21A2.65,2.65,0,0,0,.73-6.48C1-5.35,2.12-4.81,2.79-4A5.58,5.58,0,0,1,3.71.53"/><path class="cls-3" d="M.58.48A10.07,10.07,0,0,1-2-2.64c-.38-1-.37-1.93-1.16-2.75A6.41,6.41,0,0,0-6.85-7.21"/></pattern></defs><title>Practice</title><path class="cls-4" d="M794.8,1193.29c156.3-31.24,281.31-73.3,279.21-93.93s-130.5-12-286.81,19.19c-65.52,13.1-125.54,28.1-173,42.62l95.2,47.43C736.41,1204.34,765.1,1199.22,794.8,1193.29Z"/><ellipse class="cls-4" cx="518.25" cy="1169.07" rx="129.1" ry="27.72" transform="translate(-186.13 101.76) rotate(-9.52)"/><path class="cls-5" d="M680.72,976.8a258.9,258.9,0,0,0-89.65,0H551.22v221.13c0,14.25,37.91,25.8,84.67,25.8s84.68-11.55,84.68-25.8V976.8Z"/><ellipse class="cls-5" cx="635.89" cy="974.84" rx="84.67" ry="25.8"/><path class="cls-5" d="M673.92,949.47a219.42,219.42,0,0,0-76,0H564.05v18.21c0,12.09,32.17,21.89,71.84,21.89s71.85-9.8,71.85-21.89V949.47Z"/><path class="cls-5" d="M680.72,858.34a258.9,258.9,0,0,0-89.65,0H551.22v92.6c0,14.25,37.91,25.8,84.67,25.8s84.68-11.55,84.68-25.8v-92.6Z"/><ellipse class="cls-5" cx="635.89" cy="856.38" rx="84.67" ry="25.8"/><path class="cls-5" d="M673.92,832.59a219.42,219.42,0,0,0-76,0H564.05v16.53c0,12.09,32.17,21.89,71.84,21.89s71.85-9.8,71.85-21.89V832.59Z"/><path class="cls-5" d="M694.85,818.35a340.67,340.67,0,0,0-117.91,0H524.52v9.27c0,18.74,49.86,33.93,111.37,33.93s111.38-15.19,111.38-33.93v-9.27Z"/><ellipse class="cls-5" cx="635.89" cy="815.78" rx="111.37" ry="33.94"/><path class="cls-5" d="M589.34,812c0-13.09,39.12-25.39,87.82-27.78a344.58,344.58,0,0,0-41.27-2.4c-61.51,0-111.37,15.19-111.37,33.93s49.86,33.94,111.37,33.94c54.92,0,100.54-12.11,109.7-28-16.45,5.47-40,9.46-66.22,10.58C629.65,834.37,589.34,825.32,589.34,812Z"/><path class="cls-6" d="M677.16,784.25c-48.7,2.39-87.82,14.69-87.82,27.78,0,13.29,40.31,22.34,90,20.23,26.2-1.12,49.77-5.11,66.22-10.58a11.78,11.78,0,0,0,1.68-5.9C747.27,801.48,718.24,789.25,677.16,784.25Z"/><path class="cls-4" d="M1998.8,1158.64c-2.81-27.66-142.73-23.58-333.22,6.43l157.5,78.47C1931.89,1210.25,2000.81,1178.47,1998.8,1158.64Z"/><path class="cls-4" d="M986.84,1483.2h0a107.29,107.29,0,0,0,55.14,1.17s591.74-146.53,776.69-191.37c53.32-12.93,107.8-29.45,58.67-54.58l-68.6-34.67"/><path class="cls-7" d="M1858.31,1173.79l-20.8-33.09L1493.7,969.82a43.87,43.87,0,0,0-6.06-3l-.11,0h0a40.59,40.59,0,0,0-25.15-1.64L660.07,1164c-20.57,5.1-39,24.68-47,49.57h0a105.45,105.45,0,0,0-4.68,39.87c2,26.45,13.77,47.23,30,57l0,0,.16.08a43,43,0,0,0,6,3l343.35,170.12,825.8-201.24,36.84-17.24,17.92-47.83Z"/><path class="cls-8" d="M1858.31,1173.79l-20.8-33.09L1493.7,969.82a43.87,43.87,0,0,0-6.06-3l-.11,0h0a40.59,40.59,0,0,0-25.15-1.64L660.07,1164c-20.57,5.1-39,24.68-47,49.57h0a105.45,105.45,0,0,0-4.68,39.87c2,26.45,13.77,47.23,30,57l0,0,.16.08a43,43,0,0,0,6,3l343.35,170.12,825.8-201.24,36.84-17.24,17.92-47.83Z"/><path class="cls-9" d="M1868.76,1198.46h0c-3.15-41.77-30.67-69.44-61.46-61.81L1005,1335.5c-30.79,7.63-53.2,47.67-50,89.44h0c3.16,41.77,30.68,69.44,61.47,61.81l802.29-198.85C1849.52,1280.27,1871.92,1240.22,1868.76,1198.46Z"/><path class="cls-7" d="M1868.76,1198.46h0c-3.15-41.77-30.67-69.44-61.46-61.81L1005,1335.5c-30.79,7.63-53.2,47.67-50,89.44h0c3.16,41.77,30.68,69.44,61.47,61.81l802.29-198.85C1849.52,1280.27,1871.92,1240.22,1868.76,1198.46Zm-50.5,73.8-803.7,199.2c-24.5,6.07-46.39-15.94-48.91-49.17h0c-2.51-33.23,15.32-65.08,39.81-71.15l803.71-199.2c24.5-6.07,46.39,15.94,48.9,49.17h0C1860.58,1234.34,1842.76,1266.19,1818.26,1272.26Z"/><polyline class="cls-10" points="1310.55 1387.7 1166.2 1311.3 1326.95 1271.46"/><polyline class="cls-10" points="1471.29 1347.87 1326.95 1271.46 1487.69 1231.62"/><polyline class="cls-10" points="1632.04 1308.04 1487.69 1231.63 1648.44 1191.8"/><polyline class="cls-10" points="1792.45 1268.36 1648.11 1191.95 1808.85 1152.12"/><polyline class="cls-10" points="1150.44 1427.95 1006.1 1351.54 1166.84 1311.7"/><ellipse class="cls-11" cx="1331.49" cy="1331.62" rx="61.37" ry="44.3" transform="translate(-149.73 2494.4) rotate(-83.14)"/><ellipse class="cls-11" cx="1492.23" cy="1291.78" rx="61.37" ry="44.3" transform="translate(31.35 2618.91) rotate(-83.14)"/><ellipse class="cls-11" cx="1652.97" cy="1251.94" rx="61.37" ry="44.3" transform="translate(212.43 2743.42) rotate(-83.14)"/><ellipse class="cls-11" cx="1813.72" cy="1212.1" rx="61.37" ry="44.3" transform="translate(393.52 2867.94) rotate(-83.14)"/><polyline class="cls-12" points="1415.92 976.36 1762.41 1147.78 1762.41 1163.53"/><polyline class="cls-12" points="1248.7 1017.76 1595.25 1189.2 1595.25 1204.98"/><polyline class="cls-12" points="1081.49 1059.16 1428.1 1230.63 1428.1 1246.39"/><polyline class="cls-12" points="914.27 1100.56 1260.94 1272.06 1260.94 1287.82"/><polyline class="cls-12" points="747.06 1141.96 1093.79 1313.49 1093.79 1329.58"/><polyline class="cls-13" points="617.55 1202.14 964.1 1373.59 973.78 1379.68"/><ellipse class="cls-11" cx="1170.75" cy="1371.46" rx="61.37" ry="44.3" transform="translate(-330.81 2369.89) rotate(-83.14)"/><ellipse class="cls-11" cx="1010.01" cy="1411.3" rx="61.37" ry="44.3" transform="translate(-511.89 2245.38) rotate(-83.14)"/><ellipse class="cls-11" cx="1010.01" cy="1411.3" rx="19.76" ry="14.26" transform="translate(-511.89 2245.38) rotate(-83.14)"/><ellipse class="cls-11" cx="1170.75" cy="1371.46" rx="19.76" ry="14.26" transform="translate(-330.81 2369.89) rotate(-83.14)"/><ellipse class="cls-11" cx="1331.49" cy="1331.62" rx="19.76" ry="14.26" transform="translate(-149.73 2494.4) rotate(-83.14)"/><ellipse class="cls-11" cx="1492.23" cy="1291.78" rx="19.76" ry="14.26" transform="translate(31.35 2618.91) rotate(-83.14)"/><ellipse class="cls-11" cx="1652.97" cy="1251.94" rx="19.76" ry="14.26" transform="translate(212.43 2743.42) rotate(-83.14)"/><ellipse class="cls-11" cx="1813.72" cy="1212.1" rx="19.76" ry="14.26" transform="translate(393.52 2867.94) rotate(-83.14)"/><path class="cls-4" d="M1427.4,1032.1c-258.59,51.69-465.41,121.26-461.94,155.41s215.91,19.92,474.51-31.76c108.4-21.67,207.69-46.48,286.22-70.51l-157.51-78.46C1524,1013.82,1476.53,1022.28,1427.4,1032.1Z"/><path class="cls-14" d="M1512.82,854.66s5.59-59-11.84-84.78c-3.06,1.76-5.91,3.49-8.41,4.91-13.27,7.5-62,15.94-65.24,16.78l1.46,53.41s31.85-1.18,48.61.35a12.15,12.15,0,0,1,5.16,1.75c3.36-1.77,11.9-5.86,19.94-6.42C1508.29,852.77,1512.82,854.66,1512.82,854.66Z"/><path class="cls-15" d="M1544.23,855c-9.76-26.71,7.06-67.87-4-86-9-14.76-26-6.67-39.2.91,17.43,25.73,11.84,84.78,11.84,84.78s-4.53-1.89-10.32-14c-8,.56-16.58,4.65-19.94,6.42,13.06,7.79,20.07,39.33,44.27,58.6,27.2,21.64,49.82,16.41,50.82,5.13S1554,881.74,1544.23,855Z"/><path class="cls-16" d="M1127.89,728.15s73,127.37,96.8,141,190.54,3.59,210.92-5.89,34-23.06,30.56-55.33-26.24-38.68-42.84-38-144.29,26.21-152.78,16c8.49-11.88-46.32-173.21-46.32-173.21"/><path class="cls-17" d="M1052.55,409.32s-59.86,25.6-88.45,33.52-82.25,15.26-91.3,18.66-8.82,3.6-14.32-11.56c-5-13.75-39.38-92.85-42.17-105.54-1.48-6.77-10.36-30.47-13.94-35.13s-45.29,6.73-48.64,10.52,2,32.17,6.46,46.24,21.72,78.62,23.94,89.72c3.75,18.76,25.23,60.76,32.26,68.3,8.79,9.43,40.62,12.79,56.72,10.56,16.68-2.3,133.06-1.18,183.8-26"/><path class="cls-17" d="M1007.48,498.78c15.28,44.11,35.6,95.78,35.6,95.78l100.2,52.08L1247.61,598s-6.2-28-31-101.5c-27.68-82-132.57-107.68-184.82-78.36"/><path class="cls-18" d="M1486.82,568.92s10.3,28.28,24.34,40.85,19.26,15.34,19.16,9.2c-.13-8-15.14-26.19-9.43-28.91,8.58,8.8,22.9,21.64,32.64,41.93S1568,634.2,1568,634.2s3.74,4.16,7.6,3.07c4.34-1.23,3.23-15,3.23-15s7.34,4.24,8.12-.6-3-15.49-3-15.49,4.58.83,5.8-2-8-45.24-79.27-68.15"/><path class="cls-17" d="M1074,406.09s31.56-10.74,91.56-5.53c11.5,1,17.32,2.9,29.82,2.86,76.18-.28,163.77,2.48,184.34,15.84,38.08,24.72,144,103.31,142.91,116.9s-14.25,31.23-27.84,39.15-28-6.08-45-20.69c-20.13-17.3-29.43-19.3-45.29-28.36s-59.88-41.71-59.88-41.71-79.78,6.9-97,7.42c-40,1.19-40.11,9.81-40.11,9.81"/><path class="cls-19" d="M1379.76,419.26c-20.57-13.36-108.16-16.12-184.34-15.84-12.5,0-18.32-1.87-29.82-2.86-60-5.21-91.56,5.53-91.56,5.53l.72.52a115.62,115.62,0,0,0-22.18,3.33l0-.62-4.37,1.85a84.47,84.47,0,0,0-15.47,6.42c-20.05,8.2-50.56,20.25-68.61,25.25-28.58,7.93-82.25,15.26-91.3,18.66s-8.82,3.6-14.32-11.56c-5-13.75-39.38-92.85-42.17-105.54-1.48-6.77-10.36-30.47-13.94-35.13s-45.29,6.73-48.64,10.52,2,32.17,6.46,46.24,21.72,78.62,23.94,89.72c3.75,18.76,25.23,60.76,32.26,68.3,8.79,9.43,40.62,12.79,56.72,10.56,13-1.79,86.59-1.51,142.44-13.07,13.51,37.36,27.53,73,27.53,73l100.2,52.08L1247.61,598s-6.2-28-31-101.5c-.07-.19-.14-.38-.2-.57,5.8-1.81,15.37-3.45,31.22-3.92,17.23-.52,97-7.42,97-7.42s44,32.65,59.88,41.71,25.16,11.06,45.29,28.36c17,14.61,31.46,28.62,45,20.69s26.7-25.56,27.84-39.15S1417.84,444,1379.76,419.26Z"/><path class="cls-18" d="M1088.37,373.78c-21.52,16.42-81.56,16.19-105.87,13-25.88-3.38-36.93-23.18-30.57-31.14,9.06-11.32,75.89-10.42,94.88-39.06,9.57-14.43,14.35-65.1,17.27-82.59,4.25-25.39,19.87-33.77,20-3.11.09,20.07-.61,34.25-.61,34.25l24.68,1.13c7.07-75.86,28.58-67.37,25.19-.57-1.41,27.73-1.62,69.09-2.24,86.46-1.27,35.55,4.31,48.15,17.84,67.09,4.69,6.56-25.45,21.21-58.4,22.74-26.74,1.24-50.51-5.84-48.6-11,6-16.14,7.36-30,4-45.06"/><line class="cls-17" x1="1083.47" y1="265.15" x2="1069.18" y2="264.44"/><path class="cls-18" d="M1568,634.2c1.85-6.18-5.89-27.12-21.74-42.22"/><path class="cls-18" d="M1578.79,622.28c-.49-11.43-10.37-29.36-21.57-38.79"/><path class="cls-18" d="M1583.92,606.19s-6.37-18.13-18.07-29.64"/><path class="cls-14" d="M1071.71,1095.93c-7.57,15.93-8,20.31-8,20.31s38.49-4.16,41.48-38.16c-15-12.75-29.94-35.55-55.92-92.15l-54,42.36,48.07,62.84C1048.16,1089.92,1063.7,1086.91,1071.71,1095.93Z"/><path class="cls-15" d="M1130.13,1098.46c-3-7.18-15.85-14-24.91-20.38-3,34-41.48,38.16-41.48,38.16s.4-4.38,8-20.31c-8-9-23.55-6-28.36-4.8l.4.52s-22.32,46.06-69.11,69.16c-16.36,8.07-20,30.33,14.62,32.39,53.57,3.2,97.31-38.83,112.37-51.24C1119.77,1127,1138.05,1117.46,1130.13,1098.46Z"/><path class="cls-16" d="M1054.52,623.84s-131.18,106.58-161.75,132-52.72,52.65-49.29,81.52S931.83,990.78,938.63,999s35.66,42.33,56,41.41,75.58-23.69,70.48-54.52-89.87-155.66-89.87-155.66,65.86-35.29,94.42-48.87,72.26-27.17,108.15-52.65,80.22-52.58,72.61-111.61c-1.11-8.67-2.85-19.15-2.85-19.15s-37,18.11-125.84,14.72c-40.73-1.56-78.69-18.12-78.69-18.12Z"/><line class="cls-16" x1="1054.52" y1="623.84" x2="1074.04" y2="604.98"/><circle class="cls-4" cx="956.68" cy="350.91" r="6.51"/><path class="cls-4" d="M1083.63,311.36a5,5,0,0,0-1,2.29,1.71,1.71,0,0,0,1.3,1.87,1.69,1.69,0,0,0,1.59-.95,4.88,4.88,0,0,0,.47-1.89,5.5,5.5,0,0,0-.09-1.62c-.16-.92-1.61-.82-2.3.3"/><path class="cls-4" d="M1066.42,309.68a3.59,3.59,0,0,0-.31,3.43,1.26,1.26,0,0,0,.43.56c.72.46,1.52-.5,1.75-1.33a9.25,9.25,0,0,0,.32-2.72,1.42,1.42,0,0,0-.37-1.08,1.06,1.06,0,0,0-1.48.41,3.07,3.07,0,0,0-.27,1.7"/><path class="cls-15" d="M1008,1137.77s18,0,25.54,7.13"/><path class="cls-15" d="M1021.11,1124.32s12.4-2.84,22.59,5.84"/><path class="cls-15" d="M1029.89,1113.49s17.21-1.82,25.89,6.11"/><path class="cls-15" d="M1499.7,870.62s13.5.64,20.29-2"/><path class="cls-15" d="M1506.49,882.62a52.27,52.27,0,0,0,18.63,0"/><path class="cls-15" d="M1515.71,894.77a48.22,48.22,0,0,0,14.41,0"/><path class="cls-15" d="M962.68,1175.77s13.2,12.32,38.38,10.54c20.05-1.42,51-11.26,75.68-35.38,28.3-27.67,57.92-37.62,49-58.27"/><path class="cls-12" d="M1518,762c12.14,2.09,18.56,7,17,34.55s-5.66,50.19,9.43,72.08,35.39,40.17,27,50.09"/><path class="cls-12" d="M1205.11,608.86s5.91,27.68,0,32.76-6.17,8.1,0,8.86,2.39,6-18,15.85-58.79,45.29-105.63,67.18-73.27,43.78-79.68,44.53-20.76,6-17,7.55-40,25.67-40,38.5,24.91,79.25,43.78,90.57,1.51,6.8,9.81,12.84,35.09,48.94,46.61,58.43,5.93,2.71,2.3,11,8.91,7.87,0,22"/><path class="cls-12" d="M1211.76,703.74s41.92,60,36.94,75.06-4.83,34.72,0,21.89,5.08-6.8,6.09,1.51-2.3,6.8,6.15,2.64,22.79,5.66,71.1-1.13,80.39-17.36,79.82-11.33,25.86-6.79,32.65-6.79,18.19,6.35,19.39,10.92"/><path class="cls-16" d="M1058.83,270.84s29.34,7.53,74.1,4.12c1.35,17.74-.72,24-.72,24s-44.22,4.36-77.5-5.46A184.12,184.12,0,0,1,1058.83,270.84Z"/><path class="cls-12" d="M1044.91,421.72s-11.28,4.73-15,14.22c-2.43,6.2,29.92,22.32,72.94,15s55.59-21.52,57.86-31.71-18.43-9.9-18.43-9.9"/><path class="cls-20" d="M764.63,214.46c1-1.08,12.38-17.74,14.79-18.89a5.06,5.06,0,0,1,6.91,3.25c1.71,8.6-4,10.64-6.25,17.74-1.66,5.18-.61,10.33-.15,15.69a34.74,34.74,0,0,0,7.86,18.61s10.27,24.19,5.16,39.58-52.41-27.26-52.41-27.26"/><path class="cls-20" d="M752.07,235c1.43-5,1.74-11.32,5.19-14.94,3-3.14,8.36-6.43,12.17-8.25,2.62-1.26,6.36-2.09,8.28.43,3.45,4.54-1.15,12.59-4.56,15.78s-7.19,3.19-6.54,8.65"/><path class="cls-20" d="M743.23,238.72c4-12.68,21.74-5.5,27.89-.29a8.33,8.33,0,0,1,3.06,7c-.73,6-5.66,4.42-9.09,7"/><path class="cls-20" d="M746.28,255.61c4,2.9,15.56,10.41,19.61,2.23,3.37-6.8-6.37-11.42-10.25-13.47-3.22-1.71-10-6.52-13.58-4.73-2.71,1.34-3.3,5.25-4.22,8.09-2.59,8.06-3.37,15-1.88,23,2.37,12.8,3.75,23.51,12.22,32.52,4.73,5,7.06,11.18,11,16.78,1.32,1.86,1,1.85,2.58,2.69a34.62,34.62,0,0,0,36-5.91c1.69-14.62,5.57-31.91,8.52-47.33,1.28-6.73,1.63-12.91.19-19.39a70.19,70.19,0,0,0-3.69-10.46c-1.24-3.14-2.13-7.59-3.93-10.21s-4.59-3.14-7.5-4c-5.13-1.57-8-5.87-12.58-8.46-4.16-2.38-7,2.15-6.12,6.87,1,5.19,4.61,10.76,7.77,14.47,2.3,2.7,6,4.4,7.11,8.14,1.52,5.4-4.19,12.68-5.4,18.39a30,30,0,0,0-.08,11.57c1,5.87,3.81,8.06,7.33,12.26"/><path class="cls-20" d="M781.86,278.17c-.66-.56-.75-1.33-1.44-2.2-1.45-1.81-4.19-2.55-6.2-3.19-6.17-2-14.26-1.73-20.65-2.55"/><path class="cls-18" d="M773.74,228.74a85.74,85.74,0,0,1-3.14,8.83"/><path class="cls-12" d="M861.43,458.44a46.81,46.81,0,0,1,5.14,19.61"/><path class="cls-12" d="M770.6,330.5s25.91-.17,31.57-11.49"/><polygon class="cls-21" points="777.8 772.48 769.16 770.43 797.34 651.52 804.51 640.74 805.98 653.57 777.8 772.48"/><path class="cls-12" d="M870.68,468.24s19.81,13,27.17,9.17-27.74-11.8-9.62-15.2,33.4-6.79,33.4-6.79"/><path class="cls-12" d="M1020.13,447.5s107.76,137.56,150.59,20.74"/><path class="cls-22" d="M780.57,714.23c7.55-3.4,8.87-11.32,8.87-11.32,1.13,16.22,9.06,17.92,10.19,7.92s2.45-14.34-13.78-14.91-19.81,13-19.81,13a53.78,53.78,0,0,1-47.55,0c-25.67-12.45-38.25-51.14-38.25-51.14l-20.63,16.8s29.18,64,84.35,61.14c21.51-1.13,32.55-6.51,32.55-6.51"/><path class="cls-22" d="M592.71,739.71v64.91s-12.45,2.64-12.45,7.55,37,20.78,57.37,20.78,0-18.52-35.1-29.08V739.71"/><path class="cls-22" d="M648.35,727.53v64.92s-12.46,2.64-12.46,7.55,37,20.78,57.37,20.78,0-18.52-35.1-29.09V727.53"/><ellipse class="cls-22" cx="624.66" cy="699.57" rx="78.47" ry="50.1" transform="translate(-85.89 87.43) rotate(-7.49)"/><ellipse class="cls-22" cx="624.66" cy="630.31" rx="51.34" ry="32.78" transform="translate(-76.86 86.84) rotate(-7.49)"/><path class="cls-23" d="M650.65,766.51s11.89-36.23,34-59.44C739,692.41,750.28,689,750.28,689s-34,41.36-45.29,88.62c-22.07,5.92-62.27,13.85-62.27,13.85L649,773.08"/><path class="cls-22" d="M589.37,679.44c-1.61.77-39.22,19.33-27.35,49.65,11.82,30.14,67.15,34.82,87.48,34.07l.81,21.5c-2.07.08-31.1,1-59.14-7.89-20.66-6.54-40.78-18.4-49.17-39.84-8-20.3-3.48-40.9,12.62-58A94.75,94.75,0,0,1,580.1,660"/><path class="cls-22" d="M644.55,766.32s4-15.71,11.75-21.12,7.43.3,2.4,6.16c-2.14,2.51-.21,4.21-.21,4.21s8.93-4.12,13.86-11.34c6.66-9.76,16.89-7.25,12,6.42-4.5,12.53-17.25,34-38.11,34.07"/><path class="cls-24" d="M635.81,649.05a32.13,32.13,0,0,1-21.71-3.69c-1.38-.83-1.62-2.78-.55-4.35a3.46,3.46,0,0,1,4.45-1.34c8.55,5.14,22.19,5.22,30.22-3.55a2.94,2.94,0,1,1,4.27,3.92A29.32,29.32,0,0,1,635.81,649.05Z"/><ellipse class="cls-24" cx="655.59" cy="621.85" rx="7.17" ry="5.97" transform="translate(-20.16 1221.73) rotate(-85.08)"/><ellipse class="cls-24" cx="608.54" cy="627.8" rx="7.17" ry="5.97" transform="translate(-69.11 1180.29) rotate(-85.08)"/><path class="cls-22" d="M790.29,707.52s-13.36,1.54-18.19,8.16c-4.51,6.18-2.12,14,7.74,15.06,13.19,1.42,17-3.3,19-8.43s2-15.43-1.82-17.31"/><path class="cls-22" d="M789.44,702.91c1.13,16.22,9.06,17.92,10.19,7.92s2.45-14.34-13.78-14.91-19.81,13-19.81,13"/><path class="cls-22" d="M383.23,1111.1V1176s-12.46,2.64-12.46,7.55,37,20.78,57.37,20.78,0-18.52-35.1-29.08V1111.1"/><path class="cls-24" d="M491.88,636.84s-30.68,12.88-48.79,41.25-46.42,26.68-60,39.7V816.3s13.81-17.69,32.1-22.43,33.57-5.86,49.42-29.36,27.28-26.34,27.28-26.34"/><path class="cls-22" d="M438.86,1098.93v64.91s-12.45,2.64-12.45,7.55,37,20.78,57.37,20.78,0-18.52-35.1-29.09v-64.15"/><ellipse class="cls-22" cx="415.18" cy="1070.96" rx="78.47" ry="50.1" transform="translate(-136.11 63.29) rotate(-7.49)"/><rect class="cls-10" x="491.88" y="636.84" width="4.59" height="567.5"/><path class="cls-22" d="M481.87,1093.69s13.3,6.79,21.23,3.4,10.21-22,5.67-26.13-21.24.44-21.24.44"/><ellipse class="cls-22" cx="415.18" cy="1001.7" rx="51.34" ry="32.78" transform="translate(-127.08 62.69) rotate(-7.49)"/><path class="cls-22" d="M377.76,1057.86c-.4,1.74-9.4,42.7,21.68,52.36,30.92,9.62,69.15-30.67,81.27-47L498,1076c-1.24,1.66-18.66,24.9-43.11,41.24-18,12-39.85,20.34-61.83,13.51-20.82-6.48-34.11-22.85-37.41-46.11a94.87,94.87,0,0,1,1.16-31.7"/><path class="cls-24" d="M435.67,1015.89A32.13,32.13,0,0,1,414,1012.2c-1.38-.83-1.63-2.78-.55-4.35a3.44,3.44,0,0,1,4.44-1.34c8.55,5.14,22.19,5.22,30.23-3.55a2.94,2.94,0,1,1,4.27,3.92A29.32,29.32,0,0,1,435.67,1015.89Z"/><ellipse class="cls-24" cx="452.09" cy="987.42" rx="7.17" ry="5.97" transform="translate(-570.45 1353.22) rotate(-85.08)"/><ellipse class="cls-24" cx="410.46" cy="994.83" rx="7.17" ry="5.97" transform="translate(-615.89 1318.51) rotate(-85.08)"/><path class="cls-22" d="M475.9,1069.27s3.23-16.72,9.65-21.06,8.11,2.64,8.11,2.64,21.06-12.93,21.1,5.83c0,16.48-19.09,22.35-19.09,22.35"/><circle class="cls-10" cx="494.18" cy="630.05" r="6.84"/><line class="cls-12" x1="1029.1" y1="1483.61" x2="1029.1" y2="1467.04"/><line class="cls-12" x1="1207.8" y1="1439.83" x2="1207.8" y2="1423.26"/><line class="cls-12" x1="1386.5" y1="1396.05" x2="1386.5" y2="1379.48"/><line class="cls-12" x1="1565.19" y1="1352.27" x2="1565.19" y2="1335.7"/><line class="cls-12" x1="1743.89" y1="1308.49" x2="1743.89" y2="1291.92"/><line class="cls-13" x1="1854.47" y1="1259.38" x2="1845.15" y2="1251.94"/></svg>