<svg xmlns="http://www.w3.org/2000/svg" xmlns:xlink="http://www.w3.org/1999/xlink" viewBox="0 0 2240.78 1683.13"><defs><style>.cls-1,.cls-11,.cls-2,.cls-33,.cls-38{fill:none;}.cls-10,.cls-11,.cls-13,.cls-14,.cls-15,.cls-16,.cls-17,.cls-18,.cls-19,.cls-2,.cls-20,.cls-21,.cls-22,.cls-23,.cls-24,.cls-25,.cls-26,.cls-27,.cls-28,.cls-29,.cls-30,.cls-31,.cls-32,.cls-33,.cls-34,.cls-35,.cls-36,.cls-37,.cls-38,.cls-39,.cls-4,.cls-5,.cls-7,.cls-8,.cls-9{stroke:#000;}.cls-2,.cls-38{stroke-linecap:round;}.cls-13,.cls-14,.cls-2,.cls-23,.cls-24,.cls-31,.cls-32,.cls-33,.cls-34,.cls-35,.cls-39,.cls-5,.cls-8{stroke-miterlimit:10;}.cls-2{stroke-width:0.5px;}.cls-3{isolation:isolate;}.cls-4{fill:#debb97;}.cls-10,.cls-11,.cls-15,.cls-16,.cls-17,.cls-18,.cls-19,.cls-20,.cls-21,.cls-22,.cls-25,.cls-26,.cls-27,.cls-28,.cls-29,.cls-30,.cls-36,.cls-37,.cls-38,.cls-4,.cls-7,.cls-9{stroke-linejoin:round;}.cls-10,.cls-11,.cls-13,.cls-14,.cls-15,.cls-16,.cls-17,.cls-18,.cls-19,.cls-20,.cls-21,.cls-22,.cls-23,.cls-24,.cls-25,.cls-26,.cls-27,.cls-28,.cls-29,.cls-30,.cls-31,.cls-32,.cls-33,.cls-34,.cls-35,.cls-36,.cls-37,.cls-38,.cls-39,.cls-4,.cls-5,.cls-7,.cls-8,.cls-9{stroke-width:2px;}.cls-37,.cls-5{fill:#5a8bba;}.cls-12,.cls-6{opacity:0.26;}.cls-6{fill:url(#_10_dpi_20_2);}.cls-7{fill:#313d31;}.cls-8{fill:#e6dae7;}.cls-9{fill:#1d271b;}.cls-10{fill:#c88e72;}.cls-12{mix-blend-mode:multiply;fill:url(#_10_dpi_20_4);}.cls-13{fill:#391d17;}.cls-14{fill:#684e2f;}.cls-15{fill:#92b193;}.cls-16,.cls-32{fill:#f4eed8;}.cls-17{fill:#cbae78;}.cls-18{fill:#e84e0f;}.cls-19{fill:#8ebbc4;}.cls-20{fill:#9e7842;}.cls-21,.cls-39{fill:#fff;}.cls-23,.cls-27{fill:#78572c;}.cls-24{fill:#d2805f;}.cls-25{fill:#929292;}.cls-26{fill:#e0d5e0;}.cls-28{fill:#4c3216;}.cls-29{fill:#6b6b6a;}.cls-30,.cls-31{fill:#5d210d;}.cls-35{fill:#8c3513;}.cls-36{fill:#0085ac;}</style><pattern id="_10_dpi_20_2" data-name="10 dpi 20% 2" width="28.8" height="28.8" patternTransform="translate(255.03 2658.32) scale(4.43)" patternUnits="userSpaceOnUse" viewBox="0 0 28.8 28.8"><rect class="cls-1" width="28.8" height="28.8"/><path class="cls-2" d="M2.75,28.08c.37-.06.71.42,1,.62a3.32,3.32,0,0,1,1.61,2,3.61,3.61,0,0,0,.31,1.53,4.72,4.72,0,0,0,1.28.93c.65.45.51,1.81,1.16,2.26s1.23,1,1.9,1.37A34.67,34.67,0,0,0,14.4,39c1,.41,2.81-.26,3.69.3a10,10,0,0,1,1.71,1.07c.57.56.51,1.1.75,1.81s1.08.92,1.74,1.32a19.14,19.14,0,0,0,1.83,1c.56.27,1.25.4,1.77.7s.25.63,0,1-.48.53.1.83c.28.15.52.3.77.46"/><path class="cls-2" d="M20.75,29c.26.66,1.3.68,1.47,1.45.12.58-.58.82-.32,1.38s1.34.72,2,.84,2,.16,2.4.76c.3.42-.21.8.07,1.13s.87.23,1.14.52.11.39.25.53.55.17.75.47"/><path class="cls-2" d="M5.58,28c0,.8,1.64,1.38,2.07,2s0,1.37.51,2"/><path class="cls-2" d="M17.12,28.42c0,.07,0,.09,0,.14.29.56.94.8,1.14,1.47a1.57,1.57,0,0,1,0,.86c-.16,1,.58,1.15,1.3,1.62"/><path class="cls-2" d="M27.76,21.86c.59.76,1.82,1,2.63,1.49A3.68,3.68,0,0,1,32,25c.64,1,1.61,1.07,2.67,1.49A10,10,0,0,1,37,27.85c.53.4.91,1,1.47,1.34"/><path class="cls-2" d="M26.68,18.53c2.05.6,3.6,1.86,5.4,2.95A26.22,26.22,0,0,1,37,25.32a12.19,12.19,0,0,0,4,2.15c1.22.51,2.1,1.68,3.33,2.06"/><path class="cls-2" d="M26.76,13.78c1.33.5,2.43,1.57,3.81,2a11.41,11.41,0,0,1,4.59,2.72c1.06.93.49,1.1.25,2.11s2,1.35,2.78,1.93c1.36,1,3,1.26,4.45,2.1.81.48,1,1.22,1.68,1.69,1.07.71,2.43,1,3.49,1.75a4.81,4.81,0,0,0,1.95,1"/><path class="cls-2" d="M26.1,8.4c.06.46.39.65.79.95a47.71,47.71,0,0,0,6.26,3.47c2,1,2.34,2,4.24,3.22a14.8,14.8,0,0,1,3.24,2.17c1.32,1.42-.39.83-.72,1.76s3.3,1.71,3.73,1.92c1.23.58,2.85.9,3.94,1.71,1.3.95-.3.86,0,1.81.19.75,2.27,1.23,2.82,1.47A13.63,13.63,0,0,1,52.47,28,10.07,10.07,0,0,0,55,29.53"/><path class="cls-2" d="M28.16,7.22a17.72,17.72,0,0,1,2.21,1.69,28.8,28.8,0,0,0,6.93,3.57A24.26,24.26,0,0,1,42,15.14c1.07.68,2.26,1.07,3.37,1.66.68.36-.16,1.12.29,1.81s2.2.85,2.64,1.41c.85,1.1,3,1.39,3.34,2.82-.61.25-.52.61-.09,1,.85.74,2.42.53,3.44.91a13.38,13.38,0,0,1,2.34,1.55c1,.63,2,1.25,3.05,1.8"/><path class="cls-2" d="M26.05.61c.62-.11,1.61.86,2.11,1.17a26.84,26.84,0,0,0,2.89,1.56,3.54,3.54,0,0,1,1.84,1.25c.42.77-.18,1.82.37,2.4s1.51,2.44,2.37,2.73a38.07,38.07,0,0,1,6.45,3c.78.42,1.49-.78,1.88,0s.65.69,1.3.83a5.93,5.93,0,0,1,3.25,1.37,11.08,11.08,0,0,1,1.19,1.68c.36.61.43,1.34,1,1.78s1.92.29,2.24,1.2c.11.31,0,.31.23.55a6.63,6.63,0,0,0,1.17.65,11,11,0,0,0,1.19.59c.3.12.72.19.91.47"/><path class="cls-2" d="M27.84,16.16a11.69,11.69,0,0,0,1.36.72c.72.42,1.37.86,2.12,1.22s1.56,1.07,2.43,1.44"/><path class="cls-2" d="M24.88,22.58a5.7,5.7,0,0,0,1.53.74c.71.31,1.37.69,2.06,1,.31.15.65.14,1,.27s.72.64,1.17.83"/><path class="cls-2" d="M-1,21.86c.59.76,1.82,1,2.63,1.49A3.68,3.68,0,0,1,3.18,25c.64,1,1.61,1.07,2.67,1.49a10,10,0,0,1,2.31,1.33c.53.4.92,1,1.47,1.34"/><path class="cls-2" d="M-2.12,18.53c2.05.6,3.6,1.86,5.4,2.95a25.9,25.9,0,0,1,4.89,3.84,12.19,12.19,0,0,0,4,2.15c1.22.51,2.1,1.68,3.33,2.06"/><path class="cls-2" d="M-2,13.78c1.33.5,2.43,1.57,3.81,2a11.41,11.41,0,0,1,4.59,2.72c1.06.93.49,1.1.25,2.11s2,1.35,2.78,1.93c1.36,1,3,1.26,4.45,2.1.81.48,1,1.22,1.68,1.69,1.07.71,2.43,1,3.49,1.75a4.81,4.81,0,0,0,1.95,1"/><path class="cls-2" d="M-2.7,8.4c.06.46.39.65.79.95a47.71,47.71,0,0,0,6.26,3.47c2,1,2.34,2,4.24,3.22a14.8,14.8,0,0,1,3.24,2.17c1.32,1.42-.39.83-.72,1.76s3.3,1.71,3.73,1.92c1.23.58,2.85.9,3.94,1.71,1.3.95-.3.86-.05,1.81.19.75,2.27,1.23,2.82,1.47A13.63,13.63,0,0,1,23.67,28a10.07,10.07,0,0,0,2.56,1.57"/><path class="cls-2" d="M-.64,7.22A17.72,17.72,0,0,1,1.57,8.91,28.8,28.8,0,0,0,8.5,12.48a24.26,24.26,0,0,1,4.67,2.66c1.07.68,2.26,1.07,3.37,1.66.68.36-.16,1.12.29,1.81s2.2.85,2.64,1.41c.85,1.1,3,1.39,3.34,2.82-.61.25-.52.61-.09,1,.85.74,2.42.53,3.44.91a13.38,13.38,0,0,1,2.34,1.55c1,.63,2,1.25,3.05,1.8"/><path class="cls-2" d="M-2.75.61c.62-.11,1.61.86,2.12,1.17A25.78,25.78,0,0,0,2.25,3.34,3.54,3.54,0,0,1,4.09,4.59c.42.77-.18,1.82.37,2.4S6,9.43,6.83,9.72a38.07,38.07,0,0,1,6.45,3c.78.42,1.49-.78,1.88,0s.65.69,1.3.83a5.93,5.93,0,0,1,3.25,1.37,11.08,11.08,0,0,1,1.19,1.68c.36.61.43,1.34,1,1.78s1.92.29,2.24,1.2c.11.31,0,.31.23.55a6.63,6.63,0,0,0,1.17.65,12,12,0,0,0,1.19.59c.3.12.72.19.91.47"/><path class="cls-2" d="M2.75-.72c.37-.06.71.42,1,.62a3.32,3.32,0,0,1,1.61,2,3.64,3.64,0,0,0,.31,1.53,4.72,4.72,0,0,0,1.28.93c.65.45.51,1.8,1.16,2.26S9.3,7.61,10,8a34.67,34.67,0,0,0,4.43,2.13c1,.41,2.81-.26,3.69.3a10,10,0,0,1,1.71,1.07c.57.56.51,1.1.75,1.81s1.08.92,1.74,1.32,1.2.7,1.83,1,1.25.4,1.77.7.25.63,0,1-.48.53.1.83c.28.15.52.3.77.46"/><path class="cls-2" d="M9.5.32c.9.5,1.68,1.71,1,2.17s-.83.71,0,1.2c1.14.68.62,1.65,1.84,2.2.75.34,1.51.7,2.28,1a1.31,1.31,0,0,0,1.19,0,3.77,3.77,0,0,1,3.35.32A13.3,13.3,0,0,1,21,8.28a1.12,1.12,0,0,1,.62,1.07c-.08.64-.31,1,.18,1.49a4.54,4.54,0,0,0,1.37.79,1.71,1.71,0,0,1,.72.61c.11.23,0,.39.21.58s.79.21,1.07.35.63.39,1,.53a2,2,0,0,0,.59.12c.4.08.33.16.75.42"/><path class="cls-2" d="M15.21.61c1.06.65-.22,1-.9,2-.57.88-.49,1.09.53,1.37,1.41.38,4.56,1.41,5.93,1.94a6.16,6.16,0,0,1,1.76.92,2.72,2.72,0,0,0,2,.6,2.66,2.66,0,0,1,1.29.38c.33.31.14.82.47,1.21"/><path class="cls-2" d="M20.75.24c.26.66,1.3.68,1.47,1.45.12.58-.58.81-.32,1.38s1.34.72,2,.84,2,.16,2.4.76c.3.42-.21.8.07,1.13s.87.23,1.14.52c.14.14.11.39.25.53s.55.17.75.47"/><path class="cls-2" d="M-1,16.16a11.07,11.07,0,0,0,1.37.72c.71.42,1.36.86,2.11,1.22S4.08,19.17,5,19.54"/><path class="cls-2" d="M23.87,25.87c.3,0,.48.17.73.31.57.31,1.18.52,1.73.87s1.39.8,2.05,1.25a25.15,25.15,0,0,0,3.11,1.57"/><path class="cls-2" d="M5.58-.84c0,.8,1.64,1.38,2.07,2s0,1.37.51,2"/><path class="cls-2" d="M15,8.29a4.38,4.38,0,0,0,1.77.21,5.78,5.78,0,0,1,2.53.7"/><path class="cls-2" d="M17.12-.38c0,.07,0,.09,0,.14.29.56.94.8,1.14,1.47a1.57,1.57,0,0,1,0,.86c-.16,1,.58,1.15,1.3,1.61"/><path class="cls-2" d="M24.66,1.91c.57.43,1.13.87,1.72,1.28s1,.45,1.47.72c1,.49,2.78,1.18,3.19,2.25"/><path class="cls-2" d="M24.66,10.41c1.18,1,2.77,1.31,4,2.17a20.37,20.37,0,0,0,2.22,1.29"/><path class="cls-2" d="M14.33,18.41c.21.46.2,1,.56,1.43a5.09,5.09,0,0,0,1.55.81c.42.21.84.44,1.26.64"/><path class="cls-2" d="M8.41,18.12c0,.36.33.69.4,1.05.14.78,0,.89.6,1.49"/><path class="cls-2" d="M16,23.91a9.58,9.58,0,0,0,1.42,1"/><path class="cls-2" d="M17.45,15.45a3.56,3.56,0,0,1,1.26.91c.41.55.35,1.21,1,1.59"/><path class="cls-2" d="M-3.92,22.58a5.85,5.85,0,0,0,1.53.74c.71.31,1.37.69,2.06,1,.31.15.65.14,1,.27s.72.64,1.17.83"/><path class="cls-2" d="M9.41,24.25c.11.22.37.26.59.35a10.76,10.76,0,0,1,1.6.87,8.4,8.4,0,0,0,1.05.5c.3.14.53.42.84.53"/><path class="cls-2" d="M12.12,1.08c1.09.53.08,1.42.17,2.12"/><path class="cls-2" d="M-29.44,7.22a17.72,17.72,0,0,1,2.21,1.69,28.8,28.8,0,0,0,6.93,3.57,24.26,24.26,0,0,1,4.67,2.66c1.07.68,2.26,1.07,3.37,1.66.68.36-.16,1.12.29,1.81s2.2.85,2.64,1.41c.85,1.1,3,1.39,3.34,2.82-.61.25-.52.61-.09,1,.85.74,2.42.53,3.45.91A13.68,13.68,0,0,1-.3,26.29c1,.63,2,1.25,3.05,1.8"/><path class="cls-2" d="M-4.93,25.87c.3,0,.48.17.73.31.57.31,1.18.52,1.73.87s1.39.8,2.05,1.25a25.15,25.15,0,0,0,3.11,1.57"/><path class="cls-2" d="M-4.14,1.91c.57.43,1.13.87,1.72,1.28a15.56,15.56,0,0,0,1.48.72C0,4.4,1.83,5.09,2.24,6.16"/><path class="cls-2" d="M-4.14,10.41c1.18,1,2.77,1.31,4,2.17a20.37,20.37,0,0,0,2.22,1.29"/><path class="cls-2" d="M27.76-6.94c.59.76,1.82,1,2.63,1.49A3.68,3.68,0,0,1,32-3.77c.64,1,1.61,1.07,2.67,1.49A9.64,9.64,0,0,1,37-.95c.53.4.91,1,1.47,1.34"/><path class="cls-2" d="M26.68-10.27c2.05.6,3.6,1.86,5.4,2.95A26.22,26.22,0,0,1,37-3.48a12,12,0,0,0,4,2.14C42.15-.82,43,.35,44.26.73"/><path class="cls-2" d="M26.76-15c1.33.5,2.43,1.57,3.81,2a11.41,11.41,0,0,1,4.59,2.72c1.06.93.49,1.1.25,2.1s2,1.36,2.78,1.94c1.36,1,3,1.26,4.45,2.1.81.48,1,1.22,1.68,1.69,1.07.71,2.43,1,3.49,1.75a4.81,4.81,0,0,0,1.95,1"/><path class="cls-2" d="M26.1-20.4c.06.46.39.65.79.95A47.71,47.71,0,0,0,33.15-16c2,1.05,2.34,2.05,4.24,3.22a14.8,14.8,0,0,1,3.24,2.17c1.32,1.42-.39.83-.72,1.76s3.3,1.71,3.73,1.92c1.23.58,2.85.9,3.94,1.71,1.3,1-.3.86,0,1.81.19.75,2.27,1.23,2.82,1.47A13.63,13.63,0,0,1,52.47-.84,10.07,10.07,0,0,0,55,.73"/><path class="cls-2" d="M-1-6.94c.59.76,1.82,1,2.63,1.49A3.68,3.68,0,0,1,3.18-3.77c.64,1,1.61,1.07,2.67,1.49A9.64,9.64,0,0,1,8.16-.95c.53.4.92,1,1.47,1.34"/><path class="cls-2" d="M-2.12-10.27c2.05.6,3.6,1.86,5.4,2.95A25.9,25.9,0,0,1,8.17-3.48a12,12,0,0,0,4,2.14c1.22.52,2.1,1.69,3.33,2.07"/><path class="cls-2" d="M-2-15c1.33.5,2.43,1.57,3.81,2a11.41,11.41,0,0,1,4.59,2.72c1.06.93.49,1.1.25,2.1s2,1.36,2.78,1.94c1.36,1,3,1.26,4.45,2.1.81.48,1,1.22,1.68,1.69,1.07.71,2.43,1,3.49,1.75A4.81,4.81,0,0,0,21,.31"/><path class="cls-2" d="M-2.7-20.4c.06.46.39.65.79.95A47.71,47.71,0,0,0,4.35-16c2,1.05,2.34,2.05,4.24,3.22a14.8,14.8,0,0,1,3.24,2.17c1.32,1.42-.39.83-.72,1.76s3.3,1.71,3.73,1.92c1.23.58,2.85.9,3.94,1.71,1.3,1-.3.86-.05,1.81.19.75,2.27,1.23,2.82,1.47A13.63,13.63,0,0,1,23.67-.84,10.07,10.07,0,0,0,26.23.73"/><path class="cls-2" d="M23.87-2.93c.3,0,.48.17.73.31.57.31,1.18.52,1.73.87s1.39.8,2.05,1.25a25.15,25.15,0,0,0,3.11,1.57"/><path class="cls-2" d="M-4.93-2.93c.3,0,.48.17.73.31.57.31,1.18.52,1.73.87S-1.08-.95-.42-.5A25.15,25.15,0,0,0,2.69,1.07"/></pattern><pattern id="_10_dpi_20_4" data-name="10 dpi 20% 4" width="28.8" height="28.8" patternTransform="translate(-766.66 1636.6) scale(4.43)" patternUnits="userSpaceOnUse" viewBox="0 0 28.8 28.8"><rect class="cls-1" width="28.8" height="28.8"/><path class="cls-2" d="M12.72,10.43c0,.15,0,.24.21.25,0-.15-.1-.15-.21-.21"/><path class="cls-2" d="M22,4.14c-.15.05-.21.13-.15.3.27.08.42-.13.35-.37a.27.27,0,0,0-.24.2"/><path class="cls-2" d="M23.05,17.27c-.18.74.75,0,.13-.17a.17.17,0,0,0-.13.17"/><path class="cls-2" d="M7.09,21.77c0,.12.06.2.21.19s0-.12,0-.19"/><path class="cls-2" d="M4.84,13.18a1.89,1.89,0,0,1-.09.21c.16,0,.11,0,.23,0s-.06-.1-.14-.08"/><path class="cls-2" d="M6.84,3.85c-.15.16-.06.4.21.37.23-.41-.39-.64-.42-.2,0,.59.93-.29.26-.34a.27.27,0,0,0,.08.4.26.26,0,0,0,0-.42.36.36,0,0,0,.08.4"/><path class="cls-2" d="M16.18,23.72c0-.06.06,0,0-.12s-.61.52-.45.71.66-.26.56-.53c-.53-.08-.34.65,0,.39s-.48-.7-.2-.07"/><path class="cls-2" d="M2.34,16.27c.07,0,.15.06.16-.17-.25,0-.25.26,0,.29"/><path class="cls-2" d="M27.22,8.06c.07,0,.13.07.16-.13a.52.52,0,0,0-.18.18.12.12,0,0,0,.14,0"/><path class="cls-2" d="M28.09,25.31s-.05,0,0,0a.75.75,0,0,1,0-.15c-.07,0,0,.06,0,.08"/><path class="cls-2" d="M1.34.64l0,.13"/><path class="cls-2" d="M16.05,5.89a.43.43,0,0,0-.21.17"/><path class="cls-2" d="M18.43,7a.24.24,0,0,1,.08.09"/><path class="cls-2" d="M2.59,25.22s0,0,0,0"/><path class="cls-2" d="M5.22,26.43c0,.12,0,.2.15.21a.27.27,0,0,0-.18-.38.39.39,0,0,0,0,.26"/><path class="cls-2" d="M4.09,6.27c-.09,0-.16,0-.18.11a.27.27,0,0,0,.44-.19A.32.32,0,0,0,4,6.45a.17.17,0,0,0,.22.07"/><path class="cls-2" d="M26.72,1a.62.62,0,0,0,0,.33"/><path class="cls-2" d="M16.18,14.72a.79.79,0,0,0-.38.21"/><path class="cls-2" d="M21.47,27.68c.06.09.06.17.2.16,0-.19-.13-.32-.32-.34-.1.23.14.64.39.38s0-.71-.31-.57a.4.4,0,0,0,.4.43.14.14,0,0,0,.05-.18"/><path class="cls-2" d="M24.3,22.27c0,.06,0,.09,0,.13s0-.11,0-.18"/><path class="cls-2" d="M12.05,29c.08,0,.11.09.21.08s-.09,0-.17-.08"/><path class="cls-2" d="M28.59,13.64c-.09,0-.1,0,0,0"/><path class="cls-2" d="M9.63,16.77s.07.06.09,0,0-.05,0-.09"/><path class="cls-2" d="M21.93,10.22v0"/><path class="cls-2" d="M-.21,13.64c-.09,0-.1,0,0,0"/><path class="cls-2" d="M12.05.17c.08,0,.11.09.21.08s-.09,0-.17-.08"/></pattern></defs><title>Rest</title><g class="cls-3"><g id="Layer_1" data-name="Layer 1"><polygon class="cls-4" points="1731.38 1457.52 163.24 1457.52 509.4 1147.43 2077.53 1147.43 1731.38 1457.52"/><polygon class="cls-5" points="1639.79 1396.03 372.64 1396.03 606 1187.57 1873.14 1187.57 1639.79 1396.03"/><polygon class="cls-6" points="1639.79 1396.03 372.64 1396.03 606 1187.57 1873.14 1187.57 1639.79 1396.03"/><path d="M1696,1270.64H576.08a3.61,3.61,0,0,1-2.41-6.31l94.86-84.84-86.55-6a7.58,7.58,0,0,1-4.54-13.22l14.54-13h1242Z"/><path d="M492.87,1162.82c16.19-1.59,34.18-2.47,53.12-2.47,71,0,128.59,12.43,128.59,27.76S617,1215.88,546,1215.88c-40.76,0-77.09-4.1-100.64-10.49"/><path class="cls-7" d="M875.23,974.71H845.52a7,7,0,0,0-4.71,1.8h0l-126.4,114.21,42.13,136.84L882.33,1114V981.81A7.1,7.1,0,0,0,875.23,974.71Z"/><path class="cls-8" d="M740.38,1226.53l-4.7,43.18a25.19,25.19,0,0,0,13.59,0l17.24-43.18"/><path class="cls-8" d="M1702.52,1226.53l4,43.18a18.37,18.37,0,0,1-11.56,0l-14.67-43.18"/><path class="cls-8" d="M1824.89,1118.28l4,43.19a18.38,18.38,0,0,1-11.56,0l-14.68-43.19"/><path class="cls-9" d="M719.42,1088.31h30.32a6.79,6.79,0,0,1,6.79,6.79v132.46a0,0,0,0,1,0,0H712.63a0,0,0,0,1,0,0V1095.1a6.79,6.79,0,0,1,6.79-6.79Z"/><path class="cls-9" d="M873.51,1039.41l-99.29,88.8a53,53,0,0,0-17.66,39.49v59.79h929v-19.78a142.45,142.45,0,0,1,47.48-106.17l69.47-62.13Z"/><path d="M780.17,1031.29c13.42-1.17,26-.82,36.75,1.72,9.88,2.34,9.56,20.35,16.07,26,77-2.83,172.06-4.51,274.94-4.51,256.67,0,464.74,10.44,464.74,23.32s-208.07,23.31-464.74,23.31c-115.71,0-230.5,11-311.84,7.52,0,0-.09-19-.09-38,0-16.58-15.93-21.1-37.5-19.82"/><ellipse cx="862.43" cy="1141.04" rx="21.17" ry="64.27" transform="translate(-563.17 1025.26) rotate(-48.27)"/><path class="cls-9" d="M1802.65,1039.48h-929l9.48-197.33a21.42,21.42,0,0,1,21.4-20.43h921.58L1811,859.5Z"/><ellipse cx="1160.54" cy="924.46" rx="134.38" ry="29.91" transform="translate(-301.84 1175.32) rotate(-48.27)"/><path class="cls-7" d="M1802.65,1039.09,1705,1126.77A58.09,58.09,0,0,0,1685.7,1170v57.58l134.4-120.64L1833.45,823h0a15.29,15.29,0,0,0-21.4,13.3Z"/><line class="cls-10" x1="756.68" y1="1176.01" x2="1685.7" y2="1176.01"/><path class="cls-11" d="M1053.22,1176c0-23.86,6.43-37.68,17.67-47.73l99.29-88.8,9.11-188.09a32.35,32.35,0,0,1,23.91-29.67h0"/><path class="cls-11" d="M1336,1176c0-23.86,6.43-37.68,17.66-47.73l99.29-88.8L1462,851.39a32.35,32.35,0,0,1,23.9-29.67h0"/><path class="cls-7" d="M1848.3,974.71h-29.7a7,7,0,0,0-4.72,1.8h0l-126.4,114.21,42.13,136.84L1855.4,1114V981.81A7.1,7.1,0,0,0,1848.3,974.71Z"/><path class="cls-9" d="M1692.49,1088.31h30.32a6.79,6.79,0,0,1,6.79,6.79v132.46a0,0,0,0,1,0,0H1685.7a0,0,0,0,1,0,0V1095.1a6.79,6.79,0,0,1,6.79-6.79Z"/><path class="cls-8" d="M564.52,1183.92c0,10.5,23.36,19,52.17,19s52.16-8.51,52.16-19a7.1,7.1,0,0,0-.12-1.22,25,25,0,0,0,.12-2.53c0-23.5-.58-86-52.16-86s-52.17,62.51-52.17,86c0,.91.05,1.74.12,2.53A7.1,7.1,0,0,0,564.52,1183.92Z"/><path class="cls-8" d="M529,1049.86c0-34.35,43.89-8.5,87.71-8.5s87.71-25.85,87.71,8.5-1,125.76-87.71,125.76S529,1084.22,529,1049.86Z"/><ellipse class="cls-8" cx="616.69" cy="1044.39" rx="87.71" ry="27.79"/><path class="cls-12" d="M704.4,1044.39c0-15.35-39.27-27.8-87.71-27.8S529,1029,529,1044.39a8.91,8.91,0,0,0,.2,1.78,32.74,32.74,0,0,0-.2,3.69c0,25.48.55,82.3,36.18,110-.61,8-.64,15.1-.64,20.32,0,.91.05,1.74.12,2.53a7.1,7.1,0,0,0-.12,1.22c0,10.5,23.36,19,52.17,19s52.16-8.51,52.16-19a7.1,7.1,0,0,0-.12-1.22,25,25,0,0,0,.12-2.53c0-5.22,0-12.37-.64-20.32,35.63-27.69,36.19-84.51,36.19-110a35.27,35.27,0,0,0-.2-3.69A8.91,8.91,0,0,0,704.4,1044.39Z"/><ellipse class="cls-13" cx="616.69" cy="1043.58" rx="73.36" ry="20.19"/><polyline class="cls-14" points="608.08 1043.61 639.72 664.4 650.87 664.4 627.6 1043.61"/><polygon class="cls-14" points="555.46 782.4 615.69 951.49 619.11 910.48 565.15 776.13 555.46 782.4"/><path class="cls-15" d="M551.14,737.32c.4-2.89-.36-5.73-.75-8.51-1.33-9.64-.23-19.14.32-29,.36-6.62,1.4-13,2.15-19.63a14.84,14.84,0,0,0-.08-5.72c-2.94,1.85-4.12,7.46-4.87,10.39a122.44,122.44,0,0,0-4.08,37.5"/><path class="cls-15" d="M563.58,779.12c1.83-11.24-.76-19.52,10.35-28.12,5-3.9,9.1-5.5,14.82-7.26-2-3.62-13.2.11-16.63,2.15-4.87,2.9-8.64,9.15-10.62,14-1.6,3.93-4.17,18.09,1.15,19.44"/><path class="cls-15" d="M552.7,776.61c1.18-3.48-8.58-11-10.66-13a195.92,195.92,0,0,0-38.76-27.79c-9.19-5.15-17.69-11.19-26.74-16.52-2.79-1.64-5.39-3.07-7.27-5.69a67,67,0,0,1,14.64,2.14c12.77,3,26.5,7.48,36.8,14.75,11.61,8.21,22.74,21.44,28.46,34.49,1.75,4,4.12,8.29,5.09,12.54"/><path class="cls-15" d="M557.22,788.5c1-2-1.11-4.92-2.27-6.69-7-10.72-20.46-16.15-32.29-21-14.1-5.79-29-9.81-42.85-16-3.72-1.65-11.55-3.71-12.13-8.35,8.43-3.48,21.9,2.18,28.92,4.64,11.82,4.15,24.15,8.41,34.74,14.62,8.88,5.22,16.67,9.56,22.56,17.9,2.4,3.41,5.83,7.48,5.75,12-.86.06-1.4.81-1.73.94"/><path class="cls-15" d="M545.52,748.44a12.47,12.47,0,0,0-1.89-4,97.92,97.92,0,0,0-12.17-16.69c-7.19-8.08-15.09-15.45-24.66-21a131,131,0,0,0-13.87-6.8,6.35,6.35,0,0,0-3.25-.74c.88,1.5,4.85,3.55,5.83,4.21a131.3,131.3,0,0,1,16,12.43,159.14,159.14,0,0,1,20.75,23.73c6.37,9,11.32,18.52,16.1,28.49"/><path class="cls-15" d="M549.75,731.66c-3.14-10.18-7.21-19-9.3-24.34a94.07,94.07,0,0,0-8.21-16.88c-1.24-1.92-3.1-6-5.29-7,7.71,23.64,15.2,47.34,21.9,71.38"/><path class="cls-15" d="M563.09,780.69c-10-10.88-16.52-25.24-22.08-38.31-8.68-20.38-14.76-41.6-14-63.81.3-8.7.67-16.88,2.87-25.43.3-1.17.5-2.84,1.44-3.74.78,1.05.62,3.12.81,4.41.36,2.58.7,5.14,1.25,7.69,1.56,7.24,2.06,14.62,4,21.8,4.44,16.5,7.32,33.3,12.71,49.59,2.66,8,5.56,15.94,8.28,23.93,1.73,5.08,2.75,10.29,4.9,15.24.69,1.59,4.37,12,5.84,11.59"/><path class="cls-15" d="M558,747.45c0-7.46,3-15.33,4.61-22.78s6-14.64,11.28-20.44a43.39,43.39,0,0,1,10.75-8.6c-.27,1.91-2.13,3.7-3.22,5.36-2.69,4.07-5.53,8.27-8,12.46-6.32,10.72-8.81,24.1-11.74,35.51"/><path class="cls-15" d="M565.89,775.38a101.08,101.08,0,0,1-4.94-28.7,358.67,358.67,0,0,1,1.36-47.91A141.11,141.11,0,0,1,567,674.84c.4-1.48,1.08-3.42.74-4.77-5.43,1.18-8.22,11.75-9.44,15.29a115.27,115.27,0,0,0-6.72,36.32,215,215,0,0,0,1.6,28.63c.46,3.74,1.33,7.31,2.14,10.93,1.61,7.21,5.14,13.25,8.06,19.87"/><path class="cls-15" d="M558.27,772.66c-4.6-20.13-19.21-54.63-36.09-75.74-6.8-8.5-13.21-15.83-22.31-21.65-3.32-2.12-6.75-4.2-10.19-6.12a37,37,0,0,0,6.22,9.33c5.9,7.06,11.45,14.54,16.66,22.21,9.52,14,18.22,28.64,26.68,43.41,4.66,8.16,9.08,16.42,13.59,24.67,1.25,2.28,2.26,4.8,3.39,7.15"/><path class="cls-15" d="M559.89,765.45C559,751,575.48,739.61,589,738.11c5.25-.58,10.76-.72,15.46,1,1.69.64,3.18,1.85,4.88,2.3.29-2.69-3.28-5.33-5.15-6.55-4.56-3-10.39-2.58-16-2.15-6.52.49-12.49,3.61-17.43,8.32a51.91,51.91,0,0,0-5.29,6.27c-2.35,3.11-3.2,6.75-5.4,9.77"/><path class="cls-15" d="M560.74,772.08c1.23-17.17,7.62-34.48,21.7-47.53,7.32-6.78,16-12.23,23.56-18.74-2.61-2.09-7.89,1.25-10.84,2.32a41.18,41.18,0,0,0-16.47,10.79c-6.62,7-12.19,13.91-16.54,22.37-1.92,3.72-3,8.59-3.69,12.54-1.72,9.92-1.69,19.37-1.13,29.17"/><path class="cls-15" d="M567,783.79c-.51-4.18-.71-8.12.5-12.46,1.62-5.88,3.67-8.31,8.84-12,4.45-3.16,8.54-3.89,13.46-5.37.14-3-9.08-1-11-.42-7.3,2.08-11.49,8.57-14.18,15.13"/><path class="cls-15" d="M553.64,779.74c-4.32-2.9-11-4.27-16.07-5.55-4.5-1.14-9.06-2.11-13.63-3.08-1-.21-5.88-.72-6.92-1.94,10.87-1.6,21.61,1.5,31.32,4.3"/><path class="cls-15" d="M557.35,785.78c-8.19-10.19-26.6-7.47-39.17-4.11-6.37,1.71-10,5.59-15.39,8.63-.07-2.26,4.78-6,6.7-7.33a50.32,50.32,0,0,1,13.76-6.67c6.51-1.93,12.76-3,19.15-2.33,2.49.28,8,.61,9.46,2.62"/><path class="cls-15" d="M558.47,785.2c-3.9-6-14.35-4.29-20.9-2.12a28.73,28.73,0,0,0-13.7,10.13c-2,2.57-3.82,6.23-3.27,9.24,5.76-5.61,11.3-11.11,18-15.62,3.27-2.19,6.22-3.88,10-4.6,1.31-.25,5.74-.79,5.87-.09"/><path class="cls-15" d="M561.69,776.87c3-3.93,9.37-6.72,13.86-8.08,5.56-1.68,12.81-1,17.37,1.66,4,2.37,6.93,6.89,8.38,11.1-2.78.43-5.8-3.31-7.91-4.48-3.89-2.14-8.31-2.51-12.84-3-3.08-.34-6.09.39-9.25.9-2.18.34-6.27.2-7.89,2.16"/><path class="cls-15" d="M558.44,785a242,242,0,0,0-25.74-31c-4.5-4.55-9.83-10.82-15.27-14.34,3.18-1.08,9.5,2.33,12.29,3.63,6,2.77,12.15,5.87,16.82,10.36s7,10.18,9.56,15.93c1.76,3.89,4,7.8,4.45,12.26"/><path class="cls-13" d="M556.44,1049.53s7.31-2.86,12.51-3.24a159.41,159.41,0,0,0,16.73-2.09c3.46-.76,12.31-4.2,20-4.1s12,1,18.87,0,18.11-2.14,24.41,0,5.77,2.89,12.5,4.11,11.73,4.27,16.73,4.75"/><line class="cls-13" x1="608.58" y1="1037.6" x2="628.58" y2="1027.71"/><line class="cls-13" x1="623.02" y1="1030.46" x2="610.9" y2="1009.87"/><line class="cls-13" x1="613.62" y1="1016.3" x2="630.15" y2="1002.06"/><line class="cls-13" x1="627.58" y1="1004.28" x2="612.33" y2="992.69"/><line class="cls-13" x1="615.96" y1="995.45" x2="631.03" y2="987.8"/><line class="cls-13" x1="628.58" y1="989.04" x2="613.45" y2="979.24"/><line class="cls-13" x1="618.06" y1="982.23" x2="632.52" y2="963.39"/><line class="cls-13" x1="628.58" y1="968.53" x2="615.44" y2="955.39"/><line class="cls-13" x1="618.58" y1="958.53" x2="633.02" y2="955.39"/><line class="cls-13" x1="629.48" y1="956.16" x2="616.58" y2="941.78"/><line class="cls-13" x1="616.96" y1="937.24" x2="634.37" y2="933.32"/><line class="cls-13" x1="634.79" y1="926.53" x2="618.58" y2="917.79"/><line class="cls-13" x1="621.89" y1="919.57" x2="635.72" y2="911.38"/><line class="cls-13" x1="632.52" y1="913.27" x2="620.51" y2="894.67"/><line class="cls-13" x1="623.5" y1="899.29" x2="637.14" y2="888.11"/><line class="cls-13" x1="634.79" y1="890.04" x2="621.54" y2="882.36"/><line class="cls-13" x1="622.13" y1="875.29" x2="637.14" y2="875.29"/><line class="cls-13" x1="638.28" y1="869.55" x2="623.5" y2="858.88"/><line class="cls-13" x1="627.58" y1="861.83" x2="639.45" y2="850.49"/><line class="cls-13" x1="636.33" y1="853.47" x2="624.95" y2="841.42"/><line class="cls-13" x1="627.58" y1="844.21" x2="640.54" y2="832.72"/><line class="cls-13" x1="637.14" y1="835.73" x2="626.52" y2="822.67"/><line class="cls-13" x1="628.8" y1="825.48" x2="641.22" y2="821.75"/><line class="cls-13" x1="638.14" y1="822.67" x2="627.41" y2="812.01"/><line class="cls-13" x1="630.64" y1="815.22" x2="641.87" y2="811.12"/><line class="cls-13" x1="638.14" y1="812.48" x2="628.8" y2="795.29"/><path class="cls-13" d="M631.83,800.86c-.31-.57,11-5.57,11-5.57"/><line class="cls-13" x1="643.41" y1="785.93" x2="630" y2="780.97"/><line class="cls-13" x1="632.78" y1="782" x2="644.06" y2="775.34"/><line class="cls-13" x1="641.22" y1="777.02" x2="631.25" y2="765.94"/><line class="cls-13" x1="634.06" y1="769.06" x2="644.85" y2="762.56"/><line class="cls-13" x1="641.87" y1="764.36" x2="632.53" y2="750.64"/><line class="cls-13" x1="635.01" y1="754.29" x2="645.72" y2="748.42"/><line class="cls-13" x1="643.41" y1="749.68" x2="633.66" y2="737.06"/><line class="cls-13" x1="636.71" y1="741" x2="646.45" y2="736.55"/><line class="cls-13" x1="646.7" y1="732.35" x2="634.65" y2="725.14"/><line class="cls-13" x1="639.92" y1="728.29" x2="647.15" y2="725.14"/><line class="cls-13" x1="635.14" y1="719.35" x2="647.7" y2="716.07"/><line class="cls-13" x1="648.06" y1="710.23" x2="635.99" y2="709.17"/><line class="cls-13" x1="636.54" y1="702.48" x2="648.86" y2="697.16"/><line class="cls-13" x1="646.45" y1="698.2" x2="637.66" y2="689.13"/><line class="cls-13" x1="639.44" y1="690.97" x2="649.51" y2="686.53"/><line class="cls-13" x1="647.15" y1="687.58" x2="638.21" y2="682.51"/><line class="cls-13" x1="650.1" y1="676.94" x2="639" y2="673.02"/><line class="cls-13" x1="617.63" y1="924.05" x2="604.18" y2="919.17"/><line class="cls-13" x1="601.24" y1="910.93" x2="614.06" y2="897.9"/><line class="cls-13" x1="610.9" y1="901.11" x2="595.8" y2="895.66"/><line class="cls-13" x1="599.4" y1="896.95" x2="606.87" y2="880.01"/><line class="cls-13" x1="605.3" y1="883.56" x2="591.14" y2="882.57"/><line class="cls-13" x1="594.42" y1="882.57" x2="601.24" y2="865.98"/><line class="cls-13" x1="599.4" y1="870.47" x2="588.19" y2="874.28"/><line class="cls-13" x1="593.79" y1="872.37" x2="596.83" y2="855"/><line class="cls-13" x1="595.94" y1="860.07" x2="583.12" y2="860.07"/><line class="cls-13" x1="587.28" y1="860.07" x2="591.79" y2="842.45"/><line class="cls-13" x1="590.27" y1="848.39" x2="579.99" y2="851.26"/><line class="cls-13" x1="584.08" y1="850.12" x2="588.6" y2="834.52"/><line class="cls-13" x1="575.71" y1="839.24" x2="587.28" y2="831.24"/><line class="cls-13" x1="584.59" y1="824.53" x2="570.91" y2="825.78"/><line class="cls-13" x1="575.71" y1="825.15" x2="579.99" y2="813.06"/><line class="cls-13" x1="565.37" y1="810.22" x2="577.18" y2="806.07"/><line class="cls-13" x1="574.1" y1="798.42" x2="570.48" y2="808.43"/><line class="cls-13" x1="560.74" y1="797.22" x2="572.29" y2="794.29"/><line class="cls-13" x1="568.23" y1="783.78" x2="558.9" y2="792.06"/><path class="cls-15" d="M636.53,693c-4.73-16.77-2.51-30.64-20.23-39.78-8-4.15-14.24-5.09-22.89-5.64,2.21-6.39,19.21-4.86,24.57-3,7.61,2.65,14.24,10.94,18,17.76,3,5.5,9.39,26.53,1.91,30.65"/><path class="cls-15" d="M654.13,677.64c-2.36-4.95,10.42-20.38,13.09-24.2,15-21.47,32-40.13,51.16-57.93C730.79,584,742,571.39,754.19,559.66c3.75-3.61,7.26-6.82,9.5-11.61-6.93,1.85-14.39,5.44-20.87,8.89-18,9.58-37.11,21.7-50.73,36.93-15.35,17.16-29.08,42-35,64.43-1.8,6.87-4.45,14.45-5.07,21.43"/><path class="cls-15" d="M649.77,697.85c-1.85-2.81.7-8.08,2.06-11.27,8.2-19.32,26.74-32.88,43-44.92,19.42-14.36,40.28-26.27,59.3-41.11,5.11-4,16.11-10.17,16.09-17.59-12.89-2.22-31.42,11.71-41.16,18.2-16.41,11-33.53,22.26-47.76,35.94-11.95,11.48-22.45,21.18-29.46,36.39-2.87,6.22-7.09,13.85-6.16,20.77,1.26-.23,2.18.72,2.69.8"/><path class="cls-15" d="M659.35,631.12c0-2.34,1.24-4.85,2-7a185.75,185.75,0,0,1,14.58-30.57c8.95-15.29,19.07-29.75,31.95-42a231.83,231.83,0,0,1,18.89-15.84,10,10,0,0,1,4.59-2.38c-1,2.66-6.39,7.35-7.69,8.76a238.76,238.76,0,0,0-21,25.42A300.26,300.26,0,0,0,677,612.32c-7.6,16.37-13,33.1-18.12,50.42"/><path class="cls-15" d="M650.1,606.64c2.67-17,7-32.24,9-41.37,2.23-9.94,4.86-19.94,8.8-29.36,1.45-3.46,3.39-10.56,6.4-12.83-6.83,39.68-13.32,79.36-18.62,119.28"/><path class="cls-15" d="M647.33,673.72c-1.52-23.31,4.22-48.27,9.82-70.71,8.74-35,21.22-68.93,42.42-98.35,8.3-11.52,16.22-22.28,26.56-32,1.42-1.33,3.18-3.43,5.07-3.84-.07,2.08-2.15,4.76-3.11,6.66-2,3.81-3.9,7.55-5.61,11.48-4.84,11.14-11,21.56-15.39,32.93-10,26.13-22.12,51.34-30.86,78-4.3,13.1-8.24,26.34-12.44,39.47-2.67,8.35-6.28,16.27-8.35,24.8-.66,2.76-6,20-3.93,20.69"/><path class="cls-15" d="M637.64,631.1c-3.11-11-10.66-20.66-16-30.63-5.27-9.81-14.56-17.77-24.4-23a53.7,53.7,0,0,0-18.69-5.9c1.18,2.64,4.54,4.11,6.77,5.86,5.48,4.3,11.22,8.7,16.45,13.32,13.37,11.81,22.46,29.94,31.36,44.88"/><path class="cls-15" d="M636.44,668.57a163.68,163.68,0,0,0-7.4-44.69,532.22,532.22,0,0,0-25.6-67.81A196.35,196.35,0,0,0,585.2,525c-1.29-1.82-3.18-4.13-3.38-6.3,8.06-2.16,17.14,11,20.57,15.26,11.9,14.61,21.22,30.44,27.25,47.38a331.26,331.26,0,0,1,12,42.23c1.2,5.69,1.77,11.43,2.45,17.2,1.36,11.48-.51,22.65-1.26,34.22"/><path class="cls-15" d="M639.49,622.75c-1.13-4.35-.54-9-.49-13.51.16-15.49-3.21-29.85-5.84-45-1.75-10.16-4.44-19.71-6.76-29.7-.7-3-1.33-5.83-.94-8.92,4.62,1.75,7.36,10,9,14.29a193,193,0,0,1,12.87,56.75"/><path class="cls-15" d="M642.7,670c-5.21-31.69-5-91.3,5.78-134,4.36-17.19,8.87-32.43,17.86-47.67,3.28-5.57,6.73-11.15,10.29-16.53,0,6-1.53,12.15-3.11,17.9-4,14.48-7.21,29.26-9.91,44-4.93,27-8.36,54.25-11.4,81.48-1.68,15-3,30-4.37,45.07-.39,4.17-.33,8.48-.52,12.64"/><path class="cls-15" d="M636.88,670.67c-1.35-22.82-27.43-34.26-47.31-31.45-7.74,1.09-15.77,3-22.27,7.52-2.33,1.62-4.28,4.06-6.67,5.42-.91-4.07,3.78-9.53,6.27-12.15,6.08-6.38,14.63-8,22.87-9.43,9.57-1.71,18.82.87,26.86,6.31a65.62,65.62,0,0,1,8.84,7.74c4,4,5.9,9.28,9.67,13.14"/><path class="cls-15" d="M636.18,676.24c-5-26.22-17.45-50.7-40.32-65.63-11.89-7.76-25.56-12.93-37.7-20.18,3.41-4.24,11.7-1,16.18-.51a50.91,50.91,0,0,1,25.93,10.52c10.91,8.43,20.28,17,28.17,28.48,3.47,5.05,5.94,12.21,7.67,18.1,4.33,14.76,6,29.46,7,44.9"/><path class="cls-15" d="M636.53,705.17c0-6.7-.48-12.9-3-19.19-3.45-8.52-6.87-11.52-15.07-15.27-7-3.21-13.11-2.8-20.53-3.23-.77-4.62,13-5,15.92-4.83,11,.45,18.29,9,23.41,18.12"/><path class="cls-15" d="M653.34,682.86c5.74-6.15,15.27-10.83,22.32-14.72,6.32-3.5,12.78-6.73,19.23-10,1.4-.7,8.42-3.35,9.7-5.64-16.09,1.64-31.11,10.54-44.71,18.58"/><path class="cls-15" d="M649.07,693.67c10-19,37.26-21.72,56.14-21.28,9.58.23,15.62,4.87,24,7.56-.32-3.53-8-7.57-11.09-8.85A62.93,62.93,0,0,0,696.86,666c-9.82-.51-19.11.12-28.25,3.66-3.57,1.39-11.54,4-13.26,7.67"/><path class="cls-15" d="M647.33,693.19c4.56-10.8,20.06-12.13,30-11.23,8.64.77,15.59,4.66,21.77,10.53,3.4,3.23,6.71,8.23,6.47,13.12-9.41-6.53-18.47-13-29.08-17.43-5.15-2.17-9.74-3.68-15.38-3.36-1.94.11-8.48,1-8.53,2.09"/><path class="cls-15" d="M636.88,675.55c-5.11-5-14.85-6.9-21.63-7.3-8.39-.5-18.8,3.25-24.92,9.18-5.39,5.22-8.81,13.35-10.12,20.44,4.11-.39,7.8-7.35,10.66-10,5.25-4.81,11.61-7,18.1-9.55,4.41-1.69,8.91-1.7,13.6-2.12,3.24-.29,9.15-2.06,11.87.36"/><path class="cls-15" d="M647.33,692.8a458.65,458.65,0,0,1,31.65-58c5.71-8.8,12.29-20.57,19.53-28.1-4.81-.48-13.35,7.23-17.18,10.3-8.21,6.6-16.56,13.76-22.51,22.51s-8.23,18.46-11,28.39c-1.84,6.72-4.36,13.65-4.2,20.75"/><rect class="cls-16" x="817.4" y="231.88" width="977.69" height="473.48"/><polygon class="cls-17" points="1795.08 705.36 1801.7 699.39 1801.7 225.61 1795.08 232.28 1795.08 705.36"/><polygon class="cls-4" points="1795.08 231.88 817.4 231.88 825.23 225.61 1801.7 225.61 1795.08 231.88"/><circle class="cls-18" cx="1016.56" cy="486.39" r="95.66"/><rect class="cls-19" x="817.4" y="562.72" width="977.69" height="142.64"/><polygon class="cls-4" points="1267.84 575.78 1209.55 547.34 1519.29 547.34 1541.91 575.78 1267.84 575.78"/><polygon class="cls-4" points="1354.49 547.36 1370.53 531.32 1490.54 531.32 1497.94 547.36 1354.49 547.36"/><polygon class="cls-18" points="1364.48 537.38 1446.44 537.38 1456.5 547.43 1354.49 547.37 1364.48 537.38"/><polygon class="cls-20" points="1340.92 547.34 1345.75 277.06 1349.62 277.06 1349.62 547.34 1340.92 547.34"/><polygon class="cls-20" points="1349.62 509.58 1419.84 514.28 1419.84 518.15 1349.62 522.5 1349.62 509.58"/><path class="cls-21" d="M1419.84,514.28s-122.57,0-189.71,17c11.59-165.72,114.56-254.57,114.56-254.57S1353.26,427.5,1419.84,514.28Z"/><path class="cls-22" d="M1267.84,575.78s-24.19,16.9-21.29,15,383.62,0,383.62,0l-88.26-15Z"/><polyline class="cls-22" points="1287.52 588.88 1625.48 640.81 1548.73 604.23 1572.75 604.23 1576.86 590.9"/><path class="cls-15" d="M1795.14,407.36,1639.79,562.71h154.88S1795.14,411.43,1795.14,407.36Z"/><polygon class="cls-15" points="1570.89 562.73 1666.05 467.57 1761.24 562.76 1570.89 562.73"/><polygon class="cls-22" points="1570.89 562.73 1780.25 580.3 1781.54 569.81 1795.08 573.04 1794.67 562.72 1570.89 562.73"/><path class="cls-11" d="M1344.69,276.75a262.58,262.58,0,0,1,4.93-44.87"/><path class="cls-11" d="M1419.84,514.28c49.91,71.63,197,164.62,289.67,191.08"/><path class="cls-11" d="M1438.24,231.88s-33.86,4.24-88.62,41"/><path class="cls-11" d="M1238.81,705.36s-15.46-63.4-8.68-174"/><path class="cls-11" d="M1227.31,532.17c-189.62,48.54-311.24,173.19-311.24,173.19"/><path class="cls-11" d="M1422.93,514.83s199.77,3.79,371.79,32.6"/><path class="cls-23" d="M834.23,917.6c-8.36,3.45-15.73,11-18.2,19.69-.57,2-.43,4-.92,5.92-.36,1.44-1.41,3.06-1.44,4.33,0,1.67,5.87,3.8,7.46,4.33,10.31,3.4,16.84-.34,23.56-7.58"/><path class="cls-24" d="M919.21,1005.51c2.06-5.77,7.58-11.39,10.77-16.53,10.32-16.59,21.41-34.76,28.45-52.92,3.71-9.56,9.15-27.1,6.53-38-4-16.77-38.43-11.85-51.65-8.28-24.65,6.66-52.7,11.89-76.64,24.52-4.47,2.36-3.49,13-.57,21.5,1.76,5.14,1.84,9.71,7.6,10.82,6,1.16,12.65-2.93,18.5-4.47,4.27-1.12,8.88-1.87,13.22-2.73,12.51-2.49,29-10.71,41-12.62a185.2,185.2,0,0,0-13.15,21.7C899,957.24,894.49,966,890,974.66c-4.05,7.72-8.33,15.21-12.64,22.76a94.29,94.29,0,0,1-6.49,10.49A59.27,59.27,0,0,0,859.78,1030"/><path class="cls-23" d="M798.15,961.92c-1.58-5-14.56-33.6-2.15-27.73,6.83,3.23,14.86,15.84,19.83,21.51"/><circle class="cls-22" cx="875.49" cy="908.07" r="4.93"/><path class="cls-23" d="M883,1077.32c-30.53-10.32-61.73-28.14-82.33-53.86-12.13-15.15-19.95-31.73-29-48.75-3.25-6.1-12.51-31-5.15-29.16,6.93,1.69,17.7,13.85,22.32,18.44,2.19-9,24.24-15.83,32.68-17.56,10.51-2.16,19.47-2.86,28.87-8.66,8.75-5.4,14.8-12.79,20.31-21.33,2.46-3.83,4.71-8.12,8.29-10.92,6,3.11,2.52,19.54,1.11,24.31-4.28,14.48-8.7,27.85-18.12,40.08-4.39,5.7-12.88,11.76-14.33,18.65-1.58,7.54,5.57,14.48,12.69,15.61,7.84,1.26,16.93-.2,24.65-1.38,5.41-.84,16.65-3.19,19.69,3.51"/><path class="cls-24" d="M1036,1100.79c9-4.64,18.6-9.26,26.47-16.57,14.94-13.87,29.74-36.4,36.46-55.68,2.6-7.47,14.12-21.22,5.84-26.31-3.62-2.23-9.22-3.37-13.59-3.36-28.89,0-66.49-1-95.19-3-21.28-1.48-43.88-5.48-61.76-4.35-26.32,1.67-55.19,9.9-76.1,25.84-16.31,12.44-25.83,39.18-6.76,54.43,16.53,13.22,14.85,22.14,34.95,24.1,20.74,2,65.8-7.24,86.6-5,14.15,1.53,28.14,4.3,42.08,7.11a155.38,155.38,0,0,0,21,2.76"/><path class="cls-25" d="M1029.63,984.84l-26.72,7.61c-1.19.34-1.93-.6-1.67-2.1l10.33-58.9a4.43,4.43,0,0,1,2.62-3.33l26.72-7.61c1.18-.34,4.94,2.45,4.67,4l-13.34,57.06A4.38,4.38,0,0,1,1029.63,984.84Z"/><path class="cls-26" d="M1032.59,987.46l-26.73,7.62c-1.18.33-1.92-.61-1.66-2.11l10.33-58.9a4.37,4.37,0,0,1,2.61-3.32l26.73-7.61c1.18-.34,1.92.6,1.66,2.1l-10.33,58.9A4.37,4.37,0,0,1,1032.59,987.46Z"/><path class="cls-23" d="M989.3,1020.48c2.74-7,2-12.54,5.25-23.09,2.05-6.62,2.79-14,5.57-20.46,2.64-6.15,4.71-7.81,6.15-.36.89,4.68.43,11.47,0,16.24-.22,2.3,9.44-2.46,11.5-5.69,4.85-7.63,6.28-16.83,10.94-24.5s8-1.5,6.12,4.52c-.15.12-.16.11,0,0,4.54,1,3.86,8.23,2.69,11.57-1.08,3.1-1.31,3-.66,5.65.62,2.53,1.56,4.48,1.09,7.22-.54,3.25-2.6,6.08-3.79,9.06-2.32,5.77-4.93,12.57-9.29,16.94s-10.25,7.75-14.51,12.3"/><path class="cls-24" d="M861.17,1015.15c-6.8,4.12-18.64,12.82-33.06,24.17-8.11,6.37-16.62,19.63-18,29.94-1.55,11.88,3.9,31.79,12.16,40.26,22.63,23.17,66.65,63.67,76.24,66.46,6.25,1.81,12.39,3.82,18.93,3.82,6.15,0,10.29-3,16.2-4.58,11-2.9,14.31-5.82,32-32.77,4.61-7,47.49-102.56,48.73-106,2.78-7.71-29.61-23.24-35.27-12.74-39.78,73.78-59.9,94.85-57.62,107.37-9.8-11.83-59.51-35.79-43.49-70.32"/><path class="cls-22" d="M1224.05,1413.77H678.53c-5.62,0-5.22-4.6.89-10.22l86.6-79.62c6.11-5.62,15.71-10.21,21.33-10.21h545.52c5.62,0,5.21,4.59-.9,10.21l-86.6,79.62C1239.26,1409.17,1229.66,1413.77,1224.05,1413.77Z"/><polygon class="cls-27" points="786.06 1413.77 792.16 1408.26 792.16 1292.42 786.06 1298.57 786.06 1413.77"/><rect class="cls-28" x="771.66" y="1298.2" width="14.4" height="115.56"/><polygon class="cls-27" points="877.25 1330.65 883.35 1325.15 883.35 1209.31 877.25 1215.46 877.25 1330.65"/><rect class="cls-28" x="862.85" y="1215.09" width="14.4" height="115.56"/><polygon class="cls-27" points="792.16 1376.03 1244.13 1376.03 1320.92 1305.85 1320.92 1297.56 877.25 1305.85 792.16 1367.73 792.16 1376.03"/><polygon class="cls-29" points="792.16 1367.73 1244.13 1367.73 1320.92 1297.56 877.25 1297.56 792.16 1367.73"/><polygon class="cls-25" points="1019.21 1347.47 1107.23 1347.47 1138.9 1318.53 1138.9 1307.44 1054.31 1310.86 1019.21 1336.39 1019.21 1347.47"/><polygon class="cls-30" points="1019.21 1336.39 1107.23 1336.39 1138.9 1307.44 1054.31 1307.44 1019.21 1336.39"/><rect class="cls-30" x="1019.21" y="1336.39" width="88.02" height="11.09"/><polygon class="cls-27" points="1244.13 1413.77 1250.23 1408.26 1250.23 1292.42 1244.13 1298.57 1244.13 1413.77"/><rect class="cls-28" x="1229.73" y="1298.2" width="14.4" height="115.56"/><polygon class="cls-27" points="1335.32 1330.65 1341.42 1325.15 1341.42 1209.31 1335.32 1215.46 1335.32 1330.65"/><rect class="cls-28" x="1320.92" y="1215.09" width="14.4" height="115.56"/><path class="cls-27" d="M1240.91,1312.45H759c-5.88,0-15.49-7.12-2.85-17.81l90.58-76.15c6.39-5.88,16.43-10.69,22.31-10.69l483.51-7.12c5.87,0,7,11.93.57,17.81l-90,83.28C1256.82,1307.65,1246.78,1312.45,1240.91,1312.45Z"/><path class="cls-26" d="M1238.76,1305.33H755.25c-5.88,0-5.45-4.81.94-10.69l90.58-83.27c6.39-5.88,16.43-10.69,22.31-10.69h483.51c5.87,0,5.45,4.81-.94,10.69l-90.58,83.27C1254.68,1300.52,1244.64,1305.33,1238.76,1305.33Z"/><path class="cls-31" d="M1429.47,780.08c19.44-6.06,29.14-22.27,36.38-29.3,9.61-9.34,18.31-22.12,29-30,2.76-2.05,5.11-4.71,9.26-3.22,15.52,5.55-1.24,37.4-5.83,44.48-3.24,5-5.59,11.64-10,15.18-2,1.63-6.23,1.47-8.28,3.82-4.52,5.17,1.08,9.25-3.3,21-3.39,9.1-27.29,5.79-34.66,9.41"/><path class="cls-32" d="M1167.57,1020.41c21.15-25.32,31.1-43.21,51.59-69,19.77-24.92,34.83-67.26,67.1-77.32,44-13.72,52.42-15.6,96-32.06,12.94-4.88,18.39-5.22,31.94-7.36,5.79-.91,22.27-5.27,27.6-8,8.5-4.43,8.93-6.27,8.59-14.62-.68-16.26-.17-18.32-11-29.9a33,33,0,0,0-11.71-8c-88.53,21.39-143.49,31.71-186.13,48.34-8.58,3.34-20.09,12.75-27,18.7-17.28,14.8-33.73,36.72-48.5,53.78-31.85,36.77-51.15,66.89-77.34,98.35-2.29,2.75-4.8,6.13-6.2,6.82-28.29,13.82-75.17,36.35-54.56,85.6,5.93,14.15,13.11,14,13.11,14,81.18,5.49,140.22-9.88,205.67-14,43.22-2.72,86.18.07,129.24,2.54,28.64,1.64,57.29,2.44,86,3.64,10,.42,30.6,2.22,40.43.34,14.62-2.8,17.2-19.05,19.06-32,1.47-10.17,4.89-27.12-8.57-31.68-8.47-2.88-24.2-2.64-34.08-2.72-63.36-.51-99.91-8.65-154.24-8.65-25.22-4.71-50.74-1.4-81.76,1.5-35.7,3.34-89,1.5-125,.81-18.91-.37-12.21,9.21-26.66,2.63"/><path class="cls-33" d="M1241.53,916c4.76-10,9.58-20,12.54-30.69.36-1.31,3.57-16,5.92-16,3.46,0,.18,11.78.06,13.93,2.27,0,5.76-6.63,7.67-8.42,5.18-4.86,12.07-7.7,18.41-10.7"/><path class="cls-33" d="M1068.69,1032.54c-15,7-22.14,29-21.43,43.91"/><path class="cls-33" d="M1026.35,1082.2c2.52.29,4.49,1.63,6.89,2.37,5.93,1.85,12.22,1.51,18.35,2.32,14.35,1.9,28.85.52,43.29-.44,28.79-1.92,57.21-8.88,85.4-14.72,18-3.72,35.89-8.8,54-11.49,8-1.19,16.19-2.15,24.29-2.83,1.43-.12,9-1.4,10,0,2,2.65-3.26,5.83-2.82,7.56,1.24,4.83,12-1.48,15.42-2,1.37-.21,7.18-.89,8.56,0s.82,2.24,1.68,3c1.61,1.31,1.21,3.48,4.49,2.7,3.93-14.77,13.48-3.43,22.25.81,11.78,5.71,23.24,7.3,36.31,7.09,15.83-.26,31.56-2.55,47.49-2.63,7.31,0,14.58-.58,21.9-.54,3.39,0,5.82-.08,8.89,1,.9.32.63,2.34,1.34,2.54,4,1.15,7.24-1.77,11.15-3,7.68-2.45,16.36-2.59,24.35-2.07,7.45.48,12.75,2.64,18.65,6.25,6.81,4.17,17.26,4.52,25.22,5.23"/><path class="cls-34" d="M1521.13,1035.92c-3.09-7-12.2-10.3-16.38,11.26s-16.25,49.49-.81,44.61,16.23-25.66,16.23-25.66S1526.14,1047.27,1521.13,1035.92Z"/><path class="cls-31" d="M1509.72,1074.25c23.64-1.91,50.7,7.79,60.28,4.06,8.6-3.35-6.25-18.78-7-28a273.75,273.75,0,0,0-7.94-48.49c-2.72-10.36-3.8-21.33-9-31.87-7.46-1.2-12.08,15.58-14,20.51s-2.19,10.92-2.1,16.81c.21,13.06,3.33,24-6.28,31.81-3.73,3-9.35,5.58-12.75,8.7C1506.69,1051.59,1504.22,1067.22,1509.72,1074.25Z"/><path class="cls-35" d="M1546.37,969.34c-2.58.8-2.82,5.18-3.45,7.47-1.85,6.79-.6,14.49-.18,22.16a166.76,166.76,0,0,0,7.77,41c3.4,10.67,7.09,22.55,12.33,33.39,3.13,6.48,14,7.67,12.16-3.21-.73-4.32-4.79-17-10-24.24-4.43-6.24-2.57-11.54-.55-22.11,1.63-8.61.29-18.66-2.91-29.15-2.31-7.57-7.82-25.34-15.22-25.34"/><ellipse class="cls-22" cx="971.56" cy="1247" rx="37.33" ry="5.77"/><ellipse class="cls-22" cx="1036.96" cy="1233.93" rx="30.53" ry="5.77"/><path class="cls-26" d="M1003,1184.1a86.24,86.24,0,0,0-26.06,0H965.32l4.9,61.7c0,3.58,8.82,6.49,19.72,6.49s19.72-2.91,19.72-6.49l4.89-61.7Z"/><ellipse class="cls-26" cx="989.94" cy="1183.61" rx="24.62" ry="6.49"/><path class="cls-36" d="M967.74,1214.47l2.48,31.33s.5,6.49,19.72,6.49,19.72-6.49,19.72-6.49l2.47-31.33"/><ellipse class="cls-37" cx="989.94" cy="1214.47" rx="22.19" ry="5.85"/><path class="cls-11" d="M919.7,1128.93a55.9,55.9,0,0,1,7.5,14.27c.8,2.43,2.07,7.14,5.17,3.52,2.53-3-.13-7-1.87-9.23-2.72-3.55-5-7-4.67-11.8"/><path class="cls-11" d="M916.09,934.19c1.8-4.69,7-8.21,11.23-10.5,2.09-1.12,7.95-2.28,9.33-4.13,4.4-5.92-13.5,2.14-14.07,2.37"/><path class="cls-11" d="M875,1070.15c-.54,6.51,8,21.65,16.18,20.86.76-4.12-7.88-12.37-2.79-15,2.69-1.41,8,2.74,10.21,3.92,6.43,3.38,13.82,5.29,21.12,3.23"/><path class="cls-11" d="M1021.76,1044.19c-5.24,12-4.42,26.91-1.8,39.4.6,2.84,3.49,9.52.57,11.46-7.67,5.1-5.89-20.36-7.53-23.11-8.55-3.41-1.82,20.5.1,25.62"/><path class="cls-11" d="M800.33,960.79c-.6.12-.92-.15-1.22.53a5.17,5.17,0,0,0,5.25.24c-.37-1.77-3.61-1.48-5.05-1.11a3.46,3.46,0,0,0,3.47-.18,9.14,9.14,0,0,0-3.36,1.08c1,1,2.88.42,4-.53a3.13,3.13,0,0,0-2.77,0"/><path class="cls-11" d="M809.4,954.25a5.93,5.93,0,0,0,3.8.86c-.79-1.4-3.67-1.5-4.79-.3a5.43,5.43,0,1,0,.72-.35,3.81,3.81,0,0,0,3.54-.22,3.53,3.53,0,0,0-3.06.06c.71.92,1.87.93,3.31.77"/><path class="cls-38" d="M771.12,951.14c-.14-.24,0-.43-.36-.6-2.22,2.41,3.16,8.82,4.87,10.35.12-.22.61-.59.73-.87,1.17,1.57.27,5.46-.16,7.29,1.81-.64,2.88-3.19,4.26-4.54.3,2.78-1.11,6.79.36,9.29,1.78-.15,2.79-2.64,4.54-3.07"/><path class="cls-38" d="M796.9,938.16c-1.46,1.1,2,9.06,2.77,11,.84-.87,1.4-2.12,2.27-3-.05,1.92.21,3.64,1.64,4.9"/><path class="cls-33" d="M1035.37,965.39c-3.73,11-5.29,23-13,32.18"/><path class="cls-33" d="M1036.45,981.21c-.38,1.91-1.17,3.76-1.74,5.63-1.47,4.91-2.72,11.16-6.78,14.66"/><path class="cls-39" d="M1071.52,1197.88s6.9.93,7.5,6.49a14.45,14.45,0,0,1-10.38,14.57"/><path class="cls-39" d="M1035.07,1232.62c0,2.73,6.64,5,14.83,5s14.82-2.22,14.82-5a1.73,1.73,0,0,0,0-.32q0-.3,0-.66c0-6.11-.16-22.38-14.82-22.38s-14.83,16.27-14.83,22.38a4.5,4.5,0,0,0,0,.66A1.75,1.75,0,0,0,1035.07,1232.62Z"/><path class="cls-39" d="M1025,1201c0-8.94,12.47-2.21,24.93-2.21s24.93-6.73,24.93,2.21-.28,32.73-24.93,32.73S1025,1209.93,1025,1201Z"/><path class="cls-39" d="M1074.83,1199.56c0-4-11.16-7.24-24.93-7.24s-24.93,3.24-24.93,7.24c0,1.14.92,2.23,2.55,3.19,1.41-2.8,10.88-5,22.38-5s21,2.17,22.37,5C1073.9,1201.79,1074.83,1200.7,1074.83,1199.56Z"/><path class="cls-13" d="M1049.9,1197.78c-11.5,0-21,2.17-22.38,5,4.07,2.39,12.56,4,22.38,4s18.31-1.65,22.37-4C1070.87,1200,1061.39,1197.78,1049.9,1197.78Z"/><path class="cls-33" d="M1140.85,1020c5.05-1.32,10.43-1.91,15.52-3.43,2.24-.67,13.45-4.66,13.15-7.82-.33-3.49-13.42-1.9-15.89-2-.29-2.28,2.53-3,4.29-3.49,2.91-.87,6-1.25,8.87-2.26,4.8-1.69,7.84-5.45,10.85-9.36"/><path class="cls-33" d="M1287.54,863.51c6.88-.33,14.23-4.77,20.7-7.09,14.46-5.18,29.39-8.62,44.32-12.14,11.6-2.74,23-6.7,34.38-10.2a83.5,83.5,0,0,0,16.23-6.89c2.38-1.29,6-3.26,8.73-3.29-.8,10.55,21-.54,24.79-1.86,2.58-.9,6.19-1.48,8.38-3,1-.67,1.61-2.42,2.59-3.17"/><ellipse class="cls-9" cx="1029.65" cy="936.06" rx="1.55" ry="1.02" transform="translate(-119.33 1721.05) rotate(-76.62)"/></g></g></svg>