<svg id="Layer_1" data-name="Layer 1" xmlns="http://www.w3.org/2000/svg" xmlns:xlink="http://www.w3.org/1999/xlink" viewBox="0 0 2240.78 1683.13"><defs><style>.cls-1,.cls-2,.cls-26,.cls-3{fill:none;}.cls-10,.cls-11,.cls-12,.cls-13,.cls-14,.cls-15,.cls-16,.cls-17,.cls-18,.cls-2,.cls-20,.cls-21,.cls-22,.cls-23,.cls-24,.cls-25,.cls-26,.cls-27,.cls-28,.cls-29,.cls-3,.cls-30,.cls-31,.cls-32,.cls-4,.cls-5,.cls-7,.cls-8,.cls-9{stroke:#000;}.cls-2{stroke-linecap:round;stroke-width:0.5px;}.cls-13,.cls-15,.cls-16,.cls-17,.cls-2,.cls-3{stroke-miterlimit:10;}.cls-4{fill:#743310;}.cls-10,.cls-11,.cls-12,.cls-14,.cls-18,.cls-20,.cls-21,.cls-22,.cls-23,.cls-24,.cls-25,.cls-26,.cls-27,.cls-28,.cls-29,.cls-30,.cls-31,.cls-32,.cls-4,.cls-5,.cls-7,.cls-8,.cls-9{stroke-linejoin:round;}.cls-10,.cls-11,.cls-12,.cls-13,.cls-14,.cls-15,.cls-16,.cls-17,.cls-18,.cls-20,.cls-21,.cls-22,.cls-23,.cls-24,.cls-25,.cls-26,.cls-27,.cls-28,.cls-29,.cls-30,.cls-31,.cls-32,.cls-4,.cls-5,.cls-7,.cls-8,.cls-9{stroke-width:2px;}.cls-5{fill:#5d210d;}.cls-6{opacity:0.3;fill:url(#_10_dpi_50_);}.cls-7{fill:#94794f;}.cls-8{fill:#78572c;}.cls-9{fill:#cbae78;}.cls-11{fill:#5a8bba;}.cls-12{fill:#e30613;}.cls-14{fill:#f4eed8;}.cls-15{fill:#ffe4b0;}.cls-16{fill:#391d17;}.cls-17,.cls-23{fill:#92b193;}.cls-18{fill:#f07f2c;}.cls-19{opacity:0.26;fill:url(#_10_dpi_20_2);}.cls-20{fill:#dba063;}.cls-21{fill:#bb6a26;}.cls-22{fill:#1d1d1b;}.cls-24{fill:#b49159;}.cls-25{fill:#6b6b6a;}.cls-27{fill:#fff;}.cls-28{fill:#ffdf8c;}.cls-29{fill:#ce9fb5;}.cls-30{fill:#ffd153;}.cls-31{fill:#bd2f56;}.cls-32{fill:#d20a11;}</style><pattern id="_10_dpi_50_" data-name="10 dpi 50%" width="28.8" height="28.8" patternTransform="translate(-287.13 1682.94) scale(2)" patternUnits="userSpaceOnUse" viewBox="0 0 28.8 28.8"><rect class="cls-1" width="28.8" height="28.8"/><path class="cls-3" d="M10.79,24.79c3.92.24,2.84-5.63,4.28-7.72a6.65,6.65,0,0,1,5.42-2.89,13.77,13.77,0,0,1,2.38.49,2.55,2.55,0,0,0,2.8-1.21"/><path class="cls-3" d="M18.62,18.12A13.29,13.29,0,0,1,20.71,18a17,17,0,0,1,1.89,0,6.31,6.31,0,0,1,1.87.7,3.1,3.1,0,0,0,3.48-.3,9.1,9.1,0,0,0,2.47-4.86"/><path class="cls-3" d="M11.58,3.61C9.66,8.29,14,8.66,14.4,10.1c.55,1.82-.58,3.82-1.86,5.05"/><path class="cls-3" d="M10.67,20.79a3.36,3.36,0,0,1-2.26-1.4c-.94-1.47-.41-3,.38-4.38s1.85-2.88.8-4.32c-.93-1.27-2.94-1.36-4.3-1.82"/><path class="cls-3" d="M5.57,22.4c.65.71,1.4,1.29,2,2.05A4.34,4.34,0,0,1,8.43,26c.22.75.17,1.62.46,2.34a2.5,2.5,0,0,0,3.47,1.11,12.32,12.32,0,0,0,2.44-1.86,4.07,4.07,0,0,1,2.67-.9"/><path class="cls-3" d="M17.46,21.67a10.2,10.2,0,0,0,1.29.73A4.74,4.74,0,0,1,21,25a7.09,7.09,0,0,1,.09,3.24c-.08.53-.23.95.09,1.44a2.07,2.07,0,0,0,1.32.78"/><path class="cls-3" d="M14.77,3.71C16.88,3,18.64,5.76,20.6,6c1.34.14,2.72,2.51,3.62,1.31s1-5.07,1.23-6.54"/><path class="cls-3" d="M29.67,3.71a5.19,5.19,0,0,0-2.17,3c-.25,1.1.53,4.6.8,5.66"/><path class="cls-3" d="M16.33,8.5a4.53,4.53,0,0,0,2.39,1.39c.78.16,1.58,0,2.36.23a4.73,4.73,0,0,1,2.34,1.59"/><path class="cls-3" d="M29.38,29.28a10.07,10.07,0,0,1-2.56-3.12c-.38-1-.37-1.93-1.16-2.75A6.41,6.41,0,0,0,22,21.59"/><path class="cls-3" d="M4,17a8,8,0,0,1-1,1.6c-.43.53-1,.72-1.51,1.2a2.67,2.67,0,0,0-.71,2.52C1,23.45,2.12,24,2.79,24.8a5.58,5.58,0,0,1,.92,4.53"/><path class="cls-3" d="M5.47,13.41c0-2-2.61-2.28-3.3-3.87a2.85,2.85,0,0,1,.59-3,5.92,5.92,0,0,1,1.5-1.36A9.45,9.45,0,0,1,6.07,4.7c1-.3.09-2.32.84-3.11"/><path class="cls-3" d="M-10.18,18.12A13.29,13.29,0,0,1-8.09,18,17,17,0,0,1-6.2,18a6.31,6.31,0,0,1,1.87.7,3.11,3.11,0,0,0,3.49-.3,9.16,9.16,0,0,0,2.46-4.86"/><path class="cls-3" d="M.87,3.71a5.19,5.19,0,0,0-2.17,3c-.25,1.1.53,4.6.8,5.66"/><path class="cls-3" d="M.58,29.28A10.07,10.07,0,0,1-2,26.16c-.38-1-.37-1.93-1.16-2.75a6.41,6.41,0,0,0-3.71-1.82"/><path class="cls-3" d="M5.57-6.4c.65.71,1.4,1.29,2,2.05a4.34,4.34,0,0,1,.84,1.59c.22.75.17,1.63.46,2.34A2.5,2.5,0,0,0,12.36.69,12.32,12.32,0,0,0,14.8-1.17a4.07,4.07,0,0,1,2.67-.9"/><path class="cls-3" d="M17.46-7.13a10.2,10.2,0,0,0,1.29.73A4.74,4.74,0,0,1,21-3.84,7.09,7.09,0,0,1,21.05-.6c-.08.53-.23,1,.09,1.44a2.07,2.07,0,0,0,1.32.78"/><path class="cls-3" d="M29.38.48a10.07,10.07,0,0,1-2.56-3.12c-.38-1-.37-1.93-1.16-2.75A6.41,6.41,0,0,0,22-7.21"/><path class="cls-3" d="M4-11.8a8,8,0,0,1-1,1.6c-.43.53-1,.72-1.51,1.21A2.65,2.65,0,0,0,.73-6.48C1-5.35,2.12-4.81,2.79-4A5.58,5.58,0,0,1,3.71.53"/><path class="cls-3" d="M.58.48A10.07,10.07,0,0,1-2-2.64c-.38-1-.37-1.93-1.16-2.75A6.41,6.41,0,0,0-6.85-7.21"/></pattern><pattern id="_10_dpi_20_2" data-name="10 dpi 20% 2" width="28.8" height="28.8" patternTransform="translate(255.03 1764.32) scale(4.43)" patternUnits="userSpaceOnUse" viewBox="0 0 28.8 28.8"><rect class="cls-1" width="28.8" height="28.8"/><path class="cls-2" d="M2.75,28.08c.37-.06.71.42,1,.62a3.32,3.32,0,0,1,1.61,2,3.61,3.61,0,0,0,.31,1.53,4.72,4.72,0,0,0,1.28.93c.65.45.51,1.81,1.16,2.26s1.23,1,1.9,1.37A34.67,34.67,0,0,0,14.4,39c1,.41,2.81-.26,3.69.3a10,10,0,0,1,1.71,1.07c.57.56.51,1.1.75,1.81s1.08.92,1.74,1.32a19.14,19.14,0,0,0,1.83,1c.56.27,1.25.4,1.77.7s.25.63,0,1-.48.53.1.83c.28.15.52.3.77.46"/><path class="cls-2" d="M20.75,29c.26.66,1.3.68,1.47,1.45.12.58-.58.82-.32,1.38s1.34.72,2,.84,2,.16,2.4.76c.3.42-.21.8.07,1.13s.87.23,1.14.52.11.39.25.53.55.17.75.47"/><path class="cls-2" d="M5.58,28c0,.8,1.64,1.38,2.07,2s0,1.37.51,2"/><path class="cls-2" d="M17.12,28.42c0,.07,0,.09,0,.14.29.56.94.8,1.14,1.47a1.57,1.57,0,0,1,0,.86c-.16,1,.58,1.15,1.3,1.62"/><path class="cls-2" d="M27.76,21.86c.59.76,1.82,1,2.63,1.49A3.68,3.68,0,0,1,32,25c.64,1,1.61,1.07,2.67,1.49A10,10,0,0,1,37,27.85c.53.4.91,1,1.47,1.34"/><path class="cls-2" d="M26.68,18.53c2.05.6,3.6,1.86,5.4,2.95A26.22,26.22,0,0,1,37,25.32a12.19,12.19,0,0,0,4,2.15c1.22.51,2.1,1.68,3.33,2.06"/><path class="cls-2" d="M26.76,13.78c1.33.5,2.43,1.57,3.81,2a11.41,11.41,0,0,1,4.59,2.72c1.06.93.49,1.1.25,2.11s2,1.35,2.78,1.93c1.36,1,3,1.26,4.45,2.1.81.48,1,1.22,1.68,1.69,1.07.71,2.43,1,3.49,1.75a4.81,4.81,0,0,0,1.95,1"/><path class="cls-2" d="M26.1,8.4c.06.46.39.65.79.95a47.71,47.71,0,0,0,6.26,3.47c2,1,2.34,2,4.24,3.22a14.8,14.8,0,0,1,3.24,2.17c1.32,1.42-.39.83-.72,1.76s3.3,1.71,3.73,1.92c1.23.58,2.85.9,3.94,1.71,1.3.95-.3.86,0,1.81.19.75,2.27,1.23,2.82,1.47A13.63,13.63,0,0,1,52.47,28,10.07,10.07,0,0,0,55,29.53"/><path class="cls-2" d="M28.16,7.22a17.72,17.72,0,0,1,2.21,1.69,28.8,28.8,0,0,0,6.93,3.57A24.26,24.26,0,0,1,42,15.14c1.07.68,2.26,1.07,3.37,1.66.68.36-.16,1.12.29,1.81s2.2.85,2.64,1.41c.85,1.1,3,1.39,3.34,2.82-.61.25-.52.61-.09,1,.85.74,2.42.53,3.44.91a13.38,13.38,0,0,1,2.34,1.55c1,.63,2,1.25,3.05,1.8"/><path class="cls-2" d="M26.05.61c.62-.11,1.61.86,2.11,1.17a26.84,26.84,0,0,0,2.89,1.56,3.54,3.54,0,0,1,1.84,1.25c.42.77-.18,1.82.37,2.4s1.51,2.44,2.37,2.73a38.07,38.07,0,0,1,6.45,3c.78.42,1.49-.78,1.88,0s.65.69,1.3.83a5.93,5.93,0,0,1,3.25,1.37,11.08,11.08,0,0,1,1.19,1.68c.36.61.43,1.34,1,1.78s1.92.29,2.24,1.2c.11.31,0,.31.23.55a6.63,6.63,0,0,0,1.17.65,11,11,0,0,0,1.19.59c.3.12.72.19.91.47"/><path class="cls-2" d="M27.84,16.16a11.69,11.69,0,0,0,1.36.72c.72.42,1.37.86,2.12,1.22s1.56,1.07,2.43,1.44"/><path class="cls-2" d="M24.88,22.58a5.7,5.7,0,0,0,1.53.74c.71.31,1.37.69,2.06,1,.31.15.65.14,1,.27s.72.64,1.17.83"/><path class="cls-2" d="M-1,21.86c.59.76,1.82,1,2.63,1.49A3.68,3.68,0,0,1,3.18,25c.64,1,1.61,1.07,2.67,1.49a10,10,0,0,1,2.31,1.33c.53.4.92,1,1.47,1.34"/><path class="cls-2" d="M-2.12,18.53c2.05.6,3.6,1.86,5.4,2.95a25.9,25.9,0,0,1,4.89,3.84,12.19,12.19,0,0,0,4,2.15c1.22.51,2.1,1.68,3.33,2.06"/><path class="cls-2" d="M-2,13.78c1.33.5,2.43,1.57,3.81,2a11.41,11.41,0,0,1,4.59,2.72c1.06.93.49,1.1.25,2.11s2,1.35,2.78,1.93c1.36,1,3,1.26,4.45,2.1.81.48,1,1.22,1.68,1.69,1.07.71,2.43,1,3.49,1.75a4.81,4.81,0,0,0,1.95,1"/><path class="cls-2" d="M-2.7,8.4c.06.46.39.65.79.95a47.71,47.71,0,0,0,6.26,3.47c2,1,2.34,2,4.24,3.22a14.8,14.8,0,0,1,3.24,2.17c1.32,1.42-.39.83-.72,1.76s3.3,1.71,3.73,1.92c1.23.58,2.85.9,3.94,1.71,1.3.95-.3.86-.05,1.81.19.75,2.27,1.23,2.82,1.47A13.63,13.63,0,0,1,23.67,28a10.07,10.07,0,0,0,2.56,1.57"/><path class="cls-2" d="M-.64,7.22A17.72,17.72,0,0,1,1.57,8.91,28.8,28.8,0,0,0,8.5,12.48a24.26,24.26,0,0,1,4.67,2.66c1.07.68,2.26,1.07,3.37,1.66.68.36-.16,1.12.29,1.81s2.2.85,2.64,1.41c.85,1.1,3,1.39,3.34,2.82-.61.25-.52.61-.09,1,.85.74,2.42.53,3.44.91a13.38,13.38,0,0,1,2.34,1.55c1,.63,2,1.25,3.05,1.8"/><path class="cls-2" d="M-2.75.61c.62-.11,1.61.86,2.12,1.17A25.78,25.78,0,0,0,2.25,3.34,3.54,3.54,0,0,1,4.09,4.59c.42.77-.18,1.82.37,2.4S6,9.43,6.83,9.72a38.07,38.07,0,0,1,6.45,3c.78.42,1.49-.78,1.88,0s.65.69,1.3.83a5.93,5.93,0,0,1,3.25,1.37,11.08,11.08,0,0,1,1.19,1.68c.36.61.43,1.34,1,1.78s1.92.29,2.24,1.2c.11.31,0,.31.23.55a6.63,6.63,0,0,0,1.17.65,12,12,0,0,0,1.19.59c.3.12.72.19.91.47"/><path class="cls-2" d="M2.75-.72c.37-.06.71.42,1,.62a3.32,3.32,0,0,1,1.61,2,3.64,3.64,0,0,0,.31,1.53,4.72,4.72,0,0,0,1.28.93c.65.45.51,1.8,1.16,2.26S9.3,7.61,10,8a34.67,34.67,0,0,0,4.43,2.13c1,.41,2.81-.26,3.69.3a10,10,0,0,1,1.71,1.07c.57.56.51,1.1.75,1.81s1.08.92,1.74,1.32,1.2.7,1.83,1,1.25.4,1.77.7.25.63,0,1-.48.53.1.83c.28.15.52.3.77.46"/><path class="cls-2" d="M9.5.32c.9.5,1.68,1.71,1,2.17s-.83.71,0,1.2c1.14.68.62,1.65,1.84,2.2.75.34,1.51.7,2.28,1a1.31,1.31,0,0,0,1.19,0,3.77,3.77,0,0,1,3.35.32A13.3,13.3,0,0,1,21,8.28a1.12,1.12,0,0,1,.62,1.07c-.08.64-.31,1,.18,1.49a4.54,4.54,0,0,0,1.37.79,1.71,1.71,0,0,1,.72.61c.11.23,0,.39.21.58s.79.21,1.07.35.63.39,1,.53a2,2,0,0,0,.59.12c.4.08.33.16.75.42"/><path class="cls-2" d="M15.21.61c1.06.65-.22,1-.9,2-.57.88-.49,1.09.53,1.37,1.41.38,4.56,1.41,5.93,1.94a6.16,6.16,0,0,1,1.76.92,2.72,2.72,0,0,0,2,.6,2.66,2.66,0,0,1,1.29.38c.33.31.14.82.47,1.21"/><path class="cls-2" d="M20.75.24c.26.66,1.3.68,1.47,1.45.12.58-.58.81-.32,1.38s1.34.72,2,.84,2,.16,2.4.76c.3.42-.21.8.07,1.13s.87.23,1.14.52c.14.14.11.39.25.53s.55.17.75.47"/><path class="cls-2" d="M-1,16.16a11.07,11.07,0,0,0,1.37.72c.71.42,1.36.86,2.11,1.22S4.08,19.17,5,19.54"/><path class="cls-2" d="M23.87,25.87c.3,0,.48.17.73.31.57.31,1.18.52,1.73.87s1.39.8,2.05,1.25a25.15,25.15,0,0,0,3.11,1.57"/><path class="cls-2" d="M5.58-.84c0,.8,1.64,1.38,2.07,2s0,1.37.51,2"/><path class="cls-2" d="M15,8.29a4.38,4.38,0,0,0,1.77.21,5.78,5.78,0,0,1,2.53.7"/><path class="cls-2" d="M17.12-.38c0,.07,0,.09,0,.14.29.56.94.8,1.14,1.47a1.57,1.57,0,0,1,0,.86c-.16,1,.58,1.15,1.3,1.61"/><path class="cls-2" d="M24.66,1.91c.57.43,1.13.87,1.72,1.28s1,.45,1.47.72c1,.49,2.78,1.18,3.19,2.25"/><path class="cls-2" d="M24.66,10.41c1.18,1,2.77,1.31,4,2.17a20.37,20.37,0,0,0,2.22,1.29"/><path class="cls-2" d="M14.33,18.41c.21.46.2,1,.56,1.43a5.09,5.09,0,0,0,1.55.81c.42.21.84.44,1.26.64"/><path class="cls-2" d="M8.41,18.12c0,.36.33.69.4,1.05.14.78,0,.89.6,1.49"/><path class="cls-2" d="M16,23.91a9.58,9.58,0,0,0,1.42,1"/><path class="cls-2" d="M17.45,15.45a3.56,3.56,0,0,1,1.26.91c.41.55.35,1.21,1,1.59"/><path class="cls-2" d="M-3.92,22.58a5.85,5.85,0,0,0,1.53.74c.71.31,1.37.69,2.06,1,.31.15.65.14,1,.27s.72.64,1.17.83"/><path class="cls-2" d="M9.41,24.25c.11.22.37.26.59.35a10.76,10.76,0,0,1,1.6.87,8.4,8.4,0,0,0,1.05.5c.3.14.53.42.84.53"/><path class="cls-2" d="M12.12,1.08c1.09.53.08,1.42.17,2.12"/><path class="cls-2" d="M-29.44,7.22a17.72,17.72,0,0,1,2.21,1.69,28.8,28.8,0,0,0,6.93,3.57,24.26,24.26,0,0,1,4.67,2.66c1.07.68,2.26,1.07,3.37,1.66.68.36-.16,1.12.29,1.81s2.2.85,2.64,1.41c.85,1.1,3,1.39,3.34,2.82-.61.25-.52.61-.09,1,.85.74,2.42.53,3.45.91A13.68,13.68,0,0,1-.3,26.29c1,.63,2,1.25,3.05,1.8"/><path class="cls-2" d="M-4.93,25.87c.3,0,.48.17.73.31.57.31,1.18.52,1.73.87s1.39.8,2.05,1.25a25.15,25.15,0,0,0,3.11,1.57"/><path class="cls-2" d="M-4.14,1.91c.57.43,1.13.87,1.72,1.28a15.56,15.56,0,0,0,1.48.72C0,4.4,1.83,5.09,2.24,6.16"/><path class="cls-2" d="M-4.14,10.41c1.18,1,2.77,1.31,4,2.17a20.37,20.37,0,0,0,2.22,1.29"/><path class="cls-2" d="M27.76-6.94c.59.76,1.82,1,2.63,1.49A3.68,3.68,0,0,1,32-3.77c.64,1,1.61,1.07,2.67,1.49A9.64,9.64,0,0,1,37-.95c.53.4.91,1,1.47,1.34"/><path class="cls-2" d="M26.68-10.27c2.05.6,3.6,1.86,5.4,2.95A26.22,26.22,0,0,1,37-3.48a12,12,0,0,0,4,2.14C42.15-.82,43,.35,44.26.73"/><path class="cls-2" d="M26.76-15c1.33.5,2.43,1.57,3.81,2a11.41,11.41,0,0,1,4.59,2.72c1.06.93.49,1.1.25,2.1s2,1.36,2.78,1.94c1.36,1,3,1.26,4.45,2.1.81.48,1,1.22,1.68,1.69,1.07.71,2.43,1,3.49,1.75a4.81,4.81,0,0,0,1.95,1"/><path class="cls-2" d="M26.1-20.4c.06.46.39.65.79.95A47.71,47.71,0,0,0,33.15-16c2,1.05,2.34,2.05,4.24,3.22a14.8,14.8,0,0,1,3.24,2.17c1.32,1.42-.39.83-.72,1.76s3.3,1.71,3.73,1.92c1.23.58,2.85.9,3.94,1.71,1.3,1-.3.86,0,1.81.19.75,2.27,1.23,2.82,1.47A13.63,13.63,0,0,1,52.47-.84,10.07,10.07,0,0,0,55,.73"/><path class="cls-2" d="M-1-6.94c.59.76,1.82,1,2.63,1.49A3.68,3.68,0,0,1,3.18-3.77c.64,1,1.61,1.07,2.67,1.49A9.64,9.64,0,0,1,8.16-.95c.53.4.92,1,1.47,1.34"/><path class="cls-2" d="M-2.12-10.27c2.05.6,3.6,1.86,5.4,2.95A25.9,25.9,0,0,1,8.17-3.48a12,12,0,0,0,4,2.14c1.22.52,2.1,1.69,3.33,2.07"/><path class="cls-2" d="M-2-15c1.33.5,2.43,1.57,3.81,2a11.41,11.41,0,0,1,4.59,2.72c1.06.93.49,1.1.25,2.1s2,1.36,2.78,1.94c1.36,1,3,1.26,4.45,2.1.81.48,1,1.22,1.68,1.69,1.07.71,2.43,1,3.49,1.75A4.81,4.81,0,0,0,21,.31"/><path class="cls-2" d="M-2.7-20.4c.06.46.39.65.79.95A47.71,47.71,0,0,0,4.35-16c2,1.05,2.34,2.05,4.24,3.22a14.8,14.8,0,0,1,3.24,2.17c1.32,1.42-.39.83-.72,1.76s3.3,1.71,3.73,1.92c1.23.58,2.85.9,3.94,1.71,1.3,1-.3.86-.05,1.81.19.75,2.27,1.23,2.82,1.47A13.63,13.63,0,0,1,23.67-.84,10.07,10.07,0,0,0,26.23.73"/><path class="cls-2" d="M23.87-2.93c.3,0,.48.17.73.31.57.31,1.18.52,1.73.87s1.39.8,2.05,1.25a25.15,25.15,0,0,0,3.11,1.57"/><path class="cls-2" d="M-4.93-2.93c.3,0,.48.17.73.31.57.31,1.18.52,1.73.87S-1.08-.95-.42-.5A25.15,25.15,0,0,0,2.69,1.07"/></pattern></defs><title>Shop</title><path class="cls-4" d="M1772.27,580.55h0c-51.93-15.88-94,13.35-94,65.27V980.68l188,57.49V703.31C1866.29,651.39,1824.19,596.43,1772.27,580.55Z"/><polygon class="cls-5" points="2097.64 1297.99 924.22 1505.92 143.13 1267.56 1316.56 1059.63 2097.64 1297.99"/><polygon class="cls-6" points="2097.64 1297.99 924.22 1505.92 143.13 1267.56 1316.56 1059.63 2097.64 1297.99"/><polygon class="cls-7" points="1391.49 1134.25 1109 1184.33 1109 552.42 1391.49 502.34 1391.49 1134.25"/><polygon class="cls-8" points="920.97 495.07 1109 552.42 1109 1184.33 920.97 1126.99 920.97 495.07"/><polygon class="cls-9" points="1391.49 502.31 1109 552.37 920.97 494.99 1203.45 444.93 1391.49 502.31"/><polyline class="cls-10" points="1459.15 1206.67 1400.42 1189.89 1511.75 1170.21 1446.48 1150.2 1544.63 1133.47 1544.63 1072.8 1597.47 1047.75 1597.47 1017.13 1676.11 976.31 1676.11 1180.79"/><polygon class="cls-8" points="1459.15 1158.41 1647.18 1215.75 1647.18 1264.02 1459.15 1206.67 1459.15 1158.41"/><polygon class="cls-9" points="1701.97 1206.37 1647.18 1215.7 1459.15 1158.32 1513.94 1148.99 1701.97 1206.37"/><polygon class="cls-8" points="1513.88 1100.52 1701.91 1157.86 1701.91 1206.13 1513.88 1148.78 1513.88 1100.52"/><polygon class="cls-9" points="1756.7 1148.48 1701.91 1157.81 1513.88 1100.43 1568.67 1091.1 1756.7 1148.48"/><polygon class="cls-8" points="1568.77 1042.88 1756.81 1100.22 1756.81 1148.49 1568.77 1091.14 1568.77 1042.88"/><polygon class="cls-9" points="1811.6 1090.84 1756.81 1100.17 1568.77 1042.79 1623.56 1033.46 1811.6 1090.84"/><polygon class="cls-8" points="1623.46 985.37 1811.5 1042.71 1811.5 1090.97 1623.46 1033.63 1623.46 985.37"/><polygon class="cls-9" points="1866.29 1033.33 1811.5 1042.66 1623.46 985.28 1678.25 975.95 1866.29 1033.33"/><ellipse class="cls-11" cx="1177.31" cy="661.24" rx="47.61" ry="22.94" transform="matrix(0.96, -0.29, 0.29, 0.96, -140.12, 365.13)"/><ellipse class="cls-12" cx="1177.31" cy="661.24" rx="34.12" ry="14.58" transform="translate(-136.64 350.08) rotate(-16)"/><path class="cls-13" d="M1246.12,497.17c-10.22,18.23-78.95,24.15-153.5,13.21-43.81-6.42-79.89-17.23-100.12-28.75-6.15-23.66-16.71-65.85,3.87-78.17,63.41-37.95,192.43-10.78,133.25,40.91C1204.17,455.3,1256.33,478.94,1246.12,497.17Z"/><path class="cls-13" d="M1034.75,260.3c-11.91-50.6-12.35-28.46-5.77,15.75,1,6.62,1.94,13.72,2.86,21a.83.83,0,0,1-.07-.13c-10-17.28-44.82-64.33-50.13-63s29.55,58.58,32.87,69.89c4,13.65,9.84,38.27,14.48,58.59-12.07-37.66-30.5-44.32-39-47.12-10.62-3.47-59.76-5.29-66-.09s63.31,7.14,79.74,19.89,32.71,60.61,32.71,60.61l7.35-4.26s-.06-2.29-.22-6.16l4.55-.85S1046.66,310.9,1034.75,260.3Z"/><path class="cls-13" d="M1168.64,293.78c-18.13-5.84-45.91-.65-66.52,11.07,13.45-20,34.65-49.4,40.86-59.4,6.66-10.73-8.76-1.53-30.85,23.55s-27.43,30.23-32.57,44c-3,8.08-10.49,33.58-16.13,53.21,4.42-23.27,10.4-55.13,11.92-65.31,2.49-16.66,28.72-85,24.73-82.69s-31.2,54.54-39.17,79.45-10.29,95.23-10.29,95.23l7.8-.48.34-1.77,3.24-.2s2-5,5.15-12.63c-1.93,8.89-2.92,14.93-2.92,14.93l4.31,1.8c8.63-36.31,28.22-71.9,33.61-76s40.09-16.89,54-18.73S1188.39,300.14,1168.64,293.78Z"/><path class="cls-13" d="M1007.82,350.82c-6.76-4.53-26.07,3.51-40.87,9.12s-20.83,12.17-14.73,11,41-14,51.3-13.93c6.16,0,18.79,28.75,24.45,38.8l2-3.94S1014.57,355.34,1007.82,350.82Z"/><ellipse class="cls-14" cx="1320.7" cy="749.95" rx="44.99" ry="35.72" transform="translate(359.8 1926.11) rotate(-80.34)"/><path class="cls-15" d="M1042.47,381.31c0-35.3,64-8.73,128-8.73s128-26.57,128,8.73-1.43,129.22-128,129.22S1042.47,416.61,1042.47,381.31Z"/><ellipse class="cls-15" cx="1170.46" cy="375.68" rx="127.99" ry="28.56"/><ellipse class="cls-16" cx="1170.46" cy="374.86" rx="107.05" ry="20.74"/><path class="cls-17" d="M1158.3,362.85s-1.7-83.79-15.75-142.19-14.56-33.25-6.79,17.52,13.94,125.71,13.94,125.71"/><path class="cls-17" d="M1153.19,370.53s-2.4-88-14.15-108.4-52.84-76.32-59.1-75.15,34.84,68.71,38.75,81.81c9,30.14,25.83,106.07,25.83,106.07Z"/><path class="cls-17" d="M1144.52,374.86s-19.19-55.58-38.56-71.24-101.35-22.7-94-28.18,65.26,0,77.79,4.7S1132.78,297.36,1144.52,374.86Z"/><path class="cls-17" d="M1174.69,370.59s29.57-69.82,44-90c15.44-21.58,43.64-57.59,51.49-69.34s-10.33-2.34-36.37,24.66-32.35,32.49-38.4,47.75-27.26,86.9-27.26,86.9Z"/><path class="cls-17" d="M1161.26,372.58s2.74-79.85,12.14-107.64,41.49-85.33,46.18-87.67-26.22,73.58-29.16,92.37-20,102.94-20,102.94Z"/><path class="cls-17" d="M1177.31,373.35s13.7-79.45,38.36-93.93,61.45-20,84.74-11.35,1.76,4.81-14.68,5.93-57.35,13.24-63.71,17.55S1192.58,335,1182.4,375.7Z"/><path class="cls-17" d="M1137,370.08l-2.39,4.34c-6.67-11.83-21.56-45.39-28.83-45.84-12.08-.76-53.29,11.42-60.48,12.28s-.08-6.19,17.37-11.54,40.22-13.16,48.18-7.54S1137,370.08,1137,370.08Z"/><path class="cls-17" d="M1189.15,373s19.08-36.92,56.66-40.73,25.24-.59-6.46,9.68-46.68,33.76-46.68,33.76Z"/><path class="cls-16" d="M1098.83,382.36s7.44-5.88,12.72-6.66,13.51-2.74,17-4.3,12.53-8.61,20.35-8.41,12.18,1.95,19.2,0,18.43-4.41,24.84,0,5.87,5.94,12.72,8.45,11.94,8.77,17,9.75"/><polygon class="cls-10" points="327.33 1234.53 515.48 1290.3 1032.77 1198.31 836.73 1144.92 327.33 1234.53"/><polyline class="cls-10" points="328.79 1234.53 327.33 317.18 819.13 229.18 858.82 1170.43"/><polygon class="cls-18" points="1046.25 1188.88 553.16 1276.56 445.6 324.93 938.69 237.26 1046.25 1188.88"/><polygon class="cls-19" points="1046.25 1188.88 553.16 1276.56 445.6 324.93 938.69 237.26 1046.25 1188.88"/><polygon class="cls-18" points="938.69 237.26 445.6 324.93 328.79 314.13 821.88 226.45 938.69 237.26"/><polygon class="cls-18" points="328.79 314.13 436.69 1266.16 553.16 1276.56 445.6 324.93 328.79 314.13"/><polygon class="cls-20" points="938.69 237.26 445.6 324.93 328.79 314.13 821.88 226.45 938.69 237.26"/><polygon class="cls-21" points="821.01 263.42 924.09 1172.94 1040.56 1183.34 933.67 243.38 821.01 263.42"/><polygon class="cls-20" points="924.09 1172.94 554.72 1238.72 558.18 1269.1 1040.56 1183.34 924.09 1172.94"/><path class="cls-10" d="M880.07,1193.47c-7.61-7-21.68-19-40.28-24.19l-14.12-121.51a1.75,1.75,0,0,0,.1-.78c-.35-3-9.08-4.87-21.87-5.18l-1.62-14.13c12.17-2.59,20.07-5.94,19.73-8.9l-10.88-93.65a8.28,8.28,0,0,0,3.2-8.73,79.29,79.29,0,0,1,.53-36.16,38.59,38.59,0,0,0,4.19.91c.1.31.21.62.34.92s8.28,19,3.53,40.79a8.22,8.22,0,0,0,6.16,9.68,8.4,8.4,0,0,0,1.85.21,7.9,7.9,0,0,0,4.24-1.26,8.67,8.67,0,0,0,8.4,6.45,8.38,8.38,0,0,0,7.7-5.05,8.66,8.66,0,0,0,3,1.35,8.4,8.4,0,0,0,10.09-6.1,7.52,7.52,0,0,0,.82.05,8.37,8.37,0,0,0,8.2-6.59c5.48-25.18-2.11-47.05-4.3-52.59a8.12,8.12,0,0,0,2.22-6.1c-1.19-11.83-6.45-39.17-9.25-53.27,9.25-2.38,15-5.19,14.69-7.72L865.44,700.6a1.82,1.82,0,0,0,.1-.79c-.42-3.61-12.95-5.58-30.09-5.17l-1.6-13.93c16.79-2.69,28.54-6.85,28.12-10.45l-8-70.13a1.69,1.69,0,0,0,.11-.79c-.42-3.61-13-5.58-30.09-5.17l-3.91-34.06A43.14,43.14,0,0,0,846,519.68a45,45,0,0,0-44.79-44,43.13,43.13,0,0,0-38.42,23.22L733,496.11l-75.19,13.41-1.59-13.95c35.29-6.64,60.44-16.22,59.58-23.59l-15.42-135.3a1.61,1.61,0,0,0,.27-1c-.7-5.77-40-5.43-87.77.76S527,352.28,527.61,358.06l-.39.05,15.54,136.31c.89,7.69,29.77,10.48,67.85,7.3l1.82,15.88-107.2,19.12a44.34,44.34,0,0,0-17.5-3.59,43.15,43.15,0,0,0-43.29,44,45,45,0,0,0,33.7,42.64l3.71,32.39c-16.08,2.68-27.23,6.72-26.86,10.22l-.19,0,8,70.92c.41,3.52,12.34,5.48,28.82,5.2l1.62,14.11c-16.09,2.68-27.23,6.72-26.86,10.22l-.2,0L477.62,865c.25,2.16,4.79,3.72,12.05,4.55-1.27,11.24-4.37,45.79,3.77,59.35a14.22,14.22,0,0,0,7.11,5.49,8.05,8.05,0,0,0,.69,2.8c.08.19,8.27,19,3.52,40.78a8.2,8.2,0,0,0,6.17,9.68,7.91,7.91,0,0,0,6.79-1.51,8.74,8.74,0,0,0,6.55,6.69,8.41,8.41,0,0,0,10.16-6.36c.16-.7.29-1.4.42-2.1a8.73,8.73,0,0,0,6,5A8.41,8.41,0,0,0,551,983a.5.5,0,0,0,0-.12l.71.2a8.42,8.42,0,0,0,10.17-6.36c5.48-25.19-2.11-47-4.31-52.59a8.18,8.18,0,0,0,2.23-6.1c-1.19-11.83-6.46-39.17-9.26-53.27,9.26-2.38,15-5.19,14.69-7.72l-3.67-32.91L582.46,826l4.88-.87,8,70c-12.43,2.6-20.55,6-20.23,9l-.2,0,17,146.61c.36,3,9.21,4.89,22.14,5.18l1.61,14.08c-12.29,2.59-20.29,6-20,8.93l-.2,0,17,146.61c.23,2,4.33,3.54,10.92,4.4l-.08.29c61.88,23.77,119.86-7.5,114.57-12.33-7.65-7-21.81-19.16-40.55-24.25l-14.16-121.9a1.82,1.82,0,0,0,.1-.79c-.35-3-9.08-4.87-21.88-5.17l-1.62-14.14c12.17-2.59,20.08-5.93,19.74-8.9L662.66,897a1.63,1.63,0,0,0,.11-.78c-.35-3-9-4.85-21.62-5.17l-8.48-74,96.92-17.29,8.18,71.36c-12.44,2.6-20.55,6-20.24,9l-.19,0,17,146.6c.35,3,9.2,4.9,22.13,5.19l1.62,14.07c-12.29,2.59-20.3,6-20,8.94h-.19l17,146.61c.24,2,4.38,3.57,11,4.42C827.7,1229.39,885.34,1198.28,880.07,1193.47ZM786.84,789.56l2.26,20.33c.25,2.15,4.8,3.71,12.06,4.54-1.14,10.08-3.75,38.91,1.6,54.53,0,.11-.09.21-.13.32a4.23,4.23,0,0,0-.15.41c-3.53-1.52-10.28-2.46-18.93-2.69l-8.63-75.31Z"/><path class="cls-22" d="M888.49,923.2a8.88,8.88,0,0,1-2-.23A8.71,8.71,0,0,1,880,912.7c5-23.17-3.65-43.08-3.74-43.28a8.42,8.42,0,0,1,4.3-11.22,8.66,8.66,0,0,1,11.29,4.49c.46,1,11.07,25.34,4.85,53.91A8.36,8.36,0,0,1,888.49,923.2Z"/><path class="cls-22" d="M879.55,929.48a8.34,8.34,0,0,1-2-.23A8.71,8.71,0,0,1,871,919c5-23.16-3.65-43.08-3.74-43.28a8.43,8.43,0,0,1,4.3-11.22A8.66,8.66,0,0,1,882.89,869c.46,1,11.08,25.34,4.86,53.92A8.38,8.38,0,0,1,879.55,929.48Z"/><path class="cls-22" d="M866.87,933a8.26,8.26,0,0,1-2-.23,8.69,8.69,0,0,1-6.54-10.27c5-23.16-3.66-43.08-3.75-43.28a8.43,8.43,0,0,1,4.3-11.22,8.67,8.67,0,0,1,11.3,4.49c.45,1,11.07,25.34,4.85,53.92A8.37,8.37,0,0,1,866.87,933Z"/><path class="cls-22" d="M854.23,927.76a7.86,7.86,0,0,1-1.85-.22,8.2,8.2,0,0,1-6.16-9.68c4.75-21.82-3.44-40.59-3.53-40.78a7.94,7.94,0,0,1,4-10.57,8.17,8.17,0,0,1,10.65,4.23c.42,1,10.43,23.88,4.57,50.8A7.9,7.9,0,0,1,854.23,927.76Z"/><path class="cls-12" d="M824.9,805.85s-6.46,46.64,3.33,62.94,68,5.43,66.38-10.87-11-62-11-62"/><path class="cls-22" d="M830.65,921.3a7,7,0,0,0,1.68-.21c3.92-1,6.29-5.35,5.3-9.68a78.56,78.56,0,0,1,1.88-40.78,8.48,8.48,0,0,0-4-10.57,7,7,0,0,0-9.55,4.23,96.15,96.15,0,0,0-2.52,50.8A7.67,7.67,0,0,0,830.65,921.3Z"/><path class="cls-23" d="M857.19,809.21c24.2-2.2,43.39-7.7,42.85-12.28L888.65,694.82l-87.64,8L812.4,804.89C812.94,809.48,833,811.41,857.19,809.21Z"/><ellipse class="cls-24" cx="845.02" cy="698.8" rx="44" ry="8.35" transform="translate(-59.2 78.5) rotate(-5.14)"/><path class="cls-22" d="M844.47,700.29c8.47-.77,15.19-2.7,15-4.31l-7.12-62.06-30.7,2.79,7.12,62.06C829,700.38,836,701.06,844.47,700.29Z"/><ellipse class="cls-22" cx="837.01" cy="635.31" rx="15.41" ry="2.93" transform="translate(-53.54 77.53) rotate(-5.14)"/><path class="cls-23" d="M842.41,677.55c24.2-2.2,43.39-7.7,42.86-12.29l-8-70.92-87.64,8,8,70.92C798.16,677.81,818.21,679.75,842.41,677.55Z"/><ellipse class="cls-24" cx="833.6" cy="598.33" rx="44" ry="8.35" transform="translate(-50.24 77.07) rotate(-5.14)"/><path class="cls-22" d="M833,599.82c8.48-.78,15.2-2.7,15-4.31l-7.11-62.06-30.7,2.79,7.11,62.06C817.54,599.91,824.56,600.59,833,599.82Z"/><ellipse class="cls-22" cx="825.59" cy="534.84" rx="15.41" ry="2.93" transform="translate(-44.59 76.1) rotate(-5.14)"/><path class="cls-22" d="M577,978.34a8.9,8.9,0,0,1-2-.23,8.71,8.71,0,0,1-6.54-10.27c5-23.17-3.65-43.08-3.74-43.28a8.43,8.43,0,0,1,4.3-11.22,8.66,8.66,0,0,1,11.29,4.49c.46,1,11.08,25.34,4.86,53.91A8.38,8.38,0,0,1,577,978.34Z"/><path class="cls-22" d="M566.11,984.62a8.81,8.81,0,0,1-2-.23,8.71,8.71,0,0,1-6.55-10.27c5-23.16-3.65-43.08-3.74-43.28a8.43,8.43,0,0,1,4.3-11.22,8.67,8.67,0,0,1,11.3,4.49c.45,1,11.07,25.34,4.85,53.91A8.37,8.37,0,0,1,566.11,984.62Z"/><path class="cls-22" d="M549.53,988.09a8.32,8.32,0,0,1-2-.23A8.71,8.71,0,0,1,541,977.59c5-23.16-3.66-43.08-3.74-43.28a8.42,8.42,0,0,1,4.29-11.22,8.67,8.67,0,0,1,11.3,4.49c.45,1,11.07,25.34,4.85,53.92A8.37,8.37,0,0,1,549.53,988.09Z"/><path class="cls-22" d="M536.08,982.9a7.86,7.86,0,0,1-1.85-.22,8.21,8.21,0,0,1-6.17-9.68c4.75-21.82-3.44-40.59-3.52-40.78a7.94,7.94,0,0,1,4.05-10.57,8.16,8.16,0,0,1,10.64,4.23c.43,1,10.43,23.88,4.57,50.8A7.88,7.88,0,0,1,536.08,982.9Z"/><path class="cls-12" d="M513.41,861s-6.45,46.64,3.33,62.95,68,5.43,66.38-10.87-11-62-11-62"/><path class="cls-23" d="M680.65,1224.89c24.2-2.2,43.39-7.7,42.86-12.28l-17-146.61-87.64,8,17,146.6C636.4,1225.16,656.45,1227.09,680.65,1224.89Z"/><ellipse class="cls-24" cx="662.85" cy="1069.98" rx="44" ry="8.35" transform="translate(-93.18 63.68) rotate(-5.14)"/><path class="cls-22" d="M662.94,1071.92c12.64-1.15,22.67-4,22.39-6.41L674.72,973l-45.79,4.16,10.62,92.56C639.83,1072.06,650.3,1073.07,662.94,1071.92Z"/><ellipse class="cls-22" cx="651.83" cy="975.03" rx="22.99" ry="4.36" transform="translate(-84.72 62.31) rotate(-5.14)"/><path class="cls-23" d="M660.05,1050.07c24.2-2.2,43.39-7.7,42.85-12.28l-17-146.61-87.64,8,17,146.61C615.8,1050.34,635.85,1052.27,660.05,1050.07Z"/><ellipse class="cls-24" cx="642.25" cy="895.17" rx="44" ry="8.35" transform="matrix(1, -0.09, 0.09, 1, -77.6, 61.13)"/><path class="cls-22" d="M642.53,896.47c12.64-1.15,22.66-4,22.38-6.42L654.3,797.49l-45.78,4.16,10.61,92.56C619.41,896.61,629.88,897.62,642.53,896.47Z"/><ellipse class="cls-22" cx="631.41" cy="799.57" rx="22.99" ry="4.36" transform="translate(-69.08 59.77) rotate(-5.14)"/><path class="cls-23" d="M823.05,1200.88c24.2-2.2,43.39-7.69,42.86-12.28l-17-146.6-87.64,8,17,146.61C778.8,1201.15,798.85,1203.08,823.05,1200.88Z"/><ellipse class="cls-24" cx="805.25" cy="1045.98" rx="44" ry="8.35" transform="translate(-90.46 76.33) rotate(-5.14)"/><path class="cls-22" d="M805.35,1047.92c12.64-1.15,22.66-4,22.38-6.42l-10.61-92.56-45.78,4.16L782,1045.66C782.23,1048.06,792.7,1049.07,805.35,1047.92Z"/><ellipse class="cls-22" cx="794.23" cy="951.02" rx="22.99" ry="4.36" transform="translate(-81.99 74.97) rotate(-5.14)"/><path class="cls-23" d="M802.45,1026.07c24.2-2.2,43.39-7.7,42.86-12.28l-17-146.61-87.64,8,17,146.61C758.2,1026.33,778.25,1028.27,802.45,1026.07Z"/><ellipse class="cls-24" cx="784.65" cy="871.16" rx="44" ry="8.35" transform="translate(-74.88 73.79) rotate(-5.14)"/><path class="cls-22" d="M784.93,872.46c12.64-1.15,22.66-4,22.39-6.41L796.7,773.49l-45.78,4.16,10.61,92.56C761.81,872.6,772.29,873.61,784.93,872.46Z"/><ellipse class="cls-22" cx="773.81" cy="775.57" rx="22.99" ry="4.36" transform="matrix(1, -0.09, 0.09, 1, -66.36, 72.43)"/><ellipse class="cls-12" cx="825.24" cy="514.69" rx="43.67" ry="44.42" transform="translate(-121.29 738.31) rotate(-45.24)"/><polygon class="cls-23" points="850.86 777.3 605.76 821.02 569.47 540.22 814.58 496.5 850.86 777.3"/><path class="cls-22" d="M814.75,733.43,631,766.21a15.85,15.85,0,0,1-18.5-13.59L589,569.73a15.86,15.86,0,0,1,12.94-17.62l183.78-32.77a15.84,15.84,0,0,1,18.5,13.58l23.48,182.89A15.85,15.85,0,0,1,814.75,733.43Z"/><polygon class="cls-24" points="814.58 496.5 569.47 540.22 511.14 534.83 756.25 491.12 814.58 496.5"/><polygon class="cls-25" points="511.14 534.83 547.6 815.83 605.76 821.02 569.47 540.22 511.14 534.83"/><path class="cls-22" d="M659.36,516.91c12.64-1.15,22.67-4,22.39-6.41l-10.61-92.56-45.79,4.16L636,514.66C636.24,517.05,646.72,518.06,659.36,516.91Z"/><ellipse class="cls-22" cx="648.24" cy="420.02" rx="22.99" ry="4.36" transform="translate(-35.02 59.75) rotate(-5.14)"/><path class="cls-23" d="M545.7,864.35c24.2-2.2,43.39-7.7,42.86-12.28L577.16,750l-87.64,8L500.92,860C501.45,864.62,521.5,866.55,545.7,864.35Z"/><ellipse class="cls-24" cx="533.54" cy="753.94" rx="44" ry="8.35" transform="translate(-65.39 50.82) rotate(-5.14)"/><path class="cls-22" d="M533,755.42c8.48-.77,15.2-2.69,15-4.3l-7.12-62.06-30.7,2.79,7.12,62.06C517.48,755.52,524.5,756.2,533,755.42Z"/><ellipse class="cls-22" cx="525.52" cy="690.45" rx="15.41" ry="2.93" transform="translate(-59.73 49.85) rotate(-5.14)"/><path class="cls-23" d="M530.93,732.68c24.2-2.19,43.39-7.69,42.85-12.28l-8-70.92-87.64,8,8,70.92C486.67,733,506.73,734.88,530.93,732.68Z"/><ellipse class="cls-24" cx="522.11" cy="653.47" rx="44" ry="8.35" transform="translate(-56.43 49.39) rotate(-5.14)"/><path class="cls-22" d="M521.55,655c8.48-.77,15.2-2.69,15-4.3l-7.12-62.06-30.7,2.79,7.12,62.06C506.05,655.05,513.08,655.72,521.55,655Z"/><ellipse class="cls-22" cx="514.1" cy="589.98" rx="15.41" ry="2.93" transform="translate(-50.78 48.42) rotate(-5.14)"/><ellipse class="cls-12" cx="511.78" cy="572.18" rx="43.67" ry="44.42" transform="translate(-254.87 532.73) rotate(-45.24)"/><path class="cls-23" d="M654.45,494.53c47.77-6.19,85.65-18.53,84.6-27.55L723.51,330.67l-173,22.44,15.54,136.32C567.11,498.45,606.68,500.73,654.45,494.53Z"/><ellipse class="cls-24" cx="637.4" cy="341.88" rx="87.22" ry="10.53" transform="translate(-38.69 84.86) rotate(-7.39)"/><path class="cls-22" d="M646.71,1225.26s8.57-32.44,47.29-38.22c32-4.78,56.32,15.9,67.28,25.9C766.57,1217.76,708.59,1249,646.71,1225.26Z"/><path class="cls-22" d="M788.8,1200.8s8.56-32.45,47.29-38.23c32-4.78,56.32,15.9,67.28,25.91C908.65,1193.3,850.68,1224.58,788.8,1200.8Z"/><path class="cls-26" d="M596.11,445.54s31.27,22.17,75.22,17c39.89-4.68,50.77-34.1,50.77-34.1"/><ellipse class="cls-12" cx="665.5" cy="414.34" rx="24.1" ry="24.51" transform="translate(-97.3 595.18) rotate(-45.24)"/><ellipse class="cls-12" cx="618.94" cy="398.75" rx="11.18" ry="14.29" transform="translate(-55.71 103.9) rotate(-9.18)"/><ellipse class="cls-12" cx="701.53" cy="385.44" rx="11.18" ry="14.29" transform="translate(-52.52 116.91) rotate(-9.18)"/><polygon class="cls-21" points="328.79 314.13 436.69 1266.16 553.16 1276.56 445.6 324.93 328.79 314.13"/><path class="cls-18" d="M938.69,237.26,445.6,324.93l107.56,951.63,493.09-87.67Zm-487.4,91.9,482.38-85.78,106.89,940L558.18,1269.1Z"/><path class="cls-27" d="M600.85,662.13a88.27,88.27,0,0,1,30.56-22.22c13.33-5.62,41.57-7,56.84-13.31s30.92-28.23,54.4-36.62,44.63-8,66.15-21.31l6.53,50.85s-39.41-.33-60.93,16.88-44.23,34.43-66.54,38.73-60.66,5.22-80.43,38.23Z"/><polygon points="421.89 1024.14 420.85 1014.8 498.5 1022.24 499.54 1031.58 421.89 1024.14"/><polygon points="423.6 1039.55 422.93 1033.48 500.58 1040.92 501.25 1046.99 423.6 1039.55"/><polygon points="425.57 1057.3 424.27 1045.62 501.93 1053.06 503.22 1064.73 425.57 1057.3"/><polygon points="426.71 1067.57 426.06 1061.73 503.71 1069.17 504.36 1075 426.71 1067.57"/><polygon points="428.03 1079.48 427.02 1070.37 504.67 1077.81 505.68 1086.91 428.03 1079.48"/><polygon points="429.51 1092.78 428.86 1086.95 506.51 1094.38 507.16 1100.22 429.51 1092.78"/><polygon points="431.81 1113.56 430.57 1102.36 508.22 1109.79 509.46 1121 431.81 1113.56"/><polygon points="432.98 1124.07 432.36 1118.47 510.01 1125.9 510.63 1131.51 432.98 1124.07"/><polygon points="435.34 1145.32 434.72 1139.71 512.37 1147.15 512.99 1152.75 435.34 1145.32"/><polygon points="437.51 1164.93 435.88 1150.22 513.53 1157.65 515.16 1172.36 437.51 1164.93"/><polygon points="438.73 1175.9 438.11 1170.3 515.76 1177.73 516.38 1183.34 438.73 1175.9"/><polygon class="cls-14" points="1376.69 600.4 1302.19 621.13 1298.45 579.56 1372.95 558.83 1376.69 600.4"/><path class="cls-26" d="M1325.75,721.76c5.37-2.35,12.9,2.39,16.27,6.27,1.18,1.36,3.5,3.74,2.51,5.82-1.28,2.68-6.53,1.3-8.33,2.86-5.12,4.45,6.53,8.51,8.56,9.81,1.24.79,2.82,2.65,2,4.23s-4.22,1.31-5.66,1.57c-.52,2.43,3.7,4.34,4.9,6-2.43.42-3.3,1.33-1.51,3.23"/><path class="cls-26" d="M1311.66,786.05c4.18-.73,8.15-3.57,9.06-8,.42-2.06.07-4.4-2.35-3.43-2.66,1.06-3.5,4.35-3.36,6.88.16,2.86.77,3.21,3.35,3.22,4.23,0,9.14-.11,12.1-3.79,1.28-1.58,4.85-7.52,2.94-9.8-1.08-1.27-3.7-.26-4.52.79s-1.19,2.7-1.75,3.81a4.93,4.93,0,0,0-.65,3"/><path class="cls-26" d="M1307.26,772.69a9,9,0,0,0-2.59.56c-2.26.47-3.21-.11-5-1.43s-4.63-2.8-4.9-5.13c2.45-.63,5.22,0,7.74-.14,1.48-.08,3.34-.39,4-2,.71-1.76-1.18-3.89-2.41-5-3.29-2.89-8.26-2.78-9.54-7.38-1-3.61-1.86-7.16-.89-10.84,2,1.23,4.14,4.28,6.56,4.44,4.33.28,3.11-4.88,2.13-7.23s-3.1-6.13-.75-8.37c3.33-3.2,5.34,1.46,7.2,3.52a20.91,20.91,0,0,0,1.13-5.44c.16-2.67-.65-4.74,2.07-6.22a14.77,14.77,0,0,1,4.67-1.67c2-.24,2.33.35,4-1.17"/><ellipse class="cls-10" cx="1059.36" cy="1271.07" rx="132.24" ry="27.21" transform="translate(-146.34 137.87) rotate(-6.97)"/><path class="cls-11" d="M1112.66,1190.29s38.52,42.28,38,50.06-7.19,22.23-12.2,23.9-26.66,10.57-6.79,15c10.5,2.34,30.69.5,37.36-7.53s7.23-24.63,15-35.79-15-13.79-17.79-17.2-17.09-52.79-17.09-52.79"/><path class="cls-11" d="M1022.38,1286.27c2.67-5.59,2.3-13.15,4.28-23.33s21.68-33.52,28.79-48.31,8.81-32.53,8.81-32.53l-36.62-5.59s-19.06,76.9-23,77.88S970.52,1244,958.05,1247"/><path class="cls-24" d="M1039.89,1047.31s-6.39,57.19-9.83,68.08-18.76,51.76-11.69,59.2,12.33,12.88,27.27,14.7,26.91,1,32.33-1.25,10-15.72,11.19-41.3,1.17-64.7,1.17-64.7"/><path class="cls-24" d="M1065,1093.66s10.19,24.17,12,36.44,6.23,59.5,16.66,63.41,16.18,12.13,31.64,6.83,28.77-17.21,33-22,2.36-20.13-8.67-45.68-29.56-63.79-29.56-63.79"/><path class="cls-14" d="M1064.08,927.74s-42.55,9.87-69.76-1.21c-13.07-5.32-1.73-58.56-1.73-58.56s-10.68,4.58-24.89-1.94c-12.64,37.24-10.19,70,2.06,79.84s43.37,21,69.51,21"/><path class="cls-14" d="M1015.16,1155.83a76.84,76.84,0,0,0,15.14,7.25c23.13-53.53,31.31-95.4,31.31-95.4s-1.79,73,16.54,116.26c17.83,1.65,59.57-15.45,85.87-24,0-19.57-24.53-80.75-20-122.65,5.58-51.65.68-55.73.68-67.31,0-35-33.06-44.81-62.94-44.81s-50.92,9.44-50.92,46.06v101.89C1030.83,1102.51,1015.16,1155.83,1015.16,1155.83Z"/><path class="cls-14" d="M1061.61,1068.91V960.4c0-27.33,19.87-30.38,19.87-30.38"/><path class="cls-14" d="M1094.57,925.71a86.74,86.74,0,0,0-22.46,0h-10v10.78c0,2.66,9.5,4.81,21.22,4.81s21.21-2.15,21.21-4.81V925.71Z"/><ellipse class="cls-14" cx="1083.34" cy="925.35" rx="21.21" ry="4.81"/><path class="cls-11" d="M1091.37,865.19a68.92,68.92,0,0,0-16.07,0h-7.14v58.33c0,1.72,6.8,3.11,15.18,3.11s15.17-1.39,15.17-3.11V865.19Z"/><ellipse class="cls-11" cx="1083.34" cy="864.95" rx="15.17" ry="3.11"/><circle class="cls-11" cx="1083.34" cy="883.89" r="35.85"/><path class="cls-18" d="M1105.11,885.83l20.37,24.09-31.74-6.65S1087.76,885.83,1105.11,885.83Z"/><path class="cls-11" d="M991.23,868.44s1.61-25.22-.8-27.63-5.93-4.26-7.41-4.26H979.5a4.79,4.79,0,0,0-3.24-1.29,7.36,7.36,0,0,1-2.41,0s-12.66-12.4-14.53-14.43-4.65,3.33-1.13,6.48,7.6,10.56,9.08,13.15,1.48,9.82,1.48,9.82a102.15,102.15,0,0,0-4.82-9.82c-3.33-6.11-6.82-4.81-4.61,1.11s-.38,17.4,11.47,25.74C980.79,872.55,991.23,868.44,991.23,868.44Z"/><path class="cls-13" d="M1106.3,875.44a5.89,5.89,0,0,1,.44,2.27c0,.82-.49,1.71-1.06,1.78s-.84-.42-1-1a6.74,6.74,0,0,1-.14-1.87,8.47,8.47,0,0,1,.22-1.58c.2-.89,1.18-.73,1.54.4"/><path class="cls-13" d="M1088.64,879.74a3.5,3.5,0,0,1,0,3.38,1.19,1.19,0,0,1-.46.51c-.74.39-1.45-.62-1.6-1.44a8.68,8.68,0,0,1-.09-2.69,1.39,1.39,0,0,1,.45-1,1,1,0,0,1,1.42.51,3,3,0,0,1,.12,1.69"/><path class="cls-11" d="M1011.59,1037.3c-31.81-4-40.63-19.53-41.11-21.57a3.86,3.86,0,0,1,.53-3.25,6.53,6.53,0,0,1-1.28-3.86,3.17,3.17,0,0,1,2.19-2.91s-1.15-3.49,0-4.71a2.4,2.4,0,0,1,3.75-.18s1.16-6.28,6.9,0,20.84,9.76,20.84,9.76-.24-2.75-5-5.5-.6-6.59,7.9-2.4,12,13.05,12,13.05Z"/><path class="cls-26" d="M975.67,1000.82s3.07,7.79,16.48,12.07"/><path class="cls-26" d="M971.92,1005.71a28.16,28.16,0,0,0,15.32,11"/><path class="cls-26" d="M971,1012.48s5.34,6.25,11.8,8.88"/><path class="cls-14" d="M1130.19,938.32s33.83,22.76,14.5,69.65c-26.17,63.45-133,37-133,37s-8.86-20.88,6.7-32.4c45.68,6.63,62,3.79,77.54-2.82,15.92-6.75,23.25-22.93,18.43-38"/><path class="cls-11" d="M984.42,1258.34c8.63,8.62,13,13.78,19.22,15.28,11,2.62,26.18,11.3,15.31,14.26-14.14,3.85-44.73-16.66-58.93-28.56C943.26,1245.27,965.6,1239.52,984.42,1258.34Z"/><path class="cls-14" d="M1101.77,1100.85s25.75-1.48,36.13-6.67"/><polygon class="cls-7" points="1647.18 1264.02 1866.29 1227.39 1866.29 1033.33 1811.5 1042.66 1811.5 1090.97 1756.81 1100.17 1756.81 1148.49 1701.91 1157.81 1701.91 1206.13 1647.18 1215.7 1647.18 1264.02"/><ellipse class="cls-10" cx="1691.99" cy="793.81" rx="8.81" ry="15.35"/><ellipse class="cls-28" cx="1696.3" cy="791.85" rx="8.81" ry="15.35"/><path class="cls-26" d="M1094.37,1010.76c3.82.1,7.92,4.37,9.24,7.78"/><path class="cls-26" d="M1121.37,1035.72a4,4,0,0,0,.83-.82,25.92,25.92,0,0,0,4.52-7.42,19.16,19.16,0,0,0,.54-8.23c1.54.15,2.72,2.2,2.91,3.64,2.41-2,4.54-5.66,4.56-8.9"/><path class="cls-26" d="M988.84,917a26.61,26.61,0,0,0,5.08,15.14"/><ellipse class="cls-10" cx="1262.51" cy="1292.04" rx="120.67" ry="27.21" transform="translate(-147.38 162.66) rotate(-6.97)"/><path class="cls-29" d="M1244.53,1120.71s10.18,49.86,20.51,66.82,64.28-5.83,64.28-5.83l-5.78-54.39"/><path class="cls-30" d="M1283.09,1173.58l62.44,93.77s7.59,2.36,12.85-1.2a13.81,13.81,0,0,0,5.62-8.78l-52.37-113.58S1294.13,1147.92,1283.09,1173.58Z"/><path class="cls-10" d="M1339.94,1226.21c-3.69,13.24-61.54,1.54-67.92-30.73C1292.71,1158.21,1353.24,1178.5,1339.94,1226.21Z"/><path class="cls-30" d="M1282.3,1184.32l-24.51,110,20,6.43,45.77-116.39S1308.46,1174.54,1282.3,1184.32Z"/><path class="cls-29" d="M1288.78,1129.64,1272,1195.48s6.27-8.43,30.44-6.24,37.21,23.18,37.48,37c6.57-23.36,23-78.62,22.42-102.22"/><path class="cls-31" d="M1318.41,970c-23.79-3.16-45.46-3.25-64.5,12-33,26.36-41.82,83.34-19.37,106.64,7,7.31,7.65,8.08,7.65,8.08l-.88,30.25s37.85,16,74,14.21,51.66-13.51,51.66-13.51v-31s16.73-12.31,15.85-41.32S1369.11,976.75,1318.41,970Z"/><path class="cls-31" d="M1294.34,959.79c-12.2,3-4.5,9.19-13.31,14.28s-1.56,11.16,10.38,13.11,35-.85,41-5.22a17.12,17.12,0,0,1,11.91-3.4s9.43,5,15.36,12.43c0,0,.45-15.16-7.77-24.75S1320.56,953.33,1294.34,959.79Z"/><path class="cls-30" d="M1274.24,912.68s1,11.2-9,15.52-5.6,19.22,9,29,12.6,20.13,12.6,20.13,19,10.3,38.92,0c0-9.3,18.9-19.36,17.24-46.86s-66.79-24.65-66.79-24.65"/><path class="cls-30" d="M1296.1,898.05s-6.91-13.26-23.43-22.76c-3.57,14.92,1.53,35.6,1.53,35.6S1283.76,900.81,1296.1,898.05Z"/><path class="cls-13" d="M1273.77,917.76s12.12,2.63,68.76,2.33v3.72s-10.15.64-31,5.74c-19.44,4.76-24.19-3.48-27.74-5.74s-9.59,6.54-15.22,2.72"/><path class="cls-32" d="M1274.24,912.68s37.62-5,50.14,10.66c8.51,10.63,13.58,8,18.74,9.42,3.33-16.28-1.42-19.83-2.41-28.82S1328.08,874.19,1312,873c-23.52-1.7-33.06,9.6-34.89,23.36C1276.15,903.85,1268.26,901.09,1274.24,912.68Z"/><circle class="cls-32" cx="1261.86" cy="931.35" r="4.65"/><path class="cls-26" d="M1265.85,949.82s21.36,8.87,39.38-.85"/><path class="cls-30" d="M1320,900.22s6.92-13.27,23.43-22.76c3.57,14.92-1.53,35.6-1.53,35.6S1332.38,903,1320,900.22Z"/><path class="cls-31" d="M1316.45,1059.81l23.49,64.18a180.18,180.18,0,0,1-51.27,2.53c-27.79-2.74-39.93-10.56-39.93-10.56l17.11-60.32S1287.1,1062,1316.45,1059.81Z"/><path class="cls-31" d="M1366.93,1096.68a60.51,60.51,0,0,1-32.31,12.78"/><path class="cls-31" d="M1320.9,1071.94s22.17,1.16,25.11-18-4.18-47.06-4.18-47.06"/><line class="cls-31" x1="1242.19" y1="1096.68" x2="1251.96" y2="1104.6"/><path class="cls-31" d="M1262.26,1068.32s-14.5-11.66-17.73-17.73c0-22.31,10.67-55.19,10.67-55.19"/><path class="cls-14" d="M1216.71,1269.16c9.41-5.77,18.92-5.16,31.32,4s9.44,6.25,8.44,1.43,3.12-8,16-2.33.78,9.29-2.63,11.61,5.94,18.44,9.69,12.35,5.25,11.62-4.72,21"/><path class="cls-22" d="M1224.52,1267.43c-13.93-1.33-8.47,13.75,6.35,22.56s15.94,8.92,20,13.66,6.45,12.19,14.09,14.59c13.11,4.12,12.75-5.63,4.72-14.1C1253.13,1286.66,1241.23,1269,1224.52,1267.43Z"/><path class="cls-14" d="M1336.06,1253.11c-8.62-.22-10.68.6-10.23,2.71s6.32,9.62,6.32,9.62,2.35,4.36-1.23,9.93-17.27,7.22-18.92,13.08,4.36,8.72,18.19,7.82,17.2-4.39,21.9-10.88c6.7-9.27,6.28-13.4,15-20s-8.53-19.8-8.53-19.8,4.72,9.89-2.2,15.3-12.63,9.47-10.23,4.51S1353.35,1253.56,1336.06,1253.11Z"/></svg>